<svg xmlns="http://www.w3.org/2000/svg" xmlns:xlink="http://www.w3.org/1999/xlink" width="540" height="190.26"><rect width="540" height="190.26" rx="5" ry="5" class="a"/><svg y="0%" x="0%"><circle cx="20" cy="20" r="6" fill="#ff5f58"/><circle cx="40" cy="20" r="6" fill="#ffbd2e"/><circle cx="60" cy="20" r="6" fill="#18c132"/></svg><svg height="130.26" viewBox="0 0 50 13.026" width="500" x="15" xmlns="http://www.w3.org/2000/svg" xmlns:xlink="http://www.w3.org/1999/xlink" y="50"><style>@keyframes i{0%{transform:translateX(0)}.2%{transform:translateX(-50px)}15.5%{transform:translateX(-100px)}17.9%{transform:translateX(-150px)}21.1%{transform:translateX(-200px)}23.6%{transform:translateX(-250px)}27.8%{transform:translateX(-300px)}28%{transform:translateX(-350px)}33.5%{transform:translateX(-400px)}50.9%{transform:translateX(-450px)}53.2%{transform:translateX(-500px)}56.6%{transform:translateX(-550px)}57.7%{transform:translateX(-600px)}60%{transform:translateX(-650px)}62.6%{transform:translateX(-700px)}68.3%{transform:translateX(-800px)}68.4%{transform:translateX(-850px)}to{transform:translateX(-900px)}}.a{fill:#000}.f{fill:#28fe14;white-space:pre}</style><g font-family="Monaco,Consolas,Menlo,'Bitstream Vera Sans Mono','Powerline Symbols',monospace" font-size="1.67"><defs><symbol id="1"><text y="1.67" class="f">hello_world2</text><text x="13.026" y="1.67" class="f">$</text></symbol><symbol id="2"><text y="1.67" class="f">hello_world2</text><text x="13.026" y="1.67" class="f">$make</text></symbol><symbol id="3"><text y="1.67" class="f">g++</text><text x="4.008" y="1.67" class="f">-o</text><text x="7.014" y="1.67" class="f">main</text><text x="12.024" y="1.67" class="f">main.cpp</text></symbol><symbol id="4"><text y="1.67" class="f">hello_world2</text><text x="13.026" y="1.67" class="f">$./main</text></symbol><symbol id="5"><text y="1.67" class="f">Hello,</text><text x="7.014" y="1.67" class="f">world!</text></symbol><symbol id="a"><path fill="transparent" d="M0 0h50v7H0z"/></symbol><symbol id="b"><path fill="#38fe27" d="M0 0h1.102v2.171H0z"/></symbol></defs><path class="a" d="M0 0h50v13.026H0z"/><g style="animation-duration:9.113859s;animation-iteration-count:infinite;animation-name:i;animation-timing-function:steps(1,end)"><svg width="950"><svg><use xlink:href="#a"/><use xlink:href="#b" x="-.004"/></svg><svg x="50"><use xlink:href="#a"/><use xlink:href="#b" x="13.996"/><use xlink:href="#1"/></svg><svg x="100"><use xlink:href="#a"/><use xlink:href="#b" x="14.996"/><text y="1.67" class="f">hello_world2</text><text x="13.026" y="1.67" class="f">$m</text></svg><svg x="150"><use xlink:href="#a"/><use xlink:href="#b" x="15.996"/><text y="1.67" class="f">hello_world2</text><text x="13.026" y="1.67" class="f">$ma</text></svg><svg x="200"><use xlink:href="#a"/><use xlink:href="#b" x="16.996"/><text y="1.67" class="f">hello_world2</text><text x="13.026" y="1.67" class="f">$mak</text></svg><svg x="250"><use xlink:href="#a"/><use xlink:href="#b" x="17.996"/><use xlink:href="#2"/></svg><svg x="300"><use xlink:href="#a"/><use xlink:href="#b" x="-.004" y="2.146"/><use xlink:href="#2"/></svg><svg x="350"><use xlink:href="#a"/><use xlink:href="#b" x="-.004" y="4.317"/><use xlink:href="#2"/><use xlink:href="#3" y="2.171"/></svg><svg x="400"><use xlink:href="#a"/><use xlink:href="#b" x="13.996" y="4.317"/><use xlink:href="#2"/><use xlink:href="#3" y="2.171"/><use xlink:href="#1" y="4.342"/></svg><svg x="450"><use xlink:href="#a"/><use xlink:href="#b" x="14.996" y="4.317"/><use xlink:href="#2"/><use xlink:href="#3" y="2.171"/><text y="6.012" class="f">hello_world2</text><text x="13.026" y="6.012" class="f">$.</text></svg><svg x="500"><use xlink:href="#a"/><use xlink:href="#b" x="15.996" y="4.317"/><use xlink:href="#2"/><use xlink:href="#3" y="2.171"/><text y="6.012" class="f">hello_world2</text><text x="13.026" y="6.012" class="f">$./</text></svg><svg x="550"><use xlink:href="#a"/><use xlink:href="#b" x="16.996" y="4.317"/><use xlink:href="#2"/><use xlink:href="#3" y="2.171"/><text y="6.012" class="f">hello_world2</text><text x="13.026" y="6.012" class="f">$./m</text></svg><svg x="600"><use xlink:href="#a"/><use xlink:href="#b" x="17.996" y="4.317"/><use xlink:href="#2"/><use xlink:href="#3" y="2.171"/><text y="6.012" class="f">hello_world2</text><text x="13.026" y="6.012" class="f">$./ma</text></svg><svg x="650"><use xlink:href="#a"/><use xlink:href="#b" x="18.996" y="4.317"/><use xlink:href="#2"/><use xlink:href="#3" y="2.171"/><text y="6.012" class="f">hello_world2</text><text x="13.026" y="6.012" class="f">$./mai</text></svg><svg x="700"><use xlink:href="#a"/><use xlink:href="#b" x="19.996" y="4.317"/><use xlink:href="#2"/><use xlink:href="#3" y="2.171"/><use xlink:href="#4" y="4.342"/></svg><svg x="750"><use xlink:href="#a"/><use xlink:href="#b" x="-.004" y="6.488"/><use xlink:href="#2"/><use xlink:href="#3" y="2.171"/><use xlink:href="#4" y="4.342"/></svg><svg x="800"><use xlink:href="#a"/><use xlink:href="#b" x="-.004" y="8.659"/><use xlink:href="#2"/><use xlink:href="#3" y="2.171"/><use xlink:href="#4" y="4.342"/><use xlink:href="#5" y="6.513"/></svg><svg x="850"><use xlink:href="#a"/><use xlink:href="#b" x="13.996" y="8.659"/><use xlink:href="#2"/><use xlink:href="#3" y="2.171"/><use xlink:href="#4" y="4.342"/><use xlink:href="#5" y="6.513"/><use xlink:href="#1" y="8.684"/></svg><svg x="900"><use xlink:href="#a"/><use xlink:href="#b" x="-.004" y="10.83"/><use xlink:href="#2"/><use xlink:href="#3" y="2.171"/><use xlink:href="#4" y="4.342"/><use xlink:href="#5" y="6.513"/><text y="10.354" class="f">hello_world2</text><text x="13.026" y="10.354" class="f">$exit</text></svg></svg></g></g></svg></svg>