<svg xmlns="http://www.w3.org/2000/svg" xmlns:xlink="http://www.w3.org/1999/xlink" width="540" height="342.23"><rect width="540" height="342.23" rx="5" ry="5" class="a"/><svg y="0%" x="0%"><circle cx="20" cy="20" r="6" fill="#ff5f58"/><circle cx="40" cy="20" r="6" fill="#ffbd2e"/><circle cx="60" cy="20" r="6" fill="#18c132"/></svg><svg height="282.23" viewBox="0 0 50 28.223" width="500" x="15" xmlns="http://www.w3.org/2000/svg" xmlns:xlink="http://www.w3.org/1999/xlink" y="50"><style>@keyframes i{0%{transform:translateX(0)}.1%{transform:translateX(-50px)}11.5%{transform:translateX(-100px)}12.6%{transform:translateX(-150px)}15.2%{transform:translateX(-200px)}18.1%{transform:translateX(-250px)}22.5%{transform:translateX(-300px)}22.6%{transform:translateX(-350px)}26.8%{transform:translateX(-400px)}38.8%{transform:translateX(-450px)}40.7%{transform:translateX(-500px)}44.5%{transform:translateX(-550px)}46.2%{transform:translateX(-600px)}48.6%{transform:translateX(-650px)}50.3%{transform:translateX(-700px)}58%{transform:translateX(-850px)}to{transform:translateX(-900px)}}.a{fill:#000}.f{fill:#28fe14;white-space:pre}</style><g font-family="Monaco,Consolas,Menlo,'Bitstream Vera Sans Mono','Powerline Symbols',monospace" font-size="1.67"><defs><symbol id="1"><text y="1.67" class="f">hello_world3</text><text x="13.026" y="1.67" class="f">$</text></symbol><symbol id="2"><text y="1.67" class="f">hello_world3</text><text x="13.026" y="1.67" class="f">$make</text></symbol><symbol id="3"><text y="1.67" class="f">g++</text><text x="4.008" y="1.67" class="f">-o</text><text x="7.014" y="1.67" class="f">main</text><text x="12.024" y="1.67" class="f">main.cpp</text></symbol><symbol id="4"><text y="1.67" class="f">hello_world3</text><text x="13.026" y="1.67" class="f">$./main</text></symbol><symbol id="5"><text y="1.67" class="f">//</text><text x="3.006" y="1.67" class="f">a</text><text x="5.01" y="1.67" class="f">small</text><text x="11.022" y="1.67" class="f">C++</text><text x="15.03" y="1.67" class="f">program</text></symbol><symbol id="6"><text y="1.67" class="f">#include</text><text x="9.018" y="1.67" class="f">&lt;iostream&gt;</text></symbol><symbol id="7"><text y="1.67" class="f">int</text><text x="4.008" y="1.67" class="f">main()</text></symbol><symbol id="8"><text y="1.67" class="f">{</text></symbol><symbol id="9"><text x="8.016" y="1.67" class="f">std::cout</text><text x="18.036" y="1.67" class="f">&lt;&lt;</text><text x="21.042" y="1.67" class="f">&quot;Hello,</text><text x="29.058" y="1.67" class="f">world!&quot;</text><text x="37.074" y="1.67" class="f">&lt;&lt;</text><text x="40.08" y="1.67" class="f">std::endl;</text></symbol><symbol id="10"><text x="8.016" y="1.67" class="f">return</text><text x="15.03" y="1.67" class="f">0;</text></symbol><symbol id="11"><text y="1.67" class="f">}</text></symbol><symbol id="a"><path fill="transparent" d="M0 0h50v14H0z"/></symbol><symbol id="b"><path fill="#38fe27" d="M0 0h1.102v2.171H0z"/></symbol></defs><path class="a" d="M0 0h50v28.223H0z"/><g style="animation-duration:11.912453s;animation-iteration-count:infinite;animation-name:i;animation-timing-function:steps(1,end)"><svg width="950"><svg><use xlink:href="#a"/><use xlink:href="#b" x="-.004"/></svg><svg x="50"><use xlink:href="#a"/><use xlink:href="#b" x="13.996"/><use xlink:href="#1"/></svg><svg x="100"><use xlink:href="#a"/><use xlink:href="#b" x="14.996"/><text y="1.67" class="f">hello_world3</text><text x="13.026" y="1.67" class="f">$m</text></svg><svg x="150"><use xlink:href="#a"/><use xlink:href="#b" x="15.996"/><text y="1.67" class="f">hello_world3</text><text x="13.026" y="1.67" class="f">$ma</text></svg><svg x="200"><use xlink:href="#a"/><use xlink:href="#b" x="16.996"/><text y="1.67" class="f">hello_world3</text><text x="13.026" y="1.67" class="f">$mak</text></svg><svg x="250"><use xlink:href="#a"/><use xlink:href="#b" x="17.996"/><use xlink:href="#2"/></svg><svg x="300"><use xlink:href="#a"/><use xlink:href="#b" x="-.004" y="2.146"/><use xlink:href="#2"/></svg><svg x="350"><use xlink:href="#a"/><use xlink:href="#b" x="-.004" y="4.317"/><use xlink:href="#2"/><use xlink:href="#3" y="2.171"/></svg><svg x="400"><use xlink:href="#a"/><use xlink:href="#b" x="13.996" y="4.317"/><use xlink:href="#2"/><use xlink:href="#3" y="2.171"/><use xlink:href="#1" y="4.342"/></svg><svg x="450"><use xlink:href="#a"/><use xlink:href="#b" x="14.996" y="4.317"/><use xlink:href="#2"/><use xlink:href="#3" y="2.171"/><text y="6.012" class="f">hello_world3</text><text x="13.026" y="6.012" class="f">$.</text></svg><svg x="500"><use xlink:href="#a"/><use xlink:href="#b" x="15.996" y="4.317"/><use xlink:href="#2"/><use xlink:href="#3" y="2.171"/><text y="6.012" class="f">hello_world3</text><text x="13.026" y="6.012" class="f">$./</text></svg><svg x="550"><use xlink:href="#a"/><use xlink:href="#b" x="16.996" y="4.317"/><use xlink:href="#2"/><use xlink:href="#3" y="2.171"/><text y="6.012" class="f">hello_world3</text><text x="13.026" y="6.012" class="f">$./m</text></svg><svg x="600"><use xlink:href="#a"/><use xlink:href="#b" x="17.996" y="4.317"/><use xlink:href="#2"/><use xlink:href="#3" y="2.171"/><text y="6.012" class="f">hello_world3</text><text x="13.026" y="6.012" class="f">$./ma</text></svg><svg x="650"><use xlink:href="#a"/><use xlink:href="#b" x="18.996" y="4.317"/><use xlink:href="#2"/><use xlink:href="#3" y="2.171"/><text y="6.012" class="f">hello_world3</text><text x="13.026" y="6.012" class="f">$./mai</text></svg><svg x="700"><use xlink:href="#a"/><use xlink:href="#b" x="19.996" y="4.317"/><use xlink:href="#2"/><use xlink:href="#3" y="2.171"/><use xlink:href="#4" y="4.342"/></svg><svg x="750"><use xlink:href="#a"/><use xlink:href="#b" x="-.004" y="6.488"/><use xlink:href="#2"/><use xlink:href="#3" y="2.171"/><use xlink:href="#4" y="4.342"/></svg><svg x="800"><use xlink:href="#a"/><use xlink:href="#b" x="-.004" y="23.856"/><use xlink:href="#2"/><use xlink:href="#3" y="2.171"/><use xlink:href="#4" y="4.342"/><use xlink:href="#5" y="6.513"/><use xlink:href="#6" y="8.684"/><use xlink:href="#7" y="13.026"/><use xlink:href="#8" y="15.197"/><use xlink:href="#9" y="17.368"/><use xlink:href="#10" y="19.539"/><use xlink:href="#11" y="21.71"/></svg><svg x="850"><use xlink:href="#a"/><use xlink:href="#b" x="13.996" y="23.856"/><use xlink:href="#2"/><use xlink:href="#3" y="2.171"/><use xlink:href="#4" y="4.342"/><use xlink:href="#5" y="6.513"/><use xlink:href="#6" y="8.684"/><use xlink:href="#7" y="13.026"/><use xlink:href="#8" y="15.197"/><use xlink:href="#9" y="17.368"/><use xlink:href="#10" y="19.539"/><use xlink:href="#11" y="21.71"/><use xlink:href="#1" y="23.881"/></svg><svg x="900"><use xlink:href="#a"/><use xlink:href="#b" x="-.004" y="26.027"/><use xlink:href="#2"/><use xlink:href="#3" y="2.171"/><use xlink:href="#4" y="4.342"/><use xlink:href="#5" y="6.513"/><use xlink:href="#6" y="8.684"/><use xlink:href="#7" y="13.026"/><use xlink:href="#8" y="15.197"/><use xlink:href="#9" y="17.368"/><use xlink:href="#10" y="19.539"/><use xlink:href="#11" y="21.71"/><text y="25.551" class="f">hello_world3</text><text x="13.026" y="25.551" class="f">$exit</text></svg></svg></g></g></svg></svg>