<svg xmlns="http://www.w3.org/2000/svg" xmlns:xlink="http://www.w3.org/1999/xlink" width="540" height="233.68"><rect width="540" height="233.68" rx="5" ry="5" class="a"/><svg y="0%" x="0%"><circle cx="20" cy="20" r="6" fill="#ff5f58"/><circle cx="40" cy="20" r="6" fill="#ffbd2e"/><circle cx="60" cy="20" r="6" fill="#18c132"/></svg><svg height="173.68" viewBox="0 0 50 17.368" width="500" x="15" xmlns="http://www.w3.org/2000/svg" xmlns:xlink="http://www.w3.org/1999/xlink" y="50"><style>@keyframes i{0%{transform:translateX(0)}.1%{transform:translateX(-50px)}13.5%{transform:translateX(-100px)}14.4%{transform:translateX(-150px)}16.6%{transform:translateX(-200px)}17.6%{transform:translateX(-250px)}19.4%{transform:translateX(-300px)}19.5%{transform:translateX(-350px)}23.2%{transform:translateX(-400px)}43.6%{transform:translateX(-450px)}44.9%{transform:translateX(-500px)}47.4%{transform:translateX(-550px)}48.5%{transform:translateX(-600px)}53.4%{transform:translateX(-650px)}54.1%{transform:translateX(-700px)}56.8%{transform:translateX(-750px)}56.9%{transform:translateX(-850px)}to{transform:translateX(-900px)}}.a{fill:#000}.f{fill:#28fe14;white-space:pre}</style><g font-family="Monaco,Consolas,Menlo,'Bitstream Vera Sans Mono','Powerline Symbols',monospace" font-size="1.67"><defs><symbol id="1"><text y="1.67" class="f">hello_world1</text><text x="13.026" y="1.67" class="f">$</text></symbol><symbol id="2"><text y="1.67" class="f">hello_world1</text><text x="13.026" y="1.67" class="f">$make</text></symbol><symbol id="3"><text y="1.67" class="f">g++</text><text x="4.008" y="1.67" class="f">-o</text><text x="7.014" y="1.67" class="f">main</text><text x="12.024" y="1.67" class="f">main.cpp</text></symbol><symbol id="4"><text y="1.67" class="f">hello_world1</text><text x="13.026" y="1.67" class="f">$./main</text></symbol><symbol id="5"><text y="1.67" class="f">Hello,</text><text x="7.014" y="1.67" class="f">world!</text></symbol><symbol id="6"><text y="1.67" class="f">This</text><text x="5.01" y="1.67" class="f">&quot;</text><text x="7.014" y="1.67" class="f">is</text><text x="10.02" y="1.67" class="f">a</text><text x="12.024" y="1.67" class="f">quoute,</text><text x="20.04" y="1.67" class="f">and</text><text x="24.048" y="1.67" class="f">this</text><text x="29.058" y="1.67" class="f">\</text><text x="31.062" y="1.67" class="f">is</text><text x="34.068" y="1.67" class="f">a</text><text x="36.072" y="1.67" class="f">backslash.</text></symbol><symbol id="7"><text y="1.67" class="f">This</text><text x="5.01" y="1.67" class="f">large</text><text x="11.022" y="1.67" class="f">space</text><text x="17.034" y="1.67" class="f">(</text><text x="24.048" y="1.67" class="f">)</text><text x="26.052" y="1.67" class="f">is</text><text x="29.058" y="1.67" class="f">from</text><text x="34.068" y="1.67" class="f">a</text><text x="36.072" y="1.67" class="f">tab</text><text x="40.08" y="1.67" class="f">character</text></symbol><symbol id="a"><path fill="transparent" d="M0 0h50v9H0z"/></symbol><symbol id="b"><path fill="#38fe27" d="M0 0h1.102v2.171H0z"/></symbol></defs><path class="a" d="M0 0h50v17.368H0z"/><g style="animation-duration:11.606238000000001s;animation-iteration-count:infinite;animation-name:i;animation-timing-function:steps(1,end)"><svg width="950"><svg><use xlink:href="#a"/><use xlink:href="#b" x="-.004"/></svg><svg x="50"><use xlink:href="#a"/><use xlink:href="#b" x="13.996"/><use xlink:href="#1"/></svg><svg x="100"><use xlink:href="#a"/><use xlink:href="#b" x="14.996"/><text y="1.67" class="f">hello_world1</text><text x="13.026" y="1.67" class="f">$m</text></svg><svg x="150"><use xlink:href="#a"/><use xlink:href="#b" x="15.996"/><text y="1.67" class="f">hello_world1</text><text x="13.026" y="1.67" class="f">$ma</text></svg><svg x="200"><use xlink:href="#a"/><use xlink:href="#b" x="16.996"/><text y="1.67" class="f">hello_world1</text><text x="13.026" y="1.67" class="f">$mak</text></svg><svg x="250"><use xlink:href="#a"/><use xlink:href="#b" x="17.996"/><use xlink:href="#2"/></svg><svg x="300"><use xlink:href="#a"/><use xlink:href="#b" x="-.004" y="2.146"/><use xlink:href="#2"/></svg><svg x="350"><use xlink:href="#a"/><use xlink:href="#b" x="-.004" y="4.317"/><use xlink:href="#2"/><use xlink:href="#3" y="2.171"/></svg><svg x="400"><use xlink:href="#a"/><use xlink:href="#b" x="13.996" y="4.317"/><use xlink:href="#2"/><use xlink:href="#3" y="2.171"/><use xlink:href="#1" y="4.342"/></svg><svg x="450"><use xlink:href="#a"/><use xlink:href="#b" x="14.996" y="4.317"/><use xlink:href="#2"/><use xlink:href="#3" y="2.171"/><text y="6.012" class="f">hello_world1</text><text x="13.026" y="6.012" class="f">$.</text></svg><svg x="500"><use xlink:href="#a"/><use xlink:href="#b" x="15.996" y="4.317"/><use xlink:href="#2"/><use xlink:href="#3" y="2.171"/><text y="6.012" class="f">hello_world1</text><text x="13.026" y="6.012" class="f">$./</text></svg><svg x="550"><use xlink:href="#a"/><use xlink:href="#b" x="16.996" y="4.317"/><use xlink:href="#2"/><use xlink:href="#3" y="2.171"/><text y="6.012" class="f">hello_world1</text><text x="13.026" y="6.012" class="f">$./m</text></svg><svg x="600"><use xlink:href="#a"/><use xlink:href="#b" x="17.996" y="4.317"/><use xlink:href="#2"/><use xlink:href="#3" y="2.171"/><text y="6.012" class="f">hello_world1</text><text x="13.026" y="6.012" class="f">$./ma</text></svg><svg x="650"><use xlink:href="#a"/><use xlink:href="#b" x="18.996" y="4.317"/><use xlink:href="#2"/><use xlink:href="#3" y="2.171"/><text y="6.012" class="f">hello_world1</text><text x="13.026" y="6.012" class="f">$./mai</text></svg><svg x="700"><use xlink:href="#a"/><use xlink:href="#b" x="19.996" y="4.317"/><use xlink:href="#2"/><use xlink:href="#3" y="2.171"/><use xlink:href="#4" y="4.342"/></svg><svg x="750"><use xlink:href="#a"/><use xlink:href="#b" x="-.004" y="6.488"/><use xlink:href="#2"/><use xlink:href="#3" y="2.171"/><use xlink:href="#4" y="4.342"/></svg><svg x="800"><use xlink:href="#a"/><use xlink:href="#b" x="-.004" y="13.001"/><use xlink:href="#2"/><use xlink:href="#3" y="2.171"/><use xlink:href="#4" y="4.342"/><use xlink:href="#5" y="6.513"/><use xlink:href="#6" y="8.684"/><use xlink:href="#7" y="10.855"/></svg><svg x="850"><use xlink:href="#a"/><use xlink:href="#b" x="13.996" y="13.001"/><use xlink:href="#2"/><use xlink:href="#3" y="2.171"/><use xlink:href="#4" y="4.342"/><use xlink:href="#5" y="6.513"/><use xlink:href="#6" y="8.684"/><use xlink:href="#7" y="10.855"/><use xlink:href="#1" y="13.026"/></svg><svg x="900"><use xlink:href="#a"/><use xlink:href="#b" x="-.004" y="15.172"/><use xlink:href="#2"/><use xlink:href="#3" y="2.171"/><use xlink:href="#4" y="4.342"/><use xlink:href="#5" y="6.513"/><use xlink:href="#6" y="8.684"/><use xlink:href="#7" y="10.855"/><text y="14.696" class="f">hello_world1</text><text x="13.026" y="14.696" class="f">$exit</text></svg></svg></g></g></svg></svg>