<svg xmlns="http://www.w3.org/2000/svg" xmlns:xlink="http://www.w3.org/1999/xlink" width="590" height="233.68"><rect width="590" height="233.68" rx="5" ry="5" class="a"/><svg y="0%" x="0%"><circle cx="20" cy="20" r="6" fill="#ff5f58"/><circle cx="40" cy="20" r="6" fill="#ffbd2e"/><circle cx="60" cy="20" r="6" fill="#18c132"/></svg><svg height="173.68" viewBox="0 0 55 17.368" width="550" x="15" xmlns="http://www.w3.org/2000/svg" xmlns:xlink="http://www.w3.org/1999/xlink" y="50"><style>@keyframes i{0%{transform:translateX(0)}.1%{transform:translateX(-55px)}13.6%{transform:translateX(-110px)}15.5%{transform:translateX(-165px)}18.2%{transform:translateX(-220px)}21.1%{transform:translateX(-275px)}31.7%{transform:translateX(-330px)}31.8%{transform:translateX(-385px)}34.5%{transform:translateX(-440px)}47.6%{transform:translateX(-495px)}49.7%{transform:translateX(-550px)}52.6%{transform:translateX(-605px)}55.3%{transform:translateX(-660px)}58.3%{transform:translateX(-715px)}60.6%{transform:translateX(-770px)}68.2%{transform:translateX(-935px)}to{transform:translateX(-990px)}}.a{fill:#000}.f{fill:#28fe14;white-space:pre}</style><g font-family="Monaco,Consolas,Menlo,'Bitstream Vera Sans Mono','Powerline Symbols',monospace" font-size="1.67"><defs><symbol id="1"><text y="1.67" class="f">hello_world1</text><text x="13.026" y="1.67" class="f">$</text></symbol><symbol id="2"><text y="1.67" class="f">hello_world1</text><text x="13.026" y="1.67" class="f">$make</text></symbol><symbol id="3"><text y="1.67" class="f">g++</text><text x="4.008" y="1.67" class="f">-o</text><text x="7.014" y="1.67" class="f">main</text><text x="12.024" y="1.67" class="f">main.cpp</text></symbol><symbol id="4"><text y="1.67" class="f">hello_world1</text><text x="13.026" y="1.67" class="f">$./main</text></symbol><symbol id="5"><text y="1.67" class="f">Hello,</text><text x="7.014" y="1.67" class="f">world!</text></symbol><symbol id="6"><text y="1.67" class="f">This</text><text x="5.01" y="1.67" class="f">&quot;</text><text x="7.014" y="1.67" class="f">is</text><text x="10.02" y="1.67" class="f">a</text><text x="12.024" y="1.67" class="f">quote,</text><text x="19.038" y="1.67" class="f">and</text><text x="23.046" y="1.67" class="f">this</text><text x="28.056" y="1.67" class="f">\</text><text x="30.06" y="1.67" class="f">is</text><text x="33.066" y="1.67" class="f">a</text><text x="35.07" y="1.67" class="f">backslash.</text></symbol><symbol id="7"><text y="1.67" class="f">This</text><text x="5.01" y="1.67" class="f">large</text><text x="11.022" y="1.67" class="f">space</text><text x="17.034" y="1.67" class="f">(</text><text x="24.048" y="1.67" class="f">)</text><text x="26.052" y="1.67" class="f">is</text><text x="29.058" y="1.67" class="f">from</text><text x="34.068" y="1.67" class="f">a</text><text x="36.072" y="1.67" class="f">tab</text><text x="40.08" y="1.67" class="f">character</text></symbol><symbol id="a"><path fill="transparent" d="M0 0h55v9H0z"/></symbol><symbol id="b"><path fill="#38fe27" d="M0 0h1.102v2.171H0z"/></symbol></defs><path class="a" d="M0 0h55v17.368H0z"/><g style="animation-duration:15.744003s;animation-iteration-count:infinite;animation-name:i;animation-timing-function:steps(1,end)"><svg width="1045"><svg><use xlink:href="#a"/><use xlink:href="#b" x="-.004"/></svg><svg x="55"><use xlink:href="#a"/><use xlink:href="#b" x="13.996"/><use xlink:href="#1"/></svg><svg x="110"><use xlink:href="#a"/><use xlink:href="#b" x="14.996"/><text y="1.67" class="f">hello_world1</text><text x="13.026" y="1.67" class="f">$m</text></svg><svg x="165"><use xlink:href="#a"/><use xlink:href="#b" x="15.996"/><text y="1.67" class="f">hello_world1</text><text x="13.026" y="1.67" class="f">$ma</text></svg><svg x="220"><use xlink:href="#a"/><use xlink:href="#b" x="16.996"/><text y="1.67" class="f">hello_world1</text><text x="13.026" y="1.67" class="f">$mak</text></svg><svg x="275"><use xlink:href="#a"/><use xlink:href="#b" x="17.996"/><use xlink:href="#2"/></svg><svg x="330"><use xlink:href="#a"/><use xlink:href="#b" x="-.004" y="2.146"/><use xlink:href="#2"/></svg><svg x="385"><use xlink:href="#a"/><use xlink:href="#b" x="-.004" y="4.317"/><use xlink:href="#2"/><use xlink:href="#3" y="2.171"/></svg><svg x="440"><use xlink:href="#a"/><use xlink:href="#b" x="13.996" y="4.317"/><use xlink:href="#2"/><use xlink:href="#3" y="2.171"/><use xlink:href="#1" y="4.342"/></svg><svg x="495"><use xlink:href="#a"/><use xlink:href="#b" x="14.996" y="4.317"/><use xlink:href="#2"/><use xlink:href="#3" y="2.171"/><text y="6.012" class="f">hello_world1</text><text x="13.026" y="6.012" class="f">$.</text></svg><svg x="550"><use xlink:href="#a"/><use xlink:href="#b" x="15.996" y="4.317"/><use xlink:href="#2"/><use xlink:href="#3" y="2.171"/><text y="6.012" class="f">hello_world1</text><text x="13.026" y="6.012" class="f">$./</text></svg><svg x="605"><use xlink:href="#a"/><use xlink:href="#b" x="16.996" y="4.317"/><use xlink:href="#2"/><use xlink:href="#3" y="2.171"/><text y="6.012" class="f">hello_world1</text><text x="13.026" y="6.012" class="f">$./m</text></svg><svg x="660"><use xlink:href="#a"/><use xlink:href="#b" x="17.996" y="4.317"/><use xlink:href="#2"/><use xlink:href="#3" y="2.171"/><text y="6.012" class="f">hello_world1</text><text x="13.026" y="6.012" class="f">$./ma</text></svg><svg x="715"><use xlink:href="#a"/><use xlink:href="#b" x="18.996" y="4.317"/><use xlink:href="#2"/><use xlink:href="#3" y="2.171"/><text y="6.012" class="f">hello_world1</text><text x="13.026" y="6.012" class="f">$./mai</text></svg><svg x="770"><use xlink:href="#a"/><use xlink:href="#b" x="19.996" y="4.317"/><use xlink:href="#2"/><use xlink:href="#3" y="2.171"/><use xlink:href="#4" y="4.342"/></svg><svg x="825"><use xlink:href="#a"/><use xlink:href="#b" x="-.004" y="6.488"/><use xlink:href="#2"/><use xlink:href="#3" y="2.171"/><use xlink:href="#4" y="4.342"/></svg><svg x="880"><use xlink:href="#a"/><use xlink:href="#b" x="-.004" y="13.001"/><use xlink:href="#2"/><use xlink:href="#3" y="2.171"/><use xlink:href="#4" y="4.342"/><use xlink:href="#5" y="6.513"/><use xlink:href="#6" y="8.684"/><use xlink:href="#7" y="10.855"/></svg><svg x="935"><use xlink:href="#a"/><use xlink:href="#b" x="13.996" y="13.001"/><use xlink:href="#2"/><use xlink:href="#3" y="2.171"/><use xlink:href="#4" y="4.342"/><use xlink:href="#5" y="6.513"/><use xlink:href="#6" y="8.684"/><use xlink:href="#7" y="10.855"/><use xlink:href="#1" y="13.026"/></svg><svg x="990"><use xlink:href="#a"/><use xlink:href="#b" x="-.004" y="15.172"/><use xlink:href="#2"/><use xlink:href="#3" y="2.171"/><use xlink:href="#4" y="4.342"/><use xlink:href="#5" y="6.513"/><use xlink:href="#6" y="8.684"/><use xlink:href="#7" y="10.855"/><text y="14.696" class="f">hello_world1</text><text x="13.026" y="14.696" class="f">$exit</text></svg></svg></g></g></svg></svg>