<svg xmlns="http://www.w3.org/2000/svg" xmlns:xlink="http://www.w3.org/1999/xlink" width="1000" height="581.04"><rect width="1000" height="581.04" rx="5" ry="5" class="a"/><svg y="0%" x="0%"><circle cx="20" cy="20" r="6" fill="#ff5f58"/><circle cx="40" cy="20" r="6" fill="#ffbd2e"/><circle cx="60" cy="20" r="6" fill="#18c132"/></svg><svg height="521.04" viewBox="0 0 96 52.104" width="960" x="15" xmlns="http://www.w3.org/2000/svg" xmlns:xlink="http://www.w3.org/1999/xlink" y="50"><style>@keyframes i{0%{transform:translateX(0)}.05%{transform:translateX(-96px)}2.72%{transform:translateX(-192px)}3.03%{transform:translateX(-288px)}3.75%{transform:translateX(-384px)}4.27%{transform:translateX(-480px)}4.78%{transform:translateX(-576px)}4.84%{transform:translateX(-672px)}6.86%{transform:translateX(-768px)}8.74%{transform:translateX(-864px)}9.44%{transform:translateX(-960px)}10.46%{transform:translateX(-1056px)}10.92%{transform:translateX(-1152px)}11.45%{transform:translateX(-1248px)}11.9%{transform:translateX(-1344px)}13.79%{transform:translateX(-1440px)}13.82%{transform:translateX(-1536px)}16.94%{transform:translateX(-1632px)}18.4%{transform:translateX(-1728px)}19.14%{transform:translateX(-1824px)}19.58%{transform:translateX(-1920px)}20.23%{transform:translateX(-2016px)}21.17%{transform:translateX(-2112px)}21.86%{transform:translateX(-2208px)}22.84%{transform:translateX(-2304px)}23.35%{transform:translateX(-2400px)}23.65%{transform:translateX(-2496px)}25.21%{transform:translateX(-2688px)}31.34%{transform:translateX(-2784px)}31.98%{transform:translateX(-2880px)}32.74%{transform:translateX(-2976px)}34.62%{transform:translateX(-3072px)}36.9%{transform:translateX(-3168px)}38.01%{transform:translateX(-3264px)}40.02%{transform:translateX(-3360px)}47.39%{transform:translateX(-3456px)}48.99%{transform:translateX(-3552px)}50.13%{transform:translateX(-3648px)}52.09%{transform:translateX(-3744px)}55.14%{transform:translateX(-3840px)}56.08%{transform:translateX(-3936px)}57.89%{transform:translateX(-4032px)}60.79%{transform:translateX(-4128px)}61.99%{transform:translateX(-4224px)}63.91%{transform:translateX(-4320px)}66.85%{transform:translateX(-4416px)}67.87%{transform:translateX(-4512px)}69.49%{transform:translateX(-4608px)}71.58%{transform:translateX(-4704px)}72.76%{transform:translateX(-4800px)}74.76%{transform:translateX(-4896px)}80.4%{transform:translateX(-5184px)}to{transform:translateX(-5280px)}}.a{fill:#000}.f{fill:#28fe14;white-space:pre}</style><g font-family="Monaco,Consolas,Menlo,'Bitstream Vera Sans Mono','Powerline Symbols',monospace" font-size="1.67"><defs><symbol id="1"><text y="1.67" class="f">grades3</text><text x="8.016" y="1.67" class="f">$</text></symbol><symbol id="2"><text y="1.67" class="f">grades3</text><text x="8.016" y="1.67" class="f">$make</text></symbol><symbol id="3"><text y="1.67" class="f">g++</text><text x="4.008" y="1.67" class="f">-o</text><text x="7.014" y="1.67" class="f">main</text><text x="12.024" y="1.67" class="f">main.cpp</text></symbol><symbol id="4"><text y="1.67" class="f">grades3</text><text x="8.016" y="1.67" class="f">$./main</text></symbol><symbol id="5"><text y="1.67" class="f">Please</text><text x="7.014" y="1.67" class="f">enter</text><text x="13.026" y="1.67" class="f">your</text><text x="18.036" y="1.67" class="f">first</text><text x="24.048" y="1.67" class="f">name:</text><text x="30.06" y="1.67" class="f">Georg</text></symbol><symbol id="6"><text y="1.67" class="f">Please</text><text x="7.014" y="1.67" class="f">enter</text><text x="13.026" y="1.67" class="f">your</text><text x="18.036" y="1.67" class="f">first</text><text x="24.048" y="1.67" class="f">name:</text><text x="30.06" y="1.67" class="f">Georgg</text></symbol><symbol id="7"><text y="1.67" class="f">Please</text><text x="7.014" y="1.67" class="f">enter</text><text x="13.026" y="1.67" class="f">your</text><text x="18.036" y="1.67" class="f">first</text><text x="24.048" y="1.67" class="f">name:</text><text x="30.06" y="1.67" class="f">George</text></symbol><symbol id="8"><text y="1.67" class="f">********************</text></symbol><symbol id="9"><text y="1.67" class="f">*</text><text x="19.038" y="1.67" class="f">*</text></symbol><symbol id="10"><text y="1.67" class="f">*</text><text x="3.006" y="1.67" class="f">Hello,</text><text x="10.02" y="1.67" class="f">George!</text><text x="19.038" y="1.67" class="f">*</text></symbol><symbol id="11"><text y="1.67" class="f">Please</text><text x="7.014" y="1.67" class="f">enter</text><text x="13.026" y="1.67" class="f">your</text><text x="18.036" y="1.67" class="f">midterm</text><text x="26.052" y="1.67" class="f">and</text><text x="30.06" y="1.67" class="f">final</text><text x="36.072" y="1.67" class="f">exam</text><text x="41.082" y="1.67" class="f">grades:</text></symbol><symbol id="12"><text y="1.67" class="f">7</text></symbol><symbol id="13"><text y="1.67" class="f">78</text></symbol><symbol id="14"><text y="1.67" class="f">6</text></symbol><symbol id="15"><text y="1.67" class="f">64</text></symbol><symbol id="16"><text y="1.67" class="f">Enter</text><text x="6.012" y="1.67" class="f">all</text><text x="10.02" y="1.67" class="f">your</text><text x="15.03" y="1.67" class="f">homework</text><text x="24.048" y="1.67" class="f">grades,</text><text x="32.064" y="1.67" class="f">followed</text><text x="41.082" y="1.67" class="f">by</text><text x="44.088" y="1.67" class="f">end-of-file:</text></symbol><symbol id="17"><text y="1.67" class="f">74</text></symbol><symbol id="18"><text y="1.67" class="f">54</text></symbol><symbol id="19"><text y="1.67" class="f">61</text></symbol><symbol id="20"><text y="1.67" class="f">80</text></symbol><symbol id="21"><text y="1.67" class="f">63</text></symbol><symbol id="22"><text y="1.67" class="f">Your</text><text x="5.01" y="1.67" class="f">final</text><text x="11.022" y="1.67" class="f">grade</text><text x="17.034" y="1.67" class="f">is</text><text x="20.04" y="1.67" class="f">66.4</text></symbol><symbol id="a"><path fill="transparent" d="M0 0h96v25H0z"/></symbol><symbol id="b"><path fill="#38fe27" d="M0 0h1.102v2.171H0z"/></symbol></defs><path class="a" d="M0 0h96v52.104H0z"/><g style="animation-duration:25.513557s;animation-iteration-count:infinite;animation-name:i;animation-timing-function:steps(1,end)"><svg width="5376"><svg><use xlink:href="#a"/><use xlink:href="#b" x="-.004"/></svg><svg x="96"><use xlink:href="#a"/><use xlink:href="#b" x="8.996"/><use xlink:href="#1"/></svg><svg x="192"><use xlink:href="#a"/><use xlink:href="#b" x="9.996"/><text y="1.67" class="f">grades3</text><text x="8.016" y="1.67" class="f">$m</text></svg><svg x="288"><use xlink:href="#a"/><use xlink:href="#b" x="10.996"/><text y="1.67" class="f">grades3</text><text x="8.016" y="1.67" class="f">$ma</text></svg><svg x="384"><use xlink:href="#a"/><use xlink:href="#b" x="11.996"/><text y="1.67" class="f">grades3</text><text x="8.016" y="1.67" class="f">$mak</text></svg><svg x="480"><use xlink:href="#a"/><use xlink:href="#b" x="12.996"/><use xlink:href="#2"/></svg><svg x="576"><use xlink:href="#a"/><use xlink:href="#b" x="-.004" y="2.146"/><use xlink:href="#2"/></svg><svg x="672"><use xlink:href="#a"/><use xlink:href="#b" x="-.004" y="4.317"/><use xlink:href="#2"/><use xlink:href="#3" y="2.171"/></svg><svg x="768"><use xlink:href="#a"/><use xlink:href="#b" x="8.996" y="4.317"/><use xlink:href="#2"/><use xlink:href="#3" y="2.171"/><use xlink:href="#1" y="4.342"/></svg><svg x="864"><use xlink:href="#a"/><use xlink:href="#b" x="9.996" y="4.317"/><use xlink:href="#2"/><use xlink:href="#3" y="2.171"/><text y="6.012" class="f">grades3</text><text x="8.016" y="6.012" class="f">$.</text></svg><svg x="960"><use xlink:href="#a"/><use xlink:href="#b" x="10.996" y="4.317"/><use xlink:href="#2"/><use xlink:href="#3" y="2.171"/><text y="6.012" class="f">grades3</text><text x="8.016" y="6.012" class="f">$./</text></svg><svg x="1056"><use xlink:href="#a"/><use xlink:href="#b" x="11.996" y="4.317"/><use xlink:href="#2"/><use xlink:href="#3" y="2.171"/><text y="6.012" class="f">grades3</text><text x="8.016" y="6.012" class="f">$./m</text></svg><svg x="1152"><use xlink:href="#a"/><use xlink:href="#b" x="12.996" y="4.317"/><use xlink:href="#2"/><use xlink:href="#3" y="2.171"/><text y="6.012" class="f">grades3</text><text x="8.016" y="6.012" class="f">$./ma</text></svg><svg x="1248"><use xlink:href="#a"/><use xlink:href="#b" x="13.996" y="4.317"/><use xlink:href="#2"/><use xlink:href="#3" y="2.171"/><text y="6.012" class="f">grades3</text><text x="8.016" y="6.012" class="f">$./mai</text></svg><svg x="1344"><use xlink:href="#a"/><use xlink:href="#b" x="14.996" y="4.317"/><use xlink:href="#2"/><use xlink:href="#3" y="2.171"/><use xlink:href="#4" y="4.342"/></svg><svg x="1440"><use xlink:href="#a"/><use xlink:href="#b" x="-.004" y="6.488"/><use xlink:href="#2"/><use xlink:href="#3" y="2.171"/><use xlink:href="#4" y="4.342"/></svg><svg x="1536"><use xlink:href="#a"/><use xlink:href="#b" x="29.996" y="6.488"/><use xlink:href="#2"/><use xlink:href="#3" y="2.171"/><use xlink:href="#4" y="4.342"/><text y="8.183" class="f">Please</text><text x="7.014" y="8.183" class="f">enter</text><text x="13.026" y="8.183" class="f">your</text><text x="18.036" y="8.183" class="f">first</text><text x="24.048" y="8.183" class="f">name:</text></svg><svg x="1632"><use xlink:href="#a"/><use xlink:href="#b" x="30.996" y="6.488"/><use xlink:href="#2"/><use xlink:href="#3" y="2.171"/><use xlink:href="#4" y="4.342"/><text y="8.183" class="f">Please</text><text x="7.014" y="8.183" class="f">enter</text><text x="13.026" y="8.183" class="f">your</text><text x="18.036" y="8.183" class="f">first</text><text x="24.048" y="8.183" class="f">name:</text><text x="30.06" y="8.183" class="f">G</text></svg><svg x="1728"><use xlink:href="#a"/><use xlink:href="#b" x="31.996" y="6.488"/><use xlink:href="#2"/><use xlink:href="#3" y="2.171"/><use xlink:href="#4" y="4.342"/><text y="8.183" class="f">Please</text><text x="7.014" y="8.183" class="f">enter</text><text x="13.026" y="8.183" class="f">your</text><text x="18.036" y="8.183" class="f">first</text><text x="24.048" y="8.183" class="f">name:</text><text x="30.06" y="8.183" class="f">Ge</text></svg><svg x="1824"><use xlink:href="#a"/><use xlink:href="#b" x="32.996" y="6.488"/><use xlink:href="#2"/><use xlink:href="#3" y="2.171"/><use xlink:href="#4" y="4.342"/><text y="8.183" class="f">Please</text><text x="7.014" y="8.183" class="f">enter</text><text x="13.026" y="8.183" class="f">your</text><text x="18.036" y="8.183" class="f">first</text><text x="24.048" y="8.183" class="f">name:</text><text x="30.06" y="8.183" class="f">Geo</text></svg><svg x="1920"><use xlink:href="#a"/><use xlink:href="#b" x="33.996" y="6.488"/><use xlink:href="#2"/><use xlink:href="#3" y="2.171"/><use xlink:href="#4" y="4.342"/><text y="8.183" class="f">Please</text><text x="7.014" y="8.183" class="f">enter</text><text x="13.026" y="8.183" class="f">your</text><text x="18.036" y="8.183" class="f">first</text><text x="24.048" y="8.183" class="f">name:</text><text x="30.06" y="8.183" class="f">Geor</text></svg><svg x="2016"><use xlink:href="#a"/><use xlink:href="#b" x="34.996" y="6.488"/><use xlink:href="#2"/><use xlink:href="#3" y="2.171"/><use xlink:href="#4" y="4.342"/><use xlink:href="#5" y="6.513"/></svg><svg x="2112"><use xlink:href="#a"/><use xlink:href="#b" x="35.996" y="6.488"/><use xlink:href="#2"/><use xlink:href="#3" y="2.171"/><use xlink:href="#4" y="4.342"/><use xlink:href="#6" y="6.513"/></svg><svg x="2208"><use xlink:href="#a"/><use xlink:href="#b" x="36.996" y="6.488"/><use xlink:href="#2"/><use xlink:href="#3" y="2.171"/><use xlink:href="#4" y="4.342"/><text y="8.183" class="f">Please</text><text x="7.014" y="8.183" class="f">enter</text><text x="13.026" y="8.183" class="f">your</text><text x="18.036" y="8.183" class="f">first</text><text x="24.048" y="8.183" class="f">name:</text><text x="30.06" y="8.183" class="f">Georgge</text></svg><svg x="2304"><use xlink:href="#a"/><use xlink:href="#b" x="35.996" y="6.488"/><use xlink:href="#2"/><use xlink:href="#3" y="2.171"/><use xlink:href="#4" y="4.342"/><use xlink:href="#6" y="6.513"/></svg><svg x="2400"><use xlink:href="#a"/><use xlink:href="#b" x="34.996" y="6.488"/><use xlink:href="#2"/><use xlink:href="#3" y="2.171"/><use xlink:href="#4" y="4.342"/><use xlink:href="#5" y="6.513"/></svg><svg x="2496"><use xlink:href="#a"/><use xlink:href="#b" x="35.996" y="6.488"/><use xlink:href="#2"/><use xlink:href="#3" y="2.171"/><use xlink:href="#4" y="4.342"/><use xlink:href="#7" y="6.513"/></svg><svg x="2592"><use xlink:href="#a"/><use xlink:href="#b" x="-.004" y="8.659"/><use xlink:href="#2"/><use xlink:href="#3" y="2.171"/><use xlink:href="#4" y="4.342"/><use xlink:href="#7" y="6.513"/></svg><svg x="2688"><use xlink:href="#a"/><use xlink:href="#b" x="48.996" y="26.027"/><use xlink:href="#2"/><use xlink:href="#3" y="2.171"/><use xlink:href="#4" y="4.342"/><use xlink:href="#7" y="6.513"/><use xlink:href="#8" y="10.855"/><use xlink:href="#9" y="13.026"/><use xlink:href="#9" y="15.197"/><use xlink:href="#10" y="17.368"/><use xlink:href="#9" y="19.539"/><use xlink:href="#9" y="21.71"/><use xlink:href="#8" y="23.881"/><use xlink:href="#11" y="26.052"/></svg><svg x="2784"><use xlink:href="#a"/><use xlink:href="#b" x="-.004" y="28.198"/><use xlink:href="#2"/><use xlink:href="#3" y="2.171"/><use xlink:href="#4" y="4.342"/><use xlink:href="#7" y="6.513"/><use xlink:href="#8" y="10.855"/><use xlink:href="#9" y="13.026"/><use xlink:href="#9" y="15.197"/><use xlink:href="#10" y="17.368"/><use xlink:href="#9" y="19.539"/><use xlink:href="#9" y="21.71"/><use xlink:href="#8" y="23.881"/><use xlink:href="#11" y="26.052"/></svg><svg x="2880"><use xlink:href="#a"/><use xlink:href="#b" x=".996" y="28.198"/><use xlink:href="#2"/><use xlink:href="#3" y="2.171"/><use xlink:href="#4" y="4.342"/><use xlink:href="#7" y="6.513"/><use xlink:href="#8" y="10.855"/><use xlink:href="#9" y="13.026"/><use xlink:href="#9" y="15.197"/><use xlink:href="#10" y="17.368"/><use xlink:href="#9" y="19.539"/><use xlink:href="#9" y="21.71"/><use xlink:href="#8" y="23.881"/><use xlink:href="#11" y="26.052"/><use xlink:href="#12" y="28.223"/></svg><svg x="2976"><use xlink:href="#a"/><use xlink:href="#b" x="1.996" y="28.198"/><use xlink:href="#2"/><use xlink:href="#3" y="2.171"/><use xlink:href="#4" y="4.342"/><use xlink:href="#7" y="6.513"/><use xlink:href="#8" y="10.855"/><use xlink:href="#9" y="13.026"/><use xlink:href="#9" y="15.197"/><use xlink:href="#10" y="17.368"/><use xlink:href="#9" y="19.539"/><use xlink:href="#9" y="21.71"/><use xlink:href="#8" y="23.881"/><use xlink:href="#11" y="26.052"/><use xlink:href="#13" y="28.223"/></svg><svg x="3072"><use xlink:href="#a"/><use xlink:href="#b" x="-.004" y="30.369"/><use xlink:href="#2"/><use xlink:href="#3" y="2.171"/><use xlink:href="#4" y="4.342"/><use xlink:href="#7" y="6.513"/><use xlink:href="#8" y="10.855"/><use xlink:href="#9" y="13.026"/><use xlink:href="#9" y="15.197"/><use xlink:href="#10" y="17.368"/><use xlink:href="#9" y="19.539"/><use xlink:href="#9" y="21.71"/><use xlink:href="#8" y="23.881"/><use xlink:href="#11" y="26.052"/><use xlink:href="#13" y="28.223"/></svg><svg x="3168"><use xlink:href="#a"/><use xlink:href="#b" x=".996" y="30.369"/><use xlink:href="#2"/><use xlink:href="#3" y="2.171"/><use xlink:href="#4" y="4.342"/><use xlink:href="#7" y="6.513"/><use xlink:href="#8" y="10.855"/><use xlink:href="#9" y="13.026"/><use xlink:href="#9" y="15.197"/><use xlink:href="#10" y="17.368"/><use xlink:href="#9" y="19.539"/><use xlink:href="#9" y="21.71"/><use xlink:href="#8" y="23.881"/><use xlink:href="#11" y="26.052"/><use xlink:href="#13" y="28.223"/><use xlink:href="#14" y="30.394"/></svg><svg x="3264"><use xlink:href="#a"/><use xlink:href="#b" x="1.996" y="30.369"/><use xlink:href="#2"/><use xlink:href="#3" y="2.171"/><use xlink:href="#4" y="4.342"/><use xlink:href="#7" y="6.513"/><use xlink:href="#8" y="10.855"/><use xlink:href="#9" y="13.026"/><use xlink:href="#9" y="15.197"/><use xlink:href="#10" y="17.368"/><use xlink:href="#9" y="19.539"/><use xlink:href="#9" y="21.71"/><use xlink:href="#8" y="23.881"/><use xlink:href="#11" y="26.052"/><use xlink:href="#13" y="28.223"/><use xlink:href="#15" y="30.394"/></svg><svg x="3360"><use xlink:href="#a"/><use xlink:href="#b" x="56.996" y="32.54"/><use xlink:href="#2"/><use xlink:href="#3" y="2.171"/><use xlink:href="#4" y="4.342"/><use xlink:href="#7" y="6.513"/><use xlink:href="#8" y="10.855"/><use xlink:href="#9" y="13.026"/><use xlink:href="#9" y="15.197"/><use xlink:href="#10" y="17.368"/><use xlink:href="#9" y="19.539"/><use xlink:href="#9" y="21.71"/><use xlink:href="#8" y="23.881"/><use xlink:href="#11" y="26.052"/><use xlink:href="#13" y="28.223"/><use xlink:href="#15" y="30.394"/><use xlink:href="#16" y="32.565"/></svg><svg x="3456"><use xlink:href="#a"/><use xlink:href="#b" x="-.004" y="34.711"/><use xlink:href="#2"/><use xlink:href="#3" y="2.171"/><use xlink:href="#4" y="4.342"/><use xlink:href="#7" y="6.513"/><use xlink:href="#8" y="10.855"/><use xlink:href="#9" y="13.026"/><use xlink:href="#9" y="15.197"/><use xlink:href="#10" y="17.368"/><use xlink:href="#9" y="19.539"/><use xlink:href="#9" y="21.71"/><use xlink:href="#8" y="23.881"/><use xlink:href="#11" y="26.052"/><use xlink:href="#13" y="28.223"/><use xlink:href="#15" y="30.394"/><use xlink:href="#16" y="32.565"/></svg><svg x="3552"><use xlink:href="#a"/><use xlink:href="#b" x=".996" y="34.711"/><use xlink:href="#2"/><use xlink:href="#3" y="2.171"/><use xlink:href="#4" y="4.342"/><use xlink:href="#7" y="6.513"/><use xlink:href="#8" y="10.855"/><use xlink:href="#9" y="13.026"/><use xlink:href="#9" y="15.197"/><use xlink:href="#10" y="17.368"/><use xlink:href="#9" y="19.539"/><use xlink:href="#9" y="21.71"/><use xlink:href="#8" y="23.881"/><use xlink:href="#11" y="26.052"/><use xlink:href="#13" y="28.223"/><use xlink:href="#15" y="30.394"/><use xlink:href="#16" y="32.565"/><use xlink:href="#12" y="34.736"/></svg><svg x="3648"><use xlink:href="#a"/><use xlink:href="#b" x="1.996" y="34.711"/><use xlink:href="#2"/><use xlink:href="#3" y="2.171"/><use xlink:href="#4" y="4.342"/><use xlink:href="#7" y="6.513"/><use xlink:href="#8" y="10.855"/><use xlink:href="#9" y="13.026"/><use xlink:href="#9" y="15.197"/><use xlink:href="#10" y="17.368"/><use xlink:href="#9" y="19.539"/><use xlink:href="#9" y="21.71"/><use xlink:href="#8" y="23.881"/><use xlink:href="#11" y="26.052"/><use xlink:href="#13" y="28.223"/><use xlink:href="#15" y="30.394"/><use xlink:href="#16" y="32.565"/><use xlink:href="#17" y="34.736"/></svg><svg x="3744"><use xlink:href="#a"/><use xlink:href="#b" x="-.004" y="36.882"/><use xlink:href="#2"/><use xlink:href="#3" y="2.171"/><use xlink:href="#4" y="4.342"/><use xlink:href="#7" y="6.513"/><use xlink:href="#8" y="10.855"/><use xlink:href="#9" y="13.026"/><use xlink:href="#9" y="15.197"/><use xlink:href="#10" y="17.368"/><use xlink:href="#9" y="19.539"/><use xlink:href="#9" y="21.71"/><use xlink:href="#8" y="23.881"/><use xlink:href="#11" y="26.052"/><use xlink:href="#13" y="28.223"/><use xlink:href="#15" y="30.394"/><use xlink:href="#16" y="32.565"/><use xlink:href="#17" y="34.736"/></svg><svg x="3840"><use xlink:href="#a"/><use xlink:href="#b" x=".996" y="36.882"/><use xlink:href="#2"/><use xlink:href="#3" y="2.171"/><use xlink:href="#4" y="4.342"/><use xlink:href="#7" y="6.513"/><use xlink:href="#8" y="10.855"/><use xlink:href="#9" y="13.026"/><use xlink:href="#9" y="15.197"/><use xlink:href="#10" y="17.368"/><use xlink:href="#9" y="19.539"/><use xlink:href="#9" y="21.71"/><use xlink:href="#8" y="23.881"/><use xlink:href="#11" y="26.052"/><use xlink:href="#13" y="28.223"/><use xlink:href="#15" y="30.394"/><use xlink:href="#16" y="32.565"/><use xlink:href="#17" y="34.736"/><text y="38.577" class="f">5</text></svg><svg x="3936"><use xlink:href="#a"/><use xlink:href="#b" x="1.996" y="36.882"/><use xlink:href="#2"/><use xlink:href="#3" y="2.171"/><use xlink:href="#4" y="4.342"/><use xlink:href="#7" y="6.513"/><use xlink:href="#8" y="10.855"/><use xlink:href="#9" y="13.026"/><use xlink:href="#9" y="15.197"/><use xlink:href="#10" y="17.368"/><use xlink:href="#9" y="19.539"/><use xlink:href="#9" y="21.71"/><use xlink:href="#8" y="23.881"/><use xlink:href="#11" y="26.052"/><use xlink:href="#13" y="28.223"/><use xlink:href="#15" y="30.394"/><use xlink:href="#16" y="32.565"/><use xlink:href="#17" y="34.736"/><use xlink:href="#18" y="36.907"/></svg><svg x="4032"><use xlink:href="#a"/><use xlink:href="#b" x="-.004" y="39.053"/><use xlink:href="#2"/><use xlink:href="#3" y="2.171"/><use xlink:href="#4" y="4.342"/><use xlink:href="#7" y="6.513"/><use xlink:href="#8" y="10.855"/><use xlink:href="#9" y="13.026"/><use xlink:href="#9" y="15.197"/><use xlink:href="#10" y="17.368"/><use xlink:href="#9" y="19.539"/><use xlink:href="#9" y="21.71"/><use xlink:href="#8" y="23.881"/><use xlink:href="#11" y="26.052"/><use xlink:href="#13" y="28.223"/><use xlink:href="#15" y="30.394"/><use xlink:href="#16" y="32.565"/><use xlink:href="#17" y="34.736"/><use xlink:href="#18" y="36.907"/></svg><svg x="4128"><use xlink:href="#a"/><use xlink:href="#b" x=".996" y="39.053"/><use xlink:href="#2"/><use xlink:href="#3" y="2.171"/><use xlink:href="#4" y="4.342"/><use xlink:href="#7" y="6.513"/><use xlink:href="#8" y="10.855"/><use xlink:href="#9" y="13.026"/><use xlink:href="#9" y="15.197"/><use xlink:href="#10" y="17.368"/><use xlink:href="#9" y="19.539"/><use xlink:href="#9" y="21.71"/><use xlink:href="#8" y="23.881"/><use xlink:href="#11" y="26.052"/><use xlink:href="#13" y="28.223"/><use xlink:href="#15" y="30.394"/><use xlink:href="#16" y="32.565"/><use xlink:href="#17" y="34.736"/><use xlink:href="#18" y="36.907"/><use xlink:href="#14" y="39.078"/></svg><svg x="4224"><use xlink:href="#a"/><use xlink:href="#b" x="1.996" y="39.053"/><use xlink:href="#2"/><use xlink:href="#3" y="2.171"/><use xlink:href="#4" y="4.342"/><use xlink:href="#7" y="6.513"/><use xlink:href="#8" y="10.855"/><use xlink:href="#9" y="13.026"/><use xlink:href="#9" y="15.197"/><use xlink:href="#10" y="17.368"/><use xlink:href="#9" y="19.539"/><use xlink:href="#9" y="21.71"/><use xlink:href="#8" y="23.881"/><use xlink:href="#11" y="26.052"/><use xlink:href="#13" y="28.223"/><use xlink:href="#15" y="30.394"/><use xlink:href="#16" y="32.565"/><use xlink:href="#17" y="34.736"/><use xlink:href="#18" y="36.907"/><use xlink:href="#19" y="39.078"/></svg><svg x="4320"><use xlink:href="#a"/><use xlink:href="#b" x="-.004" y="41.224"/><use xlink:href="#2"/><use xlink:href="#3" y="2.171"/><use xlink:href="#4" y="4.342"/><use xlink:href="#7" y="6.513"/><use xlink:href="#8" y="10.855"/><use xlink:href="#9" y="13.026"/><use xlink:href="#9" y="15.197"/><use xlink:href="#10" y="17.368"/><use xlink:href="#9" y="19.539"/><use xlink:href="#9" y="21.71"/><use xlink:href="#8" y="23.881"/><use xlink:href="#11" y="26.052"/><use xlink:href="#13" y="28.223"/><use xlink:href="#15" y="30.394"/><use xlink:href="#16" y="32.565"/><use xlink:href="#17" y="34.736"/><use xlink:href="#18" y="36.907"/><use xlink:href="#19" y="39.078"/></svg><svg x="4416"><use xlink:href="#a"/><use xlink:href="#b" x=".996" y="41.224"/><use xlink:href="#2"/><use xlink:href="#3" y="2.171"/><use xlink:href="#4" y="4.342"/><use xlink:href="#7" y="6.513"/><use xlink:href="#8" y="10.855"/><use xlink:href="#9" y="13.026"/><use xlink:href="#9" y="15.197"/><use xlink:href="#10" y="17.368"/><use xlink:href="#9" y="19.539"/><use xlink:href="#9" y="21.71"/><use xlink:href="#8" y="23.881"/><use xlink:href="#11" y="26.052"/><use xlink:href="#13" y="28.223"/><use xlink:href="#15" y="30.394"/><use xlink:href="#16" y="32.565"/><use xlink:href="#17" y="34.736"/><use xlink:href="#18" y="36.907"/><use xlink:href="#19" y="39.078"/><text y="42.919" class="f">8</text></svg><svg x="4512"><use xlink:href="#a"/><use xlink:href="#b" x="1.996" y="41.224"/><use xlink:href="#2"/><use xlink:href="#3" y="2.171"/><use xlink:href="#4" y="4.342"/><use xlink:href="#7" y="6.513"/><use xlink:href="#8" y="10.855"/><use xlink:href="#9" y="13.026"/><use xlink:href="#9" y="15.197"/><use xlink:href="#10" y="17.368"/><use xlink:href="#9" y="19.539"/><use xlink:href="#9" y="21.71"/><use xlink:href="#8" y="23.881"/><use xlink:href="#11" y="26.052"/><use xlink:href="#13" y="28.223"/><use xlink:href="#15" y="30.394"/><use xlink:href="#16" y="32.565"/><use xlink:href="#17" y="34.736"/><use xlink:href="#18" y="36.907"/><use xlink:href="#19" y="39.078"/><use xlink:href="#20" y="41.249"/></svg><svg x="4608"><use xlink:href="#a"/><use xlink:href="#b" x="-.004" y="43.395"/><use xlink:href="#2"/><use xlink:href="#3" y="2.171"/><use xlink:href="#4" y="4.342"/><use xlink:href="#7" y="6.513"/><use xlink:href="#8" y="10.855"/><use xlink:href="#9" y="13.026"/><use xlink:href="#9" y="15.197"/><use xlink:href="#10" y="17.368"/><use xlink:href="#9" y="19.539"/><use xlink:href="#9" y="21.71"/><use xlink:href="#8" y="23.881"/><use xlink:href="#11" y="26.052"/><use xlink:href="#13" y="28.223"/><use xlink:href="#15" y="30.394"/><use xlink:href="#16" y="32.565"/><use xlink:href="#17" y="34.736"/><use xlink:href="#18" y="36.907"/><use xlink:href="#19" y="39.078"/><use xlink:href="#20" y="41.249"/></svg><svg x="4704"><use xlink:href="#a"/><use xlink:href="#b" x=".996" y="43.395"/><use xlink:href="#2"/><use xlink:href="#3" y="2.171"/><use xlink:href="#4" y="4.342"/><use xlink:href="#7" y="6.513"/><use xlink:href="#8" y="10.855"/><use xlink:href="#9" y="13.026"/><use xlink:href="#9" y="15.197"/><use xlink:href="#10" y="17.368"/><use xlink:href="#9" y="19.539"/><use xlink:href="#9" y="21.71"/><use xlink:href="#8" y="23.881"/><use xlink:href="#11" y="26.052"/><use xlink:href="#13" y="28.223"/><use xlink:href="#15" y="30.394"/><use xlink:href="#16" y="32.565"/><use xlink:href="#17" y="34.736"/><use xlink:href="#18" y="36.907"/><use xlink:href="#19" y="39.078"/><use xlink:href="#20" y="41.249"/><use xlink:href="#14" y="43.42"/></svg><svg x="4800"><use xlink:href="#a"/><use xlink:href="#b" x="1.996" y="43.395"/><use xlink:href="#2"/><use xlink:href="#3" y="2.171"/><use xlink:href="#4" y="4.342"/><use xlink:href="#7" y="6.513"/><use xlink:href="#8" y="10.855"/><use xlink:href="#9" y="13.026"/><use xlink:href="#9" y="15.197"/><use xlink:href="#10" y="17.368"/><use xlink:href="#9" y="19.539"/><use xlink:href="#9" y="21.71"/><use xlink:href="#8" y="23.881"/><use xlink:href="#11" y="26.052"/><use xlink:href="#13" y="28.223"/><use xlink:href="#15" y="30.394"/><use xlink:href="#16" y="32.565"/><use xlink:href="#17" y="34.736"/><use xlink:href="#18" y="36.907"/><use xlink:href="#19" y="39.078"/><use xlink:href="#20" y="41.249"/><use xlink:href="#21" y="43.42"/></svg><svg x="4896"><use xlink:href="#a"/><use xlink:href="#b" x="-.004" y="45.566"/><use xlink:href="#2"/><use xlink:href="#3" y="2.171"/><use xlink:href="#4" y="4.342"/><use xlink:href="#7" y="6.513"/><use xlink:href="#8" y="10.855"/><use xlink:href="#9" y="13.026"/><use xlink:href="#9" y="15.197"/><use xlink:href="#10" y="17.368"/><use xlink:href="#9" y="19.539"/><use xlink:href="#9" y="21.71"/><use xlink:href="#8" y="23.881"/><use xlink:href="#11" y="26.052"/><use xlink:href="#13" y="28.223"/><use xlink:href="#15" y="30.394"/><use xlink:href="#16" y="32.565"/><use xlink:href="#17" y="34.736"/><use xlink:href="#18" y="36.907"/><use xlink:href="#19" y="39.078"/><use xlink:href="#20" y="41.249"/><use xlink:href="#21" y="43.42"/></svg><svg x="4992"><use xlink:href="#a"/><use xlink:href="#b" x="-.004" y="45.566"/><use xlink:href="#2"/><use xlink:href="#3" y="2.171"/><use xlink:href="#4" y="4.342"/><use xlink:href="#7" y="6.513"/><use xlink:href="#8" y="10.855"/><use xlink:href="#9" y="13.026"/><use xlink:href="#9" y="15.197"/><use xlink:href="#10" y="17.368"/><use xlink:href="#9" y="19.539"/><use xlink:href="#9" y="21.71"/><use xlink:href="#8" y="23.881"/><use xlink:href="#11" y="26.052"/><use xlink:href="#13" y="28.223"/><use xlink:href="#15" y="30.394"/><use xlink:href="#16" y="32.565"/><use xlink:href="#17" y="34.736"/><use xlink:href="#18" y="36.907"/><use xlink:href="#19" y="39.078"/><use xlink:href="#20" y="41.249"/><use xlink:href="#21" y="43.42"/><text y="47.261" class="f">^D</text></svg><svg x="5088"><use xlink:href="#a"/><use xlink:href="#b" x="-.004" y="47.737"/><use xlink:href="#2"/><use xlink:href="#3" y="2.171"/><use xlink:href="#4" y="4.342"/><use xlink:href="#7" y="6.513"/><use xlink:href="#8" y="10.855"/><use xlink:href="#9" y="13.026"/><use xlink:href="#9" y="15.197"/><use xlink:href="#10" y="17.368"/><use xlink:href="#9" y="19.539"/><use xlink:href="#9" y="21.71"/><use xlink:href="#8" y="23.881"/><use xlink:href="#11" y="26.052"/><use xlink:href="#13" y="28.223"/><use xlink:href="#15" y="30.394"/><use xlink:href="#16" y="32.565"/><use xlink:href="#17" y="34.736"/><use xlink:href="#18" y="36.907"/><use xlink:href="#19" y="39.078"/><use xlink:href="#20" y="41.249"/><use xlink:href="#21" y="43.42"/><use xlink:href="#22" y="45.591"/></svg><svg x="5184"><use xlink:href="#a"/><use xlink:href="#b" x="8.996" y="47.737"/><use xlink:href="#2"/><use xlink:href="#3" y="2.171"/><use xlink:href="#4" y="4.342"/><use xlink:href="#7" y="6.513"/><use xlink:href="#8" y="10.855"/><use xlink:href="#9" y="13.026"/><use xlink:href="#9" y="15.197"/><use xlink:href="#10" y="17.368"/><use xlink:href="#9" y="19.539"/><use xlink:href="#9" y="21.71"/><use xlink:href="#8" y="23.881"/><use xlink:href="#11" y="26.052"/><use xlink:href="#13" y="28.223"/><use xlink:href="#15" y="30.394"/><use xlink:href="#16" y="32.565"/><use xlink:href="#17" y="34.736"/><use xlink:href="#18" y="36.907"/><use xlink:href="#19" y="39.078"/><use xlink:href="#20" y="41.249"/><use xlink:href="#21" y="43.42"/><use xlink:href="#22" y="45.591"/><use xlink:href="#1" y="47.762"/></svg><svg x="5280"><use xlink:href="#a"/><use xlink:href="#b" x="-.004" y="49.908"/><use xlink:href="#2"/><use xlink:href="#3" y="2.171"/><use xlink:href="#4" y="4.342"/><use xlink:href="#7" y="6.513"/><use xlink:href="#8" y="10.855"/><use xlink:href="#9" y="13.026"/><use xlink:href="#9" y="15.197"/><use xlink:href="#10" y="17.368"/><use xlink:href="#9" y="19.539"/><use xlink:href="#9" y="21.71"/><use xlink:href="#8" y="23.881"/><use xlink:href="#11" y="26.052"/><use xlink:href="#13" y="28.223"/><use xlink:href="#15" y="30.394"/><use xlink:href="#16" y="32.565"/><use xlink:href="#17" y="34.736"/><use xlink:href="#18" y="36.907"/><use xlink:href="#19" y="39.078"/><use xlink:href="#20" y="41.249"/><use xlink:href="#21" y="43.42"/><use xlink:href="#22" y="45.591"/><text y="49.432" class="f">grades3</text><text x="8.016" y="49.432" class="f">$exit</text></svg></svg></g></g></svg></svg>