<svg xmlns="http://www.w3.org/2000/svg" xmlns:xlink="http://www.w3.org/1999/xlink" width="1000" height="429.07"><rect width="1000" height="429.07" rx="5" ry="5" class="a"/><svg y="0%" x="0%"><circle cx="20" cy="20" r="6" fill="#ff5f58"/><circle cx="40" cy="20" r="6" fill="#ffbd2e"/><circle cx="60" cy="20" r="6" fill="#18c132"/></svg><svg height="369.07" viewBox="0 0 96 36.907" width="960" x="15" xmlns="http://www.w3.org/2000/svg" xmlns:xlink="http://www.w3.org/1999/xlink" y="50"><style>@keyframes i{0%{transform:translateX(0)}.03%{transform:translateX(-96px)}1.76%{transform:translateX(-192px)}2.11%{transform:translateX(-288px)}2.89%{transform:translateX(-384px)}3.69%{transform:translateX(-480px)}4.3%{transform:translateX(-576px)}4.39%{transform:translateX(-672px)}8.3%{transform:translateX(-768px)}11.13%{transform:translateX(-864px)}11.84%{transform:translateX(-960px)}12.79%{transform:translateX(-1056px)}13.31%{transform:translateX(-1152px)}14.13%{transform:translateX(-1248px)}14.8%{transform:translateX(-1344px)}15.3%{transform:translateX(-1440px)}15.33%{transform:translateX(-1536px)}20.32%{transform:translateX(-1632px)}26.25%{transform:translateX(-1728px)}28.76%{transform:translateX(-1824px)}29.48%{transform:translateX(-1920px)}30.07%{transform:translateX(-2016px)}30.75%{transform:translateX(-2112px)}33.59%{transform:translateX(-2304px)}43.72%{transform:translateX(-2400px)}44.93%{transform:translateX(-2496px)}47.51%{transform:translateX(-2592px)}50.79%{transform:translateX(-2688px)}51.69%{transform:translateX(-2784px)}54.21%{transform:translateX(-2880px)}60.97%{transform:translateX(-2976px)}61.75%{transform:translateX(-3072px)}64.1%{transform:translateX(-3168px)}64.6%{transform:translateX(-3264px)}65.38%{transform:translateX(-3360px)}67.25%{transform:translateX(-3456px)}68.86%{transform:translateX(-3552px)}69.87%{transform:translateX(-3648px)}71.63%{transform:translateX(-3744px)}73.7%{transform:translateX(-3840px)}77.85%{transform:translateX(-3936px)}83.26%{transform:translateX(-4032px)}86.71%{transform:translateX(-4224px)}to{transform:translateX(-4320px)}}.a{fill:#000}.f{fill:#28fe14;white-space:pre}</style><g font-family="Monaco,Consolas,Menlo,'Bitstream Vera Sans Mono','Powerline Symbols',monospace" font-size="1.67"><defs><symbol id="1"><text y="1.67" class="f">grades1</text><text x="8.016" y="1.67" class="f">$</text></symbol><symbol id="2"><text y="1.67" class="f">grades1</text><text x="8.016" y="1.67" class="f">$make</text></symbol><symbol id="3"><text y="1.67" class="f">g++</text><text x="4.008" y="1.67" class="f">-o</text><text x="7.014" y="1.67" class="f">main</text><text x="12.024" y="1.67" class="f">main.cpp</text></symbol><symbol id="4"><text y="1.67" class="f">grades1</text><text x="8.016" y="1.67" class="f">$./main</text></symbol><symbol id="5"><text y="1.67" class="f">Please</text><text x="7.014" y="1.67" class="f">enter</text><text x="13.026" y="1.67" class="f">your</text><text x="18.036" y="1.67" class="f">first</text><text x="24.048" y="1.67" class="f">name:</text><text x="30.06" y="1.67" class="f">Edward</text></symbol><symbol id="6"><text y="1.67" class="f">********************</text></symbol><symbol id="7"><text y="1.67" class="f">*</text><text x="19.038" y="1.67" class="f">*</text></symbol><symbol id="8"><text y="1.67" class="f">*</text><text x="3.006" y="1.67" class="f">Hello,</text><text x="10.02" y="1.67" class="f">Edward!</text><text x="19.038" y="1.67" class="f">*</text></symbol><symbol id="9"><text y="1.67" class="f">Please</text><text x="7.014" y="1.67" class="f">enter</text><text x="13.026" y="1.67" class="f">your</text><text x="18.036" y="1.67" class="f">midterm</text><text x="26.052" y="1.67" class="f">and</text><text x="30.06" y="1.67" class="f">final</text><text x="36.072" y="1.67" class="f">exam</text><text x="41.082" y="1.67" class="f">grades:</text><text x="49.098" y="1.67" class="f">78</text></symbol><symbol id="10"><text y="1.67" class="f">Please</text><text x="7.014" y="1.67" class="f">enter</text><text x="13.026" y="1.67" class="f">your</text><text x="18.036" y="1.67" class="f">midterm</text><text x="26.052" y="1.67" class="f">and</text><text x="30.06" y="1.67" class="f">final</text><text x="36.072" y="1.67" class="f">exam</text><text x="41.082" y="1.67" class="f">grades:</text><text x="49.098" y="1.67" class="f">78</text><text x="52.104" y="1.67" class="f">81</text></symbol><symbol id="11"><text y="1.67" class="f">Enter</text><text x="6.012" y="1.67" class="f">all</text><text x="10.02" y="1.67" class="f">your</text><text x="15.03" y="1.67" class="f">homework</text><text x="24.048" y="1.67" class="f">grades,</text><text x="32.064" y="1.67" class="f">followed</text><text x="41.082" y="1.67" class="f">by</text><text x="44.088" y="1.67" class="f">end-of-file:</text><text x="57.114" y="1.67" class="f">65</text></symbol><symbol id="12"><text y="1.67" class="f">Enter</text><text x="6.012" y="1.67" class="f">all</text><text x="10.02" y="1.67" class="f">your</text><text x="15.03" y="1.67" class="f">homework</text><text x="24.048" y="1.67" class="f">grades,</text><text x="32.064" y="1.67" class="f">followed</text><text x="41.082" y="1.67" class="f">by</text><text x="44.088" y="1.67" class="f">end-of-file:</text><text x="57.114" y="1.67" class="f">65</text><text x="60.12" y="1.67" class="f">78</text></symbol><symbol id="13"><text y="1.67" class="f">Enter</text><text x="6.012" y="1.67" class="f">all</text><text x="10.02" y="1.67" class="f">your</text><text x="15.03" y="1.67" class="f">homework</text><text x="24.048" y="1.67" class="f">grades,</text><text x="32.064" y="1.67" class="f">followed</text><text x="41.082" y="1.67" class="f">by</text><text x="44.088" y="1.67" class="f">end-of-file:</text><text x="57.114" y="1.67" class="f">65</text><text x="60.12" y="1.67" class="f">78</text><text x="63.126" y="1.67" class="f">93</text></symbol><symbol id="14"><text y="1.67" class="f">Enter</text><text x="6.012" y="1.67" class="f">all</text><text x="10.02" y="1.67" class="f">your</text><text x="15.03" y="1.67" class="f">homework</text><text x="24.048" y="1.67" class="f">grades,</text><text x="32.064" y="1.67" class="f">followed</text><text x="41.082" y="1.67" class="f">by</text><text x="44.088" y="1.67" class="f">end-of-file:</text><text x="57.114" y="1.67" class="f">65</text><text x="60.12" y="1.67" class="f">78</text><text x="63.126" y="1.67" class="f">93</text><text x="66.132" y="1.67" class="f">56</text></symbol><symbol id="15"><text y="1.67" class="f">Your</text><text x="5.01" y="1.67" class="f">final</text><text x="11.022" y="1.67" class="f">grade</text><text x="17.034" y="1.67" class="f">is</text><text x="20.04" y="1.67" class="f">77.2</text></symbol><symbol id="a"><path fill="transparent" d="M0 0h96v18H0z"/></symbol><symbol id="b"><path fill="#38fe27" d="M0 0h1.102v2.171H0z"/></symbol></defs><path class="a" d="M0 0h96v36.907H0z"/><g style="animation-duration:37.617309s;animation-iteration-count:infinite;animation-name:i;animation-timing-function:steps(1,end)"><svg width="4416"><svg><use xlink:href="#a"/><use xlink:href="#b" x="-.004"/></svg><svg x="96"><use xlink:href="#a"/><use xlink:href="#b" x="8.996"/><use xlink:href="#1"/></svg><svg x="192"><use xlink:href="#a"/><use xlink:href="#b" x="9.996"/><text y="1.67" class="f">grades1</text><text x="8.016" y="1.67" class="f">$m</text></svg><svg x="288"><use xlink:href="#a"/><use xlink:href="#b" x="10.996"/><text y="1.67" class="f">grades1</text><text x="8.016" y="1.67" class="f">$ma</text></svg><svg x="384"><use xlink:href="#a"/><use xlink:href="#b" x="11.996"/><text y="1.67" class="f">grades1</text><text x="8.016" y="1.67" class="f">$mak</text></svg><svg x="480"><use xlink:href="#a"/><use xlink:href="#b" x="12.996"/><use xlink:href="#2"/></svg><svg x="576"><use xlink:href="#a"/><use xlink:href="#b" x="-.004" y="2.146"/><use xlink:href="#2"/></svg><svg x="672"><use xlink:href="#a"/><use xlink:href="#b" x="-.004" y="4.317"/><use xlink:href="#2"/><use xlink:href="#3" y="2.171"/></svg><svg x="768"><use xlink:href="#a"/><use xlink:href="#b" x="8.996" y="4.317"/><use xlink:href="#2"/><use xlink:href="#3" y="2.171"/><use xlink:href="#1" y="4.342"/></svg><svg x="864"><use xlink:href="#a"/><use xlink:href="#b" x="9.996" y="4.317"/><use xlink:href="#2"/><use xlink:href="#3" y="2.171"/><text y="6.012" class="f">grades1</text><text x="8.016" y="6.012" class="f">$.</text></svg><svg x="960"><use xlink:href="#a"/><use xlink:href="#b" x="10.996" y="4.317"/><use xlink:href="#2"/><use xlink:href="#3" y="2.171"/><text y="6.012" class="f">grades1</text><text x="8.016" y="6.012" class="f">$./</text></svg><svg x="1056"><use xlink:href="#a"/><use xlink:href="#b" x="11.996" y="4.317"/><use xlink:href="#2"/><use xlink:href="#3" y="2.171"/><text y="6.012" class="f">grades1</text><text x="8.016" y="6.012" class="f">$./m</text></svg><svg x="1152"><use xlink:href="#a"/><use xlink:href="#b" x="12.996" y="4.317"/><use xlink:href="#2"/><use xlink:href="#3" y="2.171"/><text y="6.012" class="f">grades1</text><text x="8.016" y="6.012" class="f">$./ma</text></svg><svg x="1248"><use xlink:href="#a"/><use xlink:href="#b" x="13.996" y="4.317"/><use xlink:href="#2"/><use xlink:href="#3" y="2.171"/><text y="6.012" class="f">grades1</text><text x="8.016" y="6.012" class="f">$./mai</text></svg><svg x="1344"><use xlink:href="#a"/><use xlink:href="#b" x="14.996" y="4.317"/><use xlink:href="#2"/><use xlink:href="#3" y="2.171"/><use xlink:href="#4" y="4.342"/></svg><svg x="1440"><use xlink:href="#a"/><use xlink:href="#b" x="-.004" y="6.488"/><use xlink:href="#2"/><use xlink:href="#3" y="2.171"/><use xlink:href="#4" y="4.342"/></svg><svg x="1536"><use xlink:href="#a"/><use xlink:href="#b" x="29.996" y="6.488"/><use xlink:href="#2"/><use xlink:href="#3" y="2.171"/><use xlink:href="#4" y="4.342"/><text y="8.183" class="f">Please</text><text x="7.014" y="8.183" class="f">enter</text><text x="13.026" y="8.183" class="f">your</text><text x="18.036" y="8.183" class="f">first</text><text x="24.048" y="8.183" class="f">name:</text></svg><svg x="1632"><use xlink:href="#a"/><use xlink:href="#b" x="30.996" y="6.488"/><use xlink:href="#2"/><use xlink:href="#3" y="2.171"/><use xlink:href="#4" y="4.342"/><text y="8.183" class="f">Please</text><text x="7.014" y="8.183" class="f">enter</text><text x="13.026" y="8.183" class="f">your</text><text x="18.036" y="8.183" class="f">first</text><text x="24.048" y="8.183" class="f">name:</text><text x="30.06" y="8.183" class="f">E</text></svg><svg x="1728"><use xlink:href="#a"/><use xlink:href="#b" x="31.996" y="6.488"/><use xlink:href="#2"/><use xlink:href="#3" y="2.171"/><use xlink:href="#4" y="4.342"/><text y="8.183" class="f">Please</text><text x="7.014" y="8.183" class="f">enter</text><text x="13.026" y="8.183" class="f">your</text><text x="18.036" y="8.183" class="f">first</text><text x="24.048" y="8.183" class="f">name:</text><text x="30.06" y="8.183" class="f">Ed</text></svg><svg x="1824"><use xlink:href="#a"/><use xlink:href="#b" x="32.996" y="6.488"/><use xlink:href="#2"/><use xlink:href="#3" y="2.171"/><use xlink:href="#4" y="4.342"/><text y="8.183" class="f">Please</text><text x="7.014" y="8.183" class="f">enter</text><text x="13.026" y="8.183" class="f">your</text><text x="18.036" y="8.183" class="f">first</text><text x="24.048" y="8.183" class="f">name:</text><text x="30.06" y="8.183" class="f">Edw</text></svg><svg x="1920"><use xlink:href="#a"/><use xlink:href="#b" x="33.996" y="6.488"/><use xlink:href="#2"/><use xlink:href="#3" y="2.171"/><use xlink:href="#4" y="4.342"/><text y="8.183" class="f">Please</text><text x="7.014" y="8.183" class="f">enter</text><text x="13.026" y="8.183" class="f">your</text><text x="18.036" y="8.183" class="f">first</text><text x="24.048" y="8.183" class="f">name:</text><text x="30.06" y="8.183" class="f">Edwa</text></svg><svg x="2016"><use xlink:href="#a"/><use xlink:href="#b" x="34.996" y="6.488"/><use xlink:href="#2"/><use xlink:href="#3" y="2.171"/><use xlink:href="#4" y="4.342"/><text y="8.183" class="f">Please</text><text x="7.014" y="8.183" class="f">enter</text><text x="13.026" y="8.183" class="f">your</text><text x="18.036" y="8.183" class="f">first</text><text x="24.048" y="8.183" class="f">name:</text><text x="30.06" y="8.183" class="f">Edwar</text></svg><svg x="2112"><use xlink:href="#a"/><use xlink:href="#b" x="35.996" y="6.488"/><use xlink:href="#2"/><use xlink:href="#3" y="2.171"/><use xlink:href="#4" y="4.342"/><use xlink:href="#5" y="6.513"/></svg><svg x="2208"><use xlink:href="#a"/><use xlink:href="#b" x="-.004" y="8.659"/><use xlink:href="#2"/><use xlink:href="#3" y="2.171"/><use xlink:href="#4" y="4.342"/><use xlink:href="#5" y="6.513"/></svg><svg x="2304"><use xlink:href="#a"/><use xlink:href="#b" x="48.996" y="26.027"/><use xlink:href="#2"/><use xlink:href="#3" y="2.171"/><use xlink:href="#4" y="4.342"/><use xlink:href="#5" y="6.513"/><use xlink:href="#6" y="10.855"/><use xlink:href="#7" y="13.026"/><use xlink:href="#7" y="15.197"/><use xlink:href="#8" y="17.368"/><use xlink:href="#7" y="19.539"/><use xlink:href="#7" y="21.71"/><use xlink:href="#6" y="23.881"/><text y="27.722" class="f">Please</text><text x="7.014" y="27.722" class="f">enter</text><text x="13.026" y="27.722" class="f">your</text><text x="18.036" y="27.722" class="f">midterm</text><text x="26.052" y="27.722" class="f">and</text><text x="30.06" y="27.722" class="f">final</text><text x="36.072" y="27.722" class="f">exam</text><text x="41.082" y="27.722" class="f">grades:</text></svg><svg x="2400"><use xlink:href="#a"/><use xlink:href="#b" x="49.996" y="26.027"/><use xlink:href="#2"/><use xlink:href="#3" y="2.171"/><use xlink:href="#4" y="4.342"/><use xlink:href="#5" y="6.513"/><use xlink:href="#6" y="10.855"/><use xlink:href="#7" y="13.026"/><use xlink:href="#7" y="15.197"/><use xlink:href="#8" y="17.368"/><use xlink:href="#7" y="19.539"/><use xlink:href="#7" y="21.71"/><use xlink:href="#6" y="23.881"/><text y="27.722" class="f">Please</text><text x="7.014" y="27.722" class="f">enter</text><text x="13.026" y="27.722" class="f">your</text><text x="18.036" y="27.722" class="f">midterm</text><text x="26.052" y="27.722" class="f">and</text><text x="30.06" y="27.722" class="f">final</text><text x="36.072" y="27.722" class="f">exam</text><text x="41.082" y="27.722" class="f">grades:</text><text x="49.098" y="27.722" class="f">7</text></svg><svg x="2496"><use xlink:href="#a"/><use xlink:href="#b" x="50.996" y="26.027"/><use xlink:href="#2"/><use xlink:href="#3" y="2.171"/><use xlink:href="#4" y="4.342"/><use xlink:href="#5" y="6.513"/><use xlink:href="#6" y="10.855"/><use xlink:href="#7" y="13.026"/><use xlink:href="#7" y="15.197"/><use xlink:href="#8" y="17.368"/><use xlink:href="#7" y="19.539"/><use xlink:href="#7" y="21.71"/><use xlink:href="#6" y="23.881"/><use xlink:href="#9" y="26.052"/></svg><svg x="2592"><use xlink:href="#a"/><use xlink:href="#b" x="51.996" y="26.027"/><use xlink:href="#2"/><use xlink:href="#3" y="2.171"/><use xlink:href="#4" y="4.342"/><use xlink:href="#5" y="6.513"/><use xlink:href="#6" y="10.855"/><use xlink:href="#7" y="13.026"/><use xlink:href="#7" y="15.197"/><use xlink:href="#8" y="17.368"/><use xlink:href="#7" y="19.539"/><use xlink:href="#7" y="21.71"/><use xlink:href="#6" y="23.881"/><use xlink:href="#9" y="26.052"/></svg><svg x="2688"><use xlink:href="#a"/><use xlink:href="#b" x="52.996" y="26.027"/><use xlink:href="#2"/><use xlink:href="#3" y="2.171"/><use xlink:href="#4" y="4.342"/><use xlink:href="#5" y="6.513"/><use xlink:href="#6" y="10.855"/><use xlink:href="#7" y="13.026"/><use xlink:href="#7" y="15.197"/><use xlink:href="#8" y="17.368"/><use xlink:href="#7" y="19.539"/><use xlink:href="#7" y="21.71"/><use xlink:href="#6" y="23.881"/><text y="27.722" class="f">Please</text><text x="7.014" y="27.722" class="f">enter</text><text x="13.026" y="27.722" class="f">your</text><text x="18.036" y="27.722" class="f">midterm</text><text x="26.052" y="27.722" class="f">and</text><text x="30.06" y="27.722" class="f">final</text><text x="36.072" y="27.722" class="f">exam</text><text x="41.082" y="27.722" class="f">grades:</text><text x="49.098" y="27.722" class="f">78</text><text x="52.104" y="27.722" class="f">8</text></svg><svg x="2784"><use xlink:href="#a"/><use xlink:href="#b" x="53.996" y="26.027"/><use xlink:href="#2"/><use xlink:href="#3" y="2.171"/><use xlink:href="#4" y="4.342"/><use xlink:href="#5" y="6.513"/><use xlink:href="#6" y="10.855"/><use xlink:href="#7" y="13.026"/><use xlink:href="#7" y="15.197"/><use xlink:href="#8" y="17.368"/><use xlink:href="#7" y="19.539"/><use xlink:href="#7" y="21.71"/><use xlink:href="#6" y="23.881"/><use xlink:href="#10" y="26.052"/></svg><svg x="2880"><use xlink:href="#a"/><use xlink:href="#b" x="56.996" y="28.198"/><use xlink:href="#2"/><use xlink:href="#3" y="2.171"/><use xlink:href="#4" y="4.342"/><use xlink:href="#5" y="6.513"/><use xlink:href="#6" y="10.855"/><use xlink:href="#7" y="13.026"/><use xlink:href="#7" y="15.197"/><use xlink:href="#8" y="17.368"/><use xlink:href="#7" y="19.539"/><use xlink:href="#7" y="21.71"/><use xlink:href="#6" y="23.881"/><use xlink:href="#10" y="26.052"/><text y="29.893" class="f">Enter</text><text x="6.012" y="29.893" class="f">all</text><text x="10.02" y="29.893" class="f">your</text><text x="15.03" y="29.893" class="f">homework</text><text x="24.048" y="29.893" class="f">grades,</text><text x="32.064" y="29.893" class="f">followed</text><text x="41.082" y="29.893" class="f">by</text><text x="44.088" y="29.893" class="f">end-of-file:</text></svg><svg x="2976"><use xlink:href="#a"/><use xlink:href="#b" x="57.996" y="28.198"/><use xlink:href="#2"/><use xlink:href="#3" y="2.171"/><use xlink:href="#4" y="4.342"/><use xlink:href="#5" y="6.513"/><use xlink:href="#6" y="10.855"/><use xlink:href="#7" y="13.026"/><use xlink:href="#7" y="15.197"/><use xlink:href="#8" y="17.368"/><use xlink:href="#7" y="19.539"/><use xlink:href="#7" y="21.71"/><use xlink:href="#6" y="23.881"/><use xlink:href="#10" y="26.052"/><text y="29.893" class="f">Enter</text><text x="6.012" y="29.893" class="f">all</text><text x="10.02" y="29.893" class="f">your</text><text x="15.03" y="29.893" class="f">homework</text><text x="24.048" y="29.893" class="f">grades,</text><text x="32.064" y="29.893" class="f">followed</text><text x="41.082" y="29.893" class="f">by</text><text x="44.088" y="29.893" class="f">end-of-file:</text><text x="57.114" y="29.893" class="f">6</text></svg><svg x="3072"><use xlink:href="#a"/><use xlink:href="#b" x="58.996" y="28.198"/><use xlink:href="#2"/><use xlink:href="#3" y="2.171"/><use xlink:href="#4" y="4.342"/><use xlink:href="#5" y="6.513"/><use xlink:href="#6" y="10.855"/><use xlink:href="#7" y="13.026"/><use xlink:href="#7" y="15.197"/><use xlink:href="#8" y="17.368"/><use xlink:href="#7" y="19.539"/><use xlink:href="#7" y="21.71"/><use xlink:href="#6" y="23.881"/><use xlink:href="#10" y="26.052"/><use xlink:href="#11" y="28.223"/></svg><svg x="3168"><use xlink:href="#a"/><use xlink:href="#b" x="59.996" y="28.198"/><use xlink:href="#2"/><use xlink:href="#3" y="2.171"/><use xlink:href="#4" y="4.342"/><use xlink:href="#5" y="6.513"/><use xlink:href="#6" y="10.855"/><use xlink:href="#7" y="13.026"/><use xlink:href="#7" y="15.197"/><use xlink:href="#8" y="17.368"/><use xlink:href="#7" y="19.539"/><use xlink:href="#7" y="21.71"/><use xlink:href="#6" y="23.881"/><use xlink:href="#10" y="26.052"/><use xlink:href="#11" y="28.223"/></svg><svg x="3264"><use xlink:href="#a"/><use xlink:href="#b" x="60.996" y="28.198"/><use xlink:href="#2"/><use xlink:href="#3" y="2.171"/><use xlink:href="#4" y="4.342"/><use xlink:href="#5" y="6.513"/><use xlink:href="#6" y="10.855"/><use xlink:href="#7" y="13.026"/><use xlink:href="#7" y="15.197"/><use xlink:href="#8" y="17.368"/><use xlink:href="#7" y="19.539"/><use xlink:href="#7" y="21.71"/><use xlink:href="#6" y="23.881"/><use xlink:href="#10" y="26.052"/><text y="29.893" class="f">Enter</text><text x="6.012" y="29.893" class="f">all</text><text x="10.02" y="29.893" class="f">your</text><text x="15.03" y="29.893" class="f">homework</text><text x="24.048" y="29.893" class="f">grades,</text><text x="32.064" y="29.893" class="f">followed</text><text x="41.082" y="29.893" class="f">by</text><text x="44.088" y="29.893" class="f">end-of-file:</text><text x="57.114" y="29.893" class="f">65</text><text x="60.12" y="29.893" class="f">7</text></svg><svg x="3360"><use xlink:href="#a"/><use xlink:href="#b" x="61.996" y="28.198"/><use xlink:href="#2"/><use xlink:href="#3" y="2.171"/><use xlink:href="#4" y="4.342"/><use xlink:href="#5" y="6.513"/><use xlink:href="#6" y="10.855"/><use xlink:href="#7" y="13.026"/><use xlink:href="#7" y="15.197"/><use xlink:href="#8" y="17.368"/><use xlink:href="#7" y="19.539"/><use xlink:href="#7" y="21.71"/><use xlink:href="#6" y="23.881"/><use xlink:href="#10" y="26.052"/><use xlink:href="#12" y="28.223"/></svg><svg x="3456"><use xlink:href="#a"/><use xlink:href="#b" x="62.996" y="28.198"/><use xlink:href="#2"/><use xlink:href="#3" y="2.171"/><use xlink:href="#4" y="4.342"/><use xlink:href="#5" y="6.513"/><use xlink:href="#6" y="10.855"/><use xlink:href="#7" y="13.026"/><use xlink:href="#7" y="15.197"/><use xlink:href="#8" y="17.368"/><use xlink:href="#7" y="19.539"/><use xlink:href="#7" y="21.71"/><use xlink:href="#6" y="23.881"/><use xlink:href="#10" y="26.052"/><use xlink:href="#12" y="28.223"/></svg><svg x="3552"><use xlink:href="#a"/><use xlink:href="#b" x="63.996" y="28.198"/><use xlink:href="#2"/><use xlink:href="#3" y="2.171"/><use xlink:href="#4" y="4.342"/><use xlink:href="#5" y="6.513"/><use xlink:href="#6" y="10.855"/><use xlink:href="#7" y="13.026"/><use xlink:href="#7" y="15.197"/><use xlink:href="#8" y="17.368"/><use xlink:href="#7" y="19.539"/><use xlink:href="#7" y="21.71"/><use xlink:href="#6" y="23.881"/><use xlink:href="#10" y="26.052"/><text y="29.893" class="f">Enter</text><text x="6.012" y="29.893" class="f">all</text><text x="10.02" y="29.893" class="f">your</text><text x="15.03" y="29.893" class="f">homework</text><text x="24.048" y="29.893" class="f">grades,</text><text x="32.064" y="29.893" class="f">followed</text><text x="41.082" y="29.893" class="f">by</text><text x="44.088" y="29.893" class="f">end-of-file:</text><text x="57.114" y="29.893" class="f">65</text><text x="60.12" y="29.893" class="f">78</text><text x="63.126" y="29.893" class="f">9</text></svg><svg x="3648"><use xlink:href="#a"/><use xlink:href="#b" x="64.996" y="28.198"/><use xlink:href="#2"/><use xlink:href="#3" y="2.171"/><use xlink:href="#4" y="4.342"/><use xlink:href="#5" y="6.513"/><use xlink:href="#6" y="10.855"/><use xlink:href="#7" y="13.026"/><use xlink:href="#7" y="15.197"/><use xlink:href="#8" y="17.368"/><use xlink:href="#7" y="19.539"/><use xlink:href="#7" y="21.71"/><use xlink:href="#6" y="23.881"/><use xlink:href="#10" y="26.052"/><use xlink:href="#13" y="28.223"/></svg><svg x="3744"><use xlink:href="#a"/><use xlink:href="#b" x="65.996" y="28.198"/><use xlink:href="#2"/><use xlink:href="#3" y="2.171"/><use xlink:href="#4" y="4.342"/><use xlink:href="#5" y="6.513"/><use xlink:href="#6" y="10.855"/><use xlink:href="#7" y="13.026"/><use xlink:href="#7" y="15.197"/><use xlink:href="#8" y="17.368"/><use xlink:href="#7" y="19.539"/><use xlink:href="#7" y="21.71"/><use xlink:href="#6" y="23.881"/><use xlink:href="#10" y="26.052"/><use xlink:href="#13" y="28.223"/></svg><svg x="3840"><use xlink:href="#a"/><use xlink:href="#b" x="66.996" y="28.198"/><use xlink:href="#2"/><use xlink:href="#3" y="2.171"/><use xlink:href="#4" y="4.342"/><use xlink:href="#5" y="6.513"/><use xlink:href="#6" y="10.855"/><use xlink:href="#7" y="13.026"/><use xlink:href="#7" y="15.197"/><use xlink:href="#8" y="17.368"/><use xlink:href="#7" y="19.539"/><use xlink:href="#7" y="21.71"/><use xlink:href="#6" y="23.881"/><use xlink:href="#10" y="26.052"/><text y="29.893" class="f">Enter</text><text x="6.012" y="29.893" class="f">all</text><text x="10.02" y="29.893" class="f">your</text><text x="15.03" y="29.893" class="f">homework</text><text x="24.048" y="29.893" class="f">grades,</text><text x="32.064" y="29.893" class="f">followed</text><text x="41.082" y="29.893" class="f">by</text><text x="44.088" y="29.893" class="f">end-of-file:</text><text x="57.114" y="29.893" class="f">65</text><text x="60.12" y="29.893" class="f">78</text><text x="63.126" y="29.893" class="f">93</text><text x="66.132" y="29.893" class="f">5</text></svg><svg x="3936"><use xlink:href="#a"/><use xlink:href="#b" x="67.996" y="28.198"/><use xlink:href="#2"/><use xlink:href="#3" y="2.171"/><use xlink:href="#4" y="4.342"/><use xlink:href="#5" y="6.513"/><use xlink:href="#6" y="10.855"/><use xlink:href="#7" y="13.026"/><use xlink:href="#7" y="15.197"/><use xlink:href="#8" y="17.368"/><use xlink:href="#7" y="19.539"/><use xlink:href="#7" y="21.71"/><use xlink:href="#6" y="23.881"/><use xlink:href="#10" y="26.052"/><use xlink:href="#14" y="28.223"/></svg><svg x="4032"><use xlink:href="#a"/><use xlink:href="#b" x="-.004" y="30.369"/><use xlink:href="#2"/><use xlink:href="#3" y="2.171"/><use xlink:href="#4" y="4.342"/><use xlink:href="#5" y="6.513"/><use xlink:href="#6" y="10.855"/><use xlink:href="#7" y="13.026"/><use xlink:href="#7" y="15.197"/><use xlink:href="#8" y="17.368"/><use xlink:href="#7" y="19.539"/><use xlink:href="#7" y="21.71"/><use xlink:href="#6" y="23.881"/><use xlink:href="#10" y="26.052"/><use xlink:href="#14" y="28.223"/></svg><svg x="4128"><use xlink:href="#a"/><use xlink:href="#b" x="-.004" y="32.54"/><use xlink:href="#2"/><use xlink:href="#3" y="2.171"/><use xlink:href="#4" y="4.342"/><use xlink:href="#5" y="6.513"/><use xlink:href="#6" y="10.855"/><use xlink:href="#7" y="13.026"/><use xlink:href="#7" y="15.197"/><use xlink:href="#8" y="17.368"/><use xlink:href="#7" y="19.539"/><use xlink:href="#7" y="21.71"/><use xlink:href="#6" y="23.881"/><use xlink:href="#10" y="26.052"/><use xlink:href="#14" y="28.223"/><use xlink:href="#15" y="30.394"/></svg><svg x="4224"><use xlink:href="#a"/><use xlink:href="#b" x="8.996" y="32.54"/><use xlink:href="#2"/><use xlink:href="#3" y="2.171"/><use xlink:href="#4" y="4.342"/><use xlink:href="#5" y="6.513"/><use xlink:href="#6" y="10.855"/><use xlink:href="#7" y="13.026"/><use xlink:href="#7" y="15.197"/><use xlink:href="#8" y="17.368"/><use xlink:href="#7" y="19.539"/><use xlink:href="#7" y="21.71"/><use xlink:href="#6" y="23.881"/><use xlink:href="#10" y="26.052"/><use xlink:href="#14" y="28.223"/><use xlink:href="#15" y="30.394"/><use xlink:href="#1" y="32.565"/></svg><svg x="4320"><use xlink:href="#a"/><use xlink:href="#b" x="-.004" y="34.711"/><use xlink:href="#2"/><use xlink:href="#3" y="2.171"/><use xlink:href="#4" y="4.342"/><use xlink:href="#5" y="6.513"/><use xlink:href="#6" y="10.855"/><use xlink:href="#7" y="13.026"/><use xlink:href="#7" y="15.197"/><use xlink:href="#8" y="17.368"/><use xlink:href="#7" y="19.539"/><use xlink:href="#7" y="21.71"/><use xlink:href="#6" y="23.881"/><use xlink:href="#10" y="26.052"/><use xlink:href="#14" y="28.223"/><use xlink:href="#15" y="30.394"/><text y="34.235" class="f">grades1</text><text x="8.016" y="34.235" class="f">$exit</text></svg></svg></g></g></svg></svg>