<svg xmlns="http://www.w3.org/2000/svg" xmlns:xlink="http://www.w3.org/1999/xlink" width="1000" height="342.23"><rect width="1000" height="342.23" rx="5" ry="5" class="a"/><svg y="0%" x="0%"><circle cx="20" cy="20" r="6" fill="#ff5f58"/><circle cx="40" cy="20" r="6" fill="#ffbd2e"/><circle cx="60" cy="20" r="6" fill="#18c132"/></svg><svg height="282.23" viewBox="0 0 96 28.223" width="960" x="15" xmlns="http://www.w3.org/2000/svg" xmlns:xlink="http://www.w3.org/1999/xlink" y="50"><style>@keyframes i{0%{transform:translateX(0)}.11%{transform:translateX(-96px)}3.24%{transform:translateX(-192px)}3.55%{transform:translateX(-288px)}4.22%{transform:translateX(-384px)}4.66%{transform:translateX(-480px)}5.38%{transform:translateX(-576px)}5.52%{transform:translateX(-672px)}7.47%{transform:translateX(-768px)}10.31%{transform:translateX(-864px)}10.94%{transform:translateX(-960px)}11.84%{transform:translateX(-1056px)}12.34%{transform:translateX(-1152px)}12.9%{transform:translateX(-1248px)}13.4%{transform:translateX(-1344px)}14.45%{transform:translateX(-1440px)}14.48%{transform:translateX(-1536px)}20.52%{transform:translateX(-1632px)}24.79%{transform:translateX(-1728px)}26.36%{transform:translateX(-1824px)}27.83%{transform:translateX(-1920px)}29.16%{transform:translateX(-2016px)}30.81%{transform:translateX(-2112px)}32.18%{transform:translateX(-2208px)}33.96%{transform:translateX(-2304px)}35.2%{transform:translateX(-2400px)}36.91%{transform:translateX(-2496px)}38.43%{transform:translateX(-2592px)}39.89%{transform:translateX(-2688px)}41.41%{transform:translateX(-2784px)}43.09%{transform:translateX(-2880px)}44.82%{transform:translateX(-2976px)}46.52%{transform:translateX(-3072px)}48.12%{transform:translateX(-3168px)}49.49%{transform:translateX(-3264px)}51.3%{transform:translateX(-3360px)}52.98%{transform:translateX(-3456px)}54.75%{transform:translateX(-3552px)}56.6%{transform:translateX(-3648px)}58.01%{transform:translateX(-3744px)}58.97%{transform:translateX(-3840px)}60.54%{transform:translateX(-3936px)}62.08%{transform:translateX(-4032px)}63.7%{transform:translateX(-4128px)}65.48%{transform:translateX(-4224px)}67.53%{transform:translateX(-4320px)}69.23%{transform:translateX(-4416px)}70.8%{transform:translateX(-4512px)}72.33%{transform:translateX(-4608px)}73.65%{transform:translateX(-4704px)}77.29%{transform:translateX(-4800px)}83.04%{transform:translateX(-5088px)}to{transform:translateX(-5184px)}}.a{fill:#000}.f{fill:#28fe14;white-space:pre}</style><g font-family="Monaco,Consolas,Menlo,'Bitstream Vera Sans Mono','Powerline Symbols',monospace" font-size="1.67"><defs><symbol id="1"><text y="1.67" class="f">quartiles</text><text x="10.02" y="1.67" class="f">$</text></symbol><symbol id="2"><text y="1.67" class="f">quartiles</text><text x="10.02" y="1.67" class="f">$make</text></symbol><symbol id="3"><text y="1.67" class="f">g++</text><text x="4.008" y="1.67" class="f">-o</text><text x="7.014" y="1.67" class="f">main</text><text x="12.024" y="1.67" class="f">main.cpp</text></symbol><symbol id="4"><text y="1.67" class="f">quartiles</text><text x="10.02" y="1.67" class="f">$./main</text></symbol><symbol id="5"><text y="1.67" class="f">Input</text><text x="6.012" y="1.67" class="f">a</text><text x="8.016" y="1.67" class="f">set</text><text x="12.024" y="1.67" class="f">of</text><text x="15.03" y="1.67" class="f">integers</text><text x="24.048" y="1.67" class="f">to</text><text x="27.054" y="1.67" class="f">find</text><text x="32.064" y="1.67" class="f">the</text><text x="36.072" y="1.67" class="f">quartiles,</text><text x="47.094" y="1.67" class="f">followed</text><text x="56.112" y="1.67" class="f">by</text><text x="59.118" y="1.67" class="f">end-of-file:</text></symbol><symbol id="6"><text y="1.67" class="f">58</text></symbol><symbol id="7"><text y="1.67" class="f">58</text><text x="3.006" y="1.67" class="f">57</text></symbol><symbol id="8"><text y="1.67" class="f">58</text><text x="3.006" y="1.67" class="f">57</text><text x="6.012" y="1.67" class="f">84</text></symbol><symbol id="9"><text y="1.67" class="f">58</text><text x="3.006" y="1.67" class="f">57</text><text x="6.012" y="1.67" class="f">84</text><text x="9.018" y="1.67" class="f">46</text></symbol><symbol id="10"><text y="1.67" class="f">58</text><text x="3.006" y="1.67" class="f">57</text><text x="6.012" y="1.67" class="f">84</text><text x="9.018" y="1.67" class="f">46</text><text x="12.024" y="1.67" class="f">6</text></symbol><symbol id="11"><text y="1.67" class="f">58</text><text x="3.006" y="1.67" class="f">57</text><text x="6.012" y="1.67" class="f">84</text><text x="9.018" y="1.67" class="f">46</text><text x="12.024" y="1.67" class="f">6</text><text x="14.028" y="1.67" class="f">9</text></symbol><symbol id="12"><text y="1.67" class="f">58</text><text x="3.006" y="1.67" class="f">57</text><text x="6.012" y="1.67" class="f">84</text><text x="9.018" y="1.67" class="f">46</text><text x="12.024" y="1.67" class="f">6</text><text x="14.028" y="1.67" class="f">9</text><text x="16.032" y="1.67" class="f">96</text></symbol><symbol id="13"><text y="1.67" class="f">58</text><text x="3.006" y="1.67" class="f">57</text><text x="6.012" y="1.67" class="f">84</text><text x="9.018" y="1.67" class="f">46</text><text x="12.024" y="1.67" class="f">6</text><text x="14.028" y="1.67" class="f">9</text><text x="16.032" y="1.67" class="f">96</text><text x="19.038" y="1.67" class="f">67</text></symbol><symbol id="14"><text y="1.67" class="f">58</text><text x="3.006" y="1.67" class="f">57</text><text x="6.012" y="1.67" class="f">84</text><text x="9.018" y="1.67" class="f">46</text><text x="12.024" y="1.67" class="f">6</text><text x="14.028" y="1.67" class="f">9</text><text x="16.032" y="1.67" class="f">96</text><text x="19.038" y="1.67" class="f">67</text><text x="22.044" y="1.67" class="f">76</text></symbol><symbol id="15"><text y="1.67" class="f">58</text><text x="3.006" y="1.67" class="f">57</text><text x="6.012" y="1.67" class="f">84</text><text x="9.018" y="1.67" class="f">46</text><text x="12.024" y="1.67" class="f">6</text><text x="14.028" y="1.67" class="f">9</text><text x="16.032" y="1.67" class="f">96</text><text x="19.038" y="1.67" class="f">67</text><text x="22.044" y="1.67" class="f">76</text><text x="25.05" y="1.67" class="f">46</text></symbol><symbol id="16"><text y="1.67" class="f">58</text><text x="3.006" y="1.67" class="f">57</text><text x="6.012" y="1.67" class="f">84</text><text x="9.018" y="1.67" class="f">46</text><text x="12.024" y="1.67" class="f">6</text><text x="14.028" y="1.67" class="f">9</text><text x="16.032" y="1.67" class="f">96</text><text x="19.038" y="1.67" class="f">67</text><text x="22.044" y="1.67" class="f">76</text><text x="25.05" y="1.67" class="f">46</text><text x="28.056" y="1.67" class="f">36</text></symbol><symbol id="17"><text y="1.67" class="f">^D</text></symbol><symbol id="18"><text y="1.67" class="f">Minimum:</text><text x="9.018" y="1.67" class="f">6</text></symbol><symbol id="19"><text y="1.67" class="f">Lower</text><text x="6.012" y="1.67" class="f">Quartile:</text><text x="16.032" y="1.67" class="f">41</text></symbol><symbol id="20"><text y="1.67" class="f">Median:</text><text x="8.016" y="1.67" class="f">57</text></symbol><symbol id="21"><text y="1.67" class="f">Upper</text><text x="6.012" y="1.67" class="f">Quartile:</text><text x="16.032" y="1.67" class="f">71.5</text></symbol><symbol id="22"><text y="1.67" class="f">Maximum:</text><text x="9.018" y="1.67" class="f">96</text></symbol><symbol id="a"><path fill="transparent" d="M0 0h96v14H0z"/></symbol><symbol id="b"><path fill="#38fe27" d="M0 0h1.102v2.171H0z"/></symbol></defs><path class="a" d="M0 0h96v28.223H0z"/><g style="animation-duration:29.479851s;animation-iteration-count:infinite;animation-name:i;animation-timing-function:steps(1,end)"><svg width="5280"><svg><use xlink:href="#a"/><use xlink:href="#b" x="-.004"/></svg><svg x="96"><use xlink:href="#a"/><use xlink:href="#b" x="10.996"/><use xlink:href="#1"/></svg><svg x="192"><use xlink:href="#a"/><use xlink:href="#b" x="11.996"/><text y="1.67" class="f">quartiles</text><text x="10.02" y="1.67" class="f">$m</text></svg><svg x="288"><use xlink:href="#a"/><use xlink:href="#b" x="12.996"/><text y="1.67" class="f">quartiles</text><text x="10.02" y="1.67" class="f">$ma</text></svg><svg x="384"><use xlink:href="#a"/><use xlink:href="#b" x="13.996"/><text y="1.67" class="f">quartiles</text><text x="10.02" y="1.67" class="f">$mak</text></svg><svg x="480"><use xlink:href="#a"/><use xlink:href="#b" x="14.996"/><use xlink:href="#2"/></svg><svg x="576"><use xlink:href="#a"/><use xlink:href="#b" x="-.004" y="2.146"/><use xlink:href="#2"/></svg><svg x="672"><use xlink:href="#a"/><use xlink:href="#b" x="-.004" y="4.317"/><use xlink:href="#2"/><use xlink:href="#3" y="2.171"/></svg><svg x="768"><use xlink:href="#a"/><use xlink:href="#b" x="10.996" y="4.317"/><use xlink:href="#2"/><use xlink:href="#3" y="2.171"/><use xlink:href="#1" y="4.342"/></svg><svg x="864"><use xlink:href="#a"/><use xlink:href="#b" x="11.996" y="4.317"/><use xlink:href="#2"/><use xlink:href="#3" y="2.171"/><text y="6.012" class="f">quartiles</text><text x="10.02" y="6.012" class="f">$.</text></svg><svg x="960"><use xlink:href="#a"/><use xlink:href="#b" x="12.996" y="4.317"/><use xlink:href="#2"/><use xlink:href="#3" y="2.171"/><text y="6.012" class="f">quartiles</text><text x="10.02" y="6.012" class="f">$./</text></svg><svg x="1056"><use xlink:href="#a"/><use xlink:href="#b" x="13.996" y="4.317"/><use xlink:href="#2"/><use xlink:href="#3" y="2.171"/><text y="6.012" class="f">quartiles</text><text x="10.02" y="6.012" class="f">$./m</text></svg><svg x="1152"><use xlink:href="#a"/><use xlink:href="#b" x="14.996" y="4.317"/><use xlink:href="#2"/><use xlink:href="#3" y="2.171"/><text y="6.012" class="f">quartiles</text><text x="10.02" y="6.012" class="f">$./ma</text></svg><svg x="1248"><use xlink:href="#a"/><use xlink:href="#b" x="15.996" y="4.317"/><use xlink:href="#2"/><use xlink:href="#3" y="2.171"/><text y="6.012" class="f">quartiles</text><text x="10.02" y="6.012" class="f">$./mai</text></svg><svg x="1344"><use xlink:href="#a"/><use xlink:href="#b" x="16.996" y="4.317"/><use xlink:href="#2"/><use xlink:href="#3" y="2.171"/><use xlink:href="#4" y="4.342"/></svg><svg x="1440"><use xlink:href="#a"/><use xlink:href="#b" x="-.004" y="6.488"/><use xlink:href="#2"/><use xlink:href="#3" y="2.171"/><use xlink:href="#4" y="4.342"/></svg><svg x="1536"><use xlink:href="#a"/><use xlink:href="#b" x="71.996" y="6.488"/><use xlink:href="#2"/><use xlink:href="#3" y="2.171"/><use xlink:href="#4" y="4.342"/><use xlink:href="#5" y="6.513"/></svg><svg x="1632"><use xlink:href="#a"/><use xlink:href="#b" x="-.004" y="8.659"/><use xlink:href="#2"/><use xlink:href="#3" y="2.171"/><use xlink:href="#4" y="4.342"/><use xlink:href="#5" y="6.513"/></svg><svg x="1728"><use xlink:href="#a"/><use xlink:href="#b" x=".996" y="8.659"/><use xlink:href="#2"/><use xlink:href="#3" y="2.171"/><use xlink:href="#4" y="4.342"/><use xlink:href="#5" y="6.513"/><text y="10.354" class="f">5</text></svg><svg x="1824"><use xlink:href="#a"/><use xlink:href="#b" x="1.996" y="8.659"/><use xlink:href="#2"/><use xlink:href="#3" y="2.171"/><use xlink:href="#4" y="4.342"/><use xlink:href="#5" y="6.513"/><use xlink:href="#6" y="8.684"/></svg><svg x="1920"><use xlink:href="#a"/><use xlink:href="#b" x="2.996" y="8.659"/><use xlink:href="#2"/><use xlink:href="#3" y="2.171"/><use xlink:href="#4" y="4.342"/><use xlink:href="#5" y="6.513"/><use xlink:href="#6" y="8.684"/></svg><svg x="2016"><use xlink:href="#a"/><use xlink:href="#b" x="3.996" y="8.659"/><use xlink:href="#2"/><use xlink:href="#3" y="2.171"/><use xlink:href="#4" y="4.342"/><use xlink:href="#5" y="6.513"/><text y="10.354" class="f">58</text><text x="3.006" y="10.354" class="f">5</text></svg><svg x="2112"><use xlink:href="#a"/><use xlink:href="#b" x="4.996" y="8.659"/><use xlink:href="#2"/><use xlink:href="#3" y="2.171"/><use xlink:href="#4" y="4.342"/><use xlink:href="#5" y="6.513"/><use xlink:href="#7" y="8.684"/></svg><svg x="2208"><use xlink:href="#a"/><use xlink:href="#b" x="5.996" y="8.659"/><use xlink:href="#2"/><use xlink:href="#3" y="2.171"/><use xlink:href="#4" y="4.342"/><use xlink:href="#5" y="6.513"/><use xlink:href="#7" y="8.684"/></svg><svg x="2304"><use xlink:href="#a"/><use xlink:href="#b" x="6.996" y="8.659"/><use xlink:href="#2"/><use xlink:href="#3" y="2.171"/><use xlink:href="#4" y="4.342"/><use xlink:href="#5" y="6.513"/><text y="10.354" class="f">58</text><text x="3.006" y="10.354" class="f">57</text><text x="6.012" y="10.354" class="f">8</text></svg><svg x="2400"><use xlink:href="#a"/><use xlink:href="#b" x="7.996" y="8.659"/><use xlink:href="#2"/><use xlink:href="#3" y="2.171"/><use xlink:href="#4" y="4.342"/><use xlink:href="#5" y="6.513"/><use xlink:href="#8" y="8.684"/></svg><svg x="2496"><use xlink:href="#a"/><use xlink:href="#b" x="8.996" y="8.659"/><use xlink:href="#2"/><use xlink:href="#3" y="2.171"/><use xlink:href="#4" y="4.342"/><use xlink:href="#5" y="6.513"/><use xlink:href="#8" y="8.684"/></svg><svg x="2592"><use xlink:href="#a"/><use xlink:href="#b" x="9.996" y="8.659"/><use xlink:href="#2"/><use xlink:href="#3" y="2.171"/><use xlink:href="#4" y="4.342"/><use xlink:href="#5" y="6.513"/><text y="10.354" class="f">58</text><text x="3.006" y="10.354" class="f">57</text><text x="6.012" y="10.354" class="f">84</text><text x="9.018" y="10.354" class="f">4</text></svg><svg x="2688"><use xlink:href="#a"/><use xlink:href="#b" x="10.996" y="8.659"/><use xlink:href="#2"/><use xlink:href="#3" y="2.171"/><use xlink:href="#4" y="4.342"/><use xlink:href="#5" y="6.513"/><use xlink:href="#9" y="8.684"/></svg><svg x="2784"><use xlink:href="#a"/><use xlink:href="#b" x="11.996" y="8.659"/><use xlink:href="#2"/><use xlink:href="#3" y="2.171"/><use xlink:href="#4" y="4.342"/><use xlink:href="#5" y="6.513"/><use xlink:href="#9" y="8.684"/></svg><svg x="2880"><use xlink:href="#a"/><use xlink:href="#b" x="12.996" y="8.659"/><use xlink:href="#2"/><use xlink:href="#3" y="2.171"/><use xlink:href="#4" y="4.342"/><use xlink:href="#5" y="6.513"/><use xlink:href="#10" y="8.684"/></svg><svg x="2976"><use xlink:href="#a"/><use xlink:href="#b" x="13.996" y="8.659"/><use xlink:href="#2"/><use xlink:href="#3" y="2.171"/><use xlink:href="#4" y="4.342"/><use xlink:href="#5" y="6.513"/><use xlink:href="#10" y="8.684"/></svg><svg x="3072"><use xlink:href="#a"/><use xlink:href="#b" x="14.996" y="8.659"/><use xlink:href="#2"/><use xlink:href="#3" y="2.171"/><use xlink:href="#4" y="4.342"/><use xlink:href="#5" y="6.513"/><use xlink:href="#11" y="8.684"/></svg><svg x="3168"><use xlink:href="#a"/><use xlink:href="#b" x="15.996" y="8.659"/><use xlink:href="#2"/><use xlink:href="#3" y="2.171"/><use xlink:href="#4" y="4.342"/><use xlink:href="#5" y="6.513"/><use xlink:href="#11" y="8.684"/></svg><svg x="3264"><use xlink:href="#a"/><use xlink:href="#b" x="16.996" y="8.659"/><use xlink:href="#2"/><use xlink:href="#3" y="2.171"/><use xlink:href="#4" y="4.342"/><use xlink:href="#5" y="6.513"/><text y="10.354" class="f">58</text><text x="3.006" y="10.354" class="f">57</text><text x="6.012" y="10.354" class="f">84</text><text x="9.018" y="10.354" class="f">46</text><text x="12.024" y="10.354" class="f">6</text><text x="14.028" y="10.354" class="f">9</text><text x="16.032" y="10.354" class="f">9</text></svg><svg x="3360"><use xlink:href="#a"/><use xlink:href="#b" x="17.996" y="8.659"/><use xlink:href="#2"/><use xlink:href="#3" y="2.171"/><use xlink:href="#4" y="4.342"/><use xlink:href="#5" y="6.513"/><use xlink:href="#12" y="8.684"/></svg><svg x="3456"><use xlink:href="#a"/><use xlink:href="#b" x="18.996" y="8.659"/><use xlink:href="#2"/><use xlink:href="#3" y="2.171"/><use xlink:href="#4" y="4.342"/><use xlink:href="#5" y="6.513"/><use xlink:href="#12" y="8.684"/></svg><svg x="3552"><use xlink:href="#a"/><use xlink:href="#b" x="19.996" y="8.659"/><use xlink:href="#2"/><use xlink:href="#3" y="2.171"/><use xlink:href="#4" y="4.342"/><use xlink:href="#5" y="6.513"/><text y="10.354" class="f">58</text><text x="3.006" y="10.354" class="f">57</text><text x="6.012" y="10.354" class="f">84</text><text x="9.018" y="10.354" class="f">46</text><text x="12.024" y="10.354" class="f">6</text><text x="14.028" y="10.354" class="f">9</text><text x="16.032" y="10.354" class="f">96</text><text x="19.038" y="10.354" class="f">7</text></svg><svg x="3648"><use xlink:href="#a"/><use xlink:href="#b" x="18.996" y="8.659"/><use xlink:href="#2"/><use xlink:href="#3" y="2.171"/><use xlink:href="#4" y="4.342"/><use xlink:href="#5" y="6.513"/><use xlink:href="#12" y="8.684"/></svg><svg x="3744"><use xlink:href="#a"/><use xlink:href="#b" x="19.996" y="8.659"/><use xlink:href="#2"/><use xlink:href="#3" y="2.171"/><use xlink:href="#4" y="4.342"/><use xlink:href="#5" y="6.513"/><text y="10.354" class="f">58</text><text x="3.006" y="10.354" class="f">57</text><text x="6.012" y="10.354" class="f">84</text><text x="9.018" y="10.354" class="f">46</text><text x="12.024" y="10.354" class="f">6</text><text x="14.028" y="10.354" class="f">9</text><text x="16.032" y="10.354" class="f">96</text><text x="19.038" y="10.354" class="f">6</text></svg><svg x="3840"><use xlink:href="#a"/><use xlink:href="#b" x="20.996" y="8.659"/><use xlink:href="#2"/><use xlink:href="#3" y="2.171"/><use xlink:href="#4" y="4.342"/><use xlink:href="#5" y="6.513"/><use xlink:href="#13" y="8.684"/></svg><svg x="3936"><use xlink:href="#a"/><use xlink:href="#b" x="21.996" y="8.659"/><use xlink:href="#2"/><use xlink:href="#3" y="2.171"/><use xlink:href="#4" y="4.342"/><use xlink:href="#5" y="6.513"/><use xlink:href="#13" y="8.684"/></svg><svg x="4032"><use xlink:href="#a"/><use xlink:href="#b" x="22.996" y="8.659"/><use xlink:href="#2"/><use xlink:href="#3" y="2.171"/><use xlink:href="#4" y="4.342"/><use xlink:href="#5" y="6.513"/><text y="10.354" class="f">58</text><text x="3.006" y="10.354" class="f">57</text><text x="6.012" y="10.354" class="f">84</text><text x="9.018" y="10.354" class="f">46</text><text x="12.024" y="10.354" class="f">6</text><text x="14.028" y="10.354" class="f">9</text><text x="16.032" y="10.354" class="f">96</text><text x="19.038" y="10.354" class="f">67</text><text x="22.044" y="10.354" class="f">7</text></svg><svg x="4128"><use xlink:href="#a"/><use xlink:href="#b" x="23.996" y="8.659"/><use xlink:href="#2"/><use xlink:href="#3" y="2.171"/><use xlink:href="#4" y="4.342"/><use xlink:href="#5" y="6.513"/><use xlink:href="#14" y="8.684"/></svg><svg x="4224"><use xlink:href="#a"/><use xlink:href="#b" x="24.996" y="8.659"/><use xlink:href="#2"/><use xlink:href="#3" y="2.171"/><use xlink:href="#4" y="4.342"/><use xlink:href="#5" y="6.513"/><use xlink:href="#14" y="8.684"/></svg><svg x="4320"><use xlink:href="#a"/><use xlink:href="#b" x="25.996" y="8.659"/><use xlink:href="#2"/><use xlink:href="#3" y="2.171"/><use xlink:href="#4" y="4.342"/><use xlink:href="#5" y="6.513"/><text y="10.354" class="f">58</text><text x="3.006" y="10.354" class="f">57</text><text x="6.012" y="10.354" class="f">84</text><text x="9.018" y="10.354" class="f">46</text><text x="12.024" y="10.354" class="f">6</text><text x="14.028" y="10.354" class="f">9</text><text x="16.032" y="10.354" class="f">96</text><text x="19.038" y="10.354" class="f">67</text><text x="22.044" y="10.354" class="f">76</text><text x="25.05" y="10.354" class="f">4</text></svg><svg x="4416"><use xlink:href="#a"/><use xlink:href="#b" x="26.996" y="8.659"/><use xlink:href="#2"/><use xlink:href="#3" y="2.171"/><use xlink:href="#4" y="4.342"/><use xlink:href="#5" y="6.513"/><use xlink:href="#15" y="8.684"/></svg><svg x="4512"><use xlink:href="#a"/><use xlink:href="#b" x="27.996" y="8.659"/><use xlink:href="#2"/><use xlink:href="#3" y="2.171"/><use xlink:href="#4" y="4.342"/><use xlink:href="#5" y="6.513"/><use xlink:href="#15" y="8.684"/></svg><svg x="4608"><use xlink:href="#a"/><use xlink:href="#b" x="28.996" y="8.659"/><use xlink:href="#2"/><use xlink:href="#3" y="2.171"/><use xlink:href="#4" y="4.342"/><use xlink:href="#5" y="6.513"/><text y="10.354" class="f">58</text><text x="3.006" y="10.354" class="f">57</text><text x="6.012" y="10.354" class="f">84</text><text x="9.018" y="10.354" class="f">46</text><text x="12.024" y="10.354" class="f">6</text><text x="14.028" y="10.354" class="f">9</text><text x="16.032" y="10.354" class="f">96</text><text x="19.038" y="10.354" class="f">67</text><text x="22.044" y="10.354" class="f">76</text><text x="25.05" y="10.354" class="f">46</text><text x="28.056" y="10.354" class="f">3</text></svg><svg x="4704"><use xlink:href="#a"/><use xlink:href="#b" x="29.996" y="8.659"/><use xlink:href="#2"/><use xlink:href="#3" y="2.171"/><use xlink:href="#4" y="4.342"/><use xlink:href="#5" y="6.513"/><use xlink:href="#16" y="8.684"/></svg><svg x="4800"><use xlink:href="#a"/><use xlink:href="#b" x="-.004" y="10.83"/><use xlink:href="#2"/><use xlink:href="#3" y="2.171"/><use xlink:href="#4" y="4.342"/><use xlink:href="#5" y="6.513"/><use xlink:href="#16" y="8.684"/></svg><svg x="4896"><use xlink:href="#a"/><use xlink:href="#b" x="-.004" y="13.001"/><use xlink:href="#2"/><use xlink:href="#3" y="2.171"/><use xlink:href="#4" y="4.342"/><use xlink:href="#5" y="6.513"/><use xlink:href="#16" y="8.684"/><use xlink:href="#17" y="10.855"/></svg><svg x="4992"><use xlink:href="#a"/><use xlink:href="#b" x="-.004" y="23.856"/><use xlink:href="#2"/><use xlink:href="#3" y="2.171"/><use xlink:href="#4" y="4.342"/><use xlink:href="#5" y="6.513"/><use xlink:href="#16" y="8.684"/><use xlink:href="#17" y="10.855"/><use xlink:href="#18" y="13.026"/><use xlink:href="#19" y="15.197"/><use xlink:href="#20" y="17.368"/><use xlink:href="#21" y="19.539"/><use xlink:href="#22" y="21.71"/></svg><svg x="5088"><use xlink:href="#a"/><use xlink:href="#b" x="10.996" y="23.856"/><use xlink:href="#2"/><use xlink:href="#3" y="2.171"/><use xlink:href="#4" y="4.342"/><use xlink:href="#5" y="6.513"/><use xlink:href="#16" y="8.684"/><use xlink:href="#17" y="10.855"/><use xlink:href="#18" y="13.026"/><use xlink:href="#19" y="15.197"/><use xlink:href="#20" y="17.368"/><use xlink:href="#21" y="19.539"/><use xlink:href="#22" y="21.71"/><use xlink:href="#1" y="23.881"/></svg><svg x="5184"><use xlink:href="#a"/><use xlink:href="#b" x="-.004" y="26.027"/><use xlink:href="#2"/><use xlink:href="#3" y="2.171"/><use xlink:href="#4" y="4.342"/><use xlink:href="#5" y="6.513"/><use xlink:href="#16" y="8.684"/><use xlink:href="#17" y="10.855"/><use xlink:href="#18" y="13.026"/><use xlink:href="#19" y="15.197"/><use xlink:href="#20" y="17.368"/><use xlink:href="#21" y="19.539"/><use xlink:href="#22" y="21.71"/><text y="25.551" class="f">quartiles</text><text x="10.02" y="25.551" class="f">$exit</text></svg></svg></g></g></svg></svg>