<svg xmlns="http://www.w3.org/2000/svg" xmlns:xlink="http://www.w3.org/1999/xlink" width="1000" height="472.49"><rect width="1000" height="472.49" rx="5" ry="5" class="a"/><svg y="0%" x="0%"><circle cx="20" cy="20" r="6" fill="#ff5f58"/><circle cx="40" cy="20" r="6" fill="#ffbd2e"/><circle cx="60" cy="20" r="6" fill="#18c132"/></svg><svg height="412.49" viewBox="0 0 96 41.249" width="960" x="15" xmlns="http://www.w3.org/2000/svg" xmlns:xlink="http://www.w3.org/1999/xlink" y="50"><style>@keyframes i{0%{transform:translateX(0)}.09%{transform:translateX(-96px)}3.6%{transform:translateX(-192px)}3.99%{transform:translateX(-288px)}4.76%{transform:translateX(-384px)}5.47%{transform:translateX(-480px)}5.97%{transform:translateX(-576px)}6.03%{transform:translateX(-672px)}8.13%{transform:translateX(-768px)}9.78%{transform:translateX(-864px)}10.48%{transform:translateX(-960px)}11.48%{transform:translateX(-1056px)}12.17%{transform:translateX(-1152px)}12.71%{transform:translateX(-1248px)}13.26%{transform:translateX(-1344px)}15.51%{transform:translateX(-1440px)}15.54%{transform:translateX(-1536px)}23.26%{transform:translateX(-1632px)}25.23%{transform:translateX(-1728px)}26.12%{transform:translateX(-1824px)}26.71%{transform:translateX(-1920px)}28.08%{transform:translateX(-2016px)}28.93%{transform:translateX(-2112px)}30.03%{transform:translateX(-2208px)}31.05%{transform:translateX(-2304px)}31.59%{transform:translateX(-2400px)}32.48%{transform:translateX(-2496px)}33.15%{transform:translateX(-2592px)}34.16%{transform:translateX(-2688px)}34.65%{transform:translateX(-2784px)}35.65%{transform:translateX(-2880px)}36.2%{transform:translateX(-2976px)}37.95%{transform:translateX(-3072px)}40.33%{transform:translateX(-3168px)}41.51%{transform:translateX(-3264px)}41.83%{transform:translateX(-3360px)}42.76%{transform:translateX(-3456px)}44.85%{transform:translateX(-3552px)}47.7%{transform:translateX(-3648px)}48.64%{transform:translateX(-3744px)}49.69%{transform:translateX(-3840px)}50.75%{transform:translateX(-3936px)}51.05%{transform:translateX(-4032px)}51.66%{transform:translateX(-4128px)}52.72%{transform:translateX(-4224px)}53.23%{transform:translateX(-4320px)}54.04%{transform:translateX(-4416px)}54.62%{transform:translateX(-4512px)}57.57%{transform:translateX(-4608px)}58.83%{transform:translateX(-4704px)}59.33%{transform:translateX(-4800px)}59.67%{transform:translateX(-4896px)}60.49%{transform:translateX(-4992px)}61.51%{transform:translateX(-5088px)}61.88%{transform:translateX(-5184px)}64.13%{transform:translateX(-5280px)}65.51%{transform:translateX(-5376px)}66.55%{transform:translateX(-5472px)}68.04%{transform:translateX(-5568px)}68.67%{transform:translateX(-5664px)}69.35%{transform:translateX(-5760px)}72.8%{transform:translateX(-5856px)}79.41%{transform:translateX(-6048px)}to{transform:translateX(-6144px)}}.a{fill:#000}.f{fill:#28fe14;white-space:pre}</style><g font-family="Monaco,Consolas,Menlo,'Bitstream Vera Sans Mono','Powerline Symbols',monospace" font-size="1.67"><defs><symbol id="1"><text y="1.67" class="f">words</text><text x="6.012" y="1.67" class="f">$</text></symbol><symbol id="2"><text y="1.67" class="f">words</text><text x="6.012" y="1.67" class="f">$make</text></symbol><symbol id="3"><text y="1.67" class="f">g++</text><text x="4.008" y="1.67" class="f">-o</text><text x="7.014" y="1.67" class="f">main</text><text x="12.024" y="1.67" class="f">main.cpp</text></symbol><symbol id="4"><text y="1.67" class="f">words</text><text x="6.012" y="1.67" class="f">$./main</text></symbol><symbol id="5"><text y="1.67" class="f">Input</text><text x="6.012" y="1.67" class="f">any</text><text x="10.02" y="1.67" class="f">sequence</text><text x="19.038" y="1.67" class="f">of</text><text x="22.044" y="1.67" class="f">words,</text><text x="29.058" y="1.67" class="f">followed</text><text x="38.076" y="1.67" class="f">by</text><text x="41.082" y="1.67" class="f">end-of-file:</text></symbol><symbol id="6"><text y="1.67" class="f">t</text></symbol><symbol id="7"><text y="1.67" class="f">th</text></symbol><symbol id="8"><text y="1.67" class="f">the</text></symbol><symbol id="9"><text y="1.67" class="f">the</text><text x="4.008" y="1.67" class="f">quick</text></symbol><symbol id="10"><text y="1.67" class="f">the</text><text x="4.008" y="1.67" class="f">quick</text><text x="10.02" y="1.67" class="f">brown</text></symbol><symbol id="11"><text y="1.67" class="f">fox</text></symbol><symbol id="12"><text y="1.67" class="f">fox</text><text x="4.008" y="1.67" class="f">jumps</text></symbol><symbol id="13"><text y="1.67" class="f">fox</text><text x="4.008" y="1.67" class="f">jumps</text><text x="10.02" y="1.67" class="f">over</text></symbol><symbol id="14"><text y="1.67" class="f">the</text><text x="4.008" y="1.67" class="f">lazy</text></symbol><symbol id="15"><text y="1.67" class="f">dog</text></symbol><symbol id="16"><text y="1.67" class="f">Number</text><text x="7.014" y="1.67" class="f">of</text><text x="10.02" y="1.67" class="f">times</text><text x="16.032" y="1.67" class="f">each</text><text x="21.042" y="1.67" class="f">distinct</text><text x="30.06" y="1.67" class="f">word</text><text x="35.07" y="1.67" class="f">appears:</text></symbol><symbol id="17"><text y="1.67" class="f">the:</text><text x="5.01" y="1.67" class="f">2</text></symbol><symbol id="18"><text y="1.67" class="f">quick:</text><text x="7.014" y="1.67" class="f">1</text></symbol><symbol id="19"><text y="1.67" class="f">brown:</text><text x="7.014" y="1.67" class="f">1</text></symbol><symbol id="20"><text y="1.67" class="f">fox:</text><text x="5.01" y="1.67" class="f">1</text></symbol><symbol id="21"><text y="1.67" class="f">jumps:</text><text x="7.014" y="1.67" class="f">1</text></symbol><symbol id="22"><text y="1.67" class="f">over:</text><text x="6.012" y="1.67" class="f">1</text></symbol><symbol id="23"><text y="1.67" class="f">lazy:</text><text x="6.012" y="1.67" class="f">1</text></symbol><symbol id="24"><text y="1.67" class="f">dog:</text><text x="5.01" y="1.67" class="f">1</text></symbol><symbol id="a"><path fill="transparent" d="M0 0h96v20H0z"/></symbol><symbol id="b"><path fill="#38fe27" d="M0 0h1.102v2.171H0z"/></symbol></defs><path class="a" d="M0 0h96v41.249H0z"/><g style="animation-duration:24.286576s;animation-iteration-count:infinite;animation-name:i;animation-timing-function:steps(1,end)"><svg width="6240"><svg><use xlink:href="#a"/><use xlink:href="#b" x="-.004"/></svg><svg x="96"><use xlink:href="#a"/><use xlink:href="#b" x="6.996"/><use xlink:href="#1"/></svg><svg x="192"><use xlink:href="#a"/><use xlink:href="#b" x="7.996"/><text y="1.67" class="f">words</text><text x="6.012" y="1.67" class="f">$m</text></svg><svg x="288"><use xlink:href="#a"/><use xlink:href="#b" x="8.996"/><text y="1.67" class="f">words</text><text x="6.012" y="1.67" class="f">$ma</text></svg><svg x="384"><use xlink:href="#a"/><use xlink:href="#b" x="9.996"/><text y="1.67" class="f">words</text><text x="6.012" y="1.67" class="f">$mak</text></svg><svg x="480"><use xlink:href="#a"/><use xlink:href="#b" x="10.996"/><use xlink:href="#2"/></svg><svg x="576"><use xlink:href="#a"/><use xlink:href="#b" x="-.004" y="2.146"/><use xlink:href="#2"/></svg><svg x="672"><use xlink:href="#a"/><use xlink:href="#b" x="-.004" y="4.317"/><use xlink:href="#2"/><use xlink:href="#3" y="2.171"/></svg><svg x="768"><use xlink:href="#a"/><use xlink:href="#b" x="6.996" y="4.317"/><use xlink:href="#2"/><use xlink:href="#3" y="2.171"/><use xlink:href="#1" y="4.342"/></svg><svg x="864"><use xlink:href="#a"/><use xlink:href="#b" x="7.996" y="4.317"/><use xlink:href="#2"/><use xlink:href="#3" y="2.171"/><text y="6.012" class="f">words</text><text x="6.012" y="6.012" class="f">$.</text></svg><svg x="960"><use xlink:href="#a"/><use xlink:href="#b" x="8.996" y="4.317"/><use xlink:href="#2"/><use xlink:href="#3" y="2.171"/><text y="6.012" class="f">words</text><text x="6.012" y="6.012" class="f">$./</text></svg><svg x="1056"><use xlink:href="#a"/><use xlink:href="#b" x="9.996" y="4.317"/><use xlink:href="#2"/><use xlink:href="#3" y="2.171"/><text y="6.012" class="f">words</text><text x="6.012" y="6.012" class="f">$./m</text></svg><svg x="1152"><use xlink:href="#a"/><use xlink:href="#b" x="10.996" y="4.317"/><use xlink:href="#2"/><use xlink:href="#3" y="2.171"/><text y="6.012" class="f">words</text><text x="6.012" y="6.012" class="f">$./ma</text></svg><svg x="1248"><use xlink:href="#a"/><use xlink:href="#b" x="11.996" y="4.317"/><use xlink:href="#2"/><use xlink:href="#3" y="2.171"/><text y="6.012" class="f">words</text><text x="6.012" y="6.012" class="f">$./mai</text></svg><svg x="1344"><use xlink:href="#a"/><use xlink:href="#b" x="12.996" y="4.317"/><use xlink:href="#2"/><use xlink:href="#3" y="2.171"/><use xlink:href="#4" y="4.342"/></svg><svg x="1440"><use xlink:href="#a"/><use xlink:href="#b" x="-.004" y="6.488"/><use xlink:href="#2"/><use xlink:href="#3" y="2.171"/><use xlink:href="#4" y="4.342"/></svg><svg x="1536"><use xlink:href="#a"/><use xlink:href="#b" x="53.996" y="6.488"/><use xlink:href="#2"/><use xlink:href="#3" y="2.171"/><use xlink:href="#4" y="4.342"/><use xlink:href="#5" y="6.513"/></svg><svg x="1632"><use xlink:href="#a"/><use xlink:href="#b" x="-.004" y="8.659"/><use xlink:href="#2"/><use xlink:href="#3" y="2.171"/><use xlink:href="#4" y="4.342"/><use xlink:href="#5" y="6.513"/></svg><svg x="1728"><use xlink:href="#a"/><use xlink:href="#b" x=".996" y="8.659"/><use xlink:href="#2"/><use xlink:href="#3" y="2.171"/><use xlink:href="#4" y="4.342"/><use xlink:href="#5" y="6.513"/><use xlink:href="#6" y="8.684"/></svg><svg x="1824"><use xlink:href="#a"/><use xlink:href="#b" x="1.996" y="8.659"/><use xlink:href="#2"/><use xlink:href="#3" y="2.171"/><use xlink:href="#4" y="4.342"/><use xlink:href="#5" y="6.513"/><use xlink:href="#7" y="8.684"/></svg><svg x="1920"><use xlink:href="#a"/><use xlink:href="#b" x="2.996" y="8.659"/><use xlink:href="#2"/><use xlink:href="#3" y="2.171"/><use xlink:href="#4" y="4.342"/><use xlink:href="#5" y="6.513"/><use xlink:href="#8" y="8.684"/></svg><svg x="2016"><use xlink:href="#a"/><use xlink:href="#b" x="3.996" y="8.659"/><use xlink:href="#2"/><use xlink:href="#3" y="2.171"/><use xlink:href="#4" y="4.342"/><use xlink:href="#5" y="6.513"/><use xlink:href="#8" y="8.684"/></svg><svg x="2112"><use xlink:href="#a"/><use xlink:href="#b" x="4.996" y="8.659"/><use xlink:href="#2"/><use xlink:href="#3" y="2.171"/><use xlink:href="#4" y="4.342"/><use xlink:href="#5" y="6.513"/><text y="10.354" class="f">the</text><text x="4.008" y="10.354" class="f">q</text></svg><svg x="2208"><use xlink:href="#a"/><use xlink:href="#b" x="5.996" y="8.659"/><use xlink:href="#2"/><use xlink:href="#3" y="2.171"/><use xlink:href="#4" y="4.342"/><use xlink:href="#5" y="6.513"/><text y="10.354" class="f">the</text><text x="4.008" y="10.354" class="f">qu</text></svg><svg x="2304"><use xlink:href="#a"/><use xlink:href="#b" x="6.996" y="8.659"/><use xlink:href="#2"/><use xlink:href="#3" y="2.171"/><use xlink:href="#4" y="4.342"/><use xlink:href="#5" y="6.513"/><text y="10.354" class="f">the</text><text x="4.008" y="10.354" class="f">qui</text></svg><svg x="2400"><use xlink:href="#a"/><use xlink:href="#b" x="7.996" y="8.659"/><use xlink:href="#2"/><use xlink:href="#3" y="2.171"/><use xlink:href="#4" y="4.342"/><use xlink:href="#5" y="6.513"/><text y="10.354" class="f">the</text><text x="4.008" y="10.354" class="f">quic</text></svg><svg x="2496"><use xlink:href="#a"/><use xlink:href="#b" x="8.996" y="8.659"/><use xlink:href="#2"/><use xlink:href="#3" y="2.171"/><use xlink:href="#4" y="4.342"/><use xlink:href="#5" y="6.513"/><use xlink:href="#9" y="8.684"/></svg><svg x="2592"><use xlink:href="#a"/><use xlink:href="#b" x="9.996" y="8.659"/><use xlink:href="#2"/><use xlink:href="#3" y="2.171"/><use xlink:href="#4" y="4.342"/><use xlink:href="#5" y="6.513"/><use xlink:href="#9" y="8.684"/></svg><svg x="2688"><use xlink:href="#a"/><use xlink:href="#b" x="10.996" y="8.659"/><use xlink:href="#2"/><use xlink:href="#3" y="2.171"/><use xlink:href="#4" y="4.342"/><use xlink:href="#5" y="6.513"/><text y="10.354" class="f">the</text><text x="4.008" y="10.354" class="f">quick</text><text x="10.02" y="10.354" class="f">b</text></svg><svg x="2784"><use xlink:href="#a"/><use xlink:href="#b" x="11.996" y="8.659"/><use xlink:href="#2"/><use xlink:href="#3" y="2.171"/><use xlink:href="#4" y="4.342"/><use xlink:href="#5" y="6.513"/><text y="10.354" class="f">the</text><text x="4.008" y="10.354" class="f">quick</text><text x="10.02" y="10.354" class="f">br</text></svg><svg x="2880"><use xlink:href="#a"/><use xlink:href="#b" x="12.996" y="8.659"/><use xlink:href="#2"/><use xlink:href="#3" y="2.171"/><use xlink:href="#4" y="4.342"/><use xlink:href="#5" y="6.513"/><text y="10.354" class="f">the</text><text x="4.008" y="10.354" class="f">quick</text><text x="10.02" y="10.354" class="f">bro</text></svg><svg x="2976"><use xlink:href="#a"/><use xlink:href="#b" x="13.996" y="8.659"/><use xlink:href="#2"/><use xlink:href="#3" y="2.171"/><use xlink:href="#4" y="4.342"/><use xlink:href="#5" y="6.513"/><text y="10.354" class="f">the</text><text x="4.008" y="10.354" class="f">quick</text><text x="10.02" y="10.354" class="f">brow</text></svg><svg x="3072"><use xlink:href="#a"/><use xlink:href="#b" x="14.996" y="8.659"/><use xlink:href="#2"/><use xlink:href="#3" y="2.171"/><use xlink:href="#4" y="4.342"/><use xlink:href="#5" y="6.513"/><use xlink:href="#10" y="8.684"/></svg><svg x="3168"><use xlink:href="#a"/><use xlink:href="#b" x="-.004" y="10.83"/><use xlink:href="#2"/><use xlink:href="#3" y="2.171"/><use xlink:href="#4" y="4.342"/><use xlink:href="#5" y="6.513"/><use xlink:href="#10" y="8.684"/></svg><svg x="3264"><use xlink:href="#a"/><use xlink:href="#b" x=".996" y="10.83"/><use xlink:href="#2"/><use xlink:href="#3" y="2.171"/><use xlink:href="#4" y="4.342"/><use xlink:href="#5" y="6.513"/><use xlink:href="#10" y="8.684"/><text y="12.525" class="f">f</text></svg><svg x="3360"><use xlink:href="#a"/><use xlink:href="#b" x="1.996" y="10.83"/><use xlink:href="#2"/><use xlink:href="#3" y="2.171"/><use xlink:href="#4" y="4.342"/><use xlink:href="#5" y="6.513"/><use xlink:href="#10" y="8.684"/><text y="12.525" class="f">fo</text></svg><svg x="3456"><use xlink:href="#a"/><use xlink:href="#b" x="2.996" y="10.83"/><use xlink:href="#2"/><use xlink:href="#3" y="2.171"/><use xlink:href="#4" y="4.342"/><use xlink:href="#5" y="6.513"/><use xlink:href="#10" y="8.684"/><use xlink:href="#11" y="10.855"/></svg><svg x="3552"><use xlink:href="#a"/><use xlink:href="#b" x="3.996" y="10.83"/><use xlink:href="#2"/><use xlink:href="#3" y="2.171"/><use xlink:href="#4" y="4.342"/><use xlink:href="#5" y="6.513"/><use xlink:href="#10" y="8.684"/><use xlink:href="#11" y="10.855"/></svg><svg x="3648"><use xlink:href="#a"/><use xlink:href="#b" x="4.996" y="10.83"/><use xlink:href="#2"/><use xlink:href="#3" y="2.171"/><use xlink:href="#4" y="4.342"/><use xlink:href="#5" y="6.513"/><use xlink:href="#10" y="8.684"/><text y="12.525" class="f">fox</text><text x="4.008" y="12.525" class="f">j</text></svg><svg x="3744"><use xlink:href="#a"/><use xlink:href="#b" x="5.996" y="10.83"/><use xlink:href="#2"/><use xlink:href="#3" y="2.171"/><use xlink:href="#4" y="4.342"/><use xlink:href="#5" y="6.513"/><use xlink:href="#10" y="8.684"/><text y="12.525" class="f">fox</text><text x="4.008" y="12.525" class="f">ju</text></svg><svg x="3840"><use xlink:href="#a"/><use xlink:href="#b" x="6.996" y="10.83"/><use xlink:href="#2"/><use xlink:href="#3" y="2.171"/><use xlink:href="#4" y="4.342"/><use xlink:href="#5" y="6.513"/><use xlink:href="#10" y="8.684"/><text y="12.525" class="f">fox</text><text x="4.008" y="12.525" class="f">jum</text></svg><svg x="3936"><use xlink:href="#a"/><use xlink:href="#b" x="7.996" y="10.83"/><use xlink:href="#2"/><use xlink:href="#3" y="2.171"/><use xlink:href="#4" y="4.342"/><use xlink:href="#5" y="6.513"/><use xlink:href="#10" y="8.684"/><text y="12.525" class="f">fox</text><text x="4.008" y="12.525" class="f">jump</text></svg><svg x="4032"><use xlink:href="#a"/><use xlink:href="#b" x="8.996" y="10.83"/><use xlink:href="#2"/><use xlink:href="#3" y="2.171"/><use xlink:href="#4" y="4.342"/><use xlink:href="#5" y="6.513"/><use xlink:href="#10" y="8.684"/><use xlink:href="#12" y="10.855"/></svg><svg x="4128"><use xlink:href="#a"/><use xlink:href="#b" x="9.996" y="10.83"/><use xlink:href="#2"/><use xlink:href="#3" y="2.171"/><use xlink:href="#4" y="4.342"/><use xlink:href="#5" y="6.513"/><use xlink:href="#10" y="8.684"/><use xlink:href="#12" y="10.855"/></svg><svg x="4224"><use xlink:href="#a"/><use xlink:href="#b" x="10.996" y="10.83"/><use xlink:href="#2"/><use xlink:href="#3" y="2.171"/><use xlink:href="#4" y="4.342"/><use xlink:href="#5" y="6.513"/><use xlink:href="#10" y="8.684"/><text y="12.525" class="f">fox</text><text x="4.008" y="12.525" class="f">jumps</text><text x="10.02" y="12.525" class="f">o</text></svg><svg x="4320"><use xlink:href="#a"/><use xlink:href="#b" x="11.996" y="10.83"/><use xlink:href="#2"/><use xlink:href="#3" y="2.171"/><use xlink:href="#4" y="4.342"/><use xlink:href="#5" y="6.513"/><use xlink:href="#10" y="8.684"/><text y="12.525" class="f">fox</text><text x="4.008" y="12.525" class="f">jumps</text><text x="10.02" y="12.525" class="f">ov</text></svg><svg x="4416"><use xlink:href="#a"/><use xlink:href="#b" x="12.996" y="10.83"/><use xlink:href="#2"/><use xlink:href="#3" y="2.171"/><use xlink:href="#4" y="4.342"/><use xlink:href="#5" y="6.513"/><use xlink:href="#10" y="8.684"/><text y="12.525" class="f">fox</text><text x="4.008" y="12.525" class="f">jumps</text><text x="10.02" y="12.525" class="f">ove</text></svg><svg x="4512"><use xlink:href="#a"/><use xlink:href="#b" x="13.996" y="10.83"/><use xlink:href="#2"/><use xlink:href="#3" y="2.171"/><use xlink:href="#4" y="4.342"/><use xlink:href="#5" y="6.513"/><use xlink:href="#10" y="8.684"/><use xlink:href="#13" y="10.855"/></svg><svg x="4608"><use xlink:href="#a"/><use xlink:href="#b" x="-.004" y="13.001"/><use xlink:href="#2"/><use xlink:href="#3" y="2.171"/><use xlink:href="#4" y="4.342"/><use xlink:href="#5" y="6.513"/><use xlink:href="#10" y="8.684"/><use xlink:href="#13" y="10.855"/></svg><svg x="4704"><use xlink:href="#a"/><use xlink:href="#b" x=".996" y="13.001"/><use xlink:href="#2"/><use xlink:href="#3" y="2.171"/><use xlink:href="#4" y="4.342"/><use xlink:href="#5" y="6.513"/><use xlink:href="#10" y="8.684"/><use xlink:href="#13" y="10.855"/><use xlink:href="#6" y="13.026"/></svg><svg x="4800"><use xlink:href="#a"/><use xlink:href="#b" x="1.996" y="13.001"/><use xlink:href="#2"/><use xlink:href="#3" y="2.171"/><use xlink:href="#4" y="4.342"/><use xlink:href="#5" y="6.513"/><use xlink:href="#10" y="8.684"/><use xlink:href="#13" y="10.855"/><use xlink:href="#7" y="13.026"/></svg><svg x="4896"><use xlink:href="#a"/><use xlink:href="#b" x="2.996" y="13.001"/><use xlink:href="#2"/><use xlink:href="#3" y="2.171"/><use xlink:href="#4" y="4.342"/><use xlink:href="#5" y="6.513"/><use xlink:href="#10" y="8.684"/><use xlink:href="#13" y="10.855"/><use xlink:href="#8" y="13.026"/></svg><svg x="4992"><use xlink:href="#a"/><use xlink:href="#b" x="3.996" y="13.001"/><use xlink:href="#2"/><use xlink:href="#3" y="2.171"/><use xlink:href="#4" y="4.342"/><use xlink:href="#5" y="6.513"/><use xlink:href="#10" y="8.684"/><use xlink:href="#13" y="10.855"/><use xlink:href="#8" y="13.026"/></svg><svg x="5088"><use xlink:href="#a"/><use xlink:href="#b" x="4.996" y="13.001"/><use xlink:href="#2"/><use xlink:href="#3" y="2.171"/><use xlink:href="#4" y="4.342"/><use xlink:href="#5" y="6.513"/><use xlink:href="#10" y="8.684"/><use xlink:href="#13" y="10.855"/><text y="14.696" class="f">the</text><text x="4.008" y="14.696" class="f">l</text></svg><svg x="5184"><use xlink:href="#a"/><use xlink:href="#b" x="5.996" y="13.001"/><use xlink:href="#2"/><use xlink:href="#3" y="2.171"/><use xlink:href="#4" y="4.342"/><use xlink:href="#5" y="6.513"/><use xlink:href="#10" y="8.684"/><use xlink:href="#13" y="10.855"/><text y="14.696" class="f">the</text><text x="4.008" y="14.696" class="f">la</text></svg><svg x="5280"><use xlink:href="#a"/><use xlink:href="#b" x="6.996" y="13.001"/><use xlink:href="#2"/><use xlink:href="#3" y="2.171"/><use xlink:href="#4" y="4.342"/><use xlink:href="#5" y="6.513"/><use xlink:href="#10" y="8.684"/><use xlink:href="#13" y="10.855"/><text y="14.696" class="f">the</text><text x="4.008" y="14.696" class="f">laz</text></svg><svg x="5376"><use xlink:href="#a"/><use xlink:href="#b" x="7.996" y="13.001"/><use xlink:href="#2"/><use xlink:href="#3" y="2.171"/><use xlink:href="#4" y="4.342"/><use xlink:href="#5" y="6.513"/><use xlink:href="#10" y="8.684"/><use xlink:href="#13" y="10.855"/><use xlink:href="#14" y="13.026"/></svg><svg x="5472"><use xlink:href="#a"/><use xlink:href="#b" x="-.004" y="15.172"/><use xlink:href="#2"/><use xlink:href="#3" y="2.171"/><use xlink:href="#4" y="4.342"/><use xlink:href="#5" y="6.513"/><use xlink:href="#10" y="8.684"/><use xlink:href="#13" y="10.855"/><use xlink:href="#14" y="13.026"/></svg><svg x="5568"><use xlink:href="#a"/><use xlink:href="#b" x=".996" y="15.172"/><use xlink:href="#2"/><use xlink:href="#3" y="2.171"/><use xlink:href="#4" y="4.342"/><use xlink:href="#5" y="6.513"/><use xlink:href="#10" y="8.684"/><use xlink:href="#13" y="10.855"/><use xlink:href="#14" y="13.026"/><text y="16.867" class="f">d</text></svg><svg x="5664"><use xlink:href="#a"/><use xlink:href="#b" x="1.996" y="15.172"/><use xlink:href="#2"/><use xlink:href="#3" y="2.171"/><use xlink:href="#4" y="4.342"/><use xlink:href="#5" y="6.513"/><use xlink:href="#10" y="8.684"/><use xlink:href="#13" y="10.855"/><use xlink:href="#14" y="13.026"/><text y="16.867" class="f">do</text></svg><svg x="5760"><use xlink:href="#a"/><use xlink:href="#b" x="2.996" y="15.172"/><use xlink:href="#2"/><use xlink:href="#3" y="2.171"/><use xlink:href="#4" y="4.342"/><use xlink:href="#5" y="6.513"/><use xlink:href="#10" y="8.684"/><use xlink:href="#13" y="10.855"/><use xlink:href="#14" y="13.026"/><use xlink:href="#15" y="15.197"/></svg><svg x="5856"><use xlink:href="#a"/><use xlink:href="#b" x="-.004" y="17.343"/><use xlink:href="#2"/><use xlink:href="#3" y="2.171"/><use xlink:href="#4" y="4.342"/><use xlink:href="#5" y="6.513"/><use xlink:href="#10" y="8.684"/><use xlink:href="#13" y="10.855"/><use xlink:href="#14" y="13.026"/><use xlink:href="#15" y="15.197"/></svg><svg x="5952"><use xlink:href="#a"/><use xlink:href="#b" x="-.004" y="36.882"/><use xlink:href="#2"/><use xlink:href="#3" y="2.171"/><use xlink:href="#4" y="4.342"/><use xlink:href="#5" y="6.513"/><use xlink:href="#10" y="8.684"/><use xlink:href="#13" y="10.855"/><use xlink:href="#14" y="13.026"/><use xlink:href="#15" y="15.197"/><use xlink:href="#16" y="17.368"/><use xlink:href="#17" y="19.539"/><use xlink:href="#18" y="21.71"/><use xlink:href="#19" y="23.881"/><use xlink:href="#20" y="26.052"/><use xlink:href="#21" y="28.223"/><use xlink:href="#22" y="30.394"/><use xlink:href="#23" y="32.565"/><use xlink:href="#24" y="34.736"/></svg><svg x="6048"><use xlink:href="#a"/><use xlink:href="#b" x="6.996" y="36.882"/><use xlink:href="#2"/><use xlink:href="#3" y="2.171"/><use xlink:href="#4" y="4.342"/><use xlink:href="#5" y="6.513"/><use xlink:href="#10" y="8.684"/><use xlink:href="#13" y="10.855"/><use xlink:href="#14" y="13.026"/><use xlink:href="#15" y="15.197"/><use xlink:href="#16" y="17.368"/><use xlink:href="#17" y="19.539"/><use xlink:href="#18" y="21.71"/><use xlink:href="#19" y="23.881"/><use xlink:href="#20" y="26.052"/><use xlink:href="#21" y="28.223"/><use xlink:href="#22" y="30.394"/><use xlink:href="#23" y="32.565"/><use xlink:href="#24" y="34.736"/><use xlink:href="#1" y="36.907"/></svg><svg x="6144"><use xlink:href="#a"/><use xlink:href="#b" x="-.004" y="39.053"/><use xlink:href="#2"/><use xlink:href="#3" y="2.171"/><use xlink:href="#4" y="4.342"/><use xlink:href="#5" y="6.513"/><use xlink:href="#10" y="8.684"/><use xlink:href="#13" y="10.855"/><use xlink:href="#14" y="13.026"/><use xlink:href="#15" y="15.197"/><use xlink:href="#16" y="17.368"/><use xlink:href="#17" y="19.539"/><use xlink:href="#18" y="21.71"/><use xlink:href="#19" y="23.881"/><use xlink:href="#20" y="26.052"/><use xlink:href="#21" y="28.223"/><use xlink:href="#22" y="30.394"/><use xlink:href="#23" y="32.565"/><use xlink:href="#24" y="34.736"/><text y="38.577" class="f">words</text><text x="6.012" y="38.577" class="f">$exit</text></svg></svg></g></g></svg></svg>