<svg xmlns="http://www.w3.org/2000/svg" xmlns:xlink="http://www.w3.org/1999/xlink" width="1000" height="429.07"><rect width="1000" height="429.07" rx="5" ry="5" class="a"/><svg y="0%" x="0%"><circle cx="20" cy="20" r="6" fill="#ff5f58"/><circle cx="40" cy="20" r="6" fill="#ffbd2e"/><circle cx="60" cy="20" r="6" fill="#18c132"/></svg><svg height="369.07" viewBox="0 0 96 36.907" width="960" x="15" xmlns="http://www.w3.org/2000/svg" xmlns:xlink="http://www.w3.org/1999/xlink" y="50"><style>@keyframes i{0%{transform:translateX(0)}.04%{transform:translateX(-96px)}3%{transform:translateX(-192px)}3.37%{transform:translateX(-288px)}3.79%{transform:translateX(-384px)}4.13%{transform:translateX(-480px)}4.54%{transform:translateX(-576px)}4.59%{transform:translateX(-672px)}6.26%{transform:translateX(-768px)}7.37%{transform:translateX(-864px)}7.54%{transform:translateX(-960px)}8.75%{transform:translateX(-1056px)}9.6%{transform:translateX(-1152px)}10.05%{transform:translateX(-1248px)}10.48%{transform:translateX(-1344px)}11.04%{transform:translateX(-1440px)}12.53%{transform:translateX(-1536px)}12.55%{transform:translateX(-1632px)}12.56%{transform:translateX(-1728px)}16.35%{transform:translateX(-1824px)}17.07%{transform:translateX(-1920px)}17.55%{transform:translateX(-2016px)}19.13%{transform:translateX(-2112px)}20.13%{transform:translateX(-2208px)}20.45%{transform:translateX(-2304px)}21.12%{transform:translateX(-2400px)}21.59%{transform:translateX(-2496px)}22.14%{transform:translateX(-2592px)}22.16%{transform:translateX(-2688px)}30.45%{transform:translateX(-2784px)}31.03%{transform:translateX(-2880px)}31.38%{transform:translateX(-2976px)}32.36%{transform:translateX(-3072px)}32.9%{transform:translateX(-3168px)}34.01%{transform:translateX(-3264px)}34.77%{transform:translateX(-3360px)}35.14%{transform:translateX(-3456px)}35.7%{transform:translateX(-3552px)}36.17%{transform:translateX(-3648px)}36.79%{transform:translateX(-3744px)}37.87%{transform:translateX(-3840px)}38.13%{transform:translateX(-3936px)}38.77%{transform:translateX(-4032px)}39.2%{transform:translateX(-4128px)}39.33%{transform:translateX(-4224px)}39.68%{transform:translateX(-4320px)}40.74%{transform:translateX(-4416px)}41.2%{transform:translateX(-4512px)}41.3%{transform:translateX(-4608px)}41.63%{transform:translateX(-4704px)}41.9%{transform:translateX(-4800px)}42.65%{transform:translateX(-4896px)}43.02%{transform:translateX(-4992px)}43.49%{transform:translateX(-5088px)}43.97%{transform:translateX(-5184px)}44.9%{transform:translateX(-5280px)}45.38%{transform:translateX(-5376px)}47.38%{transform:translateX(-5472px)}48.04%{transform:translateX(-5568px)}48.96%{transform:translateX(-5664px)}49.66%{transform:translateX(-5760px)}50.22%{transform:translateX(-5856px)}50.5%{transform:translateX(-5952px)}51.29%{transform:translateX(-6048px)}52.3%{transform:translateX(-6144px)}52.7%{transform:translateX(-6240px)}53.2%{transform:translateX(-6336px)}53.63%{transform:translateX(-6432px)}54.93%{transform:translateX(-6528px)}55.27%{transform:translateX(-6624px)}55.52%{transform:translateX(-6720px)}56.28%{transform:translateX(-6816px)}56.97%{transform:translateX(-6912px)}57.31%{transform:translateX(-7008px)}57.9%{transform:translateX(-7104px)}58.94%{transform:translateX(-7200px)}59%{transform:translateX(-7296px)}60.15%{transform:translateX(-7392px)}60.6%{transform:translateX(-7488px)}60.76%{transform:translateX(-7584px)}61.46%{transform:translateX(-7680px)}62.06%{transform:translateX(-7776px)}62.48%{transform:translateX(-7872px)}62.89%{transform:translateX(-7968px)}63.53%{transform:translateX(-8064px)}68.66%{transform:translateX(-8160px)}68.67%{transform:translateX(-8352px)}to{transform:translateX(-8448px)}}.a{fill:#000}.f{fill:#28fe14;white-space:pre}</style><g font-family="Monaco,Consolas,Menlo,'Bitstream Vera Sans Mono','Powerline Symbols',monospace" font-size="1.67"><defs><symbol id="1"><text y="1.67" class="f">concordance</text><text x="12.024" y="1.67" class="f">$</text></symbol><symbol id="2"><text y="1.67" class="f">concordance</text><text x="12.024" y="1.67" class="f">$make</text></symbol><symbol id="3"><text y="1.67" class="f">g++</text><text x="4.008" y="1.67" class="f">-o</text><text x="7.014" y="1.67" class="f">obj/main.o</text><text x="18.036" y="1.67" class="f">-c</text><text x="21.042" y="1.67" class="f">src/main.cpp</text></symbol><symbol id="4"><text y="1.67" class="f">g++</text><text x="4.008" y="1.67" class="f">-o</text><text x="7.014" y="1.67" class="f">obj/split.o</text><text x="19.038" y="1.67" class="f">-c</text><text x="22.044" y="1.67" class="f">src/split.cpp</text></symbol><symbol id="5"><text y="1.67" class="f">g++</text><text x="4.008" y="1.67" class="f">-g</text><text x="7.014" y="1.67" class="f">-Wall</text><text x="13.026" y="1.67" class="f">-o</text><text x="16.032" y="1.67" class="f">bin/main</text><text x="25.05" y="1.67" class="f">obj/main.o</text><text x="36.072" y="1.67" class="f">obj/split.o</text></symbol><symbol id="6"><text y="1.67" class="f">concordance</text><text x="12.024" y="1.67" class="f">$clear</text></symbol><symbol id="7"><text y="1.67" class="f">concordance</text><text x="12.024" y="1.67" class="f">$bin/main</text></symbol><symbol id="8"><text y="1.67" class="f">Enter</text><text x="6.012" y="1.67" class="f">a</text><text x="8.016" y="1.67" class="f">set</text><text x="12.024" y="1.67" class="f">of</text><text x="15.03" y="1.67" class="f">phrases</text><text x="23.046" y="1.67" class="f">to</text><text x="26.052" y="1.67" class="f">form</text><text x="31.062" y="1.67" class="f">a</text><text x="33.066" y="1.67" class="f">concordance:</text></symbol><symbol id="9"><text y="1.67" class="f">t</text></symbol><symbol id="10"><text y="1.67" class="f">th</text></symbol><symbol id="11"><text y="1.67" class="f">the</text></symbol><symbol id="12"><text y="1.67" class="f">the</text><text x="4.008" y="1.67" class="f">quick</text></symbol><symbol id="13"><text y="1.67" class="f">the</text><text x="4.008" y="1.67" class="f">quick</text><text x="10.02" y="1.67" class="f">b</text></symbol><symbol id="14"><text y="1.67" class="f">the</text><text x="4.008" y="1.67" class="f">quick</text><text x="10.02" y="1.67" class="f">bo</text></symbol><symbol id="15"><text y="1.67" class="f">the</text><text x="4.008" y="1.67" class="f">quick</text><text x="10.02" y="1.67" class="f">be</text></symbol><symbol id="16"><text y="1.67" class="f">the</text><text x="4.008" y="1.67" class="f">quick</text><text x="10.02" y="1.67" class="f">brown</text></symbol><symbol id="17"><text y="1.67" class="f">the</text><text x="4.008" y="1.67" class="f">quick</text><text x="10.02" y="1.67" class="f">brown</text><text x="16.032" y="1.67" class="f">fox</text></symbol><symbol id="18"><text y="1.67" class="f">jumps</text></symbol><symbol id="19"><text y="1.67" class="f">jumps</text><text x="6.012" y="1.67" class="f">over</text></symbol><symbol id="20"><text y="1.67" class="f">the</text><text x="4.008" y="1.67" class="f">laz</text></symbol><symbol id="21"><text y="1.67" class="f">the</text><text x="4.008" y="1.67" class="f">lazt</text></symbol><symbol id="22"><text y="1.67" class="f">the</text><text x="4.008" y="1.67" class="f">lazy</text></symbol><symbol id="23"><text y="1.67" class="f">the</text><text x="4.008" y="1.67" class="f">lazy</text><text x="9.018" y="1.67" class="f">dog</text></symbol><symbol id="24"><text y="1.67" class="f">^D</text></symbol><symbol id="25"><text x="1.002" y="1.67" class="f">the</text><text x="5.01" y="1.67" class="f">quick</text><text x="17.034" y="1.67" class="f">|brown</text><text x="24.048" y="1.67" class="f">fox</text></symbol><symbol id="26"><text x="1.002" y="1.67" class="f">the</text><text x="5.01" y="1.67" class="f">lazy</text><text x="17.034" y="1.67" class="f">|dog</text></symbol><symbol id="27"><text x="1.002" y="1.67" class="f">the</text><text x="5.01" y="1.67" class="f">quick</text><text x="11.022" y="1.67" class="f">brown</text><text x="17.034" y="1.67" class="f">|fox</text></symbol><symbol id="28"><text x="17.034" y="1.67" class="f">|jumps</text><text x="24.048" y="1.67" class="f">over</text></symbol><symbol id="29"><text x="1.002" y="1.67" class="f">the</text><text x="17.034" y="1.67" class="f">|lazy</text><text x="23.046" y="1.67" class="f">dog</text></symbol><symbol id="30"><text x="1.002" y="1.67" class="f">jumps</text><text x="17.034" y="1.67" class="f">|over</text></symbol><symbol id="31"><text x="1.002" y="1.67" class="f">the</text><text x="17.034" y="1.67" class="f">|quick</text><text x="24.048" y="1.67" class="f">brown</text><text x="30.06" y="1.67" class="f">fox</text></symbol><symbol id="32"><text x="17.034" y="1.67" class="f">|the</text><text x="22.044" y="1.67" class="f">lazy</text><text x="27.054" y="1.67" class="f">dog</text></symbol><symbol id="33"><text x="17.034" y="1.67" class="f">|the</text><text x="22.044" y="1.67" class="f">quick</text><text x="28.056" y="1.67" class="f">brown</text><text x="34.068" y="1.67" class="f">fox</text></symbol><symbol id="a"><path fill="transparent" d="M0 0h96v18H0z"/></symbol><symbol id="b"><path fill="#38fe27" d="M0 0h1.102v2.171H0z"/></symbol></defs><path class="a" d="M0 0h96v36.907H0z"/><g style="animation-duration:31.918369s;animation-iteration-count:infinite;animation-name:i;animation-timing-function:steps(1,end)"><svg width="8544"><svg><use xlink:href="#a"/><use xlink:href="#b" x="-.004"/></svg><svg x="96"><use xlink:href="#a"/><use xlink:href="#b" x="12.996"/><use xlink:href="#1"/></svg><svg x="192"><use xlink:href="#a"/><use xlink:href="#b" x="13.996"/><text y="1.67" class="f">concordance</text><text x="12.024" y="1.67" class="f">$m</text></svg><svg x="288"><use xlink:href="#a"/><use xlink:href="#b" x="14.996"/><text y="1.67" class="f">concordance</text><text x="12.024" y="1.67" class="f">$ma</text></svg><svg x="384"><use xlink:href="#a"/><use xlink:href="#b" x="15.996"/><text y="1.67" class="f">concordance</text><text x="12.024" y="1.67" class="f">$mak</text></svg><svg x="480"><use xlink:href="#a"/><use xlink:href="#b" x="16.996"/><use xlink:href="#2"/></svg><svg x="576"><use xlink:href="#a"/><use xlink:href="#b" x="-.004" y="2.146"/><use xlink:href="#2"/></svg><svg x="672"><use xlink:href="#a"/><use xlink:href="#b" x="-.004" y="4.317"/><use xlink:href="#2"/><use xlink:href="#3" y="2.171"/></svg><svg x="768"><use xlink:href="#a"/><use xlink:href="#b" x="-.004" y="6.488"/><use xlink:href="#2"/><use xlink:href="#3" y="2.171"/><use xlink:href="#4" y="4.342"/></svg><svg x="864"><use xlink:href="#a"/><use xlink:href="#b" x="-.004" y="8.659"/><use xlink:href="#2"/><use xlink:href="#3" y="2.171"/><use xlink:href="#4" y="4.342"/><use xlink:href="#5" y="6.513"/></svg><svg x="960"><use xlink:href="#a"/><use xlink:href="#b" x="12.996" y="8.659"/><use xlink:href="#2"/><use xlink:href="#3" y="2.171"/><use xlink:href="#4" y="4.342"/><use xlink:href="#5" y="6.513"/><use xlink:href="#1" y="8.684"/></svg><svg x="1056"><use xlink:href="#a"/><use xlink:href="#b" x="13.996" y="8.659"/><use xlink:href="#2"/><use xlink:href="#3" y="2.171"/><use xlink:href="#4" y="4.342"/><use xlink:href="#5" y="6.513"/><text y="10.354" class="f">concordance</text><text x="12.024" y="10.354" class="f">$c</text></svg><svg x="1152"><use xlink:href="#a"/><use xlink:href="#b" x="14.996" y="8.659"/><use xlink:href="#2"/><use xlink:href="#3" y="2.171"/><use xlink:href="#4" y="4.342"/><use xlink:href="#5" y="6.513"/><text y="10.354" class="f">concordance</text><text x="12.024" y="10.354" class="f">$cl</text></svg><svg x="1248"><use xlink:href="#a"/><use xlink:href="#b" x="15.996" y="8.659"/><use xlink:href="#2"/><use xlink:href="#3" y="2.171"/><use xlink:href="#4" y="4.342"/><use xlink:href="#5" y="6.513"/><text y="10.354" class="f">concordance</text><text x="12.024" y="10.354" class="f">$cle</text></svg><svg x="1344"><use xlink:href="#a"/><use xlink:href="#b" x="16.996" y="8.659"/><use xlink:href="#2"/><use xlink:href="#3" y="2.171"/><use xlink:href="#4" y="4.342"/><use xlink:href="#5" y="6.513"/><text y="10.354" class="f">concordance</text><text x="12.024" y="10.354" class="f">$clea</text></svg><svg x="1440"><use xlink:href="#a"/><use xlink:href="#b" x="17.996" y="8.659"/><use xlink:href="#2"/><use xlink:href="#3" y="2.171"/><use xlink:href="#4" y="4.342"/><use xlink:href="#5" y="6.513"/><use xlink:href="#6" y="8.684"/></svg><svg x="1536"><use xlink:href="#a"/><use xlink:href="#b" x="-.004" y="10.83"/><use xlink:href="#2"/><use xlink:href="#3" y="2.171"/><use xlink:href="#4" y="4.342"/><use xlink:href="#5" y="6.513"/><use xlink:href="#6" y="8.684"/></svg><svg x="1632"><use xlink:href="#a"/><use xlink:href="#b" x="-.004"/></svg><svg x="1728"><use xlink:href="#a"/><use xlink:href="#b" x="12.996"/><use xlink:href="#1"/></svg><svg x="1824"><use xlink:href="#a"/><use xlink:href="#b" x="13.996"/><text y="1.67" class="f">concordance</text><text x="12.024" y="1.67" class="f">$b</text></svg><svg x="1920"><use xlink:href="#a"/><use xlink:href="#b" x="14.996"/><text y="1.67" class="f">concordance</text><text x="12.024" y="1.67" class="f">$bi</text></svg><svg x="2016"><use xlink:href="#a"/><use xlink:href="#b" x="15.996"/><text y="1.67" class="f">concordance</text><text x="12.024" y="1.67" class="f">$bin</text></svg><svg x="2112"><use xlink:href="#a"/><use xlink:href="#b" x="16.996"/><text y="1.67" class="f">concordance</text><text x="12.024" y="1.67" class="f">$bin/</text></svg><svg x="2208"><use xlink:href="#a"/><use xlink:href="#b" x="17.996"/><text y="1.67" class="f">concordance</text><text x="12.024" y="1.67" class="f">$bin/m</text></svg><svg x="2304"><use xlink:href="#a"/><use xlink:href="#b" x="18.996"/><text y="1.67" class="f">concordance</text><text x="12.024" y="1.67" class="f">$bin/ma</text></svg><svg x="2400"><use xlink:href="#a"/><use xlink:href="#b" x="19.996"/><text y="1.67" class="f">concordance</text><text x="12.024" y="1.67" class="f">$bin/mai</text></svg><svg x="2496"><use xlink:href="#a"/><use xlink:href="#b" x="20.996"/><use xlink:href="#7"/></svg><svg x="2592"><use xlink:href="#a"/><use xlink:href="#b" x="-.004" y="2.146"/><use xlink:href="#7"/></svg><svg x="2688"><use xlink:href="#a"/><use xlink:href="#b" x="-.004" y="4.317"/><use xlink:href="#7"/><use xlink:href="#8" y="2.171"/></svg><svg x="2784"><use xlink:href="#a"/><use xlink:href="#b" x=".996" y="4.317"/><use xlink:href="#7"/><use xlink:href="#8" y="2.171"/><use xlink:href="#9" y="4.342"/></svg><svg x="2880"><use xlink:href="#a"/><use xlink:href="#b" x="1.996" y="4.317"/><use xlink:href="#7"/><use xlink:href="#8" y="2.171"/><use xlink:href="#10" y="4.342"/></svg><svg x="2976"><use xlink:href="#a"/><use xlink:href="#b" x="2.996" y="4.317"/><use xlink:href="#7"/><use xlink:href="#8" y="2.171"/><use xlink:href="#11" y="4.342"/></svg><svg x="3072"><use xlink:href="#a"/><use xlink:href="#b" x="3.996" y="4.317"/><use xlink:href="#7"/><use xlink:href="#8" y="2.171"/><use xlink:href="#11" y="4.342"/></svg><svg x="3168"><use xlink:href="#a"/><use xlink:href="#b" x="4.996" y="4.317"/><use xlink:href="#7"/><use xlink:href="#8" y="2.171"/><text y="6.012" class="f">the</text><text x="4.008" y="6.012" class="f">q</text></svg><svg x="3264"><use xlink:href="#a"/><use xlink:href="#b" x="5.996" y="4.317"/><use xlink:href="#7"/><use xlink:href="#8" y="2.171"/><text y="6.012" class="f">the</text><text x="4.008" y="6.012" class="f">qu</text></svg><svg x="3360"><use xlink:href="#a"/><use xlink:href="#b" x="6.996" y="4.317"/><use xlink:href="#7"/><use xlink:href="#8" y="2.171"/><text y="6.012" class="f">the</text><text x="4.008" y="6.012" class="f">qui</text></svg><svg x="3456"><use xlink:href="#a"/><use xlink:href="#b" x="7.996" y="4.317"/><use xlink:href="#7"/><use xlink:href="#8" y="2.171"/><text y="6.012" class="f">the</text><text x="4.008" y="6.012" class="f">quic</text></svg><svg x="3552"><use xlink:href="#a"/><use xlink:href="#b" x="8.996" y="4.317"/><use xlink:href="#7"/><use xlink:href="#8" y="2.171"/><use xlink:href="#12" y="4.342"/></svg><svg x="3648"><use xlink:href="#a"/><use xlink:href="#b" x="9.996" y="4.317"/><use xlink:href="#7"/><use xlink:href="#8" y="2.171"/><use xlink:href="#12" y="4.342"/></svg><svg x="3744"><use xlink:href="#a"/><use xlink:href="#b" x="10.996" y="4.317"/><use xlink:href="#7"/><use xlink:href="#8" y="2.171"/><use xlink:href="#13" y="4.342"/></svg><svg x="3840"><use xlink:href="#a"/><use xlink:href="#b" x="11.996" y="4.317"/><use xlink:href="#7"/><use xlink:href="#8" y="2.171"/><use xlink:href="#14" y="4.342"/></svg><svg x="3936"><use xlink:href="#a"/><use xlink:href="#b" x="12.996" y="4.317"/><use xlink:href="#7"/><use xlink:href="#8" y="2.171"/><text y="6.012" class="f">the</text><text x="4.008" y="6.012" class="f">quick</text><text x="10.02" y="6.012" class="f">boe</text></svg><svg x="4032"><use xlink:href="#a"/><use xlink:href="#b" x="11.996" y="4.317"/><use xlink:href="#7"/><use xlink:href="#8" y="2.171"/><use xlink:href="#14" y="4.342"/></svg><svg x="4128"><use xlink:href="#a"/><use xlink:href="#b" x="10.996" y="4.317"/><use xlink:href="#7"/><use xlink:href="#8" y="2.171"/><use xlink:href="#13" y="4.342"/></svg><svg x="4224"><use xlink:href="#a"/><use xlink:href="#b" x="11.996" y="4.317"/><use xlink:href="#7"/><use xlink:href="#8" y="2.171"/><use xlink:href="#15" y="4.342"/></svg><svg x="4320"><use xlink:href="#a"/><use xlink:href="#b" x="12.996" y="4.317"/><use xlink:href="#7"/><use xlink:href="#8" y="2.171"/><text y="6.012" class="f">the</text><text x="4.008" y="6.012" class="f">quick</text><text x="10.02" y="6.012" class="f">beo</text></svg><svg x="4416"><use xlink:href="#a"/><use xlink:href="#b" x="11.996" y="4.317"/><use xlink:href="#7"/><use xlink:href="#8" y="2.171"/><use xlink:href="#15" y="4.342"/></svg><svg x="4512"><use xlink:href="#a"/><use xlink:href="#b" x="10.996" y="4.317"/><use xlink:href="#7"/><use xlink:href="#8" y="2.171"/><use xlink:href="#13" y="4.342"/></svg><svg x="4608"><use xlink:href="#a"/><use xlink:href="#b" x="11.996" y="4.317"/><use xlink:href="#7"/><use xlink:href="#8" y="2.171"/><text y="6.012" class="f">the</text><text x="4.008" y="6.012" class="f">quick</text><text x="10.02" y="6.012" class="f">br</text></svg><svg x="4704"><use xlink:href="#a"/><use xlink:href="#b" x="12.996" y="4.317"/><use xlink:href="#7"/><use xlink:href="#8" y="2.171"/><text y="6.012" class="f">the</text><text x="4.008" y="6.012" class="f">quick</text><text x="10.02" y="6.012" class="f">bro</text></svg><svg x="4800"><use xlink:href="#a"/><use xlink:href="#b" x="13.996" y="4.317"/><use xlink:href="#7"/><use xlink:href="#8" y="2.171"/><text y="6.012" class="f">the</text><text x="4.008" y="6.012" class="f">quick</text><text x="10.02" y="6.012" class="f">brow</text></svg><svg x="4896"><use xlink:href="#a"/><use xlink:href="#b" x="14.996" y="4.317"/><use xlink:href="#7"/><use xlink:href="#8" y="2.171"/><use xlink:href="#16" y="4.342"/></svg><svg x="4992"><use xlink:href="#a"/><use xlink:href="#b" x="15.996" y="4.317"/><use xlink:href="#7"/><use xlink:href="#8" y="2.171"/><use xlink:href="#16" y="4.342"/></svg><svg x="5088"><use xlink:href="#a"/><use xlink:href="#b" x="16.996" y="4.317"/><use xlink:href="#7"/><use xlink:href="#8" y="2.171"/><text y="6.012" class="f">the</text><text x="4.008" y="6.012" class="f">quick</text><text x="10.02" y="6.012" class="f">brown</text><text x="16.032" y="6.012" class="f">f</text></svg><svg x="5184"><use xlink:href="#a"/><use xlink:href="#b" x="17.996" y="4.317"/><use xlink:href="#7"/><use xlink:href="#8" y="2.171"/><text y="6.012" class="f">the</text><text x="4.008" y="6.012" class="f">quick</text><text x="10.02" y="6.012" class="f">brown</text><text x="16.032" y="6.012" class="f">fo</text></svg><svg x="5280"><use xlink:href="#a"/><use xlink:href="#b" x="18.996" y="4.317"/><use xlink:href="#7"/><use xlink:href="#8" y="2.171"/><use xlink:href="#17" y="4.342"/></svg><svg x="5376"><use xlink:href="#a"/><use xlink:href="#b" x="-.004" y="6.488"/><use xlink:href="#7"/><use xlink:href="#8" y="2.171"/><use xlink:href="#17" y="4.342"/></svg><svg x="5472"><use xlink:href="#a"/><use xlink:href="#b" x=".996" y="6.488"/><use xlink:href="#7"/><use xlink:href="#8" y="2.171"/><use xlink:href="#17" y="4.342"/><text y="8.183" class="f">j</text></svg><svg x="5568"><use xlink:href="#a"/><use xlink:href="#b" x="1.996" y="6.488"/><use xlink:href="#7"/><use xlink:href="#8" y="2.171"/><use xlink:href="#17" y="4.342"/><text y="8.183" class="f">ju</text></svg><svg x="5664"><use xlink:href="#a"/><use xlink:href="#b" x="2.996" y="6.488"/><use xlink:href="#7"/><use xlink:href="#8" y="2.171"/><use xlink:href="#17" y="4.342"/><text y="8.183" class="f">jum</text></svg><svg x="5760"><use xlink:href="#a"/><use xlink:href="#b" x="3.996" y="6.488"/><use xlink:href="#7"/><use xlink:href="#8" y="2.171"/><use xlink:href="#17" y="4.342"/><text y="8.183" class="f">jump</text></svg><svg x="5856"><use xlink:href="#a"/><use xlink:href="#b" x="4.996" y="6.488"/><use xlink:href="#7"/><use xlink:href="#8" y="2.171"/><use xlink:href="#17" y="4.342"/><use xlink:href="#18" y="6.513"/></svg><svg x="5952"><use xlink:href="#a"/><use xlink:href="#b" x="5.996" y="6.488"/><use xlink:href="#7"/><use xlink:href="#8" y="2.171"/><use xlink:href="#17" y="4.342"/><use xlink:href="#18" y="6.513"/></svg><svg x="6048"><use xlink:href="#a"/><use xlink:href="#b" x="6.996" y="6.488"/><use xlink:href="#7"/><use xlink:href="#8" y="2.171"/><use xlink:href="#17" y="4.342"/><text y="8.183" class="f">jumps</text><text x="6.012" y="8.183" class="f">o</text></svg><svg x="6144"><use xlink:href="#a"/><use xlink:href="#b" x="7.996" y="6.488"/><use xlink:href="#7"/><use xlink:href="#8" y="2.171"/><use xlink:href="#17" y="4.342"/><text y="8.183" class="f">jumps</text><text x="6.012" y="8.183" class="f">ov</text></svg><svg x="6240"><use xlink:href="#a"/><use xlink:href="#b" x="8.996" y="6.488"/><use xlink:href="#7"/><use xlink:href="#8" y="2.171"/><use xlink:href="#17" y="4.342"/><text y="8.183" class="f">jumps</text><text x="6.012" y="8.183" class="f">ove</text></svg><svg x="6336"><use xlink:href="#a"/><use xlink:href="#b" x="9.996" y="6.488"/><use xlink:href="#7"/><use xlink:href="#8" y="2.171"/><use xlink:href="#17" y="4.342"/><use xlink:href="#19" y="6.513"/></svg><svg x="6432"><use xlink:href="#a"/><use xlink:href="#b" x="-.004" y="8.659"/><use xlink:href="#7"/><use xlink:href="#8" y="2.171"/><use xlink:href="#17" y="4.342"/><use xlink:href="#19" y="6.513"/></svg><svg x="6528"><use xlink:href="#a"/><use xlink:href="#b" x=".996" y="8.659"/><use xlink:href="#7"/><use xlink:href="#8" y="2.171"/><use xlink:href="#17" y="4.342"/><use xlink:href="#19" y="6.513"/><use xlink:href="#9" y="8.684"/></svg><svg x="6624"><use xlink:href="#a"/><use xlink:href="#b" x="1.996" y="8.659"/><use xlink:href="#7"/><use xlink:href="#8" y="2.171"/><use xlink:href="#17" y="4.342"/><use xlink:href="#19" y="6.513"/><use xlink:href="#10" y="8.684"/></svg><svg x="6720"><use xlink:href="#a"/><use xlink:href="#b" x="2.996" y="8.659"/><use xlink:href="#7"/><use xlink:href="#8" y="2.171"/><use xlink:href="#17" y="4.342"/><use xlink:href="#19" y="6.513"/><use xlink:href="#11" y="8.684"/></svg><svg x="6816"><use xlink:href="#a"/><use xlink:href="#b" x="3.996" y="8.659"/><use xlink:href="#7"/><use xlink:href="#8" y="2.171"/><use xlink:href="#17" y="4.342"/><use xlink:href="#19" y="6.513"/><use xlink:href="#11" y="8.684"/></svg><svg x="6912"><use xlink:href="#a"/><use xlink:href="#b" x="4.996" y="8.659"/><use xlink:href="#7"/><use xlink:href="#8" y="2.171"/><use xlink:href="#17" y="4.342"/><use xlink:href="#19" y="6.513"/><text y="10.354" class="f">the</text><text x="4.008" y="10.354" class="f">l</text></svg><svg x="7008"><use xlink:href="#a"/><use xlink:href="#b" x="5.996" y="8.659"/><use xlink:href="#7"/><use xlink:href="#8" y="2.171"/><use xlink:href="#17" y="4.342"/><use xlink:href="#19" y="6.513"/><text y="10.354" class="f">the</text><text x="4.008" y="10.354" class="f">la</text></svg><svg x="7104"><use xlink:href="#a"/><use xlink:href="#b" x="6.996" y="8.659"/><use xlink:href="#7"/><use xlink:href="#8" y="2.171"/><use xlink:href="#17" y="4.342"/><use xlink:href="#19" y="6.513"/><use xlink:href="#20" y="8.684"/></svg><svg x="7200"><use xlink:href="#a"/><use xlink:href="#b" x="7.996" y="8.659"/><use xlink:href="#7"/><use xlink:href="#8" y="2.171"/><use xlink:href="#17" y="4.342"/><use xlink:href="#19" y="6.513"/><use xlink:href="#21" y="8.684"/></svg><svg x="7296"><use xlink:href="#a"/><use xlink:href="#b" x="8.996" y="8.659"/><use xlink:href="#7"/><use xlink:href="#8" y="2.171"/><use xlink:href="#17" y="4.342"/><use xlink:href="#19" y="6.513"/><text y="10.354" class="f">the</text><text x="4.008" y="10.354" class="f">lazty</text></svg><svg x="7392"><use xlink:href="#a"/><use xlink:href="#b" x="7.996" y="8.659"/><use xlink:href="#7"/><use xlink:href="#8" y="2.171"/><use xlink:href="#17" y="4.342"/><use xlink:href="#19" y="6.513"/><use xlink:href="#21" y="8.684"/></svg><svg x="7488"><use xlink:href="#a"/><use xlink:href="#b" x="6.996" y="8.659"/><use xlink:href="#7"/><use xlink:href="#8" y="2.171"/><use xlink:href="#17" y="4.342"/><use xlink:href="#19" y="6.513"/><use xlink:href="#20" y="8.684"/></svg><svg x="7584"><use xlink:href="#a"/><use xlink:href="#b" x="7.996" y="8.659"/><use xlink:href="#7"/><use xlink:href="#8" y="2.171"/><use xlink:href="#17" y="4.342"/><use xlink:href="#19" y="6.513"/><use xlink:href="#22" y="8.684"/></svg><svg x="7680"><use xlink:href="#a"/><use xlink:href="#b" x="8.996" y="8.659"/><use xlink:href="#7"/><use xlink:href="#8" y="2.171"/><use xlink:href="#17" y="4.342"/><use xlink:href="#19" y="6.513"/><use xlink:href="#22" y="8.684"/></svg><svg x="7776"><use xlink:href="#a"/><use xlink:href="#b" x="9.996" y="8.659"/><use xlink:href="#7"/><use xlink:href="#8" y="2.171"/><use xlink:href="#17" y="4.342"/><use xlink:href="#19" y="6.513"/><text y="10.354" class="f">the</text><text x="4.008" y="10.354" class="f">lazy</text><text x="9.018" y="10.354" class="f">d</text></svg><svg x="7872"><use xlink:href="#a"/><use xlink:href="#b" x="10.996" y="8.659"/><use xlink:href="#7"/><use xlink:href="#8" y="2.171"/><use xlink:href="#17" y="4.342"/><use xlink:href="#19" y="6.513"/><text y="10.354" class="f">the</text><text x="4.008" y="10.354" class="f">lazy</text><text x="9.018" y="10.354" class="f">do</text></svg><svg x="7968"><use xlink:href="#a"/><use xlink:href="#b" x="11.996" y="8.659"/><use xlink:href="#7"/><use xlink:href="#8" y="2.171"/><use xlink:href="#17" y="4.342"/><use xlink:href="#19" y="6.513"/><use xlink:href="#23" y="8.684"/></svg><svg x="8064"><use xlink:href="#a"/><use xlink:href="#b" x="-.004" y="10.83"/><use xlink:href="#7"/><use xlink:href="#8" y="2.171"/><use xlink:href="#17" y="4.342"/><use xlink:href="#19" y="6.513"/><use xlink:href="#23" y="8.684"/></svg><svg x="8160"><use xlink:href="#a"/><use xlink:href="#b" x="-.004" y="10.83"/><use xlink:href="#7"/><use xlink:href="#8" y="2.171"/><use xlink:href="#17" y="4.342"/><use xlink:href="#19" y="6.513"/><use xlink:href="#23" y="8.684"/><use xlink:href="#24" y="10.855"/></svg><svg x="8256"><use xlink:href="#a"/><use xlink:href="#b" x="-.004" y="32.54"/><use xlink:href="#7"/><use xlink:href="#8" y="2.171"/><use xlink:href="#17" y="4.342"/><use xlink:href="#19" y="6.513"/><use xlink:href="#23" y="8.684"/><use xlink:href="#24" y="10.855"/><use xlink:href="#25" y="13.026"/><use xlink:href="#26" y="15.197"/><use xlink:href="#27" y="17.368"/><use xlink:href="#28" y="19.539"/><use xlink:href="#29" y="21.71"/><use xlink:href="#30" y="23.881"/><use xlink:href="#31" y="26.052"/><use xlink:href="#32" y="28.223"/><use xlink:href="#33" y="30.394"/></svg><svg x="8352"><use xlink:href="#a"/><use xlink:href="#b" x="12.996" y="32.54"/><use xlink:href="#7"/><use xlink:href="#8" y="2.171"/><use xlink:href="#17" y="4.342"/><use xlink:href="#19" y="6.513"/><use xlink:href="#23" y="8.684"/><use xlink:href="#24" y="10.855"/><use xlink:href="#25" y="13.026"/><use xlink:href="#26" y="15.197"/><use xlink:href="#27" y="17.368"/><use xlink:href="#28" y="19.539"/><use xlink:href="#29" y="21.71"/><use xlink:href="#30" y="23.881"/><use xlink:href="#31" y="26.052"/><use xlink:href="#32" y="28.223"/><use xlink:href="#33" y="30.394"/><use xlink:href="#1" y="32.565"/></svg><svg x="8448"><use xlink:href="#a"/><use xlink:href="#b" x="-.004" y="34.711"/><use xlink:href="#7"/><use xlink:href="#8" y="2.171"/><use xlink:href="#17" y="4.342"/><use xlink:href="#19" y="6.513"/><use xlink:href="#23" y="8.684"/><use xlink:href="#24" y="10.855"/><use xlink:href="#25" y="13.026"/><use xlink:href="#26" y="15.197"/><use xlink:href="#27" y="17.368"/><use xlink:href="#28" y="19.539"/><use xlink:href="#29" y="21.71"/><use xlink:href="#30" y="23.881"/><use xlink:href="#31" y="26.052"/><use xlink:href="#32" y="28.223"/><use xlink:href="#33" y="30.394"/><text y="34.235" class="f">concordance</text><text x="12.024" y="34.235" class="f">$exit</text></svg></svg></g></g></svg></svg>