<svg xmlns="http://www.w3.org/2000/svg" xmlns:xlink="http://www.w3.org/1999/xlink" width="1000" height="320.52"><rect width="1000" height="320.52" rx="5" ry="5" class="a"/><svg y="0%" x="0%"><circle cx="20" cy="20" r="6" fill="#ff5f58"/><circle cx="40" cy="20" r="6" fill="#ffbd2e"/><circle cx="60" cy="20" r="6" fill="#18c132"/></svg><svg height="260.52" viewBox="0 0 96 26.052" width="960" x="15" xmlns="http://www.w3.org/2000/svg" xmlns:xlink="http://www.w3.org/1999/xlink" y="50"><style>@keyframes i{0%{transform:translateX(0)}.05%{transform:translateX(-96px)}1.97%{transform:translateX(-192px)}2.65%{transform:translateX(-288px)}3.41%{transform:translateX(-384px)}4%{transform:translateX(-480px)}4.73%{transform:translateX(-576px)}4.79%{transform:translateX(-672px)}6.72%{transform:translateX(-768px)}8.17%{transform:translateX(-864px)}8.37%{transform:translateX(-960px)}10.33%{transform:translateX(-1056px)}10.91%{transform:translateX(-1152px)}11.78%{transform:translateX(-1248px)}12.55%{transform:translateX(-1344px)}13.58%{transform:translateX(-1440px)}14.65%{transform:translateX(-1536px)}14.67%{transform:translateX(-1728px)}17.2%{transform:translateX(-1824px)}18.01%{transform:translateX(-1920px)}18.76%{transform:translateX(-2016px)}20.17%{transform:translateX(-2112px)}21.18%{transform:translateX(-2208px)}21.61%{transform:translateX(-2304px)}22.16%{transform:translateX(-2400px)}22.66%{transform:translateX(-2496px)}23.39%{transform:translateX(-2592px)}23.43%{transform:translateX(-2688px)}28.75%{transform:translateX(-2784px)}30.15%{transform:translateX(-2880px)}31.32%{transform:translateX(-2976px)}32.01%{transform:translateX(-3072px)}32.96%{transform:translateX(-3168px)}33.8%{transform:translateX(-3264px)}34.05%{transform:translateX(-3360px)}34.76%{transform:translateX(-3456px)}35.03%{transform:translateX(-3552px)}35.95%{transform:translateX(-3648px)}36.22%{transform:translateX(-3744px)}37.13%{transform:translateX(-3840px)}38.04%{transform:translateX(-3936px)}38.54%{transform:translateX(-4032px)}39.2%{transform:translateX(-4128px)}39.85%{transform:translateX(-4224px)}40.49%{transform:translateX(-4320px)}40.96%{transform:translateX(-4416px)}42.66%{transform:translateX(-4512px)}43.71%{transform:translateX(-4608px)}44.75%{transform:translateX(-4704px)}45.27%{transform:translateX(-4800px)}46.24%{transform:translateX(-4896px)}46.93%{transform:translateX(-4992px)}47.4%{transform:translateX(-5088px)}47.99%{transform:translateX(-5184px)}48.47%{transform:translateX(-5280px)}48.95%{transform:translateX(-5376px)}49.69%{transform:translateX(-5472px)}49.93%{transform:translateX(-5568px)}50.27%{transform:translateX(-5664px)}50.77%{transform:translateX(-5760px)}51.39%{transform:translateX(-5856px)}52.3%{transform:translateX(-5952px)}52.68%{transform:translateX(-6048px)}52.97%{transform:translateX(-6144px)}53.34%{transform:translateX(-6240px)}53.81%{transform:translateX(-6336px)}54.22%{transform:translateX(-6432px)}55.7%{transform:translateX(-6528px)}56%{transform:translateX(-6624px)}56.32%{transform:translateX(-6720px)}57.42%{transform:translateX(-6816px)}58.81%{transform:translateX(-6912px)}59.73%{transform:translateX(-7008px)}60.07%{transform:translateX(-7104px)}60.37%{transform:translateX(-7200px)}61%{transform:translateX(-7296px)}61.56%{transform:translateX(-7392px)}61.84%{transform:translateX(-7488px)}62.34%{transform:translateX(-7584px)}62.68%{transform:translateX(-7680px)}63.43%{transform:translateX(-7776px)}63.74%{transform:translateX(-7872px)}64.14%{transform:translateX(-7968px)}64.75%{transform:translateX(-8064px)}65.76%{transform:translateX(-8160px)}66.05%{transform:translateX(-8256px)}66.64%{transform:translateX(-8352px)}67.57%{transform:translateX(-8448px)}67.94%{transform:translateX(-8544px)}68.52%{transform:translateX(-8640px)}69.1%{transform:translateX(-8736px)}69.92%{transform:translateX(-8832px)}70.25%{transform:translateX(-8928px)}70.6%{transform:translateX(-9024px)}71.11%{transform:translateX(-9120px)}71.62%{transform:translateX(-9216px)}71.96%{transform:translateX(-9312px)}75.01%{transform:translateX(-9408px)}80.93%{transform:translateX(-9696px)}to{transform:translateX(-9792px)}}.a{fill:#000}.f{fill:#28fe14;white-space:pre}</style><g font-family="Monaco,Consolas,Menlo,'Bitstream Vera Sans Mono','Powerline Symbols',monospace" font-size="1.67"><defs><symbol id="1"><text y="1.67" class="f">framing1</text><text x="9.018" y="1.67" class="f">$</text></symbol><symbol id="2"><text y="1.67" class="f">framing1</text><text x="9.018" y="1.67" class="f">$make</text></symbol><symbol id="3"><text y="1.67" class="f">g++</text><text x="4.008" y="1.67" class="f">-o</text><text x="7.014" y="1.67" class="f">obj/main.o</text><text x="18.036" y="1.67" class="f">-c</text><text x="21.042" y="1.67" class="f">src/main.cpp</text></symbol><symbol id="4"><text y="1.67" class="f">g++</text><text x="4.008" y="1.67" class="f">-o</text><text x="7.014" y="1.67" class="f">obj/char_pic.o</text><text x="22.044" y="1.67" class="f">-c</text><text x="25.05" y="1.67" class="f">src/char_pic.cpp</text></symbol><symbol id="5"><text y="1.67" class="f">g++</text><text x="4.008" y="1.67" class="f">-g</text><text x="7.014" y="1.67" class="f">-Wall</text><text x="13.026" y="1.67" class="f">-o</text><text x="16.032" y="1.67" class="f">bin/main</text><text x="25.05" y="1.67" class="f">obj/main.o</text><text x="36.072" y="1.67" class="f">obj/char_pic.o</text></symbol><symbol id="6"><text y="1.67" class="f">framing1</text><text x="9.018" y="1.67" class="f">$clear</text></symbol><symbol id="7"><text y="1.67" class="f">framing1</text><text x="9.018" y="1.67" class="f">$bin/main</text></symbol><symbol id="8"><text y="1.67" class="f">Input</text><text x="6.012" y="1.67" class="f">lines</text><text x="12.024" y="1.67" class="f">of</text><text x="15.03" y="1.67" class="f">text</text><text x="20.04" y="1.67" class="f">to</text><text x="23.046" y="1.67" class="f">be</text><text x="26.052" y="1.67" class="f">framed,</text><text x="34.068" y="1.67" class="f">followed</text><text x="43.086" y="1.67" class="f">by</text><text x="46.092" y="1.67" class="f">end-of-file:</text></symbol><symbol id="9"><text y="1.67" class="f">This</text></symbol><symbol id="10"><text y="1.67" class="f">This</text><text x="5.01" y="1.67" class="f">is</text></symbol><symbol id="11"><text y="1.67" class="f">This</text><text x="5.01" y="1.67" class="f">is</text><text x="8.016" y="1.67" class="f">a</text></symbol><symbol id="12"><text y="1.67" class="f">This</text><text x="5.01" y="1.67" class="f">is</text><text x="8.016" y="1.67" class="f">a</text><text x="10.02" y="1.67" class="f">sentence</text></symbol><symbol id="13"><text y="1.67" class="f">And</text></symbol><symbol id="14"><text y="1.67" class="f">And</text><text x="4.008" y="1.67" class="f">this</text></symbol><symbol id="15"><text y="1.67" class="f">And</text><text x="4.008" y="1.67" class="f">this</text><text x="9.018" y="1.67" class="f">is</text></symbol><symbol id="16"><text y="1.67" class="f">And</text><text x="4.008" y="1.67" class="f">this</text><text x="9.018" y="1.67" class="f">is</text><text x="12.024" y="1.67" class="f">another</text></symbol><symbol id="17"><text y="1.67" class="f">And</text><text x="4.008" y="1.67" class="f">this</text><text x="9.018" y="1.67" class="f">is</text><text x="12.024" y="1.67" class="f">another</text><text x="20.04" y="1.67" class="f">one</text></symbol><symbol id="18"><text y="1.67" class="f">Finally,</text></symbol><symbol id="19"><text y="1.67" class="f">Finally,</text><text x="9.018" y="1.67" class="f">one</text></symbol><symbol id="20"><text y="1.67" class="f">Finally,</text><text x="9.018" y="1.67" class="f">one</text><text x="13.026" y="1.67" class="f">last</text></symbol><symbol id="21"><text y="1.67" class="f">Finally,</text><text x="9.018" y="1.67" class="f">one</text><text x="13.026" y="1.67" class="f">last</text><text x="18.036" y="1.67" class="f">sentence</text></symbol><symbol id="22"><text y="1.67" class="f">******************************</text></symbol><symbol id="23"><text y="1.67" class="f">*</text><text x="2.004" y="1.67" class="f">This</text><text x="7.014" y="1.67" class="f">is</text><text x="10.02" y="1.67" class="f">a</text><text x="12.024" y="1.67" class="f">sentence</text><text x="29.058" y="1.67" class="f">*</text></symbol><symbol id="24"><text y="1.67" class="f">*</text><text x="2.004" y="1.67" class="f">And</text><text x="6.012" y="1.67" class="f">this</text><text x="11.022" y="1.67" class="f">is</text><text x="14.028" y="1.67" class="f">another</text><text x="22.044" y="1.67" class="f">one</text><text x="29.058" y="1.67" class="f">*</text></symbol><symbol id="25"><text y="1.67" class="f">*</text><text x="2.004" y="1.67" class="f">Finally,</text><text x="11.022" y="1.67" class="f">one</text><text x="15.03" y="1.67" class="f">last</text><text x="20.04" y="1.67" class="f">sentence</text><text x="29.058" y="1.67" class="f">*</text></symbol><symbol id="a"><path fill="transparent" d="M0 0h96v13H0z"/></symbol><symbol id="b"><path fill="#38fe27" d="M0 0h1.102v2.171H0z"/></symbol></defs><path class="a" d="M0 0h96v26.052H0z"/><g style="animation-duration:26.218663s;animation-iteration-count:infinite;animation-name:i;animation-timing-function:steps(1,end)"><svg width="9888"><svg><use xlink:href="#a"/><use xlink:href="#b" x="-.004"/></svg><svg x="96"><use xlink:href="#a"/><use xlink:href="#b" x="9.996"/><use xlink:href="#1"/></svg><svg x="192"><use xlink:href="#a"/><use xlink:href="#b" x="10.996"/><text y="1.67" class="f">framing1</text><text x="9.018" y="1.67" class="f">$m</text></svg><svg x="288"><use xlink:href="#a"/><use xlink:href="#b" x="11.996"/><text y="1.67" class="f">framing1</text><text x="9.018" y="1.67" class="f">$ma</text></svg><svg x="384"><use xlink:href="#a"/><use xlink:href="#b" x="12.996"/><text y="1.67" class="f">framing1</text><text x="9.018" y="1.67" class="f">$mak</text></svg><svg x="480"><use xlink:href="#a"/><use xlink:href="#b" x="13.996"/><use xlink:href="#2"/></svg><svg x="576"><use xlink:href="#a"/><use xlink:href="#b" x="-.004" y="2.146"/><use xlink:href="#2"/></svg><svg x="672"><use xlink:href="#a"/><use xlink:href="#b" x="-.004" y="4.317"/><use xlink:href="#2"/><use xlink:href="#3" y="2.171"/></svg><svg x="768"><use xlink:href="#a"/><use xlink:href="#b" x="-.004" y="6.488"/><use xlink:href="#2"/><use xlink:href="#3" y="2.171"/><use xlink:href="#4" y="4.342"/></svg><svg x="864"><use xlink:href="#a"/><use xlink:href="#b" x="-.004" y="8.659"/><use xlink:href="#2"/><use xlink:href="#3" y="2.171"/><use xlink:href="#4" y="4.342"/><use xlink:href="#5" y="6.513"/></svg><svg x="960"><use xlink:href="#a"/><use xlink:href="#b" x="9.996" y="8.659"/><use xlink:href="#2"/><use xlink:href="#3" y="2.171"/><use xlink:href="#4" y="4.342"/><use xlink:href="#5" y="6.513"/><use xlink:href="#1" y="8.684"/></svg><svg x="1056"><use xlink:href="#a"/><use xlink:href="#b" x="10.996" y="8.659"/><use xlink:href="#2"/><use xlink:href="#3" y="2.171"/><use xlink:href="#4" y="4.342"/><use xlink:href="#5" y="6.513"/><text y="10.354" class="f">framing1</text><text x="9.018" y="10.354" class="f">$c</text></svg><svg x="1152"><use xlink:href="#a"/><use xlink:href="#b" x="11.996" y="8.659"/><use xlink:href="#2"/><use xlink:href="#3" y="2.171"/><use xlink:href="#4" y="4.342"/><use xlink:href="#5" y="6.513"/><text y="10.354" class="f">framing1</text><text x="9.018" y="10.354" class="f">$cl</text></svg><svg x="1248"><use xlink:href="#a"/><use xlink:href="#b" x="12.996" y="8.659"/><use xlink:href="#2"/><use xlink:href="#3" y="2.171"/><use xlink:href="#4" y="4.342"/><use xlink:href="#5" y="6.513"/><text y="10.354" class="f">framing1</text><text x="9.018" y="10.354" class="f">$cle</text></svg><svg x="1344"><use xlink:href="#a"/><use xlink:href="#b" x="13.996" y="8.659"/><use xlink:href="#2"/><use xlink:href="#3" y="2.171"/><use xlink:href="#4" y="4.342"/><use xlink:href="#5" y="6.513"/><text y="10.354" class="f">framing1</text><text x="9.018" y="10.354" class="f">$clea</text></svg><svg x="1440"><use xlink:href="#a"/><use xlink:href="#b" x="14.996" y="8.659"/><use xlink:href="#2"/><use xlink:href="#3" y="2.171"/><use xlink:href="#4" y="4.342"/><use xlink:href="#5" y="6.513"/><use xlink:href="#6" y="8.684"/></svg><svg x="1536"><use xlink:href="#a"/><use xlink:href="#b" x="-.004" y="10.83"/><use xlink:href="#2"/><use xlink:href="#3" y="2.171"/><use xlink:href="#4" y="4.342"/><use xlink:href="#5" y="6.513"/><use xlink:href="#6" y="8.684"/></svg><svg x="1632"><use xlink:href="#a"/><use xlink:href="#b" x="-.004"/></svg><svg x="1728"><use xlink:href="#a"/><use xlink:href="#b" x="9.996"/><use xlink:href="#1"/></svg><svg x="1824"><use xlink:href="#a"/><use xlink:href="#b" x="10.996"/><text y="1.67" class="f">framing1</text><text x="9.018" y="1.67" class="f">$b</text></svg><svg x="1920"><use xlink:href="#a"/><use xlink:href="#b" x="11.996"/><text y="1.67" class="f">framing1</text><text x="9.018" y="1.67" class="f">$bi</text></svg><svg x="2016"><use xlink:href="#a"/><use xlink:href="#b" x="12.996"/><text y="1.67" class="f">framing1</text><text x="9.018" y="1.67" class="f">$bin</text></svg><svg x="2112"><use xlink:href="#a"/><use xlink:href="#b" x="13.996"/><text y="1.67" class="f">framing1</text><text x="9.018" y="1.67" class="f">$bin/</text></svg><svg x="2208"><use xlink:href="#a"/><use xlink:href="#b" x="14.996"/><text y="1.67" class="f">framing1</text><text x="9.018" y="1.67" class="f">$bin/m</text></svg><svg x="2304"><use xlink:href="#a"/><use xlink:href="#b" x="15.996"/><text y="1.67" class="f">framing1</text><text x="9.018" y="1.67" class="f">$bin/ma</text></svg><svg x="2400"><use xlink:href="#a"/><use xlink:href="#b" x="16.996"/><text y="1.67" class="f">framing1</text><text x="9.018" y="1.67" class="f">$bin/mai</text></svg><svg x="2496"><use xlink:href="#a"/><use xlink:href="#b" x="17.996"/><use xlink:href="#7"/></svg><svg x="2592"><use xlink:href="#a"/><use xlink:href="#b" x="-.004" y="2.146"/><use xlink:href="#7"/></svg><svg x="2688"><use xlink:href="#a"/><use xlink:href="#b" x="-.004" y="4.317"/><use xlink:href="#7"/><use xlink:href="#8" y="2.171"/></svg><svg x="2784"><use xlink:href="#a"/><use xlink:href="#b" x=".996" y="4.317"/><use xlink:href="#7"/><use xlink:href="#8" y="2.171"/><text y="6.012" class="f">T</text></svg><svg x="2880"><use xlink:href="#a"/><use xlink:href="#b" x="1.996" y="4.317"/><use xlink:href="#7"/><use xlink:href="#8" y="2.171"/><text y="6.012" class="f">Th</text></svg><svg x="2976"><use xlink:href="#a"/><use xlink:href="#b" x="2.996" y="4.317"/><use xlink:href="#7"/><use xlink:href="#8" y="2.171"/><text y="6.012" class="f">Thi</text></svg><svg x="3072"><use xlink:href="#a"/><use xlink:href="#b" x="3.996" y="4.317"/><use xlink:href="#7"/><use xlink:href="#8" y="2.171"/><use xlink:href="#9" y="4.342"/></svg><svg x="3168"><use xlink:href="#a"/><use xlink:href="#b" x="4.996" y="4.317"/><use xlink:href="#7"/><use xlink:href="#8" y="2.171"/><use xlink:href="#9" y="4.342"/></svg><svg x="3264"><use xlink:href="#a"/><use xlink:href="#b" x="5.996" y="4.317"/><use xlink:href="#7"/><use xlink:href="#8" y="2.171"/><text y="6.012" class="f">This</text><text x="5.01" y="6.012" class="f">i</text></svg><svg x="3360"><use xlink:href="#a"/><use xlink:href="#b" x="6.996" y="4.317"/><use xlink:href="#7"/><use xlink:href="#8" y="2.171"/><use xlink:href="#10" y="4.342"/></svg><svg x="3456"><use xlink:href="#a"/><use xlink:href="#b" x="7.996" y="4.317"/><use xlink:href="#7"/><use xlink:href="#8" y="2.171"/><use xlink:href="#10" y="4.342"/></svg><svg x="3552"><use xlink:href="#a"/><use xlink:href="#b" x="8.996" y="4.317"/><use xlink:href="#7"/><use xlink:href="#8" y="2.171"/><use xlink:href="#11" y="4.342"/></svg><svg x="3648"><use xlink:href="#a"/><use xlink:href="#b" x="9.996" y="4.317"/><use xlink:href="#7"/><use xlink:href="#8" y="2.171"/><use xlink:href="#11" y="4.342"/></svg><svg x="3744"><use xlink:href="#a"/><use xlink:href="#b" x="10.996" y="4.317"/><use xlink:href="#7"/><use xlink:href="#8" y="2.171"/><text y="6.012" class="f">This</text><text x="5.01" y="6.012" class="f">is</text><text x="8.016" y="6.012" class="f">a</text><text x="10.02" y="6.012" class="f">s</text></svg><svg x="3840"><use xlink:href="#a"/><use xlink:href="#b" x="11.996" y="4.317"/><use xlink:href="#7"/><use xlink:href="#8" y="2.171"/><text y="6.012" class="f">This</text><text x="5.01" y="6.012" class="f">is</text><text x="8.016" y="6.012" class="f">a</text><text x="10.02" y="6.012" class="f">se</text></svg><svg x="3936"><use xlink:href="#a"/><use xlink:href="#b" x="12.996" y="4.317"/><use xlink:href="#7"/><use xlink:href="#8" y="2.171"/><text y="6.012" class="f">This</text><text x="5.01" y="6.012" class="f">is</text><text x="8.016" y="6.012" class="f">a</text><text x="10.02" y="6.012" class="f">sen</text></svg><svg x="4032"><use xlink:href="#a"/><use xlink:href="#b" x="13.996" y="4.317"/><use xlink:href="#7"/><use xlink:href="#8" y="2.171"/><text y="6.012" class="f">This</text><text x="5.01" y="6.012" class="f">is</text><text x="8.016" y="6.012" class="f">a</text><text x="10.02" y="6.012" class="f">sent</text></svg><svg x="4128"><use xlink:href="#a"/><use xlink:href="#b" x="14.996" y="4.317"/><use xlink:href="#7"/><use xlink:href="#8" y="2.171"/><text y="6.012" class="f">This</text><text x="5.01" y="6.012" class="f">is</text><text x="8.016" y="6.012" class="f">a</text><text x="10.02" y="6.012" class="f">sente</text></svg><svg x="4224"><use xlink:href="#a"/><use xlink:href="#b" x="15.996" y="4.317"/><use xlink:href="#7"/><use xlink:href="#8" y="2.171"/><text y="6.012" class="f">This</text><text x="5.01" y="6.012" class="f">is</text><text x="8.016" y="6.012" class="f">a</text><text x="10.02" y="6.012" class="f">senten</text></svg><svg x="4320"><use xlink:href="#a"/><use xlink:href="#b" x="16.996" y="4.317"/><use xlink:href="#7"/><use xlink:href="#8" y="2.171"/><text y="6.012" class="f">This</text><text x="5.01" y="6.012" class="f">is</text><text x="8.016" y="6.012" class="f">a</text><text x="10.02" y="6.012" class="f">sentenc</text></svg><svg x="4416"><use xlink:href="#a"/><use xlink:href="#b" x="17.996" y="4.317"/><use xlink:href="#7"/><use xlink:href="#8" y="2.171"/><use xlink:href="#12" y="4.342"/></svg><svg x="4512"><use xlink:href="#a"/><use xlink:href="#b" x="-.004" y="6.488"/><use xlink:href="#7"/><use xlink:href="#8" y="2.171"/><use xlink:href="#12" y="4.342"/></svg><svg x="4608"><use xlink:href="#a"/><use xlink:href="#b" x=".996" y="6.488"/><use xlink:href="#7"/><use xlink:href="#8" y="2.171"/><use xlink:href="#12" y="4.342"/><text y="8.183" class="f">A</text></svg><svg x="4704"><use xlink:href="#a"/><use xlink:href="#b" x="1.996" y="6.488"/><use xlink:href="#7"/><use xlink:href="#8" y="2.171"/><use xlink:href="#12" y="4.342"/><text y="8.183" class="f">An</text></svg><svg x="4800"><use xlink:href="#a"/><use xlink:href="#b" x="2.996" y="6.488"/><use xlink:href="#7"/><use xlink:href="#8" y="2.171"/><use xlink:href="#12" y="4.342"/><use xlink:href="#13" y="6.513"/></svg><svg x="4896"><use xlink:href="#a"/><use xlink:href="#b" x="3.996" y="6.488"/><use xlink:href="#7"/><use xlink:href="#8" y="2.171"/><use xlink:href="#12" y="4.342"/><use xlink:href="#13" y="6.513"/></svg><svg x="4992"><use xlink:href="#a"/><use xlink:href="#b" x="4.996" y="6.488"/><use xlink:href="#7"/><use xlink:href="#8" y="2.171"/><use xlink:href="#12" y="4.342"/><text y="8.183" class="f">And</text><text x="4.008" y="8.183" class="f">t</text></svg><svg x="5088"><use xlink:href="#a"/><use xlink:href="#b" x="5.996" y="6.488"/><use xlink:href="#7"/><use xlink:href="#8" y="2.171"/><use xlink:href="#12" y="4.342"/><text y="8.183" class="f">And</text><text x="4.008" y="8.183" class="f">th</text></svg><svg x="5184"><use xlink:href="#a"/><use xlink:href="#b" x="6.996" y="6.488"/><use xlink:href="#7"/><use xlink:href="#8" y="2.171"/><use xlink:href="#12" y="4.342"/><text y="8.183" class="f">And</text><text x="4.008" y="8.183" class="f">thi</text></svg><svg x="5280"><use xlink:href="#a"/><use xlink:href="#b" x="7.996" y="6.488"/><use xlink:href="#7"/><use xlink:href="#8" y="2.171"/><use xlink:href="#12" y="4.342"/><use xlink:href="#14" y="6.513"/></svg><svg x="5376"><use xlink:href="#a"/><use xlink:href="#b" x="8.996" y="6.488"/><use xlink:href="#7"/><use xlink:href="#8" y="2.171"/><use xlink:href="#12" y="4.342"/><use xlink:href="#14" y="6.513"/></svg><svg x="5472"><use xlink:href="#a"/><use xlink:href="#b" x="9.996" y="6.488"/><use xlink:href="#7"/><use xlink:href="#8" y="2.171"/><use xlink:href="#12" y="4.342"/><text y="8.183" class="f">And</text><text x="4.008" y="8.183" class="f">this</text><text x="9.018" y="8.183" class="f">i</text></svg><svg x="5568"><use xlink:href="#a"/><use xlink:href="#b" x="10.996" y="6.488"/><use xlink:href="#7"/><use xlink:href="#8" y="2.171"/><use xlink:href="#12" y="4.342"/><use xlink:href="#15" y="6.513"/></svg><svg x="5664"><use xlink:href="#a"/><use xlink:href="#b" x="11.996" y="6.488"/><use xlink:href="#7"/><use xlink:href="#8" y="2.171"/><use xlink:href="#12" y="4.342"/><use xlink:href="#15" y="6.513"/></svg><svg x="5760"><use xlink:href="#a"/><use xlink:href="#b" x="12.996" y="6.488"/><use xlink:href="#7"/><use xlink:href="#8" y="2.171"/><use xlink:href="#12" y="4.342"/><text y="8.183" class="f">And</text><text x="4.008" y="8.183" class="f">this</text><text x="9.018" y="8.183" class="f">is</text><text x="12.024" y="8.183" class="f">a</text></svg><svg x="5856"><use xlink:href="#a"/><use xlink:href="#b" x="13.996" y="6.488"/><use xlink:href="#7"/><use xlink:href="#8" y="2.171"/><use xlink:href="#12" y="4.342"/><text y="8.183" class="f">And</text><text x="4.008" y="8.183" class="f">this</text><text x="9.018" y="8.183" class="f">is</text><text x="12.024" y="8.183" class="f">an</text></svg><svg x="5952"><use xlink:href="#a"/><use xlink:href="#b" x="14.996" y="6.488"/><use xlink:href="#7"/><use xlink:href="#8" y="2.171"/><use xlink:href="#12" y="4.342"/><text y="8.183" class="f">And</text><text x="4.008" y="8.183" class="f">this</text><text x="9.018" y="8.183" class="f">is</text><text x="12.024" y="8.183" class="f">ano</text></svg><svg x="6048"><use xlink:href="#a"/><use xlink:href="#b" x="15.996" y="6.488"/><use xlink:href="#7"/><use xlink:href="#8" y="2.171"/><use xlink:href="#12" y="4.342"/><text y="8.183" class="f">And</text><text x="4.008" y="8.183" class="f">this</text><text x="9.018" y="8.183" class="f">is</text><text x="12.024" y="8.183" class="f">anot</text></svg><svg x="6144"><use xlink:href="#a"/><use xlink:href="#b" x="16.996" y="6.488"/><use xlink:href="#7"/><use xlink:href="#8" y="2.171"/><use xlink:href="#12" y="4.342"/><text y="8.183" class="f">And</text><text x="4.008" y="8.183" class="f">this</text><text x="9.018" y="8.183" class="f">is</text><text x="12.024" y="8.183" class="f">anoth</text></svg><svg x="6240"><use xlink:href="#a"/><use xlink:href="#b" x="17.996" y="6.488"/><use xlink:href="#7"/><use xlink:href="#8" y="2.171"/><use xlink:href="#12" y="4.342"/><text y="8.183" class="f">And</text><text x="4.008" y="8.183" class="f">this</text><text x="9.018" y="8.183" class="f">is</text><text x="12.024" y="8.183" class="f">anothe</text></svg><svg x="6336"><use xlink:href="#a"/><use xlink:href="#b" x="18.996" y="6.488"/><use xlink:href="#7"/><use xlink:href="#8" y="2.171"/><use xlink:href="#12" y="4.342"/><use xlink:href="#16" y="6.513"/></svg><svg x="6432"><use xlink:href="#a"/><use xlink:href="#b" x="19.996" y="6.488"/><use xlink:href="#7"/><use xlink:href="#8" y="2.171"/><use xlink:href="#12" y="4.342"/><use xlink:href="#16" y="6.513"/></svg><svg x="6528"><use xlink:href="#a"/><use xlink:href="#b" x="20.996" y="6.488"/><use xlink:href="#7"/><use xlink:href="#8" y="2.171"/><use xlink:href="#12" y="4.342"/><text y="8.183" class="f">And</text><text x="4.008" y="8.183" class="f">this</text><text x="9.018" y="8.183" class="f">is</text><text x="12.024" y="8.183" class="f">another</text><text x="20.04" y="8.183" class="f">o</text></svg><svg x="6624"><use xlink:href="#a"/><use xlink:href="#b" x="21.996" y="6.488"/><use xlink:href="#7"/><use xlink:href="#8" y="2.171"/><use xlink:href="#12" y="4.342"/><text y="8.183" class="f">And</text><text x="4.008" y="8.183" class="f">this</text><text x="9.018" y="8.183" class="f">is</text><text x="12.024" y="8.183" class="f">another</text><text x="20.04" y="8.183" class="f">on</text></svg><svg x="6720"><use xlink:href="#a"/><use xlink:href="#b" x="22.996" y="6.488"/><use xlink:href="#7"/><use xlink:href="#8" y="2.171"/><use xlink:href="#12" y="4.342"/><use xlink:href="#17" y="6.513"/></svg><svg x="6816"><use xlink:href="#a"/><use xlink:href="#b" x="-.004" y="8.659"/><use xlink:href="#7"/><use xlink:href="#8" y="2.171"/><use xlink:href="#12" y="4.342"/><use xlink:href="#17" y="6.513"/></svg><svg x="6912"><use xlink:href="#a"/><use xlink:href="#b" x=".996" y="8.659"/><use xlink:href="#7"/><use xlink:href="#8" y="2.171"/><use xlink:href="#12" y="4.342"/><use xlink:href="#17" y="6.513"/><text y="10.354" class="f">F</text></svg><svg x="7008"><use xlink:href="#a"/><use xlink:href="#b" x="1.996" y="8.659"/><use xlink:href="#7"/><use xlink:href="#8" y="2.171"/><use xlink:href="#12" y="4.342"/><use xlink:href="#17" y="6.513"/><text y="10.354" class="f">Fi</text></svg><svg x="7104"><use xlink:href="#a"/><use xlink:href="#b" x="2.996" y="8.659"/><use xlink:href="#7"/><use xlink:href="#8" y="2.171"/><use xlink:href="#12" y="4.342"/><use xlink:href="#17" y="6.513"/><text y="10.354" class="f">Fin</text></svg><svg x="7200"><use xlink:href="#a"/><use xlink:href="#b" x="3.996" y="8.659"/><use xlink:href="#7"/><use xlink:href="#8" y="2.171"/><use xlink:href="#12" y="4.342"/><use xlink:href="#17" y="6.513"/><text y="10.354" class="f">Fina</text></svg><svg x="7296"><use xlink:href="#a"/><use xlink:href="#b" x="4.996" y="8.659"/><use xlink:href="#7"/><use xlink:href="#8" y="2.171"/><use xlink:href="#12" y="4.342"/><use xlink:href="#17" y="6.513"/><text y="10.354" class="f">Final</text></svg><svg x="7392"><use xlink:href="#a"/><use xlink:href="#b" x="5.996" y="8.659"/><use xlink:href="#7"/><use xlink:href="#8" y="2.171"/><use xlink:href="#12" y="4.342"/><use xlink:href="#17" y="6.513"/><text y="10.354" class="f">Finall</text></svg><svg x="7488"><use xlink:href="#a"/><use xlink:href="#b" x="6.996" y="8.659"/><use xlink:href="#7"/><use xlink:href="#8" y="2.171"/><use xlink:href="#12" y="4.342"/><use xlink:href="#17" y="6.513"/><text y="10.354" class="f">Finally</text></svg><svg x="7584"><use xlink:href="#a"/><use xlink:href="#b" x="7.996" y="8.659"/><use xlink:href="#7"/><use xlink:href="#8" y="2.171"/><use xlink:href="#12" y="4.342"/><use xlink:href="#17" y="6.513"/><use xlink:href="#18" y="8.684"/></svg><svg x="7680"><use xlink:href="#a"/><use xlink:href="#b" x="8.996" y="8.659"/><use xlink:href="#7"/><use xlink:href="#8" y="2.171"/><use xlink:href="#12" y="4.342"/><use xlink:href="#17" y="6.513"/><use xlink:href="#18" y="8.684"/></svg><svg x="7776"><use xlink:href="#a"/><use xlink:href="#b" x="9.996" y="8.659"/><use xlink:href="#7"/><use xlink:href="#8" y="2.171"/><use xlink:href="#12" y="4.342"/><use xlink:href="#17" y="6.513"/><text y="10.354" class="f">Finally,</text><text x="9.018" y="10.354" class="f">o</text></svg><svg x="7872"><use xlink:href="#a"/><use xlink:href="#b" x="10.996" y="8.659"/><use xlink:href="#7"/><use xlink:href="#8" y="2.171"/><use xlink:href="#12" y="4.342"/><use xlink:href="#17" y="6.513"/><text y="10.354" class="f">Finally,</text><text x="9.018" y="10.354" class="f">on</text></svg><svg x="7968"><use xlink:href="#a"/><use xlink:href="#b" x="11.996" y="8.659"/><use xlink:href="#7"/><use xlink:href="#8" y="2.171"/><use xlink:href="#12" y="4.342"/><use xlink:href="#17" y="6.513"/><use xlink:href="#19" y="8.684"/></svg><svg x="8064"><use xlink:href="#a"/><use xlink:href="#b" x="12.996" y="8.659"/><use xlink:href="#7"/><use xlink:href="#8" y="2.171"/><use xlink:href="#12" y="4.342"/><use xlink:href="#17" y="6.513"/><use xlink:href="#19" y="8.684"/></svg><svg x="8160"><use xlink:href="#a"/><use xlink:href="#b" x="13.996" y="8.659"/><use xlink:href="#7"/><use xlink:href="#8" y="2.171"/><use xlink:href="#12" y="4.342"/><use xlink:href="#17" y="6.513"/><text y="10.354" class="f">Finally,</text><text x="9.018" y="10.354" class="f">one</text><text x="13.026" y="10.354" class="f">l</text></svg><svg x="8256"><use xlink:href="#a"/><use xlink:href="#b" x="14.996" y="8.659"/><use xlink:href="#7"/><use xlink:href="#8" y="2.171"/><use xlink:href="#12" y="4.342"/><use xlink:href="#17" y="6.513"/><text y="10.354" class="f">Finally,</text><text x="9.018" y="10.354" class="f">one</text><text x="13.026" y="10.354" class="f">la</text></svg><svg x="8352"><use xlink:href="#a"/><use xlink:href="#b" x="15.996" y="8.659"/><use xlink:href="#7"/><use xlink:href="#8" y="2.171"/><use xlink:href="#12" y="4.342"/><use xlink:href="#17" y="6.513"/><text y="10.354" class="f">Finally,</text><text x="9.018" y="10.354" class="f">one</text><text x="13.026" y="10.354" class="f">las</text></svg><svg x="8448"><use xlink:href="#a"/><use xlink:href="#b" x="16.996" y="8.659"/><use xlink:href="#7"/><use xlink:href="#8" y="2.171"/><use xlink:href="#12" y="4.342"/><use xlink:href="#17" y="6.513"/><use xlink:href="#20" y="8.684"/></svg><svg x="8544"><use xlink:href="#a"/><use xlink:href="#b" x="17.996" y="8.659"/><use xlink:href="#7"/><use xlink:href="#8" y="2.171"/><use xlink:href="#12" y="4.342"/><use xlink:href="#17" y="6.513"/><use xlink:href="#20" y="8.684"/></svg><svg x="8640"><use xlink:href="#a"/><use xlink:href="#b" x="18.996" y="8.659"/><use xlink:href="#7"/><use xlink:href="#8" y="2.171"/><use xlink:href="#12" y="4.342"/><use xlink:href="#17" y="6.513"/><text y="10.354" class="f">Finally,</text><text x="9.018" y="10.354" class="f">one</text><text x="13.026" y="10.354" class="f">last</text><text x="18.036" y="10.354" class="f">s</text></svg><svg x="8736"><use xlink:href="#a"/><use xlink:href="#b" x="19.996" y="8.659"/><use xlink:href="#7"/><use xlink:href="#8" y="2.171"/><use xlink:href="#12" y="4.342"/><use xlink:href="#17" y="6.513"/><text y="10.354" class="f">Finally,</text><text x="9.018" y="10.354" class="f">one</text><text x="13.026" y="10.354" class="f">last</text><text x="18.036" y="10.354" class="f">se</text></svg><svg x="8832"><use xlink:href="#a"/><use xlink:href="#b" x="20.996" y="8.659"/><use xlink:href="#7"/><use xlink:href="#8" y="2.171"/><use xlink:href="#12" y="4.342"/><use xlink:href="#17" y="6.513"/><text y="10.354" class="f">Finally,</text><text x="9.018" y="10.354" class="f">one</text><text x="13.026" y="10.354" class="f">last</text><text x="18.036" y="10.354" class="f">sen</text></svg><svg x="8928"><use xlink:href="#a"/><use xlink:href="#b" x="21.996" y="8.659"/><use xlink:href="#7"/><use xlink:href="#8" y="2.171"/><use xlink:href="#12" y="4.342"/><use xlink:href="#17" y="6.513"/><text y="10.354" class="f">Finally,</text><text x="9.018" y="10.354" class="f">one</text><text x="13.026" y="10.354" class="f">last</text><text x="18.036" y="10.354" class="f">sent</text></svg><svg x="9024"><use xlink:href="#a"/><use xlink:href="#b" x="22.996" y="8.659"/><use xlink:href="#7"/><use xlink:href="#8" y="2.171"/><use xlink:href="#12" y="4.342"/><use xlink:href="#17" y="6.513"/><text y="10.354" class="f">Finally,</text><text x="9.018" y="10.354" class="f">one</text><text x="13.026" y="10.354" class="f">last</text><text x="18.036" y="10.354" class="f">sente</text></svg><svg x="9120"><use xlink:href="#a"/><use xlink:href="#b" x="23.996" y="8.659"/><use xlink:href="#7"/><use xlink:href="#8" y="2.171"/><use xlink:href="#12" y="4.342"/><use xlink:href="#17" y="6.513"/><text y="10.354" class="f">Finally,</text><text x="9.018" y="10.354" class="f">one</text><text x="13.026" y="10.354" class="f">last</text><text x="18.036" y="10.354" class="f">senten</text></svg><svg x="9216"><use xlink:href="#a"/><use xlink:href="#b" x="24.996" y="8.659"/><use xlink:href="#7"/><use xlink:href="#8" y="2.171"/><use xlink:href="#12" y="4.342"/><use xlink:href="#17" y="6.513"/><text y="10.354" class="f">Finally,</text><text x="9.018" y="10.354" class="f">one</text><text x="13.026" y="10.354" class="f">last</text><text x="18.036" y="10.354" class="f">sentenc</text></svg><svg x="9312"><use xlink:href="#a"/><use xlink:href="#b" x="25.996" y="8.659"/><use xlink:href="#7"/><use xlink:href="#8" y="2.171"/><use xlink:href="#12" y="4.342"/><use xlink:href="#17" y="6.513"/><use xlink:href="#21" y="8.684"/></svg><svg x="9408"><use xlink:href="#a"/><use xlink:href="#b" x="-.004" y="10.83"/><use xlink:href="#7"/><use xlink:href="#8" y="2.171"/><use xlink:href="#12" y="4.342"/><use xlink:href="#17" y="6.513"/><use xlink:href="#21" y="8.684"/></svg><svg x="9504"><use xlink:href="#a"/><use xlink:href="#b" x="-.004" y="10.83"/><use xlink:href="#7"/><use xlink:href="#8" y="2.171"/><use xlink:href="#12" y="4.342"/><use xlink:href="#17" y="6.513"/><use xlink:href="#21" y="8.684"/><text y="12.525" class="f">^D</text></svg><svg x="9600"><use xlink:href="#a"/><use xlink:href="#b" x="-.004" y="21.685"/><use xlink:href="#7"/><use xlink:href="#8" y="2.171"/><use xlink:href="#12" y="4.342"/><use xlink:href="#17" y="6.513"/><use xlink:href="#21" y="8.684"/><use xlink:href="#22" y="10.855"/><use xlink:href="#23" y="13.026"/><use xlink:href="#24" y="15.197"/><use xlink:href="#25" y="17.368"/><use xlink:href="#22" y="19.539"/></svg><svg x="9696"><use xlink:href="#a"/><use xlink:href="#b" x="9.996" y="21.685"/><use xlink:href="#7"/><use xlink:href="#8" y="2.171"/><use xlink:href="#12" y="4.342"/><use xlink:href="#17" y="6.513"/><use xlink:href="#21" y="8.684"/><use xlink:href="#22" y="10.855"/><use xlink:href="#23" y="13.026"/><use xlink:href="#24" y="15.197"/><use xlink:href="#25" y="17.368"/><use xlink:href="#22" y="19.539"/><use xlink:href="#1" y="21.71"/></svg><svg x="9792"><use xlink:href="#a"/><use xlink:href="#b" x="-.004" y="23.856"/><use xlink:href="#7"/><use xlink:href="#8" y="2.171"/><use xlink:href="#12" y="4.342"/><use xlink:href="#17" y="6.513"/><use xlink:href="#21" y="8.684"/><use xlink:href="#22" y="10.855"/><use xlink:href="#23" y="13.026"/><use xlink:href="#24" y="15.197"/><use xlink:href="#25" y="17.368"/><use xlink:href="#22" y="19.539"/><text y="23.38" class="f">framing1</text><text x="9.018" y="23.38" class="f">$exit</text></svg></svg></g></g></svg></svg>