<svg xmlns="http://www.w3.org/2000/svg" xmlns:xlink="http://www.w3.org/1999/xlink" width="1000" height="667.88"><rect width="1000" height="667.88" rx="5" ry="5" class="a"/><svg y="0%" x="0%"><circle cx="20" cy="20" r="6" fill="#ff5f58"/><circle cx="40" cy="20" r="6" fill="#ffbd2e"/><circle cx="60" cy="20" r="6" fill="#18c132"/></svg><svg height="607.88" viewBox="0 0 96 60.788" width="960" x="15" xmlns="http://www.w3.org/2000/svg" xmlns:xlink="http://www.w3.org/1999/xlink" y="50"><style>@keyframes i{0%{transform:translateX(0)}.1%{transform:translateX(-96px)}2.4%{transform:translateX(-192px)}3.6%{transform:translateX(-288px)}4.5%{transform:translateX(-384px)}6.2%{transform:translateX(-480px)}8.3%{transform:translateX(-576px)}8.4%{transform:translateX(-672px)}11%{transform:translateX(-768px)}13.3%{transform:translateX(-864px)}16.5%{transform:translateX(-960px)}16.9%{transform:translateX(-1056px)}19.4%{transform:translateX(-1152px)}20.5%{transform:translateX(-1248px)}22%{transform:translateX(-1344px)}23.1%{transform:translateX(-1440px)}23.9%{transform:translateX(-1536px)}25.9%{transform:translateX(-1824px)}29%{transform:translateX(-1920px)}30.5%{transform:translateX(-2016px)}31.7%{transform:translateX(-2112px)}34.3%{transform:translateX(-2208px)}36%{transform:translateX(-2304px)}36.9%{transform:translateX(-2400px)}37.9%{transform:translateX(-2496px)}38.6%{transform:translateX(-2592px)}39.7%{transform:translateX(-2688px)}39.8%{transform:translateX(-2976px)}to{transform:translateX(-3072px)}}.a{fill:#000}.f{fill:#28fe14;white-space:pre}</style><g font-family="Monaco,Consolas,Menlo,'Bitstream Vera Sans Mono','Powerline Symbols',monospace" font-size="1.67"><defs><symbol id="1"><text y="1.67" class="f">framing2</text><text x="9.018" y="1.67" class="f">$</text></symbol><symbol id="2"><text y="1.67" class="f">framing2</text><text x="9.018" y="1.67" class="f">$make</text></symbol><symbol id="3"><text y="1.67" class="f">g++</text><text x="4.008" y="1.67" class="f">-o</text><text x="7.014" y="1.67" class="f">obj/main.o</text><text x="18.036" y="1.67" class="f">-c</text><text x="21.042" y="1.67" class="f">src/main.cpp</text></symbol><symbol id="4"><text y="1.67" class="f">g++</text><text x="4.008" y="1.67" class="f">-o</text><text x="7.014" y="1.67" class="f">obj/char_pic.o</text><text x="22.044" y="1.67" class="f">-c</text><text x="25.05" y="1.67" class="f">src/char_pic.cpp</text></symbol><symbol id="5"><text y="1.67" class="f">g++</text><text x="4.008" y="1.67" class="f">-o</text><text x="7.014" y="1.67" class="f">obj/tetris_interface.o</text><text x="30.06" y="1.67" class="f">-c</text><text x="33.066" y="1.67" class="f">src/tetris_interface.cpp</text></symbol><symbol id="6"><text y="1.67" class="f">g++</text><text x="4.008" y="1.67" class="f">-g</text><text x="7.014" y="1.67" class="f">-Wall</text><text x="13.026" y="1.67" class="f">-o</text><text x="16.032" y="1.67" class="f">bin/main</text><text x="25.05" y="1.67" class="f">obj/main.o</text><text x="36.072" y="1.67" class="f">obj/char_pic.o</text><text x="51.102" y="1.67" class="f">obj/tetris_interface.o</text></symbol><symbol id="7"><text y="1.67" class="f">framing2</text><text x="9.018" y="1.67" class="f">$clear</text></symbol><symbol id="8"><text y="1.67" class="f">framing2</text><text x="9.018" y="1.67" class="f">$bin/main</text></symbol><symbol id="9"><text y="1.67" class="f">*****************************************</text></symbol><symbol id="10"><text y="1.67" class="f">*</text><text x="2.004" y="1.67" class="f">**********************</text><text x="25.05" y="1.67" class="f">**************</text><text x="40.08" y="1.67" class="f">*</text></symbol><symbol id="11"><text y="1.67" class="f">*</text><text x="2.004" y="1.67" class="f">*</text><text x="4.008" y="1.67" class="f">LINES</text><text x="10.02" y="1.67" class="f">CLEARED</text><text x="19.038" y="1.67" class="f">000</text><text x="23.046" y="1.67" class="f">*</text><text x="25.05" y="1.67" class="f">*</text><text x="27.054" y="1.67" class="f">HIGH</text><text x="32.064" y="1.67" class="f">SCORE</text><text x="38.076" y="1.67" class="f">*</text><text x="40.08" y="1.67" class="f">*</text></symbol><symbol id="12"><text y="1.67" class="f">*</text><text x="2.004" y="1.67" class="f">**********************</text><text x="25.05" y="1.67" class="f">*</text><text x="27.054" y="1.67" class="f">223375</text><text x="38.076" y="1.67" class="f">*</text><text x="40.08" y="1.67" class="f">*</text></symbol><symbol id="13"><text y="1.67" class="f">*</text><text x="2.004" y="1.67" class="f">**********************</text><text x="25.05" y="1.67" class="f">*</text><text x="38.076" y="1.67" class="f">*</text><text x="40.08" y="1.67" class="f">*</text></symbol><symbol id="14"><text y="1.67" class="f">*</text><text x="2.004" y="1.67" class="f">*</text><text x="10.02" y="1.67" class="f">TETRIS</text><text x="23.046" y="1.67" class="f">*</text><text x="25.05" y="1.67" class="f">*</text><text x="27.054" y="1.67" class="f">SCORE</text><text x="38.076" y="1.67" class="f">*</text><text x="40.08" y="1.67" class="f">*</text></symbol><symbol id="15"><text y="1.67" class="f">*</text><text x="2.004" y="1.67" class="f">*</text><text x="23.046" y="1.67" class="f">*</text><text x="25.05" y="1.67" class="f">*</text><text x="27.054" y="1.67" class="f">000000</text><text x="38.076" y="1.67" class="f">*</text><text x="40.08" y="1.67" class="f">*</text></symbol><symbol id="16"><text y="1.67" class="f">*</text><text x="2.004" y="1.67" class="f">*</text><text x="23.046" y="1.67" class="f">*</text><text x="25.05" y="1.67" class="f">*</text><text x="38.076" y="1.67" class="f">*</text><text x="40.08" y="1.67" class="f">*</text></symbol><symbol id="17"><text y="1.67" class="f">*</text><text x="2.004" y="1.67" class="f">*</text><text x="23.046" y="1.67" class="f">*</text><text x="25.05" y="1.67" class="f">**************</text><text x="40.08" y="1.67" class="f">*</text></symbol><symbol id="18"><text y="1.67" class="f">*</text><text x="2.004" y="1.67" class="f">*</text><text x="23.046" y="1.67" class="f">*</text><text x="25.05" y="1.67" class="f">*</text><text x="27.054" y="1.67" class="f">NEXT</text><text x="32.064" y="1.67" class="f">PIECE</text><text x="38.076" y="1.67" class="f">*</text><text x="40.08" y="1.67" class="f">*</text></symbol><symbol id="19"><text y="1.67" class="f">*</text><text x="2.004" y="1.67" class="f">*</text><text x="23.046" y="1.67" class="f">*</text><text x="25.05" y="1.67" class="f">*</text><text x="27.054" y="1.67" class="f">LEVEL</text><text x="38.076" y="1.67" class="f">*</text><text x="40.08" y="1.67" class="f">*</text></symbol><symbol id="20"><text y="1.67" class="f">*</text><text x="2.004" y="1.67" class="f">*</text><text x="23.046" y="1.67" class="f">*</text><text x="25.05" y="1.67" class="f">*</text><text x="27.054" y="1.67" class="f">01</text><text x="38.076" y="1.67" class="f">*</text><text x="40.08" y="1.67" class="f">*</text></symbol><symbol id="a"><path fill="transparent" d="M0 0h96v29H0z"/></symbol><symbol id="b"><path fill="#38fe27" d="M0 0h1.102v2.171H0z"/></symbol></defs><path class="a" d="M0 0h96v60.788H0z"/><g style="animation-duration:16.610376s;animation-iteration-count:infinite;animation-name:i;animation-timing-function:steps(1,end)"><svg width="3168"><svg><use xlink:href="#a"/><use xlink:href="#b" x="-.004"/></svg><svg x="96"><use xlink:href="#a"/><use xlink:href="#b" x="9.996"/><use xlink:href="#1"/></svg><svg x="192"><use xlink:href="#a"/><use xlink:href="#b" x="10.996"/><text y="1.67" class="f">framing2</text><text x="9.018" y="1.67" class="f">$m</text></svg><svg x="288"><use xlink:href="#a"/><use xlink:href="#b" x="11.996"/><text y="1.67" class="f">framing2</text><text x="9.018" y="1.67" class="f">$ma</text></svg><svg x="384"><use xlink:href="#a"/><use xlink:href="#b" x="12.996"/><text y="1.67" class="f">framing2</text><text x="9.018" y="1.67" class="f">$mak</text></svg><svg x="480"><use xlink:href="#a"/><use xlink:href="#b" x="13.996"/><use xlink:href="#2"/></svg><svg x="576"><use xlink:href="#a"/><use xlink:href="#b" x="-.004" y="2.146"/><use xlink:href="#2"/></svg><svg x="672"><use xlink:href="#a"/><use xlink:href="#b" x="-.004" y="4.317"/><use xlink:href="#2"/><use xlink:href="#3" y="2.171"/></svg><svg x="768"><use xlink:href="#a"/><use xlink:href="#b" x="-.004" y="6.488"/><use xlink:href="#2"/><use xlink:href="#3" y="2.171"/><use xlink:href="#4" y="4.342"/></svg><svg x="864"><use xlink:href="#a"/><use xlink:href="#b" x="-.004" y="8.659"/><use xlink:href="#2"/><use xlink:href="#3" y="2.171"/><use xlink:href="#4" y="4.342"/><use xlink:href="#5" y="6.513"/></svg><svg x="960"><use xlink:href="#a"/><use xlink:href="#b" x="-.004" y="10.83"/><use xlink:href="#2"/><use xlink:href="#3" y="2.171"/><use xlink:href="#4" y="4.342"/><use xlink:href="#5" y="6.513"/><use xlink:href="#6" y="8.684"/></svg><svg x="1056"><use xlink:href="#a"/><use xlink:href="#b" x="9.996" y="10.83"/><use xlink:href="#2"/><use xlink:href="#3" y="2.171"/><use xlink:href="#4" y="4.342"/><use xlink:href="#5" y="6.513"/><use xlink:href="#6" y="8.684"/><use xlink:href="#1" y="10.855"/></svg><svg x="1152"><use xlink:href="#a"/><use xlink:href="#b" x="10.996" y="10.83"/><use xlink:href="#2"/><use xlink:href="#3" y="2.171"/><use xlink:href="#4" y="4.342"/><use xlink:href="#5" y="6.513"/><use xlink:href="#6" y="8.684"/><text y="12.525" class="f">framing2</text><text x="9.018" y="12.525" class="f">$c</text></svg><svg x="1248"><use xlink:href="#a"/><use xlink:href="#b" x="11.996" y="10.83"/><use xlink:href="#2"/><use xlink:href="#3" y="2.171"/><use xlink:href="#4" y="4.342"/><use xlink:href="#5" y="6.513"/><use xlink:href="#6" y="8.684"/><text y="12.525" class="f">framing2</text><text x="9.018" y="12.525" class="f">$cl</text></svg><svg x="1344"><use xlink:href="#a"/><use xlink:href="#b" x="12.996" y="10.83"/><use xlink:href="#2"/><use xlink:href="#3" y="2.171"/><use xlink:href="#4" y="4.342"/><use xlink:href="#5" y="6.513"/><use xlink:href="#6" y="8.684"/><text y="12.525" class="f">framing2</text><text x="9.018" y="12.525" class="f">$cle</text></svg><svg x="1440"><use xlink:href="#a"/><use xlink:href="#b" x="13.996" y="10.83"/><use xlink:href="#2"/><use xlink:href="#3" y="2.171"/><use xlink:href="#4" y="4.342"/><use xlink:href="#5" y="6.513"/><use xlink:href="#6" y="8.684"/><text y="12.525" class="f">framing2</text><text x="9.018" y="12.525" class="f">$clea</text></svg><svg x="1536"><use xlink:href="#a"/><use xlink:href="#b" x="14.996" y="10.83"/><use xlink:href="#2"/><use xlink:href="#3" y="2.171"/><use xlink:href="#4" y="4.342"/><use xlink:href="#5" y="6.513"/><use xlink:href="#6" y="8.684"/><use xlink:href="#7" y="10.855"/></svg><svg x="1632"><use xlink:href="#a"/><use xlink:href="#b" x="-.004" y="13.001"/><use xlink:href="#2"/><use xlink:href="#3" y="2.171"/><use xlink:href="#4" y="4.342"/><use xlink:href="#5" y="6.513"/><use xlink:href="#6" y="8.684"/><use xlink:href="#7" y="10.855"/></svg><svg x="1728"><use xlink:href="#a"/><use xlink:href="#b" x="-.004"/></svg><svg x="1824"><use xlink:href="#a"/><use xlink:href="#b" x="9.996"/><use xlink:href="#1"/></svg><svg x="1920"><use xlink:href="#a"/><use xlink:href="#b" x="10.996"/><text y="1.67" class="f">framing2</text><text x="9.018" y="1.67" class="f">$b</text></svg><svg x="2016"><use xlink:href="#a"/><use xlink:href="#b" x="11.996"/><text y="1.67" class="f">framing2</text><text x="9.018" y="1.67" class="f">$bi</text></svg><svg x="2112"><use xlink:href="#a"/><use xlink:href="#b" x="12.996"/><text y="1.67" class="f">framing2</text><text x="9.018" y="1.67" class="f">$bin</text></svg><svg x="2208"><use xlink:href="#a"/><use xlink:href="#b" x="13.996"/><text y="1.67" class="f">framing2</text><text x="9.018" y="1.67" class="f">$bin/</text></svg><svg x="2304"><use xlink:href="#a"/><use xlink:href="#b" x="14.996"/><text y="1.67" class="f">framing2</text><text x="9.018" y="1.67" class="f">$bin/m</text></svg><svg x="2400"><use xlink:href="#a"/><use xlink:href="#b" x="15.996"/><text y="1.67" class="f">framing2</text><text x="9.018" y="1.67" class="f">$bin/ma</text></svg><svg x="2496"><use xlink:href="#a"/><use xlink:href="#b" x="16.996"/><text y="1.67" class="f">framing2</text><text x="9.018" y="1.67" class="f">$bin/mai</text></svg><svg x="2592"><use xlink:href="#a"/><use xlink:href="#b" x="17.996"/><use xlink:href="#8"/></svg><svg x="2688"><use xlink:href="#a"/><use xlink:href="#b" x="-.004" y="2.146"/><use xlink:href="#8"/></svg><svg x="2784"><use xlink:href="#a"/><use xlink:href="#b" x="34.996" y="52.079"/><use xlink:href="#8"/><use xlink:href="#9" y="2.171"/><use xlink:href="#10" y="4.342"/><use xlink:href="#11" y="6.513"/><use xlink:href="#12" y="8.684"/><use xlink:href="#13" y="10.855"/><use xlink:href="#14" y="13.026"/><use xlink:href="#15" y="15.197"/><use xlink:href="#16" y="17.368"/><use xlink:href="#17" y="19.539"/><use xlink:href="#17" y="21.71"/><use xlink:href="#18" y="23.881"/><use xlink:href="#16" y="26.052"/><use xlink:href="#16" y="28.223"/><use xlink:href="#16" y="30.394"/><use xlink:href="#16" y="32.565"/><use xlink:href="#16" y="34.736"/><use xlink:href="#16" y="36.907"/><use xlink:href="#16" y="39.078"/><use xlink:href="#17" y="41.249"/><use xlink:href="#17" y="43.42"/><use xlink:href="#19" y="45.591"/><use xlink:href="#16" y="47.762"/><use xlink:href="#20" y="49.933"/><text y="53.774" class="f">*</text><text x="2.004" y="53.774" class="f">**********************</text><text x="25.05" y="53.774" class="f">**********</text></svg><svg x="2880"><use xlink:href="#a"/><use xlink:href="#b" x="-.004" y="56.421"/><use xlink:href="#8"/><use xlink:href="#9" y="2.171"/><use xlink:href="#10" y="4.342"/><use xlink:href="#11" y="6.513"/><use xlink:href="#12" y="8.684"/><use xlink:href="#13" y="10.855"/><use xlink:href="#14" y="13.026"/><use xlink:href="#15" y="15.197"/><use xlink:href="#16" y="17.368"/><use xlink:href="#17" y="19.539"/><use xlink:href="#17" y="21.71"/><use xlink:href="#18" y="23.881"/><use xlink:href="#16" y="26.052"/><use xlink:href="#16" y="28.223"/><use xlink:href="#16" y="30.394"/><use xlink:href="#16" y="32.565"/><use xlink:href="#16" y="34.736"/><use xlink:href="#16" y="36.907"/><use xlink:href="#16" y="39.078"/><use xlink:href="#17" y="41.249"/><use xlink:href="#17" y="43.42"/><use xlink:href="#19" y="45.591"/><use xlink:href="#16" y="47.762"/><use xlink:href="#20" y="49.933"/><use xlink:href="#10" y="52.104"/><use xlink:href="#9" y="54.275"/></svg><svg x="2976"><use xlink:href="#a"/><use xlink:href="#b" x="9.996" y="56.421"/><use xlink:href="#8"/><use xlink:href="#9" y="2.171"/><use xlink:href="#10" y="4.342"/><use xlink:href="#11" y="6.513"/><use xlink:href="#12" y="8.684"/><use xlink:href="#13" y="10.855"/><use xlink:href="#14" y="13.026"/><use xlink:href="#15" y="15.197"/><use xlink:href="#16" y="17.368"/><use xlink:href="#17" y="19.539"/><use xlink:href="#17" y="21.71"/><use xlink:href="#18" y="23.881"/><use xlink:href="#16" y="26.052"/><use xlink:href="#16" y="28.223"/><use xlink:href="#16" y="30.394"/><use xlink:href="#16" y="32.565"/><use xlink:href="#16" y="34.736"/><use xlink:href="#16" y="36.907"/><use xlink:href="#16" y="39.078"/><use xlink:href="#17" y="41.249"/><use xlink:href="#17" y="43.42"/><use xlink:href="#19" y="45.591"/><use xlink:href="#16" y="47.762"/><use xlink:href="#20" y="49.933"/><use xlink:href="#10" y="52.104"/><use xlink:href="#9" y="54.275"/><use xlink:href="#1" y="56.446"/></svg><svg x="3072"><use xlink:href="#a"/><use xlink:href="#b" x="-.004" y="58.592"/><use xlink:href="#8"/><use xlink:href="#9" y="2.171"/><use xlink:href="#10" y="4.342"/><use xlink:href="#11" y="6.513"/><use xlink:href="#12" y="8.684"/><use xlink:href="#13" y="10.855"/><use xlink:href="#14" y="13.026"/><use xlink:href="#15" y="15.197"/><use xlink:href="#16" y="17.368"/><use xlink:href="#17" y="19.539"/><use xlink:href="#17" y="21.71"/><use xlink:href="#18" y="23.881"/><use xlink:href="#16" y="26.052"/><use xlink:href="#16" y="28.223"/><use xlink:href="#16" y="30.394"/><use xlink:href="#16" y="32.565"/><use xlink:href="#16" y="34.736"/><use xlink:href="#16" y="36.907"/><use xlink:href="#16" y="39.078"/><use xlink:href="#17" y="41.249"/><use xlink:href="#17" y="43.42"/><use xlink:href="#19" y="45.591"/><use xlink:href="#16" y="47.762"/><use xlink:href="#20" y="49.933"/><use xlink:href="#10" y="52.104"/><use xlink:href="#9" y="54.275"/><text y="58.116" class="f">framing2</text><text x="9.018" y="58.116" class="f">$exit</text></svg></svg></g></g></svg></svg>