<svg xmlns="http://www.w3.org/2000/svg" xmlns:xlink="http://www.w3.org/1999/xlink" width="1000" height="689.59"><rect width="1000" height="689.59" rx="5" ry="5" class="a"/><svg y="0%" x="0%"><circle cx="20" cy="20" r="6" fill="#ff5f58"/><circle cx="40" cy="20" r="6" fill="#ffbd2e"/><circle cx="60" cy="20" r="6" fill="#18c132"/></svg><svg height="629.59" viewBox="0 0 96 62.959" width="960" x="15" xmlns="http://www.w3.org/2000/svg" xmlns:xlink="http://www.w3.org/1999/xlink" y="50"><style>@keyframes i{0%{transform:translateX(0)}.06%{transform:translateX(-96px)}4.15%{transform:translateX(-192px)}4.87%{transform:translateX(-288px)}5.82%{transform:translateX(-384px)}6.62%{transform:translateX(-480px)}8.15%{transform:translateX(-576px)}8.22%{transform:translateX(-672px)}10.45%{transform:translateX(-768px)}12.4%{transform:translateX(-864px)}13.43%{transform:translateX(-960px)}15.72%{transform:translateX(-1056px)}15.97%{transform:translateX(-1152px)}19.77%{transform:translateX(-1248px)}20.89%{transform:translateX(-1344px)}21.79%{transform:translateX(-1440px)}22.78%{transform:translateX(-1536px)}23.55%{transform:translateX(-1632px)}24.82%{transform:translateX(-1728px)}24.84%{transform:translateX(-1824px)}24.85%{transform:translateX(-1920px)}29.44%{transform:translateX(-2016px)}30.38%{transform:translateX(-2112px)}31.29%{transform:translateX(-2208px)}33.52%{transform:translateX(-2304px)}35%{transform:translateX(-2400px)}35.74%{transform:translateX(-2496px)}36.96%{transform:translateX(-2592px)}37.64%{transform:translateX(-2688px)}40.01%{transform:translateX(-2784px)}40.05%{transform:translateX(-2880px)}61.81%{transform:translateX(-2976px)}70.41%{transform:translateX(-3072px)}78.23%{transform:translateX(-3168px)}78.24%{transform:translateX(-3360px)}78.25%{transform:translateX(-3456px)}to{transform:translateX(-3552px)}}.a{fill:#000}.f{fill:#28fe14;white-space:pre}</style><g font-family="Monaco,Consolas,Menlo,'Bitstream Vera Sans Mono','Powerline Symbols',monospace" font-size="1.67"><defs><symbol id="1"><text y="1.67" class="f">passing2</text><text x="9.018" y="1.67" class="f">$</text></symbol><symbol id="2"><text y="1.67" class="f">passing2</text><text x="9.018" y="1.67" class="f">$make</text></symbol><symbol id="3"><text y="1.67" class="f">g++</text><text x="4.008" y="1.67" class="f">-o</text><text x="7.014" y="1.67" class="f">obj/main.o</text><text x="18.036" y="1.67" class="f">-c</text><text x="21.042" y="1.67" class="f">src/main.cpp</text></symbol><symbol id="4"><text y="1.67" class="f">g++</text><text x="4.008" y="1.67" class="f">-o</text><text x="7.014" y="1.67" class="f">obj/student_info.o</text><text x="26.052" y="1.67" class="f">-c</text><text x="29.058" y="1.67" class="f">src/student_info.cpp</text></symbol><symbol id="5"><text y="1.67" class="f">g++</text><text x="4.008" y="1.67" class="f">-o</text><text x="7.014" y="1.67" class="f">obj/median.o</text><text x="20.04" y="1.67" class="f">-c</text><text x="23.046" y="1.67" class="f">src/median.cpp</text></symbol><symbol id="6"><text y="1.67" class="f">g++</text><text x="4.008" y="1.67" class="f">-o</text><text x="7.014" y="1.67" class="f">obj/grade.o</text><text x="19.038" y="1.67" class="f">-c</text><text x="22.044" y="1.67" class="f">src/grade.cpp</text></symbol><symbol id="7"><text y="1.67" class="f">g++</text><text x="4.008" y="1.67" class="f">-g</text><text x="7.014" y="1.67" class="f">-Wall</text><text x="13.026" y="1.67" class="f">-o</text><text x="16.032" y="1.67" class="f">bin/main</text><text x="25.05" y="1.67" class="f">obj/main.o</text><text x="36.072" y="1.67" class="f">obj/student_info.o</text><text x="55.11" y="1.67" class="f">obj/median.o</text><text x="68.136" y="1.67" class="f">obj/grade.o</text></symbol><symbol id="8"><text y="1.67" class="f">passing2</text><text x="9.018" y="1.67" class="f">$clear</text></symbol><symbol id="9"><text y="1.67" class="f">passing2</text><text x="9.018" y="1.67" class="f">$bin/main</text></symbol><symbol id="10"><text y="1.67" class="f">Please</text><text x="7.014" y="1.67" class="f">enter</text><text x="13.026" y="1.67" class="f">the</text><text x="17.034" y="1.67" class="f">records</text><text x="25.05" y="1.67" class="f">of</text><text x="28.056" y="1.67" class="f">each</text><text x="33.066" y="1.67" class="f">student</text><text x="41.082" y="1.67" class="f">(name,</text><text x="48.096" y="1.67" class="f">midterm</text><text x="56.112" y="1.67" class="f">and</text><text x="60.12" y="1.67" class="f">final</text><text x="66.132" y="1.67" class="f">exam</text><text x="71.142" y="1.67" class="f">grades,</text><text x="79.158" y="1.67" class="f">homework</text><text x="88.176" y="1.67" class="f">grades),</text></symbol><symbol id="11"><text y="1.67" class="f">followed</text><text x="9.018" y="1.67" class="f">by</text><text x="12.024" y="1.67" class="f">end-of-file:</text></symbol><symbol id="12"><text y="1.67" class="f">Nelson</text><text x="9.018" y="1.67" class="f">65</text><text x="12.024" y="1.67" class="f">86</text><text x="15.03" y="1.67" class="f">88</text><text x="18.036" y="1.67" class="f">96</text><text x="21.042" y="1.67" class="f">97</text><text x="24.048" y="1.67" class="f">97</text><text x="27.054" y="1.67" class="f">75</text></symbol><symbol id="13"><text y="1.67" class="f">Olivia</text><text x="9.018" y="1.67" class="f">84</text><text x="12.024" y="1.67" class="f">86</text><text x="15.03" y="1.67" class="f">94</text><text x="18.036" y="1.67" class="f">64</text><text x="21.042" y="1.67" class="f">74</text><text x="24.048" y="1.67" class="f">67</text></symbol><symbol id="14"><text y="1.67" class="f">Palm</text><text x="9.018" y="1.67" class="f">45</text><text x="12.024" y="1.67" class="f">67</text><text x="15.03" y="1.67" class="f">36</text><text x="18.036" y="1.67" class="f">86</text><text x="21.042" y="1.67" class="f">85</text></symbol><symbol id="15"><text y="1.67" class="f">Quincy</text><text x="9.018" y="1.67" class="f">47</text><text x="12.024" y="1.67" class="f">36</text><text x="15.03" y="1.67" class="f">78</text><text x="18.036" y="1.67" class="f">74</text><text x="21.042" y="1.67" class="f">36</text><text x="24.048" y="1.67" class="f">76</text><text x="27.054" y="1.67" class="f">78</text><text x="30.06" y="1.67" class="f">89</text></symbol><symbol id="16"><text y="1.67" class="f">Ronald</text><text x="9.018" y="1.67" class="f">56</text><text x="12.024" y="1.67" class="f">47</text><text x="15.03" y="1.67" class="f">86</text><text x="18.036" y="1.67" class="f">86</text><text x="21.042" y="1.67" class="f">89</text></symbol><symbol id="17"><text y="1.67" class="f">Sam</text><text x="9.018" y="1.67" class="f">64</text><text x="12.024" y="1.67" class="f">74</text></symbol><symbol id="18"><text y="1.67" class="f">Thomas</text><text x="9.018" y="1.67" class="f">74</text><text x="12.024" y="1.67" class="f">74</text><text x="15.03" y="1.67" class="f">25</text><text x="18.036" y="1.67" class="f">67</text><text x="21.042" y="1.67" class="f">25</text><text x="24.048" y="1.67" class="f">56</text></symbol><symbol id="19"><text y="1.67" class="f">Ursula</text><text x="9.018" y="1.67" class="f">76</text><text x="12.024" y="1.67" class="f">56</text><text x="15.03" y="1.67" class="f">36</text><text x="18.036" y="1.67" class="f">26</text><text x="21.042" y="1.67" class="f">64</text></symbol><symbol id="20"><text y="1.67" class="f">Victoria</text><text x="9.018" y="1.67" class="f">67</text><text x="12.024" y="1.67" class="f">67</text><text x="15.03" y="1.67" class="f">47</text><text x="18.036" y="1.67" class="f">36</text><text x="21.042" y="1.67" class="f">25</text></symbol><symbol id="21"><text y="1.67" class="f">William</text><text x="9.018" y="1.67" class="f">65</text><text x="12.024" y="1.67" class="f">75</text><text x="15.03" y="1.67" class="f">78</text><text x="18.036" y="1.67" class="f">85</text></symbol><symbol id="22"><text y="1.67" class="f">^D</text></symbol><symbol id="23"><text y="1.67" class="f">Passing</text><text x="8.016" y="1.67" class="f">Students:</text></symbol><symbol id="24"><text y="1.67" class="f">Nelson</text><text x="9.018" y="1.67" class="f">85.8</text></symbol><symbol id="25"><text y="1.67" class="f">Olivia</text><text x="9.018" y="1.67" class="f">79.4</text></symbol><symbol id="26"><text y="1.67" class="f">Palm</text><text x="9.018" y="1.67" class="f">69.8</text></symbol><symbol id="27"><text y="1.67" class="f">Ronald</text><text x="9.018" y="1.67" class="f">64.4</text></symbol><symbol id="28"><text y="1.67" class="f">Thomas</text><text x="9.018" y="1.67" class="f">60.6</text></symbol><symbol id="29"><text y="1.67" class="f">William</text><text x="9.018" y="1.67" class="f">75.6</text></symbol><symbol id="30"><text y="1.67" class="f">Failing</text><text x="8.016" y="1.67" class="f">Students:</text></symbol><symbol id="31"><text y="1.67" class="f">Quincy</text><text x="9.018" y="1.67" class="f">54.6</text></symbol><symbol id="32"><text y="1.67" class="f">Sam</text><text x="9.018" y="1.67" class="f">student</text><text x="17.034" y="1.67" class="f">has</text><text x="21.042" y="1.67" class="f">done</text><text x="26.052" y="1.67" class="f">no</text><text x="29.058" y="1.67" class="f">homework</text></symbol><symbol id="33"><text y="1.67" class="f">Ursula</text><text x="9.018" y="1.67" class="f">52</text></symbol><symbol id="34"><text y="1.67" class="f">Victoria</text><text x="9.018" y="1.67" class="f">54.6</text></symbol><symbol id="a"><path fill="transparent" d="M0 0h96v30H0z"/></symbol><symbol id="b"><path fill="#38fe27" d="M0 0h1.102v2.171H0z"/></symbol></defs><path class="a" d="M0 0h96v62.959H0z"/><g style="animation-duration:22.983477s;animation-iteration-count:infinite;animation-name:i;animation-timing-function:steps(1,end)"><svg width="3648"><svg><use xlink:href="#a"/><use xlink:href="#b" x="-.004"/></svg><svg x="96"><use xlink:href="#a"/><use xlink:href="#b" x="9.996"/><use xlink:href="#1"/></svg><svg x="192"><use xlink:href="#a"/><use xlink:href="#b" x="10.996"/><text y="1.67" class="f">passing2</text><text x="9.018" y="1.67" class="f">$m</text></svg><svg x="288"><use xlink:href="#a"/><use xlink:href="#b" x="11.996"/><text y="1.67" class="f">passing2</text><text x="9.018" y="1.67" class="f">$ma</text></svg><svg x="384"><use xlink:href="#a"/><use xlink:href="#b" x="12.996"/><text y="1.67" class="f">passing2</text><text x="9.018" y="1.67" class="f">$mak</text></svg><svg x="480"><use xlink:href="#a"/><use xlink:href="#b" x="13.996"/><use xlink:href="#2"/></svg><svg x="576"><use xlink:href="#a"/><use xlink:href="#b" x="-.004" y="2.146"/><use xlink:href="#2"/></svg><svg x="672"><use xlink:href="#a"/><use xlink:href="#b" x="-.004" y="4.317"/><use xlink:href="#2"/><use xlink:href="#3" y="2.171"/></svg><svg x="768"><use xlink:href="#a"/><use xlink:href="#b" x="-.004" y="6.488"/><use xlink:href="#2"/><use xlink:href="#3" y="2.171"/><use xlink:href="#4" y="4.342"/></svg><svg x="864"><use xlink:href="#a"/><use xlink:href="#b" x="-.004" y="8.659"/><use xlink:href="#2"/><use xlink:href="#3" y="2.171"/><use xlink:href="#4" y="4.342"/><use xlink:href="#5" y="6.513"/></svg><svg x="960"><use xlink:href="#a"/><use xlink:href="#b" x="-.004" y="10.83"/><use xlink:href="#2"/><use xlink:href="#3" y="2.171"/><use xlink:href="#4" y="4.342"/><use xlink:href="#5" y="6.513"/><use xlink:href="#6" y="8.684"/></svg><svg x="1056"><use xlink:href="#a"/><use xlink:href="#b" x="-.004" y="13.001"/><use xlink:href="#2"/><use xlink:href="#3" y="2.171"/><use xlink:href="#4" y="4.342"/><use xlink:href="#5" y="6.513"/><use xlink:href="#6" y="8.684"/><use xlink:href="#7" y="10.855"/></svg><svg x="1152"><use xlink:href="#a"/><use xlink:href="#b" x="9.996" y="13.001"/><use xlink:href="#2"/><use xlink:href="#3" y="2.171"/><use xlink:href="#4" y="4.342"/><use xlink:href="#5" y="6.513"/><use xlink:href="#6" y="8.684"/><use xlink:href="#7" y="10.855"/><use xlink:href="#1" y="13.026"/></svg><svg x="1248"><use xlink:href="#a"/><use xlink:href="#b" x="10.996" y="13.001"/><use xlink:href="#2"/><use xlink:href="#3" y="2.171"/><use xlink:href="#4" y="4.342"/><use xlink:href="#5" y="6.513"/><use xlink:href="#6" y="8.684"/><use xlink:href="#7" y="10.855"/><text y="14.696" class="f">passing2</text><text x="9.018" y="14.696" class="f">$c</text></svg><svg x="1344"><use xlink:href="#a"/><use xlink:href="#b" x="11.996" y="13.001"/><use xlink:href="#2"/><use xlink:href="#3" y="2.171"/><use xlink:href="#4" y="4.342"/><use xlink:href="#5" y="6.513"/><use xlink:href="#6" y="8.684"/><use xlink:href="#7" y="10.855"/><text y="14.696" class="f">passing2</text><text x="9.018" y="14.696" class="f">$cl</text></svg><svg x="1440"><use xlink:href="#a"/><use xlink:href="#b" x="12.996" y="13.001"/><use xlink:href="#2"/><use xlink:href="#3" y="2.171"/><use xlink:href="#4" y="4.342"/><use xlink:href="#5" y="6.513"/><use xlink:href="#6" y="8.684"/><use xlink:href="#7" y="10.855"/><text y="14.696" class="f">passing2</text><text x="9.018" y="14.696" class="f">$cle</text></svg><svg x="1536"><use xlink:href="#a"/><use xlink:href="#b" x="13.996" y="13.001"/><use xlink:href="#2"/><use xlink:href="#3" y="2.171"/><use xlink:href="#4" y="4.342"/><use xlink:href="#5" y="6.513"/><use xlink:href="#6" y="8.684"/><use xlink:href="#7" y="10.855"/><text y="14.696" class="f">passing2</text><text x="9.018" y="14.696" class="f">$clea</text></svg><svg x="1632"><use xlink:href="#a"/><use xlink:href="#b" x="14.996" y="13.001"/><use xlink:href="#2"/><use xlink:href="#3" y="2.171"/><use xlink:href="#4" y="4.342"/><use xlink:href="#5" y="6.513"/><use xlink:href="#6" y="8.684"/><use xlink:href="#7" y="10.855"/><use xlink:href="#8" y="13.026"/></svg><svg x="1728"><use xlink:href="#a"/><use xlink:href="#b" x="-.004" y="15.172"/><use xlink:href="#2"/><use xlink:href="#3" y="2.171"/><use xlink:href="#4" y="4.342"/><use xlink:href="#5" y="6.513"/><use xlink:href="#6" y="8.684"/><use xlink:href="#7" y="10.855"/><use xlink:href="#8" y="13.026"/></svg><svg x="1824"><use xlink:href="#a"/><use xlink:href="#b" x="-.004"/></svg><svg x="1920"><use xlink:href="#a"/><use xlink:href="#b" x="9.996"/><use xlink:href="#1"/></svg><svg x="2016"><use xlink:href="#a"/><use xlink:href="#b" x="10.996"/><text y="1.67" class="f">passing2</text><text x="9.018" y="1.67" class="f">$b</text></svg><svg x="2112"><use xlink:href="#a"/><use xlink:href="#b" x="11.996"/><text y="1.67" class="f">passing2</text><text x="9.018" y="1.67" class="f">$bi</text></svg><svg x="2208"><use xlink:href="#a"/><use xlink:href="#b" x="12.996"/><text y="1.67" class="f">passing2</text><text x="9.018" y="1.67" class="f">$bin</text></svg><svg x="2304"><use xlink:href="#a"/><use xlink:href="#b" x="13.996"/><text y="1.67" class="f">passing2</text><text x="9.018" y="1.67" class="f">$bin/</text></svg><svg x="2400"><use xlink:href="#a"/><use xlink:href="#b" x="14.996"/><text y="1.67" class="f">passing2</text><text x="9.018" y="1.67" class="f">$bin/m</text></svg><svg x="2496"><use xlink:href="#a"/><use xlink:href="#b" x="15.996"/><text y="1.67" class="f">passing2</text><text x="9.018" y="1.67" class="f">$bin/ma</text></svg><svg x="2592"><use xlink:href="#a"/><use xlink:href="#b" x="16.996"/><text y="1.67" class="f">passing2</text><text x="9.018" y="1.67" class="f">$bin/mai</text></svg><svg x="2688"><use xlink:href="#a"/><use xlink:href="#b" x="17.996"/><use xlink:href="#9"/></svg><svg x="2784"><use xlink:href="#a"/><use xlink:href="#b" x="-.004" y="2.146"/><use xlink:href="#9"/></svg><svg x="2880"><use xlink:href="#a"/><use xlink:href="#b" x="-.004" y="6.488"/><use xlink:href="#9"/><use xlink:href="#10" y="2.171"/><use xlink:href="#11" y="4.342"/></svg><svg x="2976"><use xlink:href="#a"/><use xlink:href="#b" x="19.996" y="26.027"/><use xlink:href="#9"/><use xlink:href="#10" y="2.171"/><use xlink:href="#11" y="4.342"/><use xlink:href="#12" y="6.513"/><use xlink:href="#13" y="8.684"/><use xlink:href="#14" y="10.855"/><use xlink:href="#15" y="13.026"/><use xlink:href="#16" y="15.197"/><use xlink:href="#17" y="17.368"/><use xlink:href="#18" y="19.539"/><use xlink:href="#19" y="21.71"/><use xlink:href="#20" y="23.881"/><use xlink:href="#21" y="26.052"/></svg><svg x="3072"><use xlink:href="#a"/><use xlink:href="#b" x="-.004" y="28.198"/><use xlink:href="#9"/><use xlink:href="#10" y="2.171"/><use xlink:href="#11" y="4.342"/><use xlink:href="#12" y="6.513"/><use xlink:href="#13" y="8.684"/><use xlink:href="#14" y="10.855"/><use xlink:href="#15" y="13.026"/><use xlink:href="#16" y="15.197"/><use xlink:href="#17" y="17.368"/><use xlink:href="#18" y="19.539"/><use xlink:href="#19" y="21.71"/><use xlink:href="#20" y="23.881"/><use xlink:href="#21" y="26.052"/></svg><svg x="3168"><use xlink:href="#a"/><use xlink:href="#b" x="-.004" y="28.198"/><use xlink:href="#9"/><use xlink:href="#10" y="2.171"/><use xlink:href="#11" y="4.342"/><use xlink:href="#12" y="6.513"/><use xlink:href="#13" y="8.684"/><use xlink:href="#14" y="10.855"/><use xlink:href="#15" y="13.026"/><use xlink:href="#16" y="15.197"/><use xlink:href="#17" y="17.368"/><use xlink:href="#18" y="19.539"/><use xlink:href="#19" y="21.71"/><use xlink:href="#20" y="23.881"/><use xlink:href="#21" y="26.052"/><use xlink:href="#22" y="28.223"/></svg><svg x="3264"><use xlink:href="#a"/><use xlink:href="#b" x="-.004" y="39.053"/><use xlink:href="#9"/><use xlink:href="#10" y="2.171"/><use xlink:href="#11" y="4.342"/><use xlink:href="#12" y="6.513"/><use xlink:href="#13" y="8.684"/><use xlink:href="#14" y="10.855"/><use xlink:href="#15" y="13.026"/><use xlink:href="#16" y="15.197"/><use xlink:href="#17" y="17.368"/><use xlink:href="#18" y="19.539"/><use xlink:href="#19" y="21.71"/><use xlink:href="#20" y="23.881"/><use xlink:href="#21" y="26.052"/><use xlink:href="#22" y="28.223"/><use xlink:href="#23" y="30.394"/><use xlink:href="#24" y="32.565"/><use xlink:href="#25" y="34.736"/><use xlink:href="#26" y="36.907"/></svg><svg x="3360"><use xlink:href="#a"/><use xlink:href="#b" x="-.004" y="58.592"/><use xlink:href="#9"/><use xlink:href="#10" y="2.171"/><use xlink:href="#11" y="4.342"/><use xlink:href="#12" y="6.513"/><use xlink:href="#13" y="8.684"/><use xlink:href="#14" y="10.855"/><use xlink:href="#15" y="13.026"/><use xlink:href="#16" y="15.197"/><use xlink:href="#17" y="17.368"/><use xlink:href="#18" y="19.539"/><use xlink:href="#19" y="21.71"/><use xlink:href="#20" y="23.881"/><use xlink:href="#21" y="26.052"/><use xlink:href="#22" y="28.223"/><use xlink:href="#23" y="30.394"/><use xlink:href="#24" y="32.565"/><use xlink:href="#25" y="34.736"/><use xlink:href="#26" y="36.907"/><use xlink:href="#27" y="39.078"/><use xlink:href="#28" y="41.249"/><use xlink:href="#29" y="43.42"/><use xlink:href="#30" y="47.762"/><use xlink:href="#31" y="49.933"/><use xlink:href="#32" y="52.104"/><use xlink:href="#33" y="54.275"/><use xlink:href="#34" y="56.446"/></svg><svg x="3456"><use xlink:href="#a"/><use xlink:href="#b" x="9.996" y="58.592"/><use xlink:href="#9"/><use xlink:href="#10" y="2.171"/><use xlink:href="#11" y="4.342"/><use xlink:href="#12" y="6.513"/><use xlink:href="#13" y="8.684"/><use xlink:href="#14" y="10.855"/><use xlink:href="#15" y="13.026"/><use xlink:href="#16" y="15.197"/><use xlink:href="#17" y="17.368"/><use xlink:href="#18" y="19.539"/><use xlink:href="#19" y="21.71"/><use xlink:href="#20" y="23.881"/><use xlink:href="#21" y="26.052"/><use xlink:href="#22" y="28.223"/><use xlink:href="#23" y="30.394"/><use xlink:href="#24" y="32.565"/><use xlink:href="#25" y="34.736"/><use xlink:href="#26" y="36.907"/><use xlink:href="#27" y="39.078"/><use xlink:href="#28" y="41.249"/><use xlink:href="#29" y="43.42"/><use xlink:href="#30" y="47.762"/><use xlink:href="#31" y="49.933"/><use xlink:href="#32" y="52.104"/><use xlink:href="#33" y="54.275"/><use xlink:href="#34" y="56.446"/><use xlink:href="#1" y="58.617"/></svg><svg x="3552"><use xlink:href="#a"/><use xlink:href="#b" x="-.004" y="60.763"/><use xlink:href="#9"/><use xlink:href="#10" y="2.171"/><use xlink:href="#11" y="4.342"/><use xlink:href="#12" y="6.513"/><use xlink:href="#13" y="8.684"/><use xlink:href="#14" y="10.855"/><use xlink:href="#15" y="13.026"/><use xlink:href="#16" y="15.197"/><use xlink:href="#17" y="17.368"/><use xlink:href="#18" y="19.539"/><use xlink:href="#19" y="21.71"/><use xlink:href="#20" y="23.881"/><use xlink:href="#21" y="26.052"/><use xlink:href="#22" y="28.223"/><use xlink:href="#23" y="30.394"/><use xlink:href="#24" y="32.565"/><use xlink:href="#25" y="34.736"/><use xlink:href="#26" y="36.907"/><use xlink:href="#27" y="39.078"/><use xlink:href="#28" y="41.249"/><use xlink:href="#29" y="43.42"/><use xlink:href="#30" y="47.762"/><use xlink:href="#31" y="49.933"/><use xlink:href="#32" y="52.104"/><use xlink:href="#33" y="54.275"/><use xlink:href="#34" y="56.446"/><text y="60.287" class="f">passing2</text><text x="9.018" y="60.287" class="f">$exit</text></svg></svg></g></g></svg></svg>