<svg xmlns="http://www.w3.org/2000/svg" xmlns:xlink="http://www.w3.org/1999/xlink" width="1000" height="1275.76"><rect width="1000" height="1275.76" rx="5" ry="5" class="a"/><svg y="0%" x="0%"><circle cx="20" cy="20" r="6" fill="#ff5f58"/><circle cx="40" cy="20" r="6" fill="#ffbd2e"/><circle cx="60" cy="20" r="6" fill="#18c132"/></svg><svg height="1215.76" viewBox="0 0 96 121.576" width="960" x="15" xmlns="http://www.w3.org/2000/svg" xmlns:xlink="http://www.w3.org/1999/xlink" y="50"><style>@keyframes i{0%{transform:translateX(0)}.05%{transform:translateX(-96px)}1.44%{transform:translateX(-192px)}1.92%{transform:translateX(-288px)}2.56%{transform:translateX(-384px)}4.49%{transform:translateX(-480px)}5.06%{transform:translateX(-576px)}5.12%{transform:translateX(-672px)}6.94%{transform:translateX(-768px)}8.4%{transform:translateX(-864px)}8.64%{transform:translateX(-960px)}11.38%{transform:translateX(-1056px)}11.89%{transform:translateX(-1152px)}12.37%{transform:translateX(-1248px)}12.9%{transform:translateX(-1344px)}13.37%{transform:translateX(-1440px)}14.67%{transform:translateX(-1536px)}14.7%{transform:translateX(-1728px)}18.17%{transform:translateX(-1824px)}18.86%{transform:translateX(-1920px)}19.65%{transform:translateX(-2016px)}21.29%{transform:translateX(-2112px)}22.46%{transform:translateX(-2208px)}22.81%{transform:translateX(-2304px)}23.61%{transform:translateX(-2400px)}24.11%{transform:translateX(-2496px)}24.93%{transform:translateX(-2592px)}24.96%{transform:translateX(-2688px)}35.32%{transform:translateX(-2784px)}44.02%{transform:translateX(-2976px)}54.38%{transform:translateX(-3072px)}60.64%{transform:translateX(-3264px)}70.99%{transform:translateX(-3360px)}79.29%{transform:translateX(-3552px)}89.64%{transform:translateX(-3648px)}89.65%{transform:translateX(-3744px)}to{transform:translateX(-3840px)}}.a{fill:#000}.f{fill:#28fe14;white-space:pre}</style><g font-family="Monaco,Consolas,Menlo,'Bitstream Vera Sans Mono','Powerline Symbols',monospace" font-size="1.67"><defs><symbol id="1"><text y="1.67" class="f">sentence_split</text><text x="15.03" y="1.67" class="f">$</text></symbol><symbol id="2"><text y="1.67" class="f">sentence_split</text><text x="15.03" y="1.67" class="f">$make</text></symbol><symbol id="3"><text y="1.67" class="f">g++</text><text x="4.008" y="1.67" class="f">-o</text><text x="7.014" y="1.67" class="f">obj/main.o</text><text x="18.036" y="1.67" class="f">-c</text><text x="21.042" y="1.67" class="f">src/main.cpp</text></symbol><symbol id="4"><text y="1.67" class="f">g++</text><text x="4.008" y="1.67" class="f">-o</text><text x="7.014" y="1.67" class="f">obj/split.o</text><text x="19.038" y="1.67" class="f">-c</text><text x="22.044" y="1.67" class="f">src/split.cpp</text></symbol><symbol id="5"><text y="1.67" class="f">g++</text><text x="4.008" y="1.67" class="f">-g</text><text x="7.014" y="1.67" class="f">-Wall</text><text x="13.026" y="1.67" class="f">-o</text><text x="16.032" y="1.67" class="f">bin/main</text><text x="25.05" y="1.67" class="f">obj/main.o</text><text x="36.072" y="1.67" class="f">obj/split.o</text></symbol><symbol id="6"><text y="1.67" class="f">sentence_split</text><text x="15.03" y="1.67" class="f">$clear</text></symbol><symbol id="7"><text y="1.67" class="f">sentence_split</text><text x="15.03" y="1.67" class="f">$bin/main</text></symbol><symbol id="8"><text y="1.67" class="f">Input</text><text x="6.012" y="1.67" class="f">a</text><text x="8.016" y="1.67" class="f">sentence</text><text x="17.034" y="1.67" class="f">to</text><text x="20.04" y="1.67" class="f">split</text><text x="26.052" y="1.67" class="f">into</text><text x="31.062" y="1.67" class="f">words:</text></symbol><symbol id="9"><text y="1.67" class="f">This</text><text x="5.01" y="1.67" class="f">a</text><text x="7.014" y="1.67" class="f">is</text><text x="10.02" y="1.67" class="f">a</text><text x="14.028" y="1.67" class="f">sentence</text><text x="24.048" y="1.67" class="f">as</text><text x="27.054" y="1.67" class="f">it</text><text x="30.06" y="1.67" class="f">is</text><text x="33.066" y="1.67" class="f">made</text><text x="38.076" y="1.67" class="f">up</text><text x="41.082" y="1.67" class="f">of</text><text x="44.088" y="1.67" class="f">words</text><text x="50.1" y="1.67" class="f">which</text><text x="56.112" y="1.67" class="f">are</text><text x="60.12" y="1.67" class="f">each</text><text x="65.13" y="1.67" class="f">surrounded</text><text x="76.152" y="1.67" class="f">by</text><text x="80.16" y="1.67" class="f">blank</text><text x="88.176" y="1.67" class="f">space</text></symbol><symbol id="10"><text y="1.67" class="f">This</text></symbol><symbol id="11"><text y="1.67" class="f">a</text></symbol><symbol id="12"><text y="1.67" class="f">is</text></symbol><symbol id="13"><text y="1.67" class="f">sentence</text></symbol><symbol id="14"><text y="1.67" class="f">as</text></symbol><symbol id="15"><text y="1.67" class="f">it</text></symbol><symbol id="16"><text y="1.67" class="f">made</text></symbol><symbol id="17"><text y="1.67" class="f">up</text></symbol><symbol id="18"><text y="1.67" class="f">of</text></symbol><symbol id="19"><text y="1.67" class="f">words</text></symbol><symbol id="20"><text y="1.67" class="f">which</text></symbol><symbol id="21"><text y="1.67" class="f">are</text></symbol><symbol id="22"><text y="1.67" class="f">each</text></symbol><symbol id="23"><text y="1.67" class="f">surrounded</text></symbol><symbol id="24"><text y="1.67" class="f">by</text></symbol><symbol id="25"><text y="1.67" class="f">blank</text></symbol><symbol id="26"><text y="1.67" class="f">space</text></symbol><symbol id="27"><text y="1.67" class="f">The</text><text x="7.014" y="1.67" class="f">quick</text><text x="14.028" y="1.67" class="f">brown</text><text x="22.044" y="1.67" class="f">fox</text><text x="27.054" y="1.67" class="f">jumps</text><text x="35.07" y="1.67" class="f">over</text><text x="40.08" y="1.67" class="f">the</text><text x="46.092" y="1.67" class="f">lazy</text><text x="51.102" y="1.67" class="f">dog</text></symbol><symbol id="28"><text y="1.67" class="f">The</text></symbol><symbol id="29"><text y="1.67" class="f">quick</text></symbol><symbol id="30"><text y="1.67" class="f">brown</text></symbol><symbol id="31"><text y="1.67" class="f">fox</text></symbol><symbol id="32"><text y="1.67" class="f">jumps</text></symbol><symbol id="33"><text y="1.67" class="f">over</text></symbol><symbol id="34"><text y="1.67" class="f">the</text></symbol><symbol id="35"><text y="1.67" class="f">lazy</text></symbol><symbol id="36"><text y="1.67" class="f">dog</text></symbol><symbol id="37"><text y="1.67" class="f">This</text><text x="5.01" y="1.67" class="f">is</text><text x="8.016" y="1.67" class="f">the</text><text x="12.024" y="1.67" class="f">last</text><text x="17.034" y="1.67" class="f">sentence</text><text x="26.052" y="1.67" class="f">I</text><text x="28.056" y="1.67" class="f">will</text><text x="33.066" y="1.67" class="f">write</text><text x="39.078" y="1.67" class="f">before</text><text x="46.092" y="1.67" class="f">I</text><text x="48.096" y="1.67" class="f">say</text><text x="52.104" y="1.67" class="f">goodbye</text><text x="60.12" y="1.67" class="f">to</text><text x="63.126" y="1.67" class="f">this</text><text x="68.136" y="1.67" class="f">program</text></symbol><symbol id="38"><text y="1.67" class="f">last</text></symbol><symbol id="39"><text y="1.67" class="f">I</text></symbol><symbol id="40"><text y="1.67" class="f">will</text></symbol><symbol id="41"><text y="1.67" class="f">write</text></symbol><symbol id="42"><text y="1.67" class="f">before</text></symbol><symbol id="43"><text y="1.67" class="f">say</text></symbol><symbol id="44"><text y="1.67" class="f">goodbye</text></symbol><symbol id="45"><text y="1.67" class="f">to</text></symbol><symbol id="46"><text y="1.67" class="f">this</text></symbol><symbol id="47"><text y="1.67" class="f">program</text></symbol><symbol id="a"><path fill="transparent" d="M0 0h96v57H0z"/></symbol><symbol id="b"><path fill="#38fe27" d="M0 0h1.102v2.171H0z"/></symbol></defs><path class="a" d="M0 0h96v121.576H0z"/><g style="animation-duration:24.146131s;animation-iteration-count:infinite;animation-name:i;animation-timing-function:steps(1,end)"><svg width="3936"><svg><use xlink:href="#a"/><use xlink:href="#b" x="-.004"/></svg><svg x="96"><use xlink:href="#a"/><use xlink:href="#b" x="15.996"/><use xlink:href="#1"/></svg><svg x="192"><use xlink:href="#a"/><use xlink:href="#b" x="16.996"/><text y="1.67" class="f">sentence_split</text><text x="15.03" y="1.67" class="f">$m</text></svg><svg x="288"><use xlink:href="#a"/><use xlink:href="#b" x="17.996"/><text y="1.67" class="f">sentence_split</text><text x="15.03" y="1.67" class="f">$ma</text></svg><svg x="384"><use xlink:href="#a"/><use xlink:href="#b" x="18.996"/><text y="1.67" class="f">sentence_split</text><text x="15.03" y="1.67" class="f">$mak</text></svg><svg x="480"><use xlink:href="#a"/><use xlink:href="#b" x="19.996"/><use xlink:href="#2"/></svg><svg x="576"><use xlink:href="#a"/><use xlink:href="#b" x="-.004" y="2.146"/><use xlink:href="#2"/></svg><svg x="672"><use xlink:href="#a"/><use xlink:href="#b" x="-.004" y="4.317"/><use xlink:href="#2"/><use xlink:href="#3" y="2.171"/></svg><svg x="768"><use xlink:href="#a"/><use xlink:href="#b" x="-.004" y="6.488"/><use xlink:href="#2"/><use xlink:href="#3" y="2.171"/><use xlink:href="#4" y="4.342"/></svg><svg x="864"><use xlink:href="#a"/><use xlink:href="#b" x="-.004" y="8.659"/><use xlink:href="#2"/><use xlink:href="#3" y="2.171"/><use xlink:href="#4" y="4.342"/><use xlink:href="#5" y="6.513"/></svg><svg x="960"><use xlink:href="#a"/><use xlink:href="#b" x="15.996" y="8.659"/><use xlink:href="#2"/><use xlink:href="#3" y="2.171"/><use xlink:href="#4" y="4.342"/><use xlink:href="#5" y="6.513"/><use xlink:href="#1" y="8.684"/></svg><svg x="1056"><use xlink:href="#a"/><use xlink:href="#b" x="16.996" y="8.659"/><use xlink:href="#2"/><use xlink:href="#3" y="2.171"/><use xlink:href="#4" y="4.342"/><use xlink:href="#5" y="6.513"/><text y="10.354" class="f">sentence_split</text><text x="15.03" y="10.354" class="f">$c</text></svg><svg x="1152"><use xlink:href="#a"/><use xlink:href="#b" x="17.996" y="8.659"/><use xlink:href="#2"/><use xlink:href="#3" y="2.171"/><use xlink:href="#4" y="4.342"/><use xlink:href="#5" y="6.513"/><text y="10.354" class="f">sentence_split</text><text x="15.03" y="10.354" class="f">$cl</text></svg><svg x="1248"><use xlink:href="#a"/><use xlink:href="#b" x="18.996" y="8.659"/><use xlink:href="#2"/><use xlink:href="#3" y="2.171"/><use xlink:href="#4" y="4.342"/><use xlink:href="#5" y="6.513"/><text y="10.354" class="f">sentence_split</text><text x="15.03" y="10.354" class="f">$cle</text></svg><svg x="1344"><use xlink:href="#a"/><use xlink:href="#b" x="19.996" y="8.659"/><use xlink:href="#2"/><use xlink:href="#3" y="2.171"/><use xlink:href="#4" y="4.342"/><use xlink:href="#5" y="6.513"/><text y="10.354" class="f">sentence_split</text><text x="15.03" y="10.354" class="f">$clea</text></svg><svg x="1440"><use xlink:href="#a"/><use xlink:href="#b" x="20.996" y="8.659"/><use xlink:href="#2"/><use xlink:href="#3" y="2.171"/><use xlink:href="#4" y="4.342"/><use xlink:href="#5" y="6.513"/><use xlink:href="#6" y="8.684"/></svg><svg x="1536"><use xlink:href="#a"/><use xlink:href="#b" x="-.004" y="10.83"/><use xlink:href="#2"/><use xlink:href="#3" y="2.171"/><use xlink:href="#4" y="4.342"/><use xlink:href="#5" y="6.513"/><use xlink:href="#6" y="8.684"/></svg><svg x="1632"><use xlink:href="#a"/><use xlink:href="#b" x="-.004"/></svg><svg x="1728"><use xlink:href="#a"/><use xlink:href="#b" x="15.996"/><use xlink:href="#1"/></svg><svg x="1824"><use xlink:href="#a"/><use xlink:href="#b" x="16.996"/><text y="1.67" class="f">sentence_split</text><text x="15.03" y="1.67" class="f">$b</text></svg><svg x="1920"><use xlink:href="#a"/><use xlink:href="#b" x="17.996"/><text y="1.67" class="f">sentence_split</text><text x="15.03" y="1.67" class="f">$bi</text></svg><svg x="2016"><use xlink:href="#a"/><use xlink:href="#b" x="18.996"/><text y="1.67" class="f">sentence_split</text><text x="15.03" y="1.67" class="f">$bin</text></svg><svg x="2112"><use xlink:href="#a"/><use xlink:href="#b" x="19.996"/><text y="1.67" class="f">sentence_split</text><text x="15.03" y="1.67" class="f">$bin/</text></svg><svg x="2208"><use xlink:href="#a"/><use xlink:href="#b" x="20.996"/><text y="1.67" class="f">sentence_split</text><text x="15.03" y="1.67" class="f">$bin/m</text></svg><svg x="2304"><use xlink:href="#a"/><use xlink:href="#b" x="21.996"/><text y="1.67" class="f">sentence_split</text><text x="15.03" y="1.67" class="f">$bin/ma</text></svg><svg x="2400"><use xlink:href="#a"/><use xlink:href="#b" x="22.996"/><text y="1.67" class="f">sentence_split</text><text x="15.03" y="1.67" class="f">$bin/mai</text></svg><svg x="2496"><use xlink:href="#a"/><use xlink:href="#b" x="23.996"/><use xlink:href="#7"/></svg><svg x="2592"><use xlink:href="#a"/><use xlink:href="#b" x="-.004" y="2.146"/><use xlink:href="#7"/></svg><svg x="2688"><use xlink:href="#a"/><use xlink:href="#b" x="-.004" y="4.317"/><use xlink:href="#7"/><use xlink:href="#8" y="2.171"/></svg><svg x="2784"><use xlink:href="#a"/><use xlink:href="#b" x="92.996" y="4.317"/><use xlink:href="#7"/><use xlink:href="#8" y="2.171"/><use xlink:href="#9" y="4.342"/></svg><svg x="2880"><use xlink:href="#a"/><use xlink:href="#b" x="-.004" y="6.488"/><use xlink:href="#7"/><use xlink:href="#8" y="2.171"/><use xlink:href="#9" y="4.342"/></svg><svg x="2976"><use xlink:href="#a"/><use xlink:href="#b" x="-.004" y="52.079"/><use xlink:href="#7"/><use xlink:href="#8" y="2.171"/><use xlink:href="#9" y="4.342"/><use xlink:href="#10" y="8.684"/><use xlink:href="#11" y="10.855"/><use xlink:href="#12" y="13.026"/><use xlink:href="#11" y="15.197"/><use xlink:href="#13" y="17.368"/><use xlink:href="#14" y="19.539"/><use xlink:href="#15" y="21.71"/><use xlink:href="#12" y="23.881"/><use xlink:href="#16" y="26.052"/><use xlink:href="#17" y="28.223"/><use xlink:href="#18" y="30.394"/><use xlink:href="#19" y="32.565"/><use xlink:href="#20" y="34.736"/><use xlink:href="#21" y="36.907"/><use xlink:href="#22" y="39.078"/><use xlink:href="#23" y="41.249"/><use xlink:href="#24" y="43.42"/><use xlink:href="#25" y="45.591"/><use xlink:href="#26" y="47.762"/></svg><svg x="3072"><use xlink:href="#a"/><use xlink:href="#b" x="53.996" y="52.079"/><use xlink:href="#7"/><use xlink:href="#8" y="2.171"/><use xlink:href="#9" y="4.342"/><use xlink:href="#10" y="8.684"/><use xlink:href="#11" y="10.855"/><use xlink:href="#12" y="13.026"/><use xlink:href="#11" y="15.197"/><use xlink:href="#13" y="17.368"/><use xlink:href="#14" y="19.539"/><use xlink:href="#15" y="21.71"/><use xlink:href="#12" y="23.881"/><use xlink:href="#16" y="26.052"/><use xlink:href="#17" y="28.223"/><use xlink:href="#18" y="30.394"/><use xlink:href="#19" y="32.565"/><use xlink:href="#20" y="34.736"/><use xlink:href="#21" y="36.907"/><use xlink:href="#22" y="39.078"/><use xlink:href="#23" y="41.249"/><use xlink:href="#24" y="43.42"/><use xlink:href="#25" y="45.591"/><use xlink:href="#26" y="47.762"/><use xlink:href="#27" y="52.104"/></svg><svg x="3168"><use xlink:href="#a"/><use xlink:href="#b" x="-.004" y="54.25"/><use xlink:href="#7"/><use xlink:href="#8" y="2.171"/><use xlink:href="#9" y="4.342"/><use xlink:href="#10" y="8.684"/><use xlink:href="#11" y="10.855"/><use xlink:href="#12" y="13.026"/><use xlink:href="#11" y="15.197"/><use xlink:href="#13" y="17.368"/><use xlink:href="#14" y="19.539"/><use xlink:href="#15" y="21.71"/><use xlink:href="#12" y="23.881"/><use xlink:href="#16" y="26.052"/><use xlink:href="#17" y="28.223"/><use xlink:href="#18" y="30.394"/><use xlink:href="#19" y="32.565"/><use xlink:href="#20" y="34.736"/><use xlink:href="#21" y="36.907"/><use xlink:href="#22" y="39.078"/><use xlink:href="#23" y="41.249"/><use xlink:href="#24" y="43.42"/><use xlink:href="#25" y="45.591"/><use xlink:href="#26" y="47.762"/><use xlink:href="#27" y="52.104"/></svg><svg x="3264"><use xlink:href="#a"/><use xlink:href="#b" x="-.004" y="78.131"/><use xlink:href="#7"/><use xlink:href="#8" y="2.171"/><use xlink:href="#9" y="4.342"/><use xlink:href="#10" y="8.684"/><use xlink:href="#11" y="10.855"/><use xlink:href="#12" y="13.026"/><use xlink:href="#11" y="15.197"/><use xlink:href="#13" y="17.368"/><use xlink:href="#14" y="19.539"/><use xlink:href="#15" y="21.71"/><use xlink:href="#12" y="23.881"/><use xlink:href="#16" y="26.052"/><use xlink:href="#17" y="28.223"/><use xlink:href="#18" y="30.394"/><use xlink:href="#19" y="32.565"/><use xlink:href="#20" y="34.736"/><use xlink:href="#21" y="36.907"/><use xlink:href="#22" y="39.078"/><use xlink:href="#23" y="41.249"/><use xlink:href="#24" y="43.42"/><use xlink:href="#25" y="45.591"/><use xlink:href="#26" y="47.762"/><use xlink:href="#27" y="52.104"/><use xlink:href="#28" y="56.446"/><use xlink:href="#29" y="58.617"/><use xlink:href="#30" y="60.788"/><use xlink:href="#31" y="62.959"/><use xlink:href="#32" y="65.13"/><use xlink:href="#33" y="67.301"/><use xlink:href="#34" y="69.472"/><use xlink:href="#35" y="71.643"/><use xlink:href="#36" y="73.814"/></svg><svg x="3360"><use xlink:href="#a"/><use xlink:href="#b" x="74.996" y="78.131"/><use xlink:href="#7"/><use xlink:href="#8" y="2.171"/><use xlink:href="#9" y="4.342"/><use xlink:href="#10" y="8.684"/><use xlink:href="#11" y="10.855"/><use xlink:href="#12" y="13.026"/><use xlink:href="#11" y="15.197"/><use xlink:href="#13" y="17.368"/><use xlink:href="#14" y="19.539"/><use xlink:href="#15" y="21.71"/><use xlink:href="#12" y="23.881"/><use xlink:href="#16" y="26.052"/><use xlink:href="#17" y="28.223"/><use xlink:href="#18" y="30.394"/><use xlink:href="#19" y="32.565"/><use xlink:href="#20" y="34.736"/><use xlink:href="#21" y="36.907"/><use xlink:href="#22" y="39.078"/><use xlink:href="#23" y="41.249"/><use xlink:href="#24" y="43.42"/><use xlink:href="#25" y="45.591"/><use xlink:href="#26" y="47.762"/><use xlink:href="#27" y="52.104"/><use xlink:href="#28" y="56.446"/><use xlink:href="#29" y="58.617"/><use xlink:href="#30" y="60.788"/><use xlink:href="#31" y="62.959"/><use xlink:href="#32" y="65.13"/><use xlink:href="#33" y="67.301"/><use xlink:href="#34" y="69.472"/><use xlink:href="#35" y="71.643"/><use xlink:href="#36" y="73.814"/><use xlink:href="#37" y="78.156"/></svg><svg x="3456"><use xlink:href="#a"/><use xlink:href="#b" x="-.004" y="80.302"/><use xlink:href="#7"/><use xlink:href="#8" y="2.171"/><use xlink:href="#9" y="4.342"/><use xlink:href="#10" y="8.684"/><use xlink:href="#11" y="10.855"/><use xlink:href="#12" y="13.026"/><use xlink:href="#11" y="15.197"/><use xlink:href="#13" y="17.368"/><use xlink:href="#14" y="19.539"/><use xlink:href="#15" y="21.71"/><use xlink:href="#12" y="23.881"/><use xlink:href="#16" y="26.052"/><use xlink:href="#17" y="28.223"/><use xlink:href="#18" y="30.394"/><use xlink:href="#19" y="32.565"/><use xlink:href="#20" y="34.736"/><use xlink:href="#21" y="36.907"/><use xlink:href="#22" y="39.078"/><use xlink:href="#23" y="41.249"/><use xlink:href="#24" y="43.42"/><use xlink:href="#25" y="45.591"/><use xlink:href="#26" y="47.762"/><use xlink:href="#27" y="52.104"/><use xlink:href="#28" y="56.446"/><use xlink:href="#29" y="58.617"/><use xlink:href="#30" y="60.788"/><use xlink:href="#31" y="62.959"/><use xlink:href="#32" y="65.13"/><use xlink:href="#33" y="67.301"/><use xlink:href="#34" y="69.472"/><use xlink:href="#35" y="71.643"/><use xlink:href="#36" y="73.814"/><use xlink:href="#37" y="78.156"/></svg><svg x="3552"><use xlink:href="#a"/><use xlink:href="#b" x="-.004" y="117.209"/><use xlink:href="#7"/><use xlink:href="#8" y="2.171"/><use xlink:href="#9" y="4.342"/><use xlink:href="#10" y="8.684"/><use xlink:href="#11" y="10.855"/><use xlink:href="#12" y="13.026"/><use xlink:href="#11" y="15.197"/><use xlink:href="#13" y="17.368"/><use xlink:href="#14" y="19.539"/><use xlink:href="#15" y="21.71"/><use xlink:href="#12" y="23.881"/><use xlink:href="#16" y="26.052"/><use xlink:href="#17" y="28.223"/><use xlink:href="#18" y="30.394"/><use xlink:href="#19" y="32.565"/><use xlink:href="#20" y="34.736"/><use xlink:href="#21" y="36.907"/><use xlink:href="#22" y="39.078"/><use xlink:href="#23" y="41.249"/><use xlink:href="#24" y="43.42"/><use xlink:href="#25" y="45.591"/><use xlink:href="#26" y="47.762"/><use xlink:href="#27" y="52.104"/><use xlink:href="#28" y="56.446"/><use xlink:href="#29" y="58.617"/><use xlink:href="#30" y="60.788"/><use xlink:href="#31" y="62.959"/><use xlink:href="#32" y="65.13"/><use xlink:href="#33" y="67.301"/><use xlink:href="#34" y="69.472"/><use xlink:href="#35" y="71.643"/><use xlink:href="#36" y="73.814"/><use xlink:href="#37" y="78.156"/><use xlink:href="#10" y="82.498"/><use xlink:href="#12" y="84.669"/><use xlink:href="#34" y="86.84"/><use xlink:href="#38" y="89.011"/><use xlink:href="#13" y="91.182"/><use xlink:href="#39" y="93.353"/><use xlink:href="#40" y="95.524"/><use xlink:href="#41" y="97.695"/><use xlink:href="#42" y="99.866"/><use xlink:href="#39" y="102.037"/><use xlink:href="#43" y="104.208"/><use xlink:href="#44" y="106.379"/><use xlink:href="#45" y="108.55"/><use xlink:href="#46" y="110.721"/><use xlink:href="#47" y="112.892"/></svg><svg x="3648"><use xlink:href="#a"/><use xlink:href="#b" x="-.004" y="117.209"/><use xlink:href="#7"/><use xlink:href="#8" y="2.171"/><use xlink:href="#9" y="4.342"/><use xlink:href="#10" y="8.684"/><use xlink:href="#11" y="10.855"/><use xlink:href="#12" y="13.026"/><use xlink:href="#11" y="15.197"/><use xlink:href="#13" y="17.368"/><use xlink:href="#14" y="19.539"/><use xlink:href="#15" y="21.71"/><use xlink:href="#12" y="23.881"/><use xlink:href="#16" y="26.052"/><use xlink:href="#17" y="28.223"/><use xlink:href="#18" y="30.394"/><use xlink:href="#19" y="32.565"/><use xlink:href="#20" y="34.736"/><use xlink:href="#21" y="36.907"/><use xlink:href="#22" y="39.078"/><use xlink:href="#23" y="41.249"/><use xlink:href="#24" y="43.42"/><use xlink:href="#25" y="45.591"/><use xlink:href="#26" y="47.762"/><use xlink:href="#27" y="52.104"/><use xlink:href="#28" y="56.446"/><use xlink:href="#29" y="58.617"/><use xlink:href="#30" y="60.788"/><use xlink:href="#31" y="62.959"/><use xlink:href="#32" y="65.13"/><use xlink:href="#33" y="67.301"/><use xlink:href="#34" y="69.472"/><use xlink:href="#35" y="71.643"/><use xlink:href="#36" y="73.814"/><use xlink:href="#37" y="78.156"/><use xlink:href="#10" y="82.498"/><use xlink:href="#12" y="84.669"/><use xlink:href="#34" y="86.84"/><use xlink:href="#38" y="89.011"/><use xlink:href="#13" y="91.182"/><use xlink:href="#39" y="93.353"/><use xlink:href="#40" y="95.524"/><use xlink:href="#41" y="97.695"/><use xlink:href="#42" y="99.866"/><use xlink:href="#39" y="102.037"/><use xlink:href="#43" y="104.208"/><use xlink:href="#44" y="106.379"/><use xlink:href="#45" y="108.55"/><use xlink:href="#46" y="110.721"/><use xlink:href="#47" y="112.892"/><text y="118.904" class="f">^D</text></svg><svg x="3744"><use xlink:href="#a"/><use xlink:href="#b" x="15.996" y="117.209"/><use xlink:href="#7"/><use xlink:href="#8" y="2.171"/><use xlink:href="#9" y="4.342"/><use xlink:href="#10" y="8.684"/><use xlink:href="#11" y="10.855"/><use xlink:href="#12" y="13.026"/><use xlink:href="#11" y="15.197"/><use xlink:href="#13" y="17.368"/><use xlink:href="#14" y="19.539"/><use xlink:href="#15" y="21.71"/><use xlink:href="#12" y="23.881"/><use xlink:href="#16" y="26.052"/><use xlink:href="#17" y="28.223"/><use xlink:href="#18" y="30.394"/><use xlink:href="#19" y="32.565"/><use xlink:href="#20" y="34.736"/><use xlink:href="#21" y="36.907"/><use xlink:href="#22" y="39.078"/><use xlink:href="#23" y="41.249"/><use xlink:href="#24" y="43.42"/><use xlink:href="#25" y="45.591"/><use xlink:href="#26" y="47.762"/><use xlink:href="#27" y="52.104"/><use xlink:href="#28" y="56.446"/><use xlink:href="#29" y="58.617"/><use xlink:href="#30" y="60.788"/><use xlink:href="#31" y="62.959"/><use xlink:href="#32" y="65.13"/><use xlink:href="#33" y="67.301"/><use xlink:href="#34" y="69.472"/><use xlink:href="#35" y="71.643"/><use xlink:href="#36" y="73.814"/><use xlink:href="#37" y="78.156"/><use xlink:href="#10" y="82.498"/><use xlink:href="#12" y="84.669"/><use xlink:href="#34" y="86.84"/><use xlink:href="#38" y="89.011"/><use xlink:href="#13" y="91.182"/><use xlink:href="#39" y="93.353"/><use xlink:href="#40" y="95.524"/><use xlink:href="#41" y="97.695"/><use xlink:href="#42" y="99.866"/><use xlink:href="#39" y="102.037"/><use xlink:href="#43" y="104.208"/><use xlink:href="#44" y="106.379"/><use xlink:href="#45" y="108.55"/><use xlink:href="#46" y="110.721"/><use xlink:href="#47" y="112.892"/><use xlink:href="#1" y="117.234"/></svg><svg x="3840"><use xlink:href="#a"/><use xlink:href="#b" x="-.004" y="119.38"/><use xlink:href="#7"/><use xlink:href="#8" y="2.171"/><use xlink:href="#9" y="4.342"/><use xlink:href="#10" y="8.684"/><use xlink:href="#11" y="10.855"/><use xlink:href="#12" y="13.026"/><use xlink:href="#11" y="15.197"/><use xlink:href="#13" y="17.368"/><use xlink:href="#14" y="19.539"/><use xlink:href="#15" y="21.71"/><use xlink:href="#12" y="23.881"/><use xlink:href="#16" y="26.052"/><use xlink:href="#17" y="28.223"/><use xlink:href="#18" y="30.394"/><use xlink:href="#19" y="32.565"/><use xlink:href="#20" y="34.736"/><use xlink:href="#21" y="36.907"/><use xlink:href="#22" y="39.078"/><use xlink:href="#23" y="41.249"/><use xlink:href="#24" y="43.42"/><use xlink:href="#25" y="45.591"/><use xlink:href="#26" y="47.762"/><use xlink:href="#27" y="52.104"/><use xlink:href="#28" y="56.446"/><use xlink:href="#29" y="58.617"/><use xlink:href="#30" y="60.788"/><use xlink:href="#31" y="62.959"/><use xlink:href="#32" y="65.13"/><use xlink:href="#33" y="67.301"/><use xlink:href="#34" y="69.472"/><use xlink:href="#35" y="71.643"/><use xlink:href="#36" y="73.814"/><use xlink:href="#37" y="78.156"/><use xlink:href="#10" y="82.498"/><use xlink:href="#12" y="84.669"/><use xlink:href="#34" y="86.84"/><use xlink:href="#38" y="89.011"/><use xlink:href="#13" y="91.182"/><use xlink:href="#39" y="93.353"/><use xlink:href="#40" y="95.524"/><use xlink:href="#41" y="97.695"/><use xlink:href="#42" y="99.866"/><use xlink:href="#39" y="102.037"/><use xlink:href="#43" y="104.208"/><use xlink:href="#44" y="106.379"/><use xlink:href="#45" y="108.55"/><use xlink:href="#46" y="110.721"/><use xlink:href="#47" y="112.892"/><text y="118.904" class="f">sentence_split</text><text x="15.03" y="118.904" class="f">$exit</text></svg></svg></g></g></svg></svg>