<svg xmlns="http://www.w3.org/2000/svg" xmlns:xlink="http://www.w3.org/1999/xlink" width="1810" height="1519.7"><rect width="1810" height="1519.7" rx="0" ry="0" class="a"/><svg height="1519.7" viewBox="0 0 181 151.97" width="1810" xmlns="http://www.w3.org/2000/svg" xmlns:xlink="http://www.w3.org/1999/xlink"><style>@keyframes f{0%{transform:translateX(0)}.07%{transform:translateX(-181px)}11.76%{transform:translateX(-362px)}15.21%{transform:translateX(-543px)}17.43%{transform:translateX(-724px)}19.82%{transform:translateX(-905px)}27.71%{transform:translateX(-1086px)}27.82%{transform:translateX(-1267px)}30.14%{transform:translateX(-1448px)}42.34%{transform:translateX(-1629px)}46.81%{transform:translateX(-1810px)}52.34%{transform:translateX(-1991px)}56.62%{transform:translateX(-2172px)}59.14%{transform:translateX(-2353px)}61.8%{transform:translateX(-2534px)}73.68%{transform:translateX(-2715px)}73.72%{transform:translateX(-3077px)}to{transform:translateX(-3258px)}}.a{fill:#000}.c{fill:#28fe14;white-space:pre}</style><g font-family="Monaco,Consolas,Menlo,'Bitstream Vera Sans Mono','Powerline Symbols',monospace" font-size="1.67"><defs><symbol id="1"><text y="1.67" class="c">hello_world1</text><text x="13.026" y="1.67" class="c">$</text></symbol><symbol id="2"><text y="1.67" class="c">hello_world1</text><text x="13.026" y="1.67" class="c">$make</text></symbol><symbol id="3"><text y="1.67" class="c">g++</text><text x="4.008" y="1.67" class="c">-o</text><text x="7.014" y="1.67" class="c">main</text><text x="12.024" y="1.67" class="c">main.cpp</text></symbol><symbol id="4"><text y="1.67" class="c">hello_world1</text><text x="13.026" y="1.67" class="c">$./main</text></symbol><symbol id="5"><text y="1.67" class="c">Hello,</text><text x="7.014" y="1.67" class="c">world!</text></symbol><symbol id="6"><text y="1.67" class="c">This</text><text x="5.01" y="1.67" class="c">&quot;</text><text x="7.014" y="1.67" class="c">is</text><text x="10.02" y="1.67" class="c">a</text><text x="12.024" y="1.67" class="c">quoute,</text><text x="20.04" y="1.67" class="c">and</text><text x="24.048" y="1.67" class="c">this</text><text x="29.058" y="1.67" class="c">\</text><text x="31.062" y="1.67" class="c">is</text><text x="34.068" y="1.67" class="c">a</text><text x="36.072" y="1.67" class="c">backslash.</text></symbol><symbol id="7"><text y="1.67" class="c">This</text><text x="5.01" y="1.67" class="c">large</text><text x="11.022" y="1.67" class="c">space</text><text x="17.034" y="1.67" class="c">(</text><text x="24.048" y="1.67" class="c">)</text><text x="26.052" y="1.67" class="c">is</text><text x="29.058" y="1.67" class="c">from</text><text x="34.068" y="1.67" class="c">a</text><text x="36.072" y="1.67" class="c">tab</text><text x="40.08" y="1.67" class="c">character</text></symbol><symbol id="a"><path fill="transparent" d="M0 0h181v70H0z"/></symbol><symbol id="b"><path fill="#38fe27" d="M0 0h1.102v2.171H0z"/></symbol></defs><path class="a" d="M0 0h181v151.97H0z"/><g style="animation-duration:19.026213s;animation-iteration-count:infinite;animation-name:f;animation-timing-function:steps(1,end)"><svg width="3439"><svg><use xlink:href="#a"/><use xlink:href="#b" x="-.004"/></svg><svg x="181"><use xlink:href="#a"/><use xlink:href="#b" x="13.996"/><use xlink:href="#1"/></svg><svg x="362"><use xlink:href="#a"/><use xlink:href="#b" x="14.996"/><text y="1.67" class="c">hello_world1</text><text x="13.026" y="1.67" class="c">$m</text></svg><svg x="543"><use xlink:href="#a"/><use xlink:href="#b" x="15.996"/><text y="1.67" class="c">hello_world1</text><text x="13.026" y="1.67" class="c">$ma</text></svg><svg x="724"><use xlink:href="#a"/><use xlink:href="#b" x="16.996"/><text y="1.67" class="c">hello_world1</text><text x="13.026" y="1.67" class="c">$mak</text></svg><svg x="905"><use xlink:href="#a"/><use xlink:href="#b" x="17.996"/><use xlink:href="#2"/></svg><svg x="1086"><use xlink:href="#a"/><use xlink:href="#b" x="-.004" y="2.146"/><use xlink:href="#2"/></svg><svg x="1267"><use xlink:href="#a"/><use xlink:href="#b" x="-.004" y="4.317"/><use xlink:href="#2"/><use xlink:href="#3" y="2.171"/></svg><svg x="1448"><use xlink:href="#a"/><use xlink:href="#b" x="13.996" y="4.317"/><use xlink:href="#2"/><use xlink:href="#3" y="2.171"/><use xlink:href="#1" y="4.342"/></svg><svg x="1629"><use xlink:href="#a"/><use xlink:href="#b" x="14.996" y="4.317"/><use xlink:href="#2"/><use xlink:href="#3" y="2.171"/><text y="6.012" class="c">hello_world1</text><text x="13.026" y="6.012" class="c">$.</text></svg><svg x="1810"><use xlink:href="#a"/><use xlink:href="#b" x="15.996" y="4.317"/><use xlink:href="#2"/><use xlink:href="#3" y="2.171"/><text y="6.012" class="c">hello_world1</text><text x="13.026" y="6.012" class="c">$./</text></svg><svg x="1991"><use xlink:href="#a"/><use xlink:href="#b" x="16.996" y="4.317"/><use xlink:href="#2"/><use xlink:href="#3" y="2.171"/><text y="6.012" class="c">hello_world1</text><text x="13.026" y="6.012" class="c">$./m</text></svg><svg x="2172"><use xlink:href="#a"/><use xlink:href="#b" x="17.996" y="4.317"/><use xlink:href="#2"/><use xlink:href="#3" y="2.171"/><text y="6.012" class="c">hello_world1</text><text x="13.026" y="6.012" class="c">$./ma</text></svg><svg x="2353"><use xlink:href="#a"/><use xlink:href="#b" x="18.996" y="4.317"/><use xlink:href="#2"/><use xlink:href="#3" y="2.171"/><text y="6.012" class="c">hello_world1</text><text x="13.026" y="6.012" class="c">$./mai</text></svg><svg x="2534"><use xlink:href="#a"/><use xlink:href="#b" x="19.996" y="4.317"/><use xlink:href="#2"/><use xlink:href="#3" y="2.171"/><use xlink:href="#4" y="4.342"/></svg><svg x="2715"><use xlink:href="#a"/><use xlink:href="#b" x="-.004" y="6.488"/><use xlink:href="#2"/><use xlink:href="#3" y="2.171"/><use xlink:href="#4" y="4.342"/></svg><svg x="2896"><use xlink:href="#a"/><use xlink:href="#b" x="-.004" y="13.001"/><use xlink:href="#2"/><use xlink:href="#3" y="2.171"/><use xlink:href="#4" y="4.342"/><use xlink:href="#5" y="6.513"/><use xlink:href="#6" y="8.684"/><use xlink:href="#7" y="10.855"/></svg><svg x="3077"><use xlink:href="#a"/><use xlink:href="#b" x="13.996" y="13.001"/><use xlink:href="#2"/><use xlink:href="#3" y="2.171"/><use xlink:href="#4" y="4.342"/><use xlink:href="#5" y="6.513"/><use xlink:href="#6" y="8.684"/><use xlink:href="#7" y="10.855"/><use xlink:href="#1" y="13.026"/></svg><svg x="3258"><use xlink:href="#a"/><use xlink:href="#b" x="-.004" y="15.172"/><use xlink:href="#2"/><use xlink:href="#3" y="2.171"/><use xlink:href="#4" y="4.342"/><use xlink:href="#5" y="6.513"/><use xlink:href="#6" y="8.684"/><use xlink:href="#7" y="10.855"/><text y="14.696" class="c">hello_world1</text><text x="13.026" y="14.696" class="c">$exit</text></svg></svg></g></g></svg></svg>