<svg xmlns="http://www.w3.org/2000/svg" xmlns:xlink="http://www.w3.org/1999/xlink" width="1000" height="1036.95"><rect width="1000" height="1036.95" rx="5" ry="5" class="a"/><svg y="0%" x="0%"><circle cx="20" cy="20" r="6" fill="#ff5f58"/><circle cx="40" cy="20" r="6" fill="#ffbd2e"/><circle cx="60" cy="20" r="6" fill="#18c132"/></svg><svg height="976.95" viewBox="0 0 96 97.695" width="960" x="15" xmlns="http://www.w3.org/2000/svg" xmlns:xlink="http://www.w3.org/1999/xlink" y="50"><style>@keyframes i{0%{transform:translateX(0)}.06%{transform:translateX(-96px)}2.61%{transform:translateX(-192px)}3.11%{transform:translateX(-288px)}3.73%{transform:translateX(-384px)}4.15%{transform:translateX(-480px)}4.85%{transform:translateX(-576px)}4.9%{transform:translateX(-672px)}7.12%{transform:translateX(-768px)}7.54%{transform:translateX(-864px)}8.7%{transform:translateX(-960px)}8.91%{transform:translateX(-1056px)}10.45%{transform:translateX(-1152px)}11.01%{transform:translateX(-1248px)}12.37%{transform:translateX(-1344px)}13.25%{transform:translateX(-1440px)}13.9%{transform:translateX(-1536px)}14.43%{transform:translateX(-1632px)}14.45%{transform:translateX(-1824px)}17.06%{transform:translateX(-1920px)}17.5%{transform:translateX(-2016px)}18.16%{transform:translateX(-2112px)}19.1%{transform:translateX(-2208px)}20.13%{transform:translateX(-2304px)}20.56%{transform:translateX(-2400px)}21.19%{transform:translateX(-2496px)}21.91%{transform:translateX(-2592px)}22.45%{transform:translateX(-2688px)}22.47%{transform:translateX(-2784px)}50.32%{transform:translateX(-2880px)}60.65%{transform:translateX(-2976px)}67.29%{transform:translateX(-3072px)}72.15%{transform:translateX(-3456px)}to{transform:translateX(-3552px)}}.a{fill:#000}.f{fill:#28fe14;white-space:pre}</style><g font-family="Monaco,Consolas,Menlo,'Bitstream Vera Sans Mono','Powerline Symbols',monospace" font-size="1.67"><defs><symbol id="1"><text y="1.67" class="f">sentence_generator</text><text x="19.038" y="1.67" class="f">$</text></symbol><symbol id="2"><text y="1.67" class="f">sentence_generator</text><text x="19.038" y="1.67" class="f">$make</text></symbol><symbol id="3"><text y="1.67" class="f">g++</text><text x="4.008" y="1.67" class="f">-o</text><text x="7.014" y="1.67" class="f">obj/main.o</text><text x="18.036" y="1.67" class="f">-c</text><text x="21.042" y="1.67" class="f">src/main.cpp</text></symbol><symbol id="4"><text y="1.67" class="f">g++</text><text x="4.008" y="1.67" class="f">-o</text><text x="7.014" y="1.67" class="f">obj/nrand.o</text><text x="19.038" y="1.67" class="f">-c</text><text x="22.044" y="1.67" class="f">src/nrand.cpp</text></symbol><symbol id="5"><text y="1.67" class="f">g++</text><text x="4.008" y="1.67" class="f">-o</text><text x="7.014" y="1.67" class="f">obj/split.o</text><text x="19.038" y="1.67" class="f">-c</text><text x="22.044" y="1.67" class="f">src/split.cpp</text></symbol><symbol id="6"><text y="1.67" class="f">g++</text><text x="4.008" y="1.67" class="f">-g</text><text x="7.014" y="1.67" class="f">-Wall</text><text x="13.026" y="1.67" class="f">-o</text><text x="16.032" y="1.67" class="f">bin/main</text><text x="25.05" y="1.67" class="f">obj/main.o</text><text x="36.072" y="1.67" class="f">obj/nrand.o</text><text x="48.096" y="1.67" class="f">obj/split.o</text></symbol><symbol id="7"><text y="1.67" class="f">sentence_generator</text><text x="19.038" y="1.67" class="f">$clear</text></symbol><symbol id="8"><text y="1.67" class="f">sentence_generator</text><text x="19.038" y="1.67" class="f">$bin/main</text></symbol><symbol id="9"><text y="1.67" class="f">A</text><text x="2.004" y="1.67" class="f">grammar</text><text x="10.02" y="1.67" class="f">is</text><text x="13.026" y="1.67" class="f">an</text><text x="16.032" y="1.67" class="f">well-defined</text><text x="29.058" y="1.67" class="f">collection</text><text x="40.08" y="1.67" class="f">of</text><text x="43.086" y="1.67" class="f">rules</text><text x="49.098" y="1.67" class="f">used</text><text x="54.108" y="1.67" class="f">to</text><text x="57.114" y="1.67" class="f">define</text><text x="64.128" y="1.67" class="f">the</text><text x="68.136" y="1.67" class="f">words</text><text x="74.148" y="1.67" class="f">and</text><text x="78.156" y="1.67" class="f">syntax</text><text x="85.17" y="1.67" class="f">that</text><text x="90.18" y="1.67" class="f">a</text><text x="92.184" y="1.67" class="f">sent</text></symbol><symbol id="10"><text y="1.67" class="f">ence</text><text x="5.01" y="1.67" class="f">should</text><text x="12.024" y="1.67" class="f">have.</text></symbol><symbol id="11"><text y="1.67" class="f">Input</text><text x="6.012" y="1.67" class="f">a</text><text x="8.016" y="1.67" class="f">grammar</text><text x="16.032" y="1.67" class="f">by</text><text x="19.038" y="1.67" class="f">entering</text><text x="28.056" y="1.67" class="f">lines</text><text x="34.068" y="1.67" class="f">of</text><text x="37.074" y="1.67" class="f">text</text><text x="42.084" y="1.67" class="f">that</text><text x="47.094" y="1.67" class="f">each</text><text x="52.104" y="1.67" class="f">represent</text><text x="62.124" y="1.67" class="f">a</text><text x="64.128" y="1.67" class="f">rule.</text></symbol><symbol id="12"><text y="1.67" class="f">Exactly</text><text x="8.016" y="1.67" class="f">5</text><text x="10.02" y="1.67" class="f">randomly</text><text x="19.038" y="1.67" class="f">generated</text><text x="29.058" y="1.67" class="f">sentences</text><text x="39.078" y="1.67" class="f">from</text><text x="44.088" y="1.67" class="f">the</text><text x="48.096" y="1.67" class="f">grammar</text><text x="56.112" y="1.67" class="f">will</text><text x="61.122" y="1.67" class="f">then</text><text x="66.132" y="1.67" class="f">be</text><text x="69.138" y="1.67" class="f">outputted.</text></symbol><symbol id="13"><text y="1.67" class="f">Write</text><text x="6.012" y="1.67" class="f">each</text><text x="11.022" y="1.67" class="f">rule</text><text x="16.032" y="1.67" class="f">you</text><text x="20.04" y="1.67" class="f">would</text><text x="26.052" y="1.67" class="f">like</text><text x="31.062" y="1.67" class="f">to</text><text x="34.068" y="1.67" class="f">add</text><text x="38.076" y="1.67" class="f">to</text><text x="41.082" y="1.67" class="f">the</text><text x="45.09" y="1.67" class="f">grammar</text><text x="53.106" y="1.67" class="f">in</text><text x="56.112" y="1.67" class="f">the</text><text x="60.12" y="1.67" class="f">following</text><text x="70.14" y="1.67" class="f">form:</text></symbol><symbol id="14"><text y="1.67" class="f">&lt;rule-category&gt;</text><text x="16.032" y="1.67" class="f">rule-definition</text></symbol><symbol id="15"><text y="1.67" class="f">(Be</text><text x="4.008" y="1.67" class="f">sure</text><text x="9.018" y="1.67" class="f">to</text><text x="12.024" y="1.67" class="f">add</text><text x="16.032" y="1.67" class="f">AT</text><text x="19.038" y="1.67" class="f">LEAST</text><text x="25.05" y="1.67" class="f">ONE</text><text x="29.058" y="1.67" class="f">&lt;sentence&gt;</text><text x="40.08" y="1.67" class="f">rule</text><text x="45.09" y="1.67" class="f">to</text><text x="48.096" y="1.67" class="f">define</text><text x="55.11" y="1.67" class="f">the</text><text x="59.118" y="1.67" class="f">sentence(s)</text><text x="71.142" y="1.67" class="f">the</text><text x="75.15" y="1.67" class="f">grammar</text><text x="83.166" y="1.67" class="f">outputs):</text></symbol><symbol id="16"><text y="1.67" class="f">&lt;noun&gt;</text><text x="7.014" y="1.67" class="f">cat</text></symbol><symbol id="17"><text y="1.67" class="f">&lt;noun&gt;</text><text x="7.014" y="1.67" class="f">dog</text></symbol><symbol id="18"><text y="1.67" class="f">&lt;noun&gt;</text><text x="7.014" y="1.67" class="f">table</text></symbol><symbol id="19"><text y="1.67" class="f">&lt;noun&gt;</text><text x="7.014" y="1.67" class="f">fox</text></symbol><symbol id="20"><text y="1.67" class="f">&lt;noun&gt;</text><text x="7.014" y="1.67" class="f">fence</text></symbol><symbol id="21"><text y="1.67" class="f">&lt;noun-phrase&gt;</text><text x="14.028" y="1.67" class="f">&lt;noun&gt;</text></symbol><symbol id="22"><text y="1.67" class="f">&lt;noun-phrase&gt;</text><text x="14.028" y="1.67" class="f">&lt;adjective&gt;</text><text x="26.052" y="1.67" class="f">&lt;noun-phrase&gt;</text></symbol><symbol id="23"><text y="1.67" class="f">&lt;adjective&gt;</text><text x="12.024" y="1.67" class="f">large</text></symbol><symbol id="24"><text y="1.67" class="f">&lt;adjective&gt;</text><text x="12.024" y="1.67" class="f">brown</text></symbol><symbol id="25"><text y="1.67" class="f">&lt;adjective&gt;</text><text x="12.024" y="1.67" class="f">absurd</text></symbol><symbol id="26"><text y="1.67" class="f">&lt;adjective&gt;</text><text x="12.024" y="1.67" class="f">lazy</text></symbol><symbol id="27"><text y="1.67" class="f">&lt;verb&gt;</text><text x="7.014" y="1.67" class="f">jumps</text></symbol><symbol id="28"><text y="1.67" class="f">&lt;verb&gt;</text><text x="7.014" y="1.67" class="f">sits</text></symbol><symbol id="29"><text y="1.67" class="f">&lt;adverb&gt;</text><text x="9.018" y="1.67" class="f">quickly</text></symbol><symbol id="30"><text y="1.67" class="f">&lt;adverb&gt;</text><text x="9.018" y="1.67" class="f">slowly</text></symbol><symbol id="31"><text y="1.67" class="f">&lt;adverb&gt;</text><text x="9.018" y="1.67" class="f">quietly</text></symbol><symbol id="32"><text y="1.67" class="f">&lt;adverb&gt;</text><text x="9.018" y="1.67" class="f">loudly</text></symbol><symbol id="33"><text y="1.67" class="f">&lt;location&gt;</text><text x="11.022" y="1.67" class="f">on</text><text x="14.028" y="1.67" class="f">the</text><text x="18.036" y="1.67" class="f">stairs</text></symbol><symbol id="34"><text y="1.67" class="f">&lt;location&gt;</text><text x="11.022" y="1.67" class="f">under</text><text x="17.034" y="1.67" class="f">the</text><text x="21.042" y="1.67" class="f">sky</text></symbol><symbol id="35"><text y="1.67" class="f">&lt;location&gt;</text><text x="11.022" y="1.67" class="f">wherever</text><text x="20.04" y="1.67" class="f">it</text><text x="23.046" y="1.67" class="f">wants</text></symbol><symbol id="36"><text y="1.67" class="f">&lt;sentence&gt;</text><text x="11.022" y="1.67" class="f">the</text><text x="15.03" y="1.67" class="f">&lt;noun-phrase&gt;</text><text x="29.058" y="1.67" class="f">&lt;adverb&gt;</text><text x="38.076" y="1.67" class="f">&lt;verb&gt;</text><text x="45.09" y="1.67" class="f">&lt;location&gt;</text></symbol><symbol id="37"><text y="1.67" class="f">^D</text></symbol><symbol id="38"><text y="1.67" class="f">==============================</text></symbol><symbol id="39"><text y="1.67" class="f">Generating</text><text x="11.022" y="1.67" class="f">5</text><text x="13.026" y="1.67" class="f">random</text><text x="20.04" y="1.67" class="f">sentences:</text></symbol><symbol id="40"><text y="1.67" class="f">the</text><text x="4.008" y="1.67" class="f">fox</text><text x="8.016" y="1.67" class="f">slowly</text><text x="15.03" y="1.67" class="f">jumps</text><text x="21.042" y="1.67" class="f">on</text><text x="24.048" y="1.67" class="f">the</text><text x="28.056" y="1.67" class="f">stairs</text></symbol><symbol id="41"><text y="1.67" class="f">the</text><text x="4.008" y="1.67" class="f">brown</text><text x="10.02" y="1.67" class="f">lazy</text><text x="15.03" y="1.67" class="f">brown</text><text x="21.042" y="1.67" class="f">large</text><text x="27.054" y="1.67" class="f">brown</text><text x="33.066" y="1.67" class="f">lazy</text><text x="38.076" y="1.67" class="f">fox</text><text x="42.084" y="1.67" class="f">quickly</text><text x="50.1" y="1.67" class="f">sits</text><text x="55.11" y="1.67" class="f">wherever</text><text x="64.128" y="1.67" class="f">it</text><text x="67.134" y="1.67" class="f">wants</text></symbol><symbol id="42"><text y="1.67" class="f">the</text><text x="4.008" y="1.67" class="f">large</text><text x="10.02" y="1.67" class="f">absurd</text><text x="17.034" y="1.67" class="f">absurd</text><text x="24.048" y="1.67" class="f">fence</text><text x="30.06" y="1.67" class="f">slowly</text><text x="37.074" y="1.67" class="f">jumps</text><text x="43.086" y="1.67" class="f">wherever</text><text x="52.104" y="1.67" class="f">it</text><text x="55.11" y="1.67" class="f">wants</text></symbol><symbol id="43"><text y="1.67" class="f">the</text><text x="4.008" y="1.67" class="f">cat</text><text x="8.016" y="1.67" class="f">loudly</text><text x="15.03" y="1.67" class="f">jumps</text><text x="21.042" y="1.67" class="f">wherever</text><text x="30.06" y="1.67" class="f">it</text><text x="33.066" y="1.67" class="f">wants</text></symbol><symbol id="44"><text y="1.67" class="f">the</text><text x="4.008" y="1.67" class="f">absurd</text><text x="11.022" y="1.67" class="f">absurd</text><text x="18.036" y="1.67" class="f">brown</text><text x="24.048" y="1.67" class="f">fence</text><text x="30.06" y="1.67" class="f">loudly</text><text x="37.074" y="1.67" class="f">sits</text><text x="42.084" y="1.67" class="f">on</text><text x="45.09" y="1.67" class="f">the</text><text x="49.098" y="1.67" class="f">stairs</text></symbol><symbol id="a"><path fill="transparent" d="M0 0h96v46H0z"/></symbol><symbol id="b"><path fill="#38fe27" d="M0 0h1.102v2.171H0z"/></symbol></defs><path class="a" d="M0 0h96v97.695H0z"/><g style="animation-duration:28.728296s;animation-iteration-count:infinite;animation-name:i;animation-timing-function:steps(1,end)"><svg width="3648"><svg><use xlink:href="#a"/><use xlink:href="#b" x="-.004"/></svg><svg x="96"><use xlink:href="#a"/><use xlink:href="#b" x="19.996"/><use xlink:href="#1"/></svg><svg x="192"><use xlink:href="#a"/><use xlink:href="#b" x="20.996"/><text y="1.67" class="f">sentence_generator</text><text x="19.038" y="1.67" class="f">$m</text></svg><svg x="288"><use xlink:href="#a"/><use xlink:href="#b" x="21.996"/><text y="1.67" class="f">sentence_generator</text><text x="19.038" y="1.67" class="f">$ma</text></svg><svg x="384"><use xlink:href="#a"/><use xlink:href="#b" x="22.996"/><text y="1.67" class="f">sentence_generator</text><text x="19.038" y="1.67" class="f">$mak</text></svg><svg x="480"><use xlink:href="#a"/><use xlink:href="#b" x="23.996"/><use xlink:href="#2"/></svg><svg x="576"><use xlink:href="#a"/><use xlink:href="#b" x="-.004" y="2.146"/><use xlink:href="#2"/></svg><svg x="672"><use xlink:href="#a"/><use xlink:href="#b" x="-.004" y="4.317"/><use xlink:href="#2"/><use xlink:href="#3" y="2.171"/></svg><svg x="768"><use xlink:href="#a"/><use xlink:href="#b" x="-.004" y="6.488"/><use xlink:href="#2"/><use xlink:href="#3" y="2.171"/><use xlink:href="#4" y="4.342"/></svg><svg x="864"><use xlink:href="#a"/><use xlink:href="#b" x="-.004" y="8.659"/><use xlink:href="#2"/><use xlink:href="#3" y="2.171"/><use xlink:href="#4" y="4.342"/><use xlink:href="#5" y="6.513"/></svg><svg x="960"><use xlink:href="#a"/><use xlink:href="#b" x="-.004" y="10.83"/><use xlink:href="#2"/><use xlink:href="#3" y="2.171"/><use xlink:href="#4" y="4.342"/><use xlink:href="#5" y="6.513"/><use xlink:href="#6" y="8.684"/></svg><svg x="1056"><use xlink:href="#a"/><use xlink:href="#b" x="19.996" y="10.83"/><use xlink:href="#2"/><use xlink:href="#3" y="2.171"/><use xlink:href="#4" y="4.342"/><use xlink:href="#5" y="6.513"/><use xlink:href="#6" y="8.684"/><use xlink:href="#1" y="10.855"/></svg><svg x="1152"><use xlink:href="#a"/><use xlink:href="#b" x="20.996" y="10.83"/><use xlink:href="#2"/><use xlink:href="#3" y="2.171"/><use xlink:href="#4" y="4.342"/><use xlink:href="#5" y="6.513"/><use xlink:href="#6" y="8.684"/><text y="12.525" class="f">sentence_generator</text><text x="19.038" y="12.525" class="f">$c</text></svg><svg x="1248"><use xlink:href="#a"/><use xlink:href="#b" x="21.996" y="10.83"/><use xlink:href="#2"/><use xlink:href="#3" y="2.171"/><use xlink:href="#4" y="4.342"/><use xlink:href="#5" y="6.513"/><use xlink:href="#6" y="8.684"/><text y="12.525" class="f">sentence_generator</text><text x="19.038" y="12.525" class="f">$cl</text></svg><svg x="1344"><use xlink:href="#a"/><use xlink:href="#b" x="22.996" y="10.83"/><use xlink:href="#2"/><use xlink:href="#3" y="2.171"/><use xlink:href="#4" y="4.342"/><use xlink:href="#5" y="6.513"/><use xlink:href="#6" y="8.684"/><text y="12.525" class="f">sentence_generator</text><text x="19.038" y="12.525" class="f">$cle</text></svg><svg x="1440"><use xlink:href="#a"/><use xlink:href="#b" x="23.996" y="10.83"/><use xlink:href="#2"/><use xlink:href="#3" y="2.171"/><use xlink:href="#4" y="4.342"/><use xlink:href="#5" y="6.513"/><use xlink:href="#6" y="8.684"/><text y="12.525" class="f">sentence_generator</text><text x="19.038" y="12.525" class="f">$clea</text></svg><svg x="1536"><use xlink:href="#a"/><use xlink:href="#b" x="24.996" y="10.83"/><use xlink:href="#2"/><use xlink:href="#3" y="2.171"/><use xlink:href="#4" y="4.342"/><use xlink:href="#5" y="6.513"/><use xlink:href="#6" y="8.684"/><use xlink:href="#7" y="10.855"/></svg><svg x="1632"><use xlink:href="#a"/><use xlink:href="#b" x="-.004" y="13.001"/><use xlink:href="#2"/><use xlink:href="#3" y="2.171"/><use xlink:href="#4" y="4.342"/><use xlink:href="#5" y="6.513"/><use xlink:href="#6" y="8.684"/><use xlink:href="#7" y="10.855"/></svg><svg x="1728"><use xlink:href="#a"/><use xlink:href="#b" x="-.004"/></svg><svg x="1824"><use xlink:href="#a"/><use xlink:href="#b" x="19.996"/><use xlink:href="#1"/></svg><svg x="1920"><use xlink:href="#a"/><use xlink:href="#b" x="20.996"/><text y="1.67" class="f">sentence_generator</text><text x="19.038" y="1.67" class="f">$b</text></svg><svg x="2016"><use xlink:href="#a"/><use xlink:href="#b" x="21.996"/><text y="1.67" class="f">sentence_generator</text><text x="19.038" y="1.67" class="f">$bi</text></svg><svg x="2112"><use xlink:href="#a"/><use xlink:href="#b" x="22.996"/><text y="1.67" class="f">sentence_generator</text><text x="19.038" y="1.67" class="f">$bin</text></svg><svg x="2208"><use xlink:href="#a"/><use xlink:href="#b" x="23.996"/><text y="1.67" class="f">sentence_generator</text><text x="19.038" y="1.67" class="f">$bin/</text></svg><svg x="2304"><use xlink:href="#a"/><use xlink:href="#b" x="24.996"/><text y="1.67" class="f">sentence_generator</text><text x="19.038" y="1.67" class="f">$bin/m</text></svg><svg x="2400"><use xlink:href="#a"/><use xlink:href="#b" x="25.996"/><text y="1.67" class="f">sentence_generator</text><text x="19.038" y="1.67" class="f">$bin/ma</text></svg><svg x="2496"><use xlink:href="#a"/><use xlink:href="#b" x="26.996"/><text y="1.67" class="f">sentence_generator</text><text x="19.038" y="1.67" class="f">$bin/mai</text></svg><svg x="2592"><use xlink:href="#a"/><use xlink:href="#b" x="27.996"/><use xlink:href="#8"/></svg><svg x="2688"><use xlink:href="#a"/><use xlink:href="#b" x="-.004" y="2.146"/><use xlink:href="#8"/></svg><svg x="2784"><use xlink:href="#a"/><use xlink:href="#b" x="-.004" y="26.027"/><use xlink:href="#8"/><use xlink:href="#9" y="2.171"/><use xlink:href="#10" y="4.342"/><use xlink:href="#11" y="8.684"/><use xlink:href="#12" y="10.855"/><use xlink:href="#13" y="15.197"/><use xlink:href="#14" y="17.368"/><use xlink:href="#15" y="21.71"/></svg><svg x="2880"><use xlink:href="#a"/><use xlink:href="#b" x="54.996" y="69.447"/><use xlink:href="#8"/><use xlink:href="#9" y="2.171"/><use xlink:href="#10" y="4.342"/><use xlink:href="#11" y="8.684"/><use xlink:href="#12" y="10.855"/><use xlink:href="#13" y="15.197"/><use xlink:href="#14" y="17.368"/><use xlink:href="#15" y="21.71"/><use xlink:href="#16" y="26.052"/><use xlink:href="#17" y="28.223"/><use xlink:href="#18" y="30.394"/><use xlink:href="#19" y="32.565"/><use xlink:href="#20" y="34.736"/><use xlink:href="#21" y="36.907"/><use xlink:href="#22" y="39.078"/><use xlink:href="#23" y="41.249"/><use xlink:href="#24" y="43.42"/><use xlink:href="#25" y="45.591"/><use xlink:href="#26" y="47.762"/><use xlink:href="#27" y="49.933"/><use xlink:href="#28" y="52.104"/><use xlink:href="#29" y="54.275"/><use xlink:href="#30" y="56.446"/><use xlink:href="#31" y="58.617"/><use xlink:href="#32" y="60.788"/><use xlink:href="#33" y="62.959"/><use xlink:href="#34" y="65.13"/><use xlink:href="#35" y="67.301"/><use xlink:href="#36" y="69.472"/></svg><svg x="2976"><use xlink:href="#a"/><use xlink:href="#b" x="-.004" y="71.618"/><use xlink:href="#8"/><use xlink:href="#9" y="2.171"/><use xlink:href="#10" y="4.342"/><use xlink:href="#11" y="8.684"/><use xlink:href="#12" y="10.855"/><use xlink:href="#13" y="15.197"/><use xlink:href="#14" y="17.368"/><use xlink:href="#15" y="21.71"/><use xlink:href="#16" y="26.052"/><use xlink:href="#17" y="28.223"/><use xlink:href="#18" y="30.394"/><use xlink:href="#19" y="32.565"/><use xlink:href="#20" y="34.736"/><use xlink:href="#21" y="36.907"/><use xlink:href="#22" y="39.078"/><use xlink:href="#23" y="41.249"/><use xlink:href="#24" y="43.42"/><use xlink:href="#25" y="45.591"/><use xlink:href="#26" y="47.762"/><use xlink:href="#27" y="49.933"/><use xlink:href="#28" y="52.104"/><use xlink:href="#29" y="54.275"/><use xlink:href="#30" y="56.446"/><use xlink:href="#31" y="58.617"/><use xlink:href="#32" y="60.788"/><use xlink:href="#33" y="62.959"/><use xlink:href="#34" y="65.13"/><use xlink:href="#35" y="67.301"/><use xlink:href="#36" y="69.472"/></svg><svg x="3072"><use xlink:href="#a"/><use xlink:href="#b" x="-.004" y="73.789"/><use xlink:href="#8"/><use xlink:href="#9" y="2.171"/><use xlink:href="#10" y="4.342"/><use xlink:href="#11" y="8.684"/><use xlink:href="#12" y="10.855"/><use xlink:href="#13" y="15.197"/><use xlink:href="#14" y="17.368"/><use xlink:href="#15" y="21.71"/><use xlink:href="#16" y="26.052"/><use xlink:href="#17" y="28.223"/><use xlink:href="#18" y="30.394"/><use xlink:href="#19" y="32.565"/><use xlink:href="#20" y="34.736"/><use xlink:href="#21" y="36.907"/><use xlink:href="#22" y="39.078"/><use xlink:href="#23" y="41.249"/><use xlink:href="#24" y="43.42"/><use xlink:href="#25" y="45.591"/><use xlink:href="#26" y="47.762"/><use xlink:href="#27" y="49.933"/><use xlink:href="#28" y="52.104"/><use xlink:href="#29" y="54.275"/><use xlink:href="#30" y="56.446"/><use xlink:href="#31" y="58.617"/><use xlink:href="#32" y="60.788"/><use xlink:href="#33" y="62.959"/><use xlink:href="#34" y="65.13"/><use xlink:href="#35" y="67.301"/><use xlink:href="#36" y="69.472"/></svg><svg x="3168"><use xlink:href="#a"/><use xlink:href="#b" x="-.004" y="78.131"/><use xlink:href="#8"/><use xlink:href="#9" y="2.171"/><use xlink:href="#10" y="4.342"/><use xlink:href="#11" y="8.684"/><use xlink:href="#12" y="10.855"/><use xlink:href="#13" y="15.197"/><use xlink:href="#14" y="17.368"/><use xlink:href="#15" y="21.71"/><use xlink:href="#16" y="26.052"/><use xlink:href="#17" y="28.223"/><use xlink:href="#18" y="30.394"/><use xlink:href="#19" y="32.565"/><use xlink:href="#20" y="34.736"/><use xlink:href="#21" y="36.907"/><use xlink:href="#22" y="39.078"/><use xlink:href="#23" y="41.249"/><use xlink:href="#24" y="43.42"/><use xlink:href="#25" y="45.591"/><use xlink:href="#26" y="47.762"/><use xlink:href="#27" y="49.933"/><use xlink:href="#28" y="52.104"/><use xlink:href="#29" y="54.275"/><use xlink:href="#30" y="56.446"/><use xlink:href="#31" y="58.617"/><use xlink:href="#32" y="60.788"/><use xlink:href="#33" y="62.959"/><use xlink:href="#34" y="65.13"/><use xlink:href="#35" y="67.301"/><use xlink:href="#36" y="69.472"/><use xlink:href="#37" y="73.814"/><use xlink:href="#38" y="75.985"/></svg><svg x="3264"><use xlink:href="#a"/><use xlink:href="#b" x="-.004" y="82.473"/><use xlink:href="#8"/><use xlink:href="#9" y="2.171"/><use xlink:href="#10" y="4.342"/><use xlink:href="#11" y="8.684"/><use xlink:href="#12" y="10.855"/><use xlink:href="#13" y="15.197"/><use xlink:href="#14" y="17.368"/><use xlink:href="#15" y="21.71"/><use xlink:href="#16" y="26.052"/><use xlink:href="#17" y="28.223"/><use xlink:href="#18" y="30.394"/><use xlink:href="#19" y="32.565"/><use xlink:href="#20" y="34.736"/><use xlink:href="#21" y="36.907"/><use xlink:href="#22" y="39.078"/><use xlink:href="#23" y="41.249"/><use xlink:href="#24" y="43.42"/><use xlink:href="#25" y="45.591"/><use xlink:href="#26" y="47.762"/><use xlink:href="#27" y="49.933"/><use xlink:href="#28" y="52.104"/><use xlink:href="#29" y="54.275"/><use xlink:href="#30" y="56.446"/><use xlink:href="#31" y="58.617"/><use xlink:href="#32" y="60.788"/><use xlink:href="#33" y="62.959"/><use xlink:href="#34" y="65.13"/><use xlink:href="#35" y="67.301"/><use xlink:href="#36" y="69.472"/><use xlink:href="#37" y="73.814"/><use xlink:href="#38" y="75.985"/><use xlink:href="#39" y="78.156"/><use xlink:href="#38" y="80.327"/></svg><svg x="3360"><use xlink:href="#a"/><use xlink:href="#b" x="-.004" y="93.328"/><use xlink:href="#8"/><use xlink:href="#9" y="2.171"/><use xlink:href="#10" y="4.342"/><use xlink:href="#11" y="8.684"/><use xlink:href="#12" y="10.855"/><use xlink:href="#13" y="15.197"/><use xlink:href="#14" y="17.368"/><use xlink:href="#15" y="21.71"/><use xlink:href="#16" y="26.052"/><use xlink:href="#17" y="28.223"/><use xlink:href="#18" y="30.394"/><use xlink:href="#19" y="32.565"/><use xlink:href="#20" y="34.736"/><use xlink:href="#21" y="36.907"/><use xlink:href="#22" y="39.078"/><use xlink:href="#23" y="41.249"/><use xlink:href="#24" y="43.42"/><use xlink:href="#25" y="45.591"/><use xlink:href="#26" y="47.762"/><use xlink:href="#27" y="49.933"/><use xlink:href="#28" y="52.104"/><use xlink:href="#29" y="54.275"/><use xlink:href="#30" y="56.446"/><use xlink:href="#31" y="58.617"/><use xlink:href="#32" y="60.788"/><use xlink:href="#33" y="62.959"/><use xlink:href="#34" y="65.13"/><use xlink:href="#35" y="67.301"/><use xlink:href="#36" y="69.472"/><use xlink:href="#37" y="73.814"/><use xlink:href="#38" y="75.985"/><use xlink:href="#39" y="78.156"/><use xlink:href="#38" y="80.327"/><use xlink:href="#40" y="82.498"/><use xlink:href="#41" y="84.669"/><use xlink:href="#42" y="86.84"/><use xlink:href="#43" y="89.011"/><use xlink:href="#44" y="91.182"/></svg><svg x="3456"><use xlink:href="#a"/><use xlink:href="#b" x="19.996" y="93.328"/><use xlink:href="#8"/><use xlink:href="#9" y="2.171"/><use xlink:href="#10" y="4.342"/><use xlink:href="#11" y="8.684"/><use xlink:href="#12" y="10.855"/><use xlink:href="#13" y="15.197"/><use xlink:href="#14" y="17.368"/><use xlink:href="#15" y="21.71"/><use xlink:href="#16" y="26.052"/><use xlink:href="#17" y="28.223"/><use xlink:href="#18" y="30.394"/><use xlink:href="#19" y="32.565"/><use xlink:href="#20" y="34.736"/><use xlink:href="#21" y="36.907"/><use xlink:href="#22" y="39.078"/><use xlink:href="#23" y="41.249"/><use xlink:href="#24" y="43.42"/><use xlink:href="#25" y="45.591"/><use xlink:href="#26" y="47.762"/><use xlink:href="#27" y="49.933"/><use xlink:href="#28" y="52.104"/><use xlink:href="#29" y="54.275"/><use xlink:href="#30" y="56.446"/><use xlink:href="#31" y="58.617"/><use xlink:href="#32" y="60.788"/><use xlink:href="#33" y="62.959"/><use xlink:href="#34" y="65.13"/><use xlink:href="#35" y="67.301"/><use xlink:href="#36" y="69.472"/><use xlink:href="#37" y="73.814"/><use xlink:href="#38" y="75.985"/><use xlink:href="#39" y="78.156"/><use xlink:href="#38" y="80.327"/><use xlink:href="#40" y="82.498"/><use xlink:href="#41" y="84.669"/><use xlink:href="#42" y="86.84"/><use xlink:href="#43" y="89.011"/><use xlink:href="#44" y="91.182"/><use xlink:href="#1" y="93.353"/></svg><svg x="3552"><use xlink:href="#a"/><use xlink:href="#b" x="-.004" y="95.499"/><use xlink:href="#8"/><use xlink:href="#9" y="2.171"/><use xlink:href="#10" y="4.342"/><use xlink:href="#11" y="8.684"/><use xlink:href="#12" y="10.855"/><use xlink:href="#13" y="15.197"/><use xlink:href="#14" y="17.368"/><use xlink:href="#15" y="21.71"/><use xlink:href="#16" y="26.052"/><use xlink:href="#17" y="28.223"/><use xlink:href="#18" y="30.394"/><use xlink:href="#19" y="32.565"/><use xlink:href="#20" y="34.736"/><use xlink:href="#21" y="36.907"/><use xlink:href="#22" y="39.078"/><use xlink:href="#23" y="41.249"/><use xlink:href="#24" y="43.42"/><use xlink:href="#25" y="45.591"/><use xlink:href="#26" y="47.762"/><use xlink:href="#27" y="49.933"/><use xlink:href="#28" y="52.104"/><use xlink:href="#29" y="54.275"/><use xlink:href="#30" y="56.446"/><use xlink:href="#31" y="58.617"/><use xlink:href="#32" y="60.788"/><use xlink:href="#33" y="62.959"/><use xlink:href="#34" y="65.13"/><use xlink:href="#35" y="67.301"/><use xlink:href="#36" y="69.472"/><use xlink:href="#37" y="73.814"/><use xlink:href="#38" y="75.985"/><use xlink:href="#39" y="78.156"/><use xlink:href="#38" y="80.327"/><use xlink:href="#40" y="82.498"/><use xlink:href="#41" y="84.669"/><use xlink:href="#42" y="86.84"/><use xlink:href="#43" y="89.011"/><use xlink:href="#44" y="91.182"/><text y="95.023" class="f">sentence_generator</text><text x="19.038" y="95.023" class="f">$exit</text></svg></svg></g></g></svg></svg>