<svg xmlns="http://www.w3.org/2000/svg" xmlns:xlink="http://www.w3.org/1999/xlink" width="1000" height="581.04"><rect width="1000" height="581.04" rx="5" ry="5" class="a"/><svg y="0%" x="0%"><circle cx="20" cy="20" r="6" fill="#ff5f58"/><circle cx="40" cy="20" r="6" fill="#ffbd2e"/><circle cx="60" cy="20" r="6" fill="#18c132"/></svg><svg height="521.04" viewBox="0 0 96 52.104" width="960" x="15" xmlns="http://www.w3.org/2000/svg" xmlns:xlink="http://www.w3.org/1999/xlink" y="50"><style>@keyframes i{0%{transform:translateX(0)}.05%{transform:translateX(-96px)}1.36%{transform:translateX(-192px)}1.85%{transform:translateX(-288px)}2.43%{transform:translateX(-384px)}3.31%{transform:translateX(-480px)}5.69%{transform:translateX(-576px)}5.75%{transform:translateX(-672px)}7.91%{transform:translateX(-768px)}8.88%{transform:translateX(-864px)}9.86%{transform:translateX(-960px)}11.12%{transform:translateX(-1056px)}11.34%{transform:translateX(-1152px)}13.97%{transform:translateX(-1248px)}14.49%{transform:translateX(-1344px)}14.82%{transform:translateX(-1440px)}15.21%{transform:translateX(-1536px)}15.54%{transform:translateX(-1632px)}16.11%{transform:translateX(-1728px)}16.13%{transform:translateX(-1824px)}16.14%{transform:translateX(-1920px)}17.24%{transform:translateX(-2016px)}17.73%{transform:translateX(-2112px)}18.34%{transform:translateX(-2208px)}19.96%{transform:translateX(-2304px)}21.04%{transform:translateX(-2400px)}21.47%{transform:translateX(-2496px)}21.99%{transform:translateX(-2592px)}22.55%{transform:translateX(-2688px)}23.46%{transform:translateX(-2784px)}23.49%{transform:translateX(-2880px)}25.12%{transform:translateX(-2976px)}25.57%{transform:translateX(-3072px)}25.85%{transform:translateX(-3168px)}26.65%{transform:translateX(-3264px)}27.4%{transform:translateX(-3360px)}29.23%{transform:translateX(-3456px)}29.84%{transform:translateX(-3552px)}30.12%{transform:translateX(-3648px)}30.69%{transform:translateX(-3744px)}31.13%{transform:translateX(-3840px)}32.93%{transform:translateX(-3936px)}33.5%{transform:translateX(-4032px)}34.42%{transform:translateX(-4128px)}34.79%{transform:translateX(-4224px)}35.4%{transform:translateX(-4320px)}35.8%{transform:translateX(-4416px)}36.97%{transform:translateX(-4512px)}37.39%{transform:translateX(-4608px)}38.23%{transform:translateX(-4704px)}38.79%{transform:translateX(-4800px)}39.73%{transform:translateX(-4896px)}40.39%{transform:translateX(-4992px)}42.04%{transform:translateX(-5088px)}42.79%{transform:translateX(-5184px)}43.55%{transform:translateX(-5280px)}44.43%{transform:translateX(-5376px)}44.59%{transform:translateX(-5472px)}44.99%{transform:translateX(-5568px)}45.52%{transform:translateX(-5664px)}45.81%{transform:translateX(-5760px)}46.39%{transform:translateX(-5856px)}46.79%{transform:translateX(-5952px)}47.36%{transform:translateX(-6048px)}48.03%{transform:translateX(-6144px)}48.34%{transform:translateX(-6240px)}48.74%{transform:translateX(-6336px)}49.32%{transform:translateX(-6432px)}50.09%{transform:translateX(-6528px)}50.41%{transform:translateX(-6624px)}51.33%{transform:translateX(-6720px)}52.38%{transform:translateX(-6816px)}52.66%{transform:translateX(-6912px)}53.58%{transform:translateX(-7008px)}54.13%{transform:translateX(-7104px)}54.66%{transform:translateX(-7200px)}55.23%{transform:translateX(-7296px)}55.94%{transform:translateX(-7392px)}56.62%{transform:translateX(-7488px)}57.18%{transform:translateX(-7584px)}57.42%{transform:translateX(-7680px)}57.98%{transform:translateX(-7776px)}58.43%{transform:translateX(-7872px)}59.02%{transform:translateX(-7968px)}59.78%{transform:translateX(-8064px)}60.18%{transform:translateX(-8160px)}60.45%{transform:translateX(-8256px)}60.77%{transform:translateX(-8352px)}62.34%{transform:translateX(-8448px)}62.77%{transform:translateX(-8544px)}64.21%{transform:translateX(-8640px)}65.19%{transform:translateX(-8736px)}65.66%{transform:translateX(-8832px)}66.17%{transform:translateX(-8928px)}68.02%{transform:translateX(-9024px)}68.47%{transform:translateX(-9120px)}69.1%{transform:translateX(-9216px)}71.48%{transform:translateX(-9312px)}78.99%{transform:translateX(-9408px)}80.97%{transform:translateX(-9600px)}80.98%{transform:translateX(-9696px)}to{transform:translateX(-9792px)}}.a{fill:#000}.f{fill:#28fe14;white-space:pre}</style><g font-family="Monaco,Consolas,Menlo,'Bitstream Vera Sans Mono','Powerline Symbols',monospace" font-size="1.67"><defs><symbol id="1"><text y="1.67" class="f">xref</text><text x="5.01" y="1.67" class="f">$</text></symbol><symbol id="2"><text y="1.67" class="f">xref</text><text x="5.01" y="1.67" class="f">$make</text></symbol><symbol id="3"><text y="1.67" class="f">g++</text><text x="4.008" y="1.67" class="f">-o</text><text x="7.014" y="1.67" class="f">obj/main.o</text><text x="18.036" y="1.67" class="f">-c</text><text x="21.042" y="1.67" class="f">src/main.cpp</text></symbol><symbol id="4"><text y="1.67" class="f">g++</text><text x="4.008" y="1.67" class="f">-o</text><text x="7.014" y="1.67" class="f">obj/pad_str.o</text><text x="21.042" y="1.67" class="f">-c</text><text x="24.048" y="1.67" class="f">src/pad_str.cpp</text></symbol><symbol id="5"><text y="1.67" class="f">g++</text><text x="4.008" y="1.67" class="f">-o</text><text x="7.014" y="1.67" class="f">obj/remove_punct.o</text><text x="26.052" y="1.67" class="f">-c</text><text x="29.058" y="1.67" class="f">src/remove_punct.cpp</text></symbol><symbol id="6"><text y="1.67" class="f">g++</text><text x="4.008" y="1.67" class="f">-o</text><text x="7.014" y="1.67" class="f">obj/split.o</text><text x="19.038" y="1.67" class="f">-c</text><text x="22.044" y="1.67" class="f">src/split.cpp</text></symbol><symbol id="7"><text y="1.67" class="f">g++</text><text x="4.008" y="1.67" class="f">-g</text><text x="7.014" y="1.67" class="f">-Wall</text><text x="13.026" y="1.67" class="f">-o</text><text x="16.032" y="1.67" class="f">bin/main</text><text x="25.05" y="1.67" class="f">obj/main.o</text><text x="36.072" y="1.67" class="f">obj/pad_str.o</text><text x="50.1" y="1.67" class="f">obj/remove_punct.o</text><text x="69.138" y="1.67" class="f">obj/split.o</text></symbol><symbol id="8"><text y="1.67" class="f">xref</text><text x="5.01" y="1.67" class="f">$clear</text></symbol><symbol id="9"><text y="1.67" class="f">xref</text><text x="5.01" y="1.67" class="f">$bin/main</text></symbol><symbol id="10"><text y="1.67" class="f">Input</text><text x="6.012" y="1.67" class="f">lines</text><text x="12.024" y="1.67" class="f">of</text><text x="15.03" y="1.67" class="f">text,</text><text x="21.042" y="1.67" class="f">followed</text><text x="30.06" y="1.67" class="f">by</text><text x="33.066" y="1.67" class="f">end-of-file,</text><text x="46.092" y="1.67" class="f">to</text><text x="49.098" y="1.67" class="f">generate</text><text x="58.116" y="1.67" class="f">a</text><text x="60.12" y="1.67" class="f">cross-reference</text><text x="76.152" y="1.67" class="f">list:</text></symbol><symbol id="11"><text y="1.67" class="f">t</text></symbol><symbol id="12"><text y="1.67" class="f">th</text></symbol><symbol id="13"><text y="1.67" class="f">the</text></symbol><symbol id="14"><text y="1.67" class="f">the</text><text x="4.008" y="1.67" class="f">quick</text></symbol><symbol id="15"><text y="1.67" class="f">brown</text></symbol><symbol id="16"><text y="1.67" class="f">brown</text><text x="6.012" y="1.67" class="f">fox</text></symbol><symbol id="17"><text y="1.67" class="f">brown</text><text x="6.012" y="1.67" class="f">fox</text><text x="10.02" y="1.67" class="f">jumps</text></symbol><symbol id="18"><text y="1.67" class="f">brown</text><text x="6.012" y="1.67" class="f">fox</text><text x="10.02" y="1.67" class="f">jumps</text><text x="16.032" y="1.67" class="f">over</text></symbol><symbol id="19"><text y="1.67" class="f">the</text><text x="4.008" y="1.67" class="f">la</text></symbol><symbol id="20"><text y="1.67" class="f">the</text><text x="4.008" y="1.67" class="f">lazy</text></symbol><symbol id="21"><text y="1.67" class="f">the</text><text x="4.008" y="1.67" class="f">lazy</text><text x="9.018" y="1.67" class="f">dog,</text></symbol><symbol id="22"><text y="1.67" class="f">the</text><text x="4.008" y="1.67" class="f">lazy</text><text x="9.018" y="1.67" class="f">dog,</text><text x="14.028" y="1.67" class="f">and</text></symbol><symbol id="23"><text y="1.67" class="f">the</text><text x="4.008" y="1.67" class="f">lazy</text><text x="9.018" y="1.67" class="f">dog,</text><text x="14.028" y="1.67" class="f">and</text><text x="18.036" y="1.67" class="f">the</text></symbol><symbol id="24"><text y="1.67" class="f">the</text><text x="4.008" y="1.67" class="f">lazy</text><text x="9.018" y="1.67" class="f">dog,</text><text x="14.028" y="1.67" class="f">and</text><text x="18.036" y="1.67" class="f">the</text><text x="22.044" y="1.67" class="f">giant</text></symbol><symbol id="25"><text y="1.67" class="f">cat</text></symbol><symbol id="26"><text y="1.67" class="f">^D</text></symbol><symbol id="27"><text y="1.67" class="f">=====================</text></symbol><symbol id="28"><text y="1.67" class="f">Cross-reference</text><text x="16.032" y="1.67" class="f">list:</text></symbol><symbol id="29"><text y="1.67" class="f">&apos;and&apos;</text><text x="10.02" y="1.67" class="f">occurs</text><text x="17.034" y="1.67" class="f">on</text><text x="20.04" y="1.67" class="f">line(s):</text><text x="29.058" y="1.67" class="f">3</text></symbol><symbol id="30"><text y="1.67" class="f">&apos;brown&apos;</text><text x="10.02" y="1.67" class="f">occurs</text><text x="17.034" y="1.67" class="f">on</text><text x="20.04" y="1.67" class="f">line(s):</text><text x="29.058" y="1.67" class="f">2</text></symbol><symbol id="31"><text y="1.67" class="f">&apos;cat&apos;</text><text x="10.02" y="1.67" class="f">occurs</text><text x="17.034" y="1.67" class="f">on</text><text x="20.04" y="1.67" class="f">line(s):</text><text x="29.058" y="1.67" class="f">4</text></symbol><symbol id="32"><text y="1.67" class="f">&apos;dog&apos;</text><text x="10.02" y="1.67" class="f">occurs</text><text x="17.034" y="1.67" class="f">on</text><text x="20.04" y="1.67" class="f">line(s):</text><text x="29.058" y="1.67" class="f">3</text></symbol><symbol id="33"><text y="1.67" class="f">&apos;fox&apos;</text><text x="10.02" y="1.67" class="f">occurs</text><text x="17.034" y="1.67" class="f">on</text><text x="20.04" y="1.67" class="f">line(s):</text><text x="29.058" y="1.67" class="f">2</text></symbol><symbol id="34"><text y="1.67" class="f">&apos;giant&apos;</text><text x="10.02" y="1.67" class="f">occurs</text><text x="17.034" y="1.67" class="f">on</text><text x="20.04" y="1.67" class="f">line(s):</text><text x="29.058" y="1.67" class="f">3</text></symbol><symbol id="35"><text y="1.67" class="f">&apos;jumps&apos;</text><text x="10.02" y="1.67" class="f">occurs</text><text x="17.034" y="1.67" class="f">on</text><text x="20.04" y="1.67" class="f">line(s):</text><text x="29.058" y="1.67" class="f">2</text></symbol><symbol id="36"><text y="1.67" class="f">&apos;lazy&apos;</text><text x="10.02" y="1.67" class="f">occurs</text><text x="17.034" y="1.67" class="f">on</text><text x="20.04" y="1.67" class="f">line(s):</text><text x="29.058" y="1.67" class="f">3</text></symbol><symbol id="37"><text y="1.67" class="f">&apos;over&apos;</text><text x="10.02" y="1.67" class="f">occurs</text><text x="17.034" y="1.67" class="f">on</text><text x="20.04" y="1.67" class="f">line(s):</text><text x="29.058" y="1.67" class="f">2</text></symbol><symbol id="38"><text y="1.67" class="f">&apos;quick&apos;</text><text x="10.02" y="1.67" class="f">occurs</text><text x="17.034" y="1.67" class="f">on</text><text x="20.04" y="1.67" class="f">line(s):</text><text x="29.058" y="1.67" class="f">1</text></symbol><symbol id="39"><text y="1.67" class="f">&apos;the&apos;</text><text x="10.02" y="1.67" class="f">occurs</text><text x="17.034" y="1.67" class="f">on</text><text x="20.04" y="1.67" class="f">line(s):</text><text x="29.058" y="1.67" class="f">1,</text><text x="32.064" y="1.67" class="f">3,</text><text x="35.07" y="1.67" class="f">3</text></symbol><symbol id="a"><path fill="transparent" d="M0 0h96v25H0z"/></symbol><symbol id="b"><path fill="#38fe27" d="M0 0h1.102v2.171H0z"/></symbol></defs><path class="a" d="M0 0h96v52.104H0z"/><g style="animation-duration:26.283372s;animation-iteration-count:infinite;animation-name:i;animation-timing-function:steps(1,end)"><svg width="9888"><svg><use xlink:href="#a"/><use xlink:href="#b" x="-.004"/></svg><svg x="96"><use xlink:href="#a"/><use xlink:href="#b" x="5.996"/><use xlink:href="#1"/></svg><svg x="192"><use xlink:href="#a"/><use xlink:href="#b" x="6.996"/><text y="1.67" class="f">xref</text><text x="5.01" y="1.67" class="f">$m</text></svg><svg x="288"><use xlink:href="#a"/><use xlink:href="#b" x="7.996"/><text y="1.67" class="f">xref</text><text x="5.01" y="1.67" class="f">$ma</text></svg><svg x="384"><use xlink:href="#a"/><use xlink:href="#b" x="8.996"/><text y="1.67" class="f">xref</text><text x="5.01" y="1.67" class="f">$mak</text></svg><svg x="480"><use xlink:href="#a"/><use xlink:href="#b" x="9.996"/><use xlink:href="#2"/></svg><svg x="576"><use xlink:href="#a"/><use xlink:href="#b" x="-.004" y="2.146"/><use xlink:href="#2"/></svg><svg x="672"><use xlink:href="#a"/><use xlink:href="#b" x="-.004" y="4.317"/><use xlink:href="#2"/><use xlink:href="#3" y="2.171"/></svg><svg x="768"><use xlink:href="#a"/><use xlink:href="#b" x="-.004" y="6.488"/><use xlink:href="#2"/><use xlink:href="#3" y="2.171"/><use xlink:href="#4" y="4.342"/></svg><svg x="864"><use xlink:href="#a"/><use xlink:href="#b" x="-.004" y="8.659"/><use xlink:href="#2"/><use xlink:href="#3" y="2.171"/><use xlink:href="#4" y="4.342"/><use xlink:href="#5" y="6.513"/></svg><svg x="960"><use xlink:href="#a"/><use xlink:href="#b" x="-.004" y="10.83"/><use xlink:href="#2"/><use xlink:href="#3" y="2.171"/><use xlink:href="#4" y="4.342"/><use xlink:href="#5" y="6.513"/><use xlink:href="#6" y="8.684"/></svg><svg x="1056"><use xlink:href="#a"/><use xlink:href="#b" x="-.004" y="13.001"/><use xlink:href="#2"/><use xlink:href="#3" y="2.171"/><use xlink:href="#4" y="4.342"/><use xlink:href="#5" y="6.513"/><use xlink:href="#6" y="8.684"/><use xlink:href="#7" y="10.855"/></svg><svg x="1152"><use xlink:href="#a"/><use xlink:href="#b" x="5.996" y="13.001"/><use xlink:href="#2"/><use xlink:href="#3" y="2.171"/><use xlink:href="#4" y="4.342"/><use xlink:href="#5" y="6.513"/><use xlink:href="#6" y="8.684"/><use xlink:href="#7" y="10.855"/><use xlink:href="#1" y="13.026"/></svg><svg x="1248"><use xlink:href="#a"/><use xlink:href="#b" x="6.996" y="13.001"/><use xlink:href="#2"/><use xlink:href="#3" y="2.171"/><use xlink:href="#4" y="4.342"/><use xlink:href="#5" y="6.513"/><use xlink:href="#6" y="8.684"/><use xlink:href="#7" y="10.855"/><text y="14.696" class="f">xref</text><text x="5.01" y="14.696" class="f">$c</text></svg><svg x="1344"><use xlink:href="#a"/><use xlink:href="#b" x="7.996" y="13.001"/><use xlink:href="#2"/><use xlink:href="#3" y="2.171"/><use xlink:href="#4" y="4.342"/><use xlink:href="#5" y="6.513"/><use xlink:href="#6" y="8.684"/><use xlink:href="#7" y="10.855"/><text y="14.696" class="f">xref</text><text x="5.01" y="14.696" class="f">$cl</text></svg><svg x="1440"><use xlink:href="#a"/><use xlink:href="#b" x="8.996" y="13.001"/><use xlink:href="#2"/><use xlink:href="#3" y="2.171"/><use xlink:href="#4" y="4.342"/><use xlink:href="#5" y="6.513"/><use xlink:href="#6" y="8.684"/><use xlink:href="#7" y="10.855"/><text y="14.696" class="f">xref</text><text x="5.01" y="14.696" class="f">$cle</text></svg><svg x="1536"><use xlink:href="#a"/><use xlink:href="#b" x="9.996" y="13.001"/><use xlink:href="#2"/><use xlink:href="#3" y="2.171"/><use xlink:href="#4" y="4.342"/><use xlink:href="#5" y="6.513"/><use xlink:href="#6" y="8.684"/><use xlink:href="#7" y="10.855"/><text y="14.696" class="f">xref</text><text x="5.01" y="14.696" class="f">$clea</text></svg><svg x="1632"><use xlink:href="#a"/><use xlink:href="#b" x="10.996" y="13.001"/><use xlink:href="#2"/><use xlink:href="#3" y="2.171"/><use xlink:href="#4" y="4.342"/><use xlink:href="#5" y="6.513"/><use xlink:href="#6" y="8.684"/><use xlink:href="#7" y="10.855"/><use xlink:href="#8" y="13.026"/></svg><svg x="1728"><use xlink:href="#a"/><use xlink:href="#b" x="-.004" y="15.172"/><use xlink:href="#2"/><use xlink:href="#3" y="2.171"/><use xlink:href="#4" y="4.342"/><use xlink:href="#5" y="6.513"/><use xlink:href="#6" y="8.684"/><use xlink:href="#7" y="10.855"/><use xlink:href="#8" y="13.026"/></svg><svg x="1824"><use xlink:href="#a"/><use xlink:href="#b" x="-.004"/></svg><svg x="1920"><use xlink:href="#a"/><use xlink:href="#b" x="5.996"/><use xlink:href="#1"/></svg><svg x="2016"><use xlink:href="#a"/><use xlink:href="#b" x="6.996"/><text y="1.67" class="f">xref</text><text x="5.01" y="1.67" class="f">$b</text></svg><svg x="2112"><use xlink:href="#a"/><use xlink:href="#b" x="7.996"/><text y="1.67" class="f">xref</text><text x="5.01" y="1.67" class="f">$bi</text></svg><svg x="2208"><use xlink:href="#a"/><use xlink:href="#b" x="8.996"/><text y="1.67" class="f">xref</text><text x="5.01" y="1.67" class="f">$bin</text></svg><svg x="2304"><use xlink:href="#a"/><use xlink:href="#b" x="9.996"/><text y="1.67" class="f">xref</text><text x="5.01" y="1.67" class="f">$bin/</text></svg><svg x="2400"><use xlink:href="#a"/><use xlink:href="#b" x="10.996"/><text y="1.67" class="f">xref</text><text x="5.01" y="1.67" class="f">$bin/m</text></svg><svg x="2496"><use xlink:href="#a"/><use xlink:href="#b" x="11.996"/><text y="1.67" class="f">xref</text><text x="5.01" y="1.67" class="f">$bin/ma</text></svg><svg x="2592"><use xlink:href="#a"/><use xlink:href="#b" x="12.996"/><text y="1.67" class="f">xref</text><text x="5.01" y="1.67" class="f">$bin/mai</text></svg><svg x="2688"><use xlink:href="#a"/><use xlink:href="#b" x="13.996"/><use xlink:href="#9"/></svg><svg x="2784"><use xlink:href="#a"/><use xlink:href="#b" x="-.004" y="2.146"/><use xlink:href="#9"/></svg><svg x="2880"><use xlink:href="#a"/><use xlink:href="#b" x="-.004" y="4.317"/><use xlink:href="#9"/><use xlink:href="#10" y="2.171"/></svg><svg x="2976"><use xlink:href="#a"/><use xlink:href="#b" x=".996" y="4.317"/><use xlink:href="#9"/><use xlink:href="#10" y="2.171"/><use xlink:href="#11" y="4.342"/></svg><svg x="3072"><use xlink:href="#a"/><use xlink:href="#b" x="1.996" y="4.317"/><use xlink:href="#9"/><use xlink:href="#10" y="2.171"/><use xlink:href="#12" y="4.342"/></svg><svg x="3168"><use xlink:href="#a"/><use xlink:href="#b" x="2.996" y="4.317"/><use xlink:href="#9"/><use xlink:href="#10" y="2.171"/><use xlink:href="#13" y="4.342"/></svg><svg x="3264"><use xlink:href="#a"/><use xlink:href="#b" x="3.996" y="4.317"/><use xlink:href="#9"/><use xlink:href="#10" y="2.171"/><use xlink:href="#13" y="4.342"/></svg><svg x="3360"><use xlink:href="#a"/><use xlink:href="#b" x="4.996" y="4.317"/><use xlink:href="#9"/><use xlink:href="#10" y="2.171"/><text y="6.012" class="f">the</text><text x="4.008" y="6.012" class="f">q</text></svg><svg x="3456"><use xlink:href="#a"/><use xlink:href="#b" x="5.996" y="4.317"/><use xlink:href="#9"/><use xlink:href="#10" y="2.171"/><text y="6.012" class="f">the</text><text x="4.008" y="6.012" class="f">qu</text></svg><svg x="3552"><use xlink:href="#a"/><use xlink:href="#b" x="6.996" y="4.317"/><use xlink:href="#9"/><use xlink:href="#10" y="2.171"/><text y="6.012" class="f">the</text><text x="4.008" y="6.012" class="f">qui</text></svg><svg x="3648"><use xlink:href="#a"/><use xlink:href="#b" x="7.996" y="4.317"/><use xlink:href="#9"/><use xlink:href="#10" y="2.171"/><text y="6.012" class="f">the</text><text x="4.008" y="6.012" class="f">quic</text></svg><svg x="3744"><use xlink:href="#a"/><use xlink:href="#b" x="8.996" y="4.317"/><use xlink:href="#9"/><use xlink:href="#10" y="2.171"/><use xlink:href="#14" y="4.342"/></svg><svg x="3840"><use xlink:href="#a"/><use xlink:href="#b" x="9.996" y="4.317"/><use xlink:href="#9"/><use xlink:href="#10" y="2.171"/><use xlink:href="#14" y="4.342"/></svg><svg x="3936"><use xlink:href="#a"/><use xlink:href="#b" x="8.996" y="4.317"/><use xlink:href="#9"/><use xlink:href="#10" y="2.171"/><use xlink:href="#14" y="4.342"/></svg><svg x="4032"><use xlink:href="#a"/><use xlink:href="#b" x="-.004" y="6.488"/><use xlink:href="#9"/><use xlink:href="#10" y="2.171"/><use xlink:href="#14" y="4.342"/></svg><svg x="4128"><use xlink:href="#a"/><use xlink:href="#b" x=".996" y="6.488"/><use xlink:href="#9"/><use xlink:href="#10" y="2.171"/><use xlink:href="#14" y="4.342"/><text y="8.183" class="f">b</text></svg><svg x="4224"><use xlink:href="#a"/><use xlink:href="#b" x="1.996" y="6.488"/><use xlink:href="#9"/><use xlink:href="#10" y="2.171"/><use xlink:href="#14" y="4.342"/><text y="8.183" class="f">br</text></svg><svg x="4320"><use xlink:href="#a"/><use xlink:href="#b" x="2.996" y="6.488"/><use xlink:href="#9"/><use xlink:href="#10" y="2.171"/><use xlink:href="#14" y="4.342"/><text y="8.183" class="f">bro</text></svg><svg x="4416"><use xlink:href="#a"/><use xlink:href="#b" x="3.996" y="6.488"/><use xlink:href="#9"/><use xlink:href="#10" y="2.171"/><use xlink:href="#14" y="4.342"/><text y="8.183" class="f">brow</text></svg><svg x="4512"><use xlink:href="#a"/><use xlink:href="#b" x="4.996" y="6.488"/><use xlink:href="#9"/><use xlink:href="#10" y="2.171"/><use xlink:href="#14" y="4.342"/><use xlink:href="#15" y="6.513"/></svg><svg x="4608"><use xlink:href="#a"/><use xlink:href="#b" x="5.996" y="6.488"/><use xlink:href="#9"/><use xlink:href="#10" y="2.171"/><use xlink:href="#14" y="4.342"/><use xlink:href="#15" y="6.513"/></svg><svg x="4704"><use xlink:href="#a"/><use xlink:href="#b" x="6.996" y="6.488"/><use xlink:href="#9"/><use xlink:href="#10" y="2.171"/><use xlink:href="#14" y="4.342"/><text y="8.183" class="f">brown</text><text x="6.012" y="8.183" class="f">f</text></svg><svg x="4800"><use xlink:href="#a"/><use xlink:href="#b" x="7.996" y="6.488"/><use xlink:href="#9"/><use xlink:href="#10" y="2.171"/><use xlink:href="#14" y="4.342"/><text y="8.183" class="f">brown</text><text x="6.012" y="8.183" class="f">fo</text></svg><svg x="4896"><use xlink:href="#a"/><use xlink:href="#b" x="8.996" y="6.488"/><use xlink:href="#9"/><use xlink:href="#10" y="2.171"/><use xlink:href="#14" y="4.342"/><use xlink:href="#16" y="6.513"/></svg><svg x="4992"><use xlink:href="#a"/><use xlink:href="#b" x="9.996" y="6.488"/><use xlink:href="#9"/><use xlink:href="#10" y="2.171"/><use xlink:href="#14" y="4.342"/><use xlink:href="#16" y="6.513"/></svg><svg x="5088"><use xlink:href="#a"/><use xlink:href="#b" x="10.996" y="6.488"/><use xlink:href="#9"/><use xlink:href="#10" y="2.171"/><use xlink:href="#14" y="4.342"/><text y="8.183" class="f">brown</text><text x="6.012" y="8.183" class="f">fox</text><text x="10.02" y="8.183" class="f">j</text></svg><svg x="5184"><use xlink:href="#a"/><use xlink:href="#b" x="11.996" y="6.488"/><use xlink:href="#9"/><use xlink:href="#10" y="2.171"/><use xlink:href="#14" y="4.342"/><text y="8.183" class="f">brown</text><text x="6.012" y="8.183" class="f">fox</text><text x="10.02" y="8.183" class="f">ju</text></svg><svg x="5280"><use xlink:href="#a"/><use xlink:href="#b" x="12.996" y="6.488"/><use xlink:href="#9"/><use xlink:href="#10" y="2.171"/><use xlink:href="#14" y="4.342"/><text y="8.183" class="f">brown</text><text x="6.012" y="8.183" class="f">fox</text><text x="10.02" y="8.183" class="f">jum</text></svg><svg x="5376"><use xlink:href="#a"/><use xlink:href="#b" x="13.996" y="6.488"/><use xlink:href="#9"/><use xlink:href="#10" y="2.171"/><use xlink:href="#14" y="4.342"/><text y="8.183" class="f">brown</text><text x="6.012" y="8.183" class="f">fox</text><text x="10.02" y="8.183" class="f">jump</text></svg><svg x="5472"><use xlink:href="#a"/><use xlink:href="#b" x="14.996" y="6.488"/><use xlink:href="#9"/><use xlink:href="#10" y="2.171"/><use xlink:href="#14" y="4.342"/><use xlink:href="#17" y="6.513"/></svg><svg x="5568"><use xlink:href="#a"/><use xlink:href="#b" x="15.996" y="6.488"/><use xlink:href="#9"/><use xlink:href="#10" y="2.171"/><use xlink:href="#14" y="4.342"/><use xlink:href="#17" y="6.513"/></svg><svg x="5664"><use xlink:href="#a"/><use xlink:href="#b" x="16.996" y="6.488"/><use xlink:href="#9"/><use xlink:href="#10" y="2.171"/><use xlink:href="#14" y="4.342"/><text y="8.183" class="f">brown</text><text x="6.012" y="8.183" class="f">fox</text><text x="10.02" y="8.183" class="f">jumps</text><text x="16.032" y="8.183" class="f">o</text></svg><svg x="5760"><use xlink:href="#a"/><use xlink:href="#b" x="17.996" y="6.488"/><use xlink:href="#9"/><use xlink:href="#10" y="2.171"/><use xlink:href="#14" y="4.342"/><text y="8.183" class="f">brown</text><text x="6.012" y="8.183" class="f">fox</text><text x="10.02" y="8.183" class="f">jumps</text><text x="16.032" y="8.183" class="f">ov</text></svg><svg x="5856"><use xlink:href="#a"/><use xlink:href="#b" x="18.996" y="6.488"/><use xlink:href="#9"/><use xlink:href="#10" y="2.171"/><use xlink:href="#14" y="4.342"/><text y="8.183" class="f">brown</text><text x="6.012" y="8.183" class="f">fox</text><text x="10.02" y="8.183" class="f">jumps</text><text x="16.032" y="8.183" class="f">ove</text></svg><svg x="5952"><use xlink:href="#a"/><use xlink:href="#b" x="19.996" y="6.488"/><use xlink:href="#9"/><use xlink:href="#10" y="2.171"/><use xlink:href="#14" y="4.342"/><use xlink:href="#18" y="6.513"/></svg><svg x="6048"><use xlink:href="#a"/><use xlink:href="#b" x="-.004" y="8.659"/><use xlink:href="#9"/><use xlink:href="#10" y="2.171"/><use xlink:href="#14" y="4.342"/><use xlink:href="#18" y="6.513"/></svg><svg x="6144"><use xlink:href="#a"/><use xlink:href="#b" x=".996" y="8.659"/><use xlink:href="#9"/><use xlink:href="#10" y="2.171"/><use xlink:href="#14" y="4.342"/><use xlink:href="#18" y="6.513"/><use xlink:href="#11" y="8.684"/></svg><svg x="6240"><use xlink:href="#a"/><use xlink:href="#b" x="1.996" y="8.659"/><use xlink:href="#9"/><use xlink:href="#10" y="2.171"/><use xlink:href="#14" y="4.342"/><use xlink:href="#18" y="6.513"/><use xlink:href="#12" y="8.684"/></svg><svg x="6336"><use xlink:href="#a"/><use xlink:href="#b" x="2.996" y="8.659"/><use xlink:href="#9"/><use xlink:href="#10" y="2.171"/><use xlink:href="#14" y="4.342"/><use xlink:href="#18" y="6.513"/><use xlink:href="#13" y="8.684"/></svg><svg x="6432"><use xlink:href="#a"/><use xlink:href="#b" x="3.996" y="8.659"/><use xlink:href="#9"/><use xlink:href="#10" y="2.171"/><use xlink:href="#14" y="4.342"/><use xlink:href="#18" y="6.513"/><use xlink:href="#13" y="8.684"/></svg><svg x="6528"><use xlink:href="#a"/><use xlink:href="#b" x="4.996" y="8.659"/><use xlink:href="#9"/><use xlink:href="#10" y="2.171"/><use xlink:href="#14" y="4.342"/><use xlink:href="#18" y="6.513"/><text y="10.354" class="f">the</text><text x="4.008" y="10.354" class="f">l</text></svg><svg x="6624"><use xlink:href="#a"/><use xlink:href="#b" x="5.996" y="8.659"/><use xlink:href="#9"/><use xlink:href="#10" y="2.171"/><use xlink:href="#14" y="4.342"/><use xlink:href="#18" y="6.513"/><use xlink:href="#19" y="8.684"/></svg><svg x="6720"><use xlink:href="#a"/><use xlink:href="#b" x="6.996" y="8.659"/><use xlink:href="#9"/><use xlink:href="#10" y="2.171"/><use xlink:href="#14" y="4.342"/><use xlink:href="#18" y="6.513"/><text y="10.354" class="f">the</text><text x="4.008" y="10.354" class="f">lay</text></svg><svg x="6816"><use xlink:href="#a"/><use xlink:href="#b" x="5.996" y="8.659"/><use xlink:href="#9"/><use xlink:href="#10" y="2.171"/><use xlink:href="#14" y="4.342"/><use xlink:href="#18" y="6.513"/><use xlink:href="#19" y="8.684"/></svg><svg x="6912"><use xlink:href="#a"/><use xlink:href="#b" x="6.996" y="8.659"/><use xlink:href="#9"/><use xlink:href="#10" y="2.171"/><use xlink:href="#14" y="4.342"/><use xlink:href="#18" y="6.513"/><text y="10.354" class="f">the</text><text x="4.008" y="10.354" class="f">laz</text></svg><svg x="7008"><use xlink:href="#a"/><use xlink:href="#b" x="7.996" y="8.659"/><use xlink:href="#9"/><use xlink:href="#10" y="2.171"/><use xlink:href="#14" y="4.342"/><use xlink:href="#18" y="6.513"/><use xlink:href="#20" y="8.684"/></svg><svg x="7104"><use xlink:href="#a"/><use xlink:href="#b" x="8.996" y="8.659"/><use xlink:href="#9"/><use xlink:href="#10" y="2.171"/><use xlink:href="#14" y="4.342"/><use xlink:href="#18" y="6.513"/><use xlink:href="#20" y="8.684"/></svg><svg x="7200"><use xlink:href="#a"/><use xlink:href="#b" x="9.996" y="8.659"/><use xlink:href="#9"/><use xlink:href="#10" y="2.171"/><use xlink:href="#14" y="4.342"/><use xlink:href="#18" y="6.513"/><text y="10.354" class="f">the</text><text x="4.008" y="10.354" class="f">lazy</text><text x="9.018" y="10.354" class="f">d</text></svg><svg x="7296"><use xlink:href="#a"/><use xlink:href="#b" x="10.996" y="8.659"/><use xlink:href="#9"/><use xlink:href="#10" y="2.171"/><use xlink:href="#14" y="4.342"/><use xlink:href="#18" y="6.513"/><text y="10.354" class="f">the</text><text x="4.008" y="10.354" class="f">lazy</text><text x="9.018" y="10.354" class="f">do</text></svg><svg x="7392"><use xlink:href="#a"/><use xlink:href="#b" x="11.996" y="8.659"/><use xlink:href="#9"/><use xlink:href="#10" y="2.171"/><use xlink:href="#14" y="4.342"/><use xlink:href="#18" y="6.513"/><text y="10.354" class="f">the</text><text x="4.008" y="10.354" class="f">lazy</text><text x="9.018" y="10.354" class="f">dog</text></svg><svg x="7488"><use xlink:href="#a"/><use xlink:href="#b" x="12.996" y="8.659"/><use xlink:href="#9"/><use xlink:href="#10" y="2.171"/><use xlink:href="#14" y="4.342"/><use xlink:href="#18" y="6.513"/><use xlink:href="#21" y="8.684"/></svg><svg x="7584"><use xlink:href="#a"/><use xlink:href="#b" x="13.996" y="8.659"/><use xlink:href="#9"/><use xlink:href="#10" y="2.171"/><use xlink:href="#14" y="4.342"/><use xlink:href="#18" y="6.513"/><use xlink:href="#21" y="8.684"/></svg><svg x="7680"><use xlink:href="#a"/><use xlink:href="#b" x="14.996" y="8.659"/><use xlink:href="#9"/><use xlink:href="#10" y="2.171"/><use xlink:href="#14" y="4.342"/><use xlink:href="#18" y="6.513"/><text y="10.354" class="f">the</text><text x="4.008" y="10.354" class="f">lazy</text><text x="9.018" y="10.354" class="f">dog,</text><text x="14.028" y="10.354" class="f">a</text></svg><svg x="7776"><use xlink:href="#a"/><use xlink:href="#b" x="15.996" y="8.659"/><use xlink:href="#9"/><use xlink:href="#10" y="2.171"/><use xlink:href="#14" y="4.342"/><use xlink:href="#18" y="6.513"/><text y="10.354" class="f">the</text><text x="4.008" y="10.354" class="f">lazy</text><text x="9.018" y="10.354" class="f">dog,</text><text x="14.028" y="10.354" class="f">an</text></svg><svg x="7872"><use xlink:href="#a"/><use xlink:href="#b" x="16.996" y="8.659"/><use xlink:href="#9"/><use xlink:href="#10" y="2.171"/><use xlink:href="#14" y="4.342"/><use xlink:href="#18" y="6.513"/><use xlink:href="#22" y="8.684"/></svg><svg x="7968"><use xlink:href="#a"/><use xlink:href="#b" x="17.996" y="8.659"/><use xlink:href="#9"/><use xlink:href="#10" y="2.171"/><use xlink:href="#14" y="4.342"/><use xlink:href="#18" y="6.513"/><use xlink:href="#22" y="8.684"/></svg><svg x="8064"><use xlink:href="#a"/><use xlink:href="#b" x="18.996" y="8.659"/><use xlink:href="#9"/><use xlink:href="#10" y="2.171"/><use xlink:href="#14" y="4.342"/><use xlink:href="#18" y="6.513"/><text y="10.354" class="f">the</text><text x="4.008" y="10.354" class="f">lazy</text><text x="9.018" y="10.354" class="f">dog,</text><text x="14.028" y="10.354" class="f">and</text><text x="18.036" y="10.354" class="f">t</text></svg><svg x="8160"><use xlink:href="#a"/><use xlink:href="#b" x="19.996" y="8.659"/><use xlink:href="#9"/><use xlink:href="#10" y="2.171"/><use xlink:href="#14" y="4.342"/><use xlink:href="#18" y="6.513"/><text y="10.354" class="f">the</text><text x="4.008" y="10.354" class="f">lazy</text><text x="9.018" y="10.354" class="f">dog,</text><text x="14.028" y="10.354" class="f">and</text><text x="18.036" y="10.354" class="f">th</text></svg><svg x="8256"><use xlink:href="#a"/><use xlink:href="#b" x="20.996" y="8.659"/><use xlink:href="#9"/><use xlink:href="#10" y="2.171"/><use xlink:href="#14" y="4.342"/><use xlink:href="#18" y="6.513"/><use xlink:href="#23" y="8.684"/></svg><svg x="8352"><use xlink:href="#a"/><use xlink:href="#b" x="21.996" y="8.659"/><use xlink:href="#9"/><use xlink:href="#10" y="2.171"/><use xlink:href="#14" y="4.342"/><use xlink:href="#18" y="6.513"/><use xlink:href="#23" y="8.684"/></svg><svg x="8448"><use xlink:href="#a"/><use xlink:href="#b" x="22.996" y="8.659"/><use xlink:href="#9"/><use xlink:href="#10" y="2.171"/><use xlink:href="#14" y="4.342"/><use xlink:href="#18" y="6.513"/><text y="10.354" class="f">the</text><text x="4.008" y="10.354" class="f">lazy</text><text x="9.018" y="10.354" class="f">dog,</text><text x="14.028" y="10.354" class="f">and</text><text x="18.036" y="10.354" class="f">the</text><text x="22.044" y="10.354" class="f">g</text></svg><svg x="8544"><use xlink:href="#a"/><use xlink:href="#b" x="23.996" y="8.659"/><use xlink:href="#9"/><use xlink:href="#10" y="2.171"/><use xlink:href="#14" y="4.342"/><use xlink:href="#18" y="6.513"/><text y="10.354" class="f">the</text><text x="4.008" y="10.354" class="f">lazy</text><text x="9.018" y="10.354" class="f">dog,</text><text x="14.028" y="10.354" class="f">and</text><text x="18.036" y="10.354" class="f">the</text><text x="22.044" y="10.354" class="f">gi</text></svg><svg x="8640"><use xlink:href="#a"/><use xlink:href="#b" x="24.996" y="8.659"/><use xlink:href="#9"/><use xlink:href="#10" y="2.171"/><use xlink:href="#14" y="4.342"/><use xlink:href="#18" y="6.513"/><text y="10.354" class="f">the</text><text x="4.008" y="10.354" class="f">lazy</text><text x="9.018" y="10.354" class="f">dog,</text><text x="14.028" y="10.354" class="f">and</text><text x="18.036" y="10.354" class="f">the</text><text x="22.044" y="10.354" class="f">gia</text></svg><svg x="8736"><use xlink:href="#a"/><use xlink:href="#b" x="25.996" y="8.659"/><use xlink:href="#9"/><use xlink:href="#10" y="2.171"/><use xlink:href="#14" y="4.342"/><use xlink:href="#18" y="6.513"/><text y="10.354" class="f">the</text><text x="4.008" y="10.354" class="f">lazy</text><text x="9.018" y="10.354" class="f">dog,</text><text x="14.028" y="10.354" class="f">and</text><text x="18.036" y="10.354" class="f">the</text><text x="22.044" y="10.354" class="f">gian</text></svg><svg x="8832"><use xlink:href="#a"/><use xlink:href="#b" x="26.996" y="8.659"/><use xlink:href="#9"/><use xlink:href="#10" y="2.171"/><use xlink:href="#14" y="4.342"/><use xlink:href="#18" y="6.513"/><use xlink:href="#24" y="8.684"/></svg><svg x="8928"><use xlink:href="#a"/><use xlink:href="#b" x="-.004" y="10.83"/><use xlink:href="#9"/><use xlink:href="#10" y="2.171"/><use xlink:href="#14" y="4.342"/><use xlink:href="#18" y="6.513"/><use xlink:href="#24" y="8.684"/></svg><svg x="9024"><use xlink:href="#a"/><use xlink:href="#b" x=".996" y="10.83"/><use xlink:href="#9"/><use xlink:href="#10" y="2.171"/><use xlink:href="#14" y="4.342"/><use xlink:href="#18" y="6.513"/><use xlink:href="#24" y="8.684"/><text y="12.525" class="f">c</text></svg><svg x="9120"><use xlink:href="#a"/><use xlink:href="#b" x="1.996" y="10.83"/><use xlink:href="#9"/><use xlink:href="#10" y="2.171"/><use xlink:href="#14" y="4.342"/><use xlink:href="#18" y="6.513"/><use xlink:href="#24" y="8.684"/><text y="12.525" class="f">ca</text></svg><svg x="9216"><use xlink:href="#a"/><use xlink:href="#b" x="2.996" y="10.83"/><use xlink:href="#9"/><use xlink:href="#10" y="2.171"/><use xlink:href="#14" y="4.342"/><use xlink:href="#18" y="6.513"/><use xlink:href="#24" y="8.684"/><use xlink:href="#25" y="10.855"/></svg><svg x="9312"><use xlink:href="#a"/><use xlink:href="#b" x="-.004" y="13.001"/><use xlink:href="#9"/><use xlink:href="#10" y="2.171"/><use xlink:href="#14" y="4.342"/><use xlink:href="#18" y="6.513"/><use xlink:href="#24" y="8.684"/><use xlink:href="#25" y="10.855"/></svg><svg x="9408"><use xlink:href="#a"/><use xlink:href="#b" x="-.004" y="15.172"/><use xlink:href="#9"/><use xlink:href="#10" y="2.171"/><use xlink:href="#14" y="4.342"/><use xlink:href="#18" y="6.513"/><use xlink:href="#24" y="8.684"/><use xlink:href="#25" y="10.855"/></svg><svg x="9504"><use xlink:href="#a"/><use xlink:href="#b" x="-.004" y="17.343"/><use xlink:href="#9"/><use xlink:href="#10" y="2.171"/><use xlink:href="#14" y="4.342"/><use xlink:href="#18" y="6.513"/><use xlink:href="#24" y="8.684"/><use xlink:href="#25" y="10.855"/><use xlink:href="#26" y="15.197"/></svg><svg x="9600"><use xlink:href="#a"/><use xlink:href="#b" x="-.004" y="47.737"/><use xlink:href="#9"/><use xlink:href="#10" y="2.171"/><use xlink:href="#14" y="4.342"/><use xlink:href="#18" y="6.513"/><use xlink:href="#24" y="8.684"/><use xlink:href="#25" y="10.855"/><use xlink:href="#26" y="15.197"/><use xlink:href="#27" y="17.368"/><use xlink:href="#28" y="19.539"/><use xlink:href="#27" y="21.71"/><use xlink:href="#29" y="23.881"/><use xlink:href="#30" y="26.052"/><use xlink:href="#31" y="28.223"/><use xlink:href="#32" y="30.394"/><use xlink:href="#33" y="32.565"/><use xlink:href="#34" y="34.736"/><use xlink:href="#35" y="36.907"/><use xlink:href="#36" y="39.078"/><use xlink:href="#37" y="41.249"/><use xlink:href="#38" y="43.42"/><use xlink:href="#39" y="45.591"/></svg><svg x="9696"><use xlink:href="#a"/><use xlink:href="#b" x="5.996" y="47.737"/><use xlink:href="#9"/><use xlink:href="#10" y="2.171"/><use xlink:href="#14" y="4.342"/><use xlink:href="#18" y="6.513"/><use xlink:href="#24" y="8.684"/><use xlink:href="#25" y="10.855"/><use xlink:href="#26" y="15.197"/><use xlink:href="#27" y="17.368"/><use xlink:href="#28" y="19.539"/><use xlink:href="#27" y="21.71"/><use xlink:href="#29" y="23.881"/><use xlink:href="#30" y="26.052"/><use xlink:href="#31" y="28.223"/><use xlink:href="#32" y="30.394"/><use xlink:href="#33" y="32.565"/><use xlink:href="#34" y="34.736"/><use xlink:href="#35" y="36.907"/><use xlink:href="#36" y="39.078"/><use xlink:href="#37" y="41.249"/><use xlink:href="#38" y="43.42"/><use xlink:href="#39" y="45.591"/><use xlink:href="#1" y="47.762"/></svg><svg x="9792"><use xlink:href="#a"/><use xlink:href="#b" x="-.004" y="49.908"/><use xlink:href="#9"/><use xlink:href="#10" y="2.171"/><use xlink:href="#14" y="4.342"/><use xlink:href="#18" y="6.513"/><use xlink:href="#24" y="8.684"/><use xlink:href="#25" y="10.855"/><use xlink:href="#26" y="15.197"/><use xlink:href="#27" y="17.368"/><use xlink:href="#28" y="19.539"/><use xlink:href="#27" y="21.71"/><use xlink:href="#29" y="23.881"/><use xlink:href="#30" y="26.052"/><use xlink:href="#31" y="28.223"/><use xlink:href="#32" y="30.394"/><use xlink:href="#33" y="32.565"/><use xlink:href="#34" y="34.736"/><use xlink:href="#35" y="36.907"/><use xlink:href="#36" y="39.078"/><use xlink:href="#37" y="41.249"/><use xlink:href="#38" y="43.42"/><use xlink:href="#39" y="45.591"/><text y="49.432" class="f">xref</text><text x="5.01" y="49.432" class="f">$exit</text></svg></svg></g></g></svg></svg>