<svg xmlns="http://www.w3.org/2000/svg" xmlns:xlink="http://www.w3.org/1999/xlink" width="1010" height="407.36"><rect width="1010" height="407.36" rx="5" ry="5" class="a"/><svg y="0%" x="0%"><circle cx="20" cy="20" r="6" fill="#ff5f58"/><circle cx="40" cy="20" r="6" fill="#ffbd2e"/><circle cx="60" cy="20" r="6" fill="#18c132"/></svg><svg height="347.36" viewBox="0 0 97 34.736" width="970" x="15" xmlns="http://www.w3.org/2000/svg" xmlns:xlink="http://www.w3.org/1999/xlink" y="50"><style>@keyframes i{0%{transform:translateX(0)}.13%{transform:translateX(-97px)}5.19%{transform:translateX(-194px)}6.16%{transform:translateX(-291px)}7.33%{transform:translateX(-388px)}8.33%{transform:translateX(-485px)}9.2%{transform:translateX(-582px)}9.32%{transform:translateX(-679px)}13.23%{transform:translateX(-776px)}15.85%{transform:translateX(-873px)}17.03%{transform:translateX(-970px)}19.04%{transform:translateX(-1067px)}20.1%{transform:translateX(-1164px)}20.85%{transform:translateX(-1261px)}22.02%{transform:translateX(-1358px)}22.86%{transform:translateX(-1455px)}22.9%{transform:translateX(-1552px)}45.83%{transform:translateX(-1649px)}60.49%{transform:translateX(-1746px)}71.14%{transform:translateX(-2037px)}71.15%{transform:translateX(-2134px)}to{transform:translateX(-2231px)}}.a{fill:#000}.f{fill:#28fe14;white-space:pre}</style><g font-family="Monaco,Consolas,Menlo,'Bitstream Vera Sans Mono','Powerline Symbols',monospace" font-size="1.67"><defs><symbol id="1"><text y="1.67" class="f">records1</text><text x="9.018" y="1.67" class="f">$</text></symbol><symbol id="2"><text y="1.67" class="f">records1</text><text x="9.018" y="1.67" class="f">$make</text></symbol><symbol id="3"><text y="1.67" class="f">g++</text><text x="4.008" y="1.67" class="f">-o</text><text x="7.014" y="1.67" class="f">main</text><text x="12.024" y="1.67" class="f">main.cpp</text></symbol><symbol id="4"><text y="1.67" class="f">records1</text><text x="9.018" y="1.67" class="f">$./main</text></symbol><symbol id="5"><text y="1.67" class="f">Please</text><text x="7.014" y="1.67" class="f">enter</text><text x="13.026" y="1.67" class="f">the</text><text x="17.034" y="1.67" class="f">records</text><text x="25.05" y="1.67" class="f">of</text><text x="28.056" y="1.67" class="f">each</text><text x="33.066" y="1.67" class="f">student</text><text x="41.082" y="1.67" class="f">(name,</text><text x="48.096" y="1.67" class="f">midterm</text><text x="56.112" y="1.67" class="f">and</text><text x="60.12" y="1.67" class="f">final</text><text x="66.132" y="1.67" class="f">exam</text><text x="71.142" y="1.67" class="f">grades,</text><text x="79.158" y="1.67" class="f">homework</text><text x="88.176" y="1.67" class="f">grades):</text></symbol><symbol id="6"><text y="1.67" class="f">Abbie</text><text x="6.012" y="1.67" class="f">96</text><text x="9.018" y="1.67" class="f">74</text><text x="12.024" y="1.67" class="f">63</text><text x="15.03" y="1.67" class="f">56</text><text x="18.036" y="1.67" class="f">84</text><text x="21.042" y="1.67" class="f">78</text></symbol><symbol id="7"><text y="1.67" class="f">Ben</text><text x="6.012" y="1.67" class="f">87</text><text x="9.018" y="1.67" class="f">88</text><text x="12.024" y="1.67" class="f">56</text><text x="15.03" y="1.67" class="f">74</text><text x="18.036" y="1.67" class="f">26</text></symbol><symbol id="8"><text y="1.67" class="f">Chloe</text><text x="6.012" y="1.67" class="f">67</text><text x="9.018" y="1.67" class="f">85</text><text x="12.024" y="1.67" class="f">54</text><text x="15.03" y="1.67" class="f">45</text><text x="18.036" y="1.67" class="f">37</text><text x="21.042" y="1.67" class="f">74</text></symbol><symbol id="9"><text y="1.67" class="f">Dylan</text><text x="6.012" y="1.67" class="f">64</text><text x="9.018" y="1.67" class="f">51</text></symbol><symbol id="10"><text y="1.67" class="f">^D</text></symbol><symbol id="11"><text y="1.67" class="f">Final</text><text x="6.012" y="1.67" class="f">Grades:</text></symbol><symbol id="12"><text y="1.67" class="f">Abbie</text><text x="6.012" y="1.67" class="f">77</text></symbol><symbol id="13"><text y="1.67" class="f">Ben</text><text x="6.012" y="1.67" class="f">75</text></symbol><symbol id="14"><text y="1.67" class="f">Chloe</text><text x="6.012" y="1.67" class="f">67.2</text></symbol><symbol id="15"><text y="1.67" class="f">Dylan</text><text x="6.012" y="1.67" class="f">student</text><text x="14.028" y="1.67" class="f">has</text><text x="18.036" y="1.67" class="f">done</text><text x="23.046" y="1.67" class="f">no</text><text x="26.052" y="1.67" class="f">homework</text></symbol><symbol id="a"><path fill="transparent" d="M0 0h97v17H0z"/></symbol><symbol id="b"><path fill="#38fe27" d="M0 0h1.102v2.171H0z"/></symbol></defs><path class="a" d="M0 0h97v34.736H0z"/><g style="animation-duration:17.330131s;animation-iteration-count:infinite;animation-name:i;animation-timing-function:steps(1,end)"><svg width="2328"><svg><use xlink:href="#a"/><use xlink:href="#b" x="-.004"/></svg><svg x="97"><use xlink:href="#a"/><use xlink:href="#b" x="9.996"/><use xlink:href="#1"/></svg><svg x="194"><use xlink:href="#a"/><use xlink:href="#b" x="10.996"/><text y="1.67" class="f">records1</text><text x="9.018" y="1.67" class="f">$m</text></svg><svg x="291"><use xlink:href="#a"/><use xlink:href="#b" x="11.996"/><text y="1.67" class="f">records1</text><text x="9.018" y="1.67" class="f">$ma</text></svg><svg x="388"><use xlink:href="#a"/><use xlink:href="#b" x="12.996"/><text y="1.67" class="f">records1</text><text x="9.018" y="1.67" class="f">$mak</text></svg><svg x="485"><use xlink:href="#a"/><use xlink:href="#b" x="13.996"/><use xlink:href="#2"/></svg><svg x="582"><use xlink:href="#a"/><use xlink:href="#b" x="-.004" y="2.146"/><use xlink:href="#2"/></svg><svg x="679"><use xlink:href="#a"/><use xlink:href="#b" x="-.004" y="4.317"/><use xlink:href="#2"/><use xlink:href="#3" y="2.171"/></svg><svg x="776"><use xlink:href="#a"/><use xlink:href="#b" x="9.996" y="4.317"/><use xlink:href="#2"/><use xlink:href="#3" y="2.171"/><use xlink:href="#1" y="4.342"/></svg><svg x="873"><use xlink:href="#a"/><use xlink:href="#b" x="10.996" y="4.317"/><use xlink:href="#2"/><use xlink:href="#3" y="2.171"/><text y="6.012" class="f">records1</text><text x="9.018" y="6.012" class="f">$.</text></svg><svg x="970"><use xlink:href="#a"/><use xlink:href="#b" x="11.996" y="4.317"/><use xlink:href="#2"/><use xlink:href="#3" y="2.171"/><text y="6.012" class="f">records1</text><text x="9.018" y="6.012" class="f">$./</text></svg><svg x="1067"><use xlink:href="#a"/><use xlink:href="#b" x="12.996" y="4.317"/><use xlink:href="#2"/><use xlink:href="#3" y="2.171"/><text y="6.012" class="f">records1</text><text x="9.018" y="6.012" class="f">$./m</text></svg><svg x="1164"><use xlink:href="#a"/><use xlink:href="#b" x="13.996" y="4.317"/><use xlink:href="#2"/><use xlink:href="#3" y="2.171"/><text y="6.012" class="f">records1</text><text x="9.018" y="6.012" class="f">$./ma</text></svg><svg x="1261"><use xlink:href="#a"/><use xlink:href="#b" x="14.996" y="4.317"/><use xlink:href="#2"/><use xlink:href="#3" y="2.171"/><text y="6.012" class="f">records1</text><text x="9.018" y="6.012" class="f">$./mai</text></svg><svg x="1358"><use xlink:href="#a"/><use xlink:href="#b" x="15.996" y="4.317"/><use xlink:href="#2"/><use xlink:href="#3" y="2.171"/><use xlink:href="#4" y="4.342"/></svg><svg x="1455"><use xlink:href="#a"/><use xlink:href="#b" x="-.004" y="6.488"/><use xlink:href="#2"/><use xlink:href="#3" y="2.171"/><use xlink:href="#4" y="4.342"/></svg><svg x="1552"><use xlink:href="#a"/><use xlink:href="#b" x="-.004" y="8.659"/><use xlink:href="#2"/><use xlink:href="#3" y="2.171"/><use xlink:href="#4" y="4.342"/><use xlink:href="#5" y="6.513"/></svg><svg x="1649"><use xlink:href="#a"/><use xlink:href="#b" x="10.996" y="15.172"/><use xlink:href="#2"/><use xlink:href="#3" y="2.171"/><use xlink:href="#4" y="4.342"/><use xlink:href="#5" y="6.513"/><use xlink:href="#6" y="8.684"/><use xlink:href="#7" y="10.855"/><use xlink:href="#8" y="13.026"/><use xlink:href="#9" y="15.197"/></svg><svg x="1746"><use xlink:href="#a"/><use xlink:href="#b" x="-.004" y="17.343"/><use xlink:href="#2"/><use xlink:href="#3" y="2.171"/><use xlink:href="#4" y="4.342"/><use xlink:href="#5" y="6.513"/><use xlink:href="#6" y="8.684"/><use xlink:href="#7" y="10.855"/><use xlink:href="#8" y="13.026"/><use xlink:href="#9" y="15.197"/></svg><svg x="1843"><use xlink:href="#a"/><use xlink:href="#b" x="-.004" y="21.685"/><use xlink:href="#2"/><use xlink:href="#3" y="2.171"/><use xlink:href="#4" y="4.342"/><use xlink:href="#5" y="6.513"/><use xlink:href="#6" y="8.684"/><use xlink:href="#7" y="10.855"/><use xlink:href="#8" y="13.026"/><use xlink:href="#9" y="15.197"/><use xlink:href="#10" y="17.368"/><use xlink:href="#11" y="19.539"/></svg><svg x="1940"><use xlink:href="#a"/><use xlink:href="#b" x="-.004" y="28.198"/><use xlink:href="#2"/><use xlink:href="#3" y="2.171"/><use xlink:href="#4" y="4.342"/><use xlink:href="#5" y="6.513"/><use xlink:href="#6" y="8.684"/><use xlink:href="#7" y="10.855"/><use xlink:href="#8" y="13.026"/><use xlink:href="#9" y="15.197"/><use xlink:href="#10" y="17.368"/><use xlink:href="#11" y="19.539"/><use xlink:href="#12" y="21.71"/><use xlink:href="#13" y="23.881"/><use xlink:href="#14" y="26.052"/></svg><svg x="2037"><use xlink:href="#a"/><use xlink:href="#b" x="-.004" y="30.369"/><use xlink:href="#2"/><use xlink:href="#3" y="2.171"/><use xlink:href="#4" y="4.342"/><use xlink:href="#5" y="6.513"/><use xlink:href="#6" y="8.684"/><use xlink:href="#7" y="10.855"/><use xlink:href="#8" y="13.026"/><use xlink:href="#9" y="15.197"/><use xlink:href="#10" y="17.368"/><use xlink:href="#11" y="19.539"/><use xlink:href="#12" y="21.71"/><use xlink:href="#13" y="23.881"/><use xlink:href="#14" y="26.052"/><use xlink:href="#15" y="28.223"/></svg><svg x="2134"><use xlink:href="#a"/><use xlink:href="#b" x="9.996" y="30.369"/><use xlink:href="#2"/><use xlink:href="#3" y="2.171"/><use xlink:href="#4" y="4.342"/><use xlink:href="#5" y="6.513"/><use xlink:href="#6" y="8.684"/><use xlink:href="#7" y="10.855"/><use xlink:href="#8" y="13.026"/><use xlink:href="#9" y="15.197"/><use xlink:href="#10" y="17.368"/><use xlink:href="#11" y="19.539"/><use xlink:href="#12" y="21.71"/><use xlink:href="#13" y="23.881"/><use xlink:href="#14" y="26.052"/><use xlink:href="#15" y="28.223"/><use xlink:href="#1" y="30.394"/></svg><svg x="2231"><use xlink:href="#a"/><use xlink:href="#b" x="-.004" y="32.54"/><use xlink:href="#2"/><use xlink:href="#3" y="2.171"/><use xlink:href="#4" y="4.342"/><use xlink:href="#5" y="6.513"/><use xlink:href="#6" y="8.684"/><use xlink:href="#7" y="10.855"/><use xlink:href="#8" y="13.026"/><use xlink:href="#9" y="15.197"/><use xlink:href="#10" y="17.368"/><use xlink:href="#11" y="19.539"/><use xlink:href="#12" y="21.71"/><use xlink:href="#13" y="23.881"/><use xlink:href="#14" y="26.052"/><use xlink:href="#15" y="28.223"/><text y="32.064" class="f">records1</text><text x="9.018" y="32.064" class="f">$exit</text></svg></svg></g></g></svg></svg>