<svg xmlns="http://www.w3.org/2000/svg" xmlns:xlink="http://www.w3.org/1999/xlink" width="1000" height="841.56"><rect width="1000" height="841.56" rx="5" ry="5" class="a"/><svg y="0%" x="0%"><circle cx="20" cy="20" r="6" fill="#ff5f58"/><circle cx="40" cy="20" r="6" fill="#ffbd2e"/><circle cx="60" cy="20" r="6" fill="#18c132"/></svg><svg height="781.56" viewBox="0 0 96 78.156" width="960" x="15" xmlns="http://www.w3.org/2000/svg" xmlns:xlink="http://www.w3.org/1999/xlink" y="50"><style>@keyframes i{0%{transform:translateX(0)}.12%{transform:translateX(-96px)}4.01%{transform:translateX(-192px)}4.53%{transform:translateX(-288px)}5.25%{transform:translateX(-384px)}5.85%{transform:translateX(-480px)}6.51%{transform:translateX(-576px)}6.59%{transform:translateX(-672px)}8.44%{transform:translateX(-768px)}12.82%{transform:translateX(-864px)}13.54%{transform:translateX(-960px)}14.75%{transform:translateX(-1056px)}15.43%{transform:translateX(-1152px)}16.1%{transform:translateX(-1248px)}16.78%{transform:translateX(-1344px)}17.57%{transform:translateX(-1440px)}17.6%{transform:translateX(-1536px)}36.01%{transform:translateX(-1632px)}36.92%{transform:translateX(-1728px)}37.93%{transform:translateX(-1824px)}39.63%{transform:translateX(-1920px)}40.55%{transform:translateX(-2016px)}41.54%{transform:translateX(-2112px)}47.41%{transform:translateX(-2400px)}58.46%{transform:translateX(-2496px)}59%{transform:translateX(-2592px)}59.85%{transform:translateX(-2688px)}60.32%{transform:translateX(-2784px)}60.98%{transform:translateX(-2880px)}61.92%{transform:translateX(-2976px)}67.15%{transform:translateX(-3072px)}67.19%{transform:translateX(-3168px)}80.06%{transform:translateX(-3264px)}80.8%{transform:translateX(-3360px)}81.58%{transform:translateX(-3552px)}81.59%{transform:translateX(-3648px)}to{transform:translateX(-3744px)}}.a{fill:#000}.f{fill:#28fe14;white-space:pre}</style><g font-family="Monaco,Consolas,Menlo,'Bitstream Vera Sans Mono','Powerline Symbols',monospace" font-size="1.67"><defs><symbol id="1"><text y="1.67" class="f">squares</text><text x="8.016" y="1.67" class="f">$</text></symbol><symbol id="2"><text y="1.67" class="f">squares</text><text x="8.016" y="1.67" class="f">$make</text></symbol><symbol id="3"><text y="1.67" class="f">g++</text><text x="4.008" y="1.67" class="f">-o</text><text x="7.014" y="1.67" class="f">main</text><text x="12.024" y="1.67" class="f">main.cpp</text></symbol><symbol id="4"><text y="1.67" class="f">squares</text><text x="8.016" y="1.67" class="f">$.</text></symbol><symbol id="5"><text y="1.67" class="f">squares</text><text x="8.016" y="1.67" class="f">$./</text></symbol><symbol id="6"><text y="1.67" class="f">squares</text><text x="8.016" y="1.67" class="f">$./m</text></symbol><symbol id="7"><text y="1.67" class="f">squares</text><text x="8.016" y="1.67" class="f">$./ma</text></symbol><symbol id="8"><text y="1.67" class="f">squares</text><text x="8.016" y="1.67" class="f">$./mai</text></symbol><symbol id="9"><text y="1.67" class="f">squares</text><text x="8.016" y="1.67" class="f">$./main</text></symbol><symbol id="10"><text y="1.67" class="f">This</text><text x="5.01" y="1.67" class="f">program</text><text x="13.026" y="1.67" class="f">lists</text><text x="19.038" y="1.67" class="f">the</text><text x="23.046" y="1.67" class="f">square</text><text x="30.06" y="1.67" class="f">numbers</text><text x="38.076" y="1.67" class="f">of</text><text x="41.082" y="1.67" class="f">consecutive</text><text x="53.106" y="1.67" class="f">integers</text><text x="62.124" y="1.67" class="f">starting</text><text x="71.142" y="1.67" class="f">from</text><text x="76.152" y="1.67" class="f">0.</text></symbol><symbol id="11"><text y="1.67" class="f">Which</text><text x="6.012" y="1.67" class="f">number</text><text x="13.026" y="1.67" class="f">would</text><text x="19.038" y="1.67" class="f">you</text><text x="23.046" y="1.67" class="f">like</text><text x="28.056" y="1.67" class="f">the</text><text x="32.064" y="1.67" class="f">consecutive</text><text x="44.088" y="1.67" class="f">integers</text><text x="53.106" y="1.67" class="f">to</text><text x="56.112" y="1.67" class="f">end</text><text x="60.12" y="1.67" class="f">at?</text></symbol><symbol id="12"><text y="1.67" class="f">twenty</text></symbol><symbol id="13"><text y="1.67" class="f">Invalid</text><text x="8.016" y="1.67" class="f">input.</text><text x="15.03" y="1.67" class="f">You</text><text x="19.038" y="1.67" class="f">must</text><text x="24.048" y="1.67" class="f">enter</text><text x="30.06" y="1.67" class="f">a</text><text x="32.064" y="1.67" class="f">whole</text><text x="38.076" y="1.67" class="f">number.</text></symbol><symbol id="14"><text y="1.67" class="f">20</text></symbol><symbol id="15"><text y="1.67" class="f">The</text><text x="4.008" y="1.67" class="f">squares</text><text x="12.024" y="1.67" class="f">of</text><text x="15.03" y="1.67" class="f">integers</text><text x="24.048" y="1.67" class="f">from</text><text x="29.058" y="1.67" class="f">0</text><text x="31.062" y="1.67" class="f">to</text><text x="34.068" y="1.67" class="f">20:</text></symbol><symbol id="16"><text y="1.67" class="f">0</text><text x="3.006" y="1.67" class="f">0</text></symbol><symbol id="17"><text y="1.67" class="f">1</text><text x="3.006" y="1.67" class="f">1</text></symbol><symbol id="18"><text y="1.67" class="f">2</text><text x="3.006" y="1.67" class="f">4</text></symbol><symbol id="19"><text y="1.67" class="f">3</text><text x="3.006" y="1.67" class="f">9</text></symbol><symbol id="20"><text y="1.67" class="f">4</text><text x="3.006" y="1.67" class="f">16</text></symbol><symbol id="21"><text y="1.67" class="f">5</text><text x="3.006" y="1.67" class="f">25</text></symbol><symbol id="22"><text y="1.67" class="f">6</text><text x="3.006" y="1.67" class="f">36</text></symbol><symbol id="23"><text y="1.67" class="f">7</text><text x="3.006" y="1.67" class="f">49</text></symbol><symbol id="24"><text y="1.67" class="f">8</text><text x="3.006" y="1.67" class="f">64</text></symbol><symbol id="25"><text y="1.67" class="f">9</text><text x="3.006" y="1.67" class="f">81</text></symbol><symbol id="26"><text y="1.67" class="f">10</text><text x="3.006" y="1.67" class="f">100</text></symbol><symbol id="27"><text y="1.67" class="f">11</text><text x="3.006" y="1.67" class="f">121</text></symbol><symbol id="28"><text y="1.67" class="f">12</text><text x="3.006" y="1.67" class="f">144</text></symbol><symbol id="29"><text y="1.67" class="f">13</text><text x="3.006" y="1.67" class="f">169</text></symbol><symbol id="30"><text y="1.67" class="f">14</text><text x="3.006" y="1.67" class="f">196</text></symbol><symbol id="31"><text y="1.67" class="f">15</text><text x="3.006" y="1.67" class="f">225</text></symbol><symbol id="32"><text y="1.67" class="f">16</text><text x="3.006" y="1.67" class="f">256</text></symbol><symbol id="33"><text y="1.67" class="f">17</text><text x="3.006" y="1.67" class="f">289</text></symbol><symbol id="34"><text y="1.67" class="f">18</text><text x="3.006" y="1.67" class="f">324</text></symbol><symbol id="35"><text y="1.67" class="f">19</text><text x="3.006" y="1.67" class="f">361</text></symbol><symbol id="36"><text y="1.67" class="f">20</text><text x="3.006" y="1.67" class="f">400</text></symbol><symbol id="a"><path fill="transparent" d="M0 0h96v37H0z"/></symbol><symbol id="b"><path fill="#38fe27" d="M0 0h1.102v2.171H0z"/></symbol></defs><path class="a" d="M0 0h96v78.156H0z"/><g style="animation-duration:27.153829s;animation-iteration-count:infinite;animation-name:i;animation-timing-function:steps(1,end)"><svg width="3840"><svg><use xlink:href="#a"/><use xlink:href="#b" x="-.004"/></svg><svg x="96"><use xlink:href="#a"/><use xlink:href="#b" x="8.996"/><use xlink:href="#1"/></svg><svg x="192"><use xlink:href="#a"/><use xlink:href="#b" x="9.996"/><text y="1.67" class="f">squares</text><text x="8.016" y="1.67" class="f">$m</text></svg><svg x="288"><use xlink:href="#a"/><use xlink:href="#b" x="10.996"/><text y="1.67" class="f">squares</text><text x="8.016" y="1.67" class="f">$ma</text></svg><svg x="384"><use xlink:href="#a"/><use xlink:href="#b" x="11.996"/><text y="1.67" class="f">squares</text><text x="8.016" y="1.67" class="f">$mak</text></svg><svg x="480"><use xlink:href="#a"/><use xlink:href="#b" x="12.996"/><use xlink:href="#2"/></svg><svg x="576"><use xlink:href="#a"/><use xlink:href="#b" x="-.004" y="2.146"/><use xlink:href="#2"/></svg><svg x="672"><use xlink:href="#a"/><use xlink:href="#b" x="-.004" y="4.317"/><use xlink:href="#2"/><use xlink:href="#3" y="2.171"/></svg><svg x="768"><use xlink:href="#a"/><use xlink:href="#b" x="8.996" y="4.317"/><use xlink:href="#2"/><use xlink:href="#3" y="2.171"/><use xlink:href="#1" y="4.342"/></svg><svg x="864"><use xlink:href="#a"/><use xlink:href="#b" x="9.996" y="4.317"/><use xlink:href="#2"/><use xlink:href="#3" y="2.171"/><use xlink:href="#4" y="4.342"/></svg><svg x="960"><use xlink:href="#a"/><use xlink:href="#b" x="10.996" y="4.317"/><use xlink:href="#2"/><use xlink:href="#3" y="2.171"/><use xlink:href="#5" y="4.342"/></svg><svg x="1056"><use xlink:href="#a"/><use xlink:href="#b" x="11.996" y="4.317"/><use xlink:href="#2"/><use xlink:href="#3" y="2.171"/><use xlink:href="#6" y="4.342"/></svg><svg x="1152"><use xlink:href="#a"/><use xlink:href="#b" x="12.996" y="4.317"/><use xlink:href="#2"/><use xlink:href="#3" y="2.171"/><use xlink:href="#7" y="4.342"/></svg><svg x="1248"><use xlink:href="#a"/><use xlink:href="#b" x="13.996" y="4.317"/><use xlink:href="#2"/><use xlink:href="#3" y="2.171"/><use xlink:href="#8" y="4.342"/></svg><svg x="1344"><use xlink:href="#a"/><use xlink:href="#b" x="14.996" y="4.317"/><use xlink:href="#2"/><use xlink:href="#3" y="2.171"/><use xlink:href="#9" y="4.342"/></svg><svg x="1440"><use xlink:href="#a"/><use xlink:href="#b" x="-.004" y="6.488"/><use xlink:href="#2"/><use xlink:href="#3" y="2.171"/><use xlink:href="#9" y="4.342"/></svg><svg x="1536"><use xlink:href="#a"/><use xlink:href="#b" x="-.004" y="10.83"/><use xlink:href="#2"/><use xlink:href="#3" y="2.171"/><use xlink:href="#9" y="4.342"/><use xlink:href="#10" y="6.513"/><use xlink:href="#11" y="8.684"/></svg><svg x="1632"><use xlink:href="#a"/><use xlink:href="#b" x=".996" y="10.83"/><use xlink:href="#2"/><use xlink:href="#3" y="2.171"/><use xlink:href="#9" y="4.342"/><use xlink:href="#10" y="6.513"/><use xlink:href="#11" y="8.684"/><text y="12.525" class="f">t</text></svg><svg x="1728"><use xlink:href="#a"/><use xlink:href="#b" x="1.996" y="10.83"/><use xlink:href="#2"/><use xlink:href="#3" y="2.171"/><use xlink:href="#9" y="4.342"/><use xlink:href="#10" y="6.513"/><use xlink:href="#11" y="8.684"/><text y="12.525" class="f">tw</text></svg><svg x="1824"><use xlink:href="#a"/><use xlink:href="#b" x="2.996" y="10.83"/><use xlink:href="#2"/><use xlink:href="#3" y="2.171"/><use xlink:href="#9" y="4.342"/><use xlink:href="#10" y="6.513"/><use xlink:href="#11" y="8.684"/><text y="12.525" class="f">twe</text></svg><svg x="1920"><use xlink:href="#a"/><use xlink:href="#b" x="3.996" y="10.83"/><use xlink:href="#2"/><use xlink:href="#3" y="2.171"/><use xlink:href="#9" y="4.342"/><use xlink:href="#10" y="6.513"/><use xlink:href="#11" y="8.684"/><text y="12.525" class="f">twen</text></svg><svg x="2016"><use xlink:href="#a"/><use xlink:href="#b" x="4.996" y="10.83"/><use xlink:href="#2"/><use xlink:href="#3" y="2.171"/><use xlink:href="#9" y="4.342"/><use xlink:href="#10" y="6.513"/><use xlink:href="#11" y="8.684"/><text y="12.525" class="f">twent</text></svg><svg x="2112"><use xlink:href="#a"/><use xlink:href="#b" x="5.996" y="10.83"/><use xlink:href="#2"/><use xlink:href="#3" y="2.171"/><use xlink:href="#9" y="4.342"/><use xlink:href="#10" y="6.513"/><use xlink:href="#11" y="8.684"/><use xlink:href="#12" y="10.855"/></svg><svg x="2208"><use xlink:href="#a"/><use xlink:href="#b" x="-.004" y="13.001"/><use xlink:href="#2"/><use xlink:href="#3" y="2.171"/><use xlink:href="#9" y="4.342"/><use xlink:href="#10" y="6.513"/><use xlink:href="#11" y="8.684"/><use xlink:href="#12" y="10.855"/></svg><svg x="2304"><use xlink:href="#a"/><use xlink:href="#b" x="-.004" y="15.172"/><use xlink:href="#2"/><use xlink:href="#3" y="2.171"/><use xlink:href="#9" y="4.342"/><use xlink:href="#10" y="6.513"/><use xlink:href="#11" y="8.684"/><use xlink:href="#12" y="10.855"/><use xlink:href="#13" y="13.026"/></svg><svg x="2400"><use xlink:href="#a"/><use xlink:href="#b" x="8.996" y="15.172"/><use xlink:href="#2"/><use xlink:href="#3" y="2.171"/><use xlink:href="#9" y="4.342"/><use xlink:href="#10" y="6.513"/><use xlink:href="#11" y="8.684"/><use xlink:href="#12" y="10.855"/><use xlink:href="#13" y="13.026"/><use xlink:href="#1" y="15.197"/></svg><svg x="2496"><use xlink:href="#a"/><use xlink:href="#b" x="9.996" y="15.172"/><use xlink:href="#2"/><use xlink:href="#3" y="2.171"/><use xlink:href="#9" y="4.342"/><use xlink:href="#10" y="6.513"/><use xlink:href="#11" y="8.684"/><use xlink:href="#12" y="10.855"/><use xlink:href="#13" y="13.026"/><use xlink:href="#4" y="15.197"/></svg><svg x="2592"><use xlink:href="#a"/><use xlink:href="#b" x="10.996" y="15.172"/><use xlink:href="#2"/><use xlink:href="#3" y="2.171"/><use xlink:href="#9" y="4.342"/><use xlink:href="#10" y="6.513"/><use xlink:href="#11" y="8.684"/><use xlink:href="#12" y="10.855"/><use xlink:href="#13" y="13.026"/><use xlink:href="#5" y="15.197"/></svg><svg x="2688"><use xlink:href="#a"/><use xlink:href="#b" x="11.996" y="15.172"/><use xlink:href="#2"/><use xlink:href="#3" y="2.171"/><use xlink:href="#9" y="4.342"/><use xlink:href="#10" y="6.513"/><use xlink:href="#11" y="8.684"/><use xlink:href="#12" y="10.855"/><use xlink:href="#13" y="13.026"/><use xlink:href="#6" y="15.197"/></svg><svg x="2784"><use xlink:href="#a"/><use xlink:href="#b" x="12.996" y="15.172"/><use xlink:href="#2"/><use xlink:href="#3" y="2.171"/><use xlink:href="#9" y="4.342"/><use xlink:href="#10" y="6.513"/><use xlink:href="#11" y="8.684"/><use xlink:href="#12" y="10.855"/><use xlink:href="#13" y="13.026"/><use xlink:href="#7" y="15.197"/></svg><svg x="2880"><use xlink:href="#a"/><use xlink:href="#b" x="13.996" y="15.172"/><use xlink:href="#2"/><use xlink:href="#3" y="2.171"/><use xlink:href="#9" y="4.342"/><use xlink:href="#10" y="6.513"/><use xlink:href="#11" y="8.684"/><use xlink:href="#12" y="10.855"/><use xlink:href="#13" y="13.026"/><use xlink:href="#8" y="15.197"/></svg><svg x="2976"><use xlink:href="#a"/><use xlink:href="#b" x="14.996" y="15.172"/><use xlink:href="#2"/><use xlink:href="#3" y="2.171"/><use xlink:href="#9" y="4.342"/><use xlink:href="#10" y="6.513"/><use xlink:href="#11" y="8.684"/><use xlink:href="#12" y="10.855"/><use xlink:href="#13" y="13.026"/><use xlink:href="#9" y="15.197"/></svg><svg x="3072"><use xlink:href="#a"/><use xlink:href="#b" x="-.004" y="17.343"/><use xlink:href="#2"/><use xlink:href="#3" y="2.171"/><use xlink:href="#9" y="4.342"/><use xlink:href="#10" y="6.513"/><use xlink:href="#11" y="8.684"/><use xlink:href="#12" y="10.855"/><use xlink:href="#13" y="13.026"/><use xlink:href="#9" y="15.197"/></svg><svg x="3168"><use xlink:href="#a"/><use xlink:href="#b" x="-.004" y="21.685"/><use xlink:href="#2"/><use xlink:href="#3" y="2.171"/><use xlink:href="#9" y="4.342"/><use xlink:href="#10" y="6.513"/><use xlink:href="#11" y="8.684"/><use xlink:href="#12" y="10.855"/><use xlink:href="#13" y="13.026"/><use xlink:href="#9" y="15.197"/><use xlink:href="#10" y="17.368"/><use xlink:href="#11" y="19.539"/></svg><svg x="3264"><use xlink:href="#a"/><use xlink:href="#b" x=".996" y="21.685"/><use xlink:href="#2"/><use xlink:href="#3" y="2.171"/><use xlink:href="#9" y="4.342"/><use xlink:href="#10" y="6.513"/><use xlink:href="#11" y="8.684"/><use xlink:href="#12" y="10.855"/><use xlink:href="#13" y="13.026"/><use xlink:href="#9" y="15.197"/><use xlink:href="#10" y="17.368"/><use xlink:href="#11" y="19.539"/><text y="23.38" class="f">2</text></svg><svg x="3360"><use xlink:href="#a"/><use xlink:href="#b" x="1.996" y="21.685"/><use xlink:href="#2"/><use xlink:href="#3" y="2.171"/><use xlink:href="#9" y="4.342"/><use xlink:href="#10" y="6.513"/><use xlink:href="#11" y="8.684"/><use xlink:href="#12" y="10.855"/><use xlink:href="#13" y="13.026"/><use xlink:href="#9" y="15.197"/><use xlink:href="#10" y="17.368"/><use xlink:href="#11" y="19.539"/><use xlink:href="#14" y="21.71"/></svg><svg x="3456"><use xlink:href="#a"/><use xlink:href="#b" x="-.004" y="23.856"/><use xlink:href="#2"/><use xlink:href="#3" y="2.171"/><use xlink:href="#9" y="4.342"/><use xlink:href="#10" y="6.513"/><use xlink:href="#11" y="8.684"/><use xlink:href="#12" y="10.855"/><use xlink:href="#13" y="13.026"/><use xlink:href="#9" y="15.197"/><use xlink:href="#10" y="17.368"/><use xlink:href="#11" y="19.539"/><use xlink:href="#14" y="21.71"/></svg><svg x="3552"><use xlink:href="#a"/><use xlink:href="#b" x="-.004" y="73.789"/><use xlink:href="#2"/><use xlink:href="#3" y="2.171"/><use xlink:href="#9" y="4.342"/><use xlink:href="#10" y="6.513"/><use xlink:href="#11" y="8.684"/><use xlink:href="#12" y="10.855"/><use xlink:href="#13" y="13.026"/><use xlink:href="#9" y="15.197"/><use xlink:href="#10" y="17.368"/><use xlink:href="#11" y="19.539"/><use xlink:href="#14" y="21.71"/><use xlink:href="#15" y="26.052"/><use xlink:href="#16" y="28.223"/><use xlink:href="#17" y="30.394"/><use xlink:href="#18" y="32.565"/><use xlink:href="#19" y="34.736"/><use xlink:href="#20" y="36.907"/><use xlink:href="#21" y="39.078"/><use xlink:href="#22" y="41.249"/><use xlink:href="#23" y="43.42"/><use xlink:href="#24" y="45.591"/><use xlink:href="#25" y="47.762"/><use xlink:href="#26" y="49.933"/><use xlink:href="#27" y="52.104"/><use xlink:href="#28" y="54.275"/><use xlink:href="#29" y="56.446"/><use xlink:href="#30" y="58.617"/><use xlink:href="#31" y="60.788"/><use xlink:href="#32" y="62.959"/><use xlink:href="#33" y="65.13"/><use xlink:href="#34" y="67.301"/><use xlink:href="#35" y="69.472"/><use xlink:href="#36" y="71.643"/></svg><svg x="3648"><use xlink:href="#a"/><use xlink:href="#b" x="8.996" y="73.789"/><use xlink:href="#2"/><use xlink:href="#3" y="2.171"/><use xlink:href="#9" y="4.342"/><use xlink:href="#10" y="6.513"/><use xlink:href="#11" y="8.684"/><use xlink:href="#12" y="10.855"/><use xlink:href="#13" y="13.026"/><use xlink:href="#9" y="15.197"/><use xlink:href="#10" y="17.368"/><use xlink:href="#11" y="19.539"/><use xlink:href="#14" y="21.71"/><use xlink:href="#15" y="26.052"/><use xlink:href="#16" y="28.223"/><use xlink:href="#17" y="30.394"/><use xlink:href="#18" y="32.565"/><use xlink:href="#19" y="34.736"/><use xlink:href="#20" y="36.907"/><use xlink:href="#21" y="39.078"/><use xlink:href="#22" y="41.249"/><use xlink:href="#23" y="43.42"/><use xlink:href="#24" y="45.591"/><use xlink:href="#25" y="47.762"/><use xlink:href="#26" y="49.933"/><use xlink:href="#27" y="52.104"/><use xlink:href="#28" y="54.275"/><use xlink:href="#29" y="56.446"/><use xlink:href="#30" y="58.617"/><use xlink:href="#31" y="60.788"/><use xlink:href="#32" y="62.959"/><use xlink:href="#33" y="65.13"/><use xlink:href="#34" y="67.301"/><use xlink:href="#35" y="69.472"/><use xlink:href="#36" y="71.643"/><use xlink:href="#1" y="73.814"/></svg><svg x="3744"><use xlink:href="#a"/><use xlink:href="#b" x="-.004" y="75.96"/><use xlink:href="#2"/><use xlink:href="#3" y="2.171"/><use xlink:href="#9" y="4.342"/><use xlink:href="#10" y="6.513"/><use xlink:href="#11" y="8.684"/><use xlink:href="#12" y="10.855"/><use xlink:href="#13" y="13.026"/><use xlink:href="#9" y="15.197"/><use xlink:href="#10" y="17.368"/><use xlink:href="#11" y="19.539"/><use xlink:href="#14" y="21.71"/><use xlink:href="#15" y="26.052"/><use xlink:href="#16" y="28.223"/><use xlink:href="#17" y="30.394"/><use xlink:href="#18" y="32.565"/><use xlink:href="#19" y="34.736"/><use xlink:href="#20" y="36.907"/><use xlink:href="#21" y="39.078"/><use xlink:href="#22" y="41.249"/><use xlink:href="#23" y="43.42"/><use xlink:href="#24" y="45.591"/><use xlink:href="#25" y="47.762"/><use xlink:href="#26" y="49.933"/><use xlink:href="#27" y="52.104"/><use xlink:href="#28" y="54.275"/><use xlink:href="#29" y="56.446"/><use xlink:href="#30" y="58.617"/><use xlink:href="#31" y="60.788"/><use xlink:href="#32" y="62.959"/><use xlink:href="#33" y="65.13"/><use xlink:href="#34" y="67.301"/><use xlink:href="#35" y="69.472"/><use xlink:href="#36" y="71.643"/><text y="75.484" class="f">squares</text><text x="8.016" y="75.484" class="f">$exit</text></svg></svg></g></g></svg></svg>