<svg xmlns="http://www.w3.org/2000/svg" xmlns:xlink="http://www.w3.org/1999/xlink" width="640" height="472.49"><rect width="640" height="472.49" rx="5" ry="5" class="a"/><svg y="0%" x="0%"><circle cx="20" cy="20" r="6" fill="#ff5f58"/><circle cx="40" cy="20" r="6" fill="#ffbd2e"/><circle cx="60" cy="20" r="6" fill="#18c132"/></svg><svg height="412.49" viewBox="0 0 60 41.249" width="600" x="15" xmlns="http://www.w3.org/2000/svg" xmlns:xlink="http://www.w3.org/1999/xlink" y="50"><style>@keyframes i{0%{transform:translateX(0)}.1%{transform:translateX(-60px)}6.4%{transform:translateX(-120px)}7.5%{transform:translateX(-180px)}9.3%{transform:translateX(-240px)}10.8%{transform:translateX(-300px)}11.9%{transform:translateX(-360px)}12%{transform:translateX(-420px)}15.3%{transform:translateX(-480px)}21.2%{transform:translateX(-540px)}22.6%{transform:translateX(-600px)}24.9%{transform:translateX(-660px)}25.6%{transform:translateX(-720px)}27%{transform:translateX(-780px)}28%{transform:translateX(-840px)}30.8%{transform:translateX(-960px)}54.8%{transform:translateX(-1020px)}57.5%{transform:translateX(-1080px)}59.7%{transform:translateX(-1140px)}62.3%{transform:translateX(-1320px)}to{transform:translateX(-1380px)}}.a{fill:#000}.f{fill:#28fe14;white-space:pre}</style><g font-family="Monaco,Consolas,Menlo,'Bitstream Vera Sans Mono','Powerline Symbols',monospace" font-size="1.67"><defs><symbol id="1"><text y="1.67" class="f">greetings3</text><text x="11.022" y="1.67" class="f">$</text></symbol><symbol id="2"><text y="1.67" class="f">greetings3</text><text x="11.022" y="1.67" class="f">$make</text></symbol><symbol id="3"><text y="1.67" class="f">g++</text><text x="4.008" y="1.67" class="f">-o</text><text x="7.014" y="1.67" class="f">main</text><text x="12.024" y="1.67" class="f">main.cpp</text></symbol><symbol id="4"><text y="1.67" class="f">greetings3</text><text x="11.022" y="1.67" class="f">$./main</text></symbol><symbol id="5"><text y="1.67" class="f">Please</text><text x="7.014" y="1.67" class="f">enter</text><text x="13.026" y="1.67" class="f">your</text><text x="18.036" y="1.67" class="f">first</text><text x="24.048" y="1.67" class="f">name:</text><text x="30.06" y="1.67" class="f">Dan</text></symbol><symbol id="6"><text y="1.67" class="f">***********************</text></symbol><symbol id="7"><text y="1.67" class="f">*</text><text x="22.044" y="1.67" class="f">*</text></symbol><symbol id="8"><text y="1.67" class="f">*</text><text x="6.012" y="1.67" class="f">Hello,</text><text x="13.026" y="1.67" class="f">Dan!</text><text x="22.044" y="1.67" class="f">*</text></symbol><symbol id="a"><path fill="transparent" d="M0 0h60v20H0z"/></symbol><symbol id="b"><path fill="#38fe27" d="M0 0h1.102v2.171H0z"/></symbol></defs><path class="a" d="M0 0h60v41.249H0z"/><g style="animation-duration:13.250096s;animation-iteration-count:infinite;animation-name:i;animation-timing-function:steps(1,end)"><svg width="1440"><svg><use xlink:href="#a"/><use xlink:href="#b" x="-.004"/></svg><svg x="60"><use xlink:href="#a"/><use xlink:href="#b" x="11.996"/><use xlink:href="#1"/></svg><svg x="120"><use xlink:href="#a"/><use xlink:href="#b" x="12.996"/><text y="1.67" class="f">greetings3</text><text x="11.022" y="1.67" class="f">$m</text></svg><svg x="180"><use xlink:href="#a"/><use xlink:href="#b" x="13.996"/><text y="1.67" class="f">greetings3</text><text x="11.022" y="1.67" class="f">$ma</text></svg><svg x="240"><use xlink:href="#a"/><use xlink:href="#b" x="14.996"/><text y="1.67" class="f">greetings3</text><text x="11.022" y="1.67" class="f">$mak</text></svg><svg x="300"><use xlink:href="#a"/><use xlink:href="#b" x="15.996"/><use xlink:href="#2"/></svg><svg x="360"><use xlink:href="#a"/><use xlink:href="#b" x="-.004" y="2.146"/><use xlink:href="#2"/></svg><svg x="420"><use xlink:href="#a"/><use xlink:href="#b" x="-.004" y="4.317"/><use xlink:href="#2"/><use xlink:href="#3" y="2.171"/></svg><svg x="480"><use xlink:href="#a"/><use xlink:href="#b" x="11.996" y="4.317"/><use xlink:href="#2"/><use xlink:href="#3" y="2.171"/><use xlink:href="#1" y="4.342"/></svg><svg x="540"><use xlink:href="#a"/><use xlink:href="#b" x="12.996" y="4.317"/><use xlink:href="#2"/><use xlink:href="#3" y="2.171"/><text y="6.012" class="f">greetings3</text><text x="11.022" y="6.012" class="f">$.</text></svg><svg x="600"><use xlink:href="#a"/><use xlink:href="#b" x="13.996" y="4.317"/><use xlink:href="#2"/><use xlink:href="#3" y="2.171"/><text y="6.012" class="f">greetings3</text><text x="11.022" y="6.012" class="f">$./</text></svg><svg x="660"><use xlink:href="#a"/><use xlink:href="#b" x="14.996" y="4.317"/><use xlink:href="#2"/><use xlink:href="#3" y="2.171"/><text y="6.012" class="f">greetings3</text><text x="11.022" y="6.012" class="f">$./m</text></svg><svg x="720"><use xlink:href="#a"/><use xlink:href="#b" x="15.996" y="4.317"/><use xlink:href="#2"/><use xlink:href="#3" y="2.171"/><text y="6.012" class="f">greetings3</text><text x="11.022" y="6.012" class="f">$./ma</text></svg><svg x="780"><use xlink:href="#a"/><use xlink:href="#b" x="16.996" y="4.317"/><use xlink:href="#2"/><use xlink:href="#3" y="2.171"/><text y="6.012" class="f">greetings3</text><text x="11.022" y="6.012" class="f">$./mai</text></svg><svg x="840"><use xlink:href="#a"/><use xlink:href="#b" x="17.996" y="4.317"/><use xlink:href="#2"/><use xlink:href="#3" y="2.171"/><use xlink:href="#4" y="4.342"/></svg><svg x="900"><use xlink:href="#a"/><use xlink:href="#b" x="-.004" y="6.488"/><use xlink:href="#2"/><use xlink:href="#3" y="2.171"/><use xlink:href="#4" y="4.342"/></svg><svg x="960"><use xlink:href="#a"/><use xlink:href="#b" x="29.996" y="6.488"/><use xlink:href="#2"/><use xlink:href="#3" y="2.171"/><use xlink:href="#4" y="4.342"/><text y="8.183" class="f">Please</text><text x="7.014" y="8.183" class="f">enter</text><text x="13.026" y="8.183" class="f">your</text><text x="18.036" y="8.183" class="f">first</text><text x="24.048" y="8.183" class="f">name:</text></svg><svg x="1020"><use xlink:href="#a"/><use xlink:href="#b" x="30.996" y="6.488"/><use xlink:href="#2"/><use xlink:href="#3" y="2.171"/><use xlink:href="#4" y="4.342"/><text y="8.183" class="f">Please</text><text x="7.014" y="8.183" class="f">enter</text><text x="13.026" y="8.183" class="f">your</text><text x="18.036" y="8.183" class="f">first</text><text x="24.048" y="8.183" class="f">name:</text><text x="30.06" y="8.183" class="f">D</text></svg><svg x="1080"><use xlink:href="#a"/><use xlink:href="#b" x="31.996" y="6.488"/><use xlink:href="#2"/><use xlink:href="#3" y="2.171"/><use xlink:href="#4" y="4.342"/><text y="8.183" class="f">Please</text><text x="7.014" y="8.183" class="f">enter</text><text x="13.026" y="8.183" class="f">your</text><text x="18.036" y="8.183" class="f">first</text><text x="24.048" y="8.183" class="f">name:</text><text x="30.06" y="8.183" class="f">Da</text></svg><svg x="1140"><use xlink:href="#a"/><use xlink:href="#b" x="32.996" y="6.488"/><use xlink:href="#2"/><use xlink:href="#3" y="2.171"/><use xlink:href="#4" y="4.342"/><use xlink:href="#5" y="6.513"/></svg><svg x="1200"><use xlink:href="#a"/><use xlink:href="#b" x="-.004" y="8.659"/><use xlink:href="#2"/><use xlink:href="#3" y="2.171"/><use xlink:href="#4" y="4.342"/><use xlink:href="#5" y="6.513"/></svg><svg x="1260"><use xlink:href="#a"/><use xlink:href="#b" x="-.004" y="39.053"/><use xlink:href="#2"/><use xlink:href="#3" y="2.171"/><use xlink:href="#4" y="4.342"/><use xlink:href="#5" y="6.513"/><use xlink:href="#6" y="10.855"/><use xlink:href="#7" y="13.026"/><use xlink:href="#7" y="15.197"/><use xlink:href="#7" y="17.368"/><use xlink:href="#7" y="19.539"/><use xlink:href="#7" y="21.71"/><use xlink:href="#8" y="23.881"/><use xlink:href="#7" y="26.052"/><use xlink:href="#7" y="28.223"/><use xlink:href="#7" y="30.394"/><use xlink:href="#7" y="32.565"/><use xlink:href="#7" y="34.736"/><use xlink:href="#6" y="36.907"/></svg><svg x="1320"><use xlink:href="#a"/><use xlink:href="#b" x="11.996" y="39.053"/><use xlink:href="#2"/><use xlink:href="#3" y="2.171"/><use xlink:href="#4" y="4.342"/><use xlink:href="#5" y="6.513"/><use xlink:href="#6" y="10.855"/><use xlink:href="#7" y="13.026"/><use xlink:href="#7" y="15.197"/><use xlink:href="#7" y="17.368"/><use xlink:href="#7" y="19.539"/><use xlink:href="#7" y="21.71"/><use xlink:href="#8" y="23.881"/><use xlink:href="#7" y="26.052"/><use xlink:href="#7" y="28.223"/><use xlink:href="#7" y="30.394"/><use xlink:href="#7" y="32.565"/><use xlink:href="#7" y="34.736"/><use xlink:href="#6" y="36.907"/><use xlink:href="#1" y="39.078"/></svg><svg x="1380"><use xlink:href="#a"/><use xlink:href="#b" x="-.004" y="41.224"/><use xlink:href="#2"/><use xlink:href="#3" y="2.171"/><use xlink:href="#4" y="4.342"/><use xlink:href="#5" y="6.513"/><use xlink:href="#6" y="10.855"/><use xlink:href="#7" y="13.026"/><use xlink:href="#7" y="15.197"/><use xlink:href="#7" y="17.368"/><use xlink:href="#7" y="19.539"/><use xlink:href="#7" y="21.71"/><use xlink:href="#8" y="23.881"/><use xlink:href="#7" y="26.052"/><use xlink:href="#7" y="28.223"/><use xlink:href="#7" y="30.394"/><use xlink:href="#7" y="32.565"/><use xlink:href="#7" y="34.736"/><use xlink:href="#6" y="36.907"/><text y="40.748" class="f">greetings3</text><text x="11.022" y="40.748" class="f">$exit</text></svg></svg></g></g></svg></svg>