<svg xmlns="http://www.w3.org/2000/svg" xmlns:xlink="http://www.w3.org/1999/xlink" width="1000" height="407.36"><rect width="1000" height="407.36" rx="5" ry="5" class="a"/><svg y="0%" x="0%"><circle cx="20" cy="20" r="6" fill="#ff5f58"/><circle cx="40" cy="20" r="6" fill="#ffbd2e"/><circle cx="60" cy="20" r="6" fill="#18c132"/></svg><svg height="347.36" viewBox="0 0 96 34.736" width="960" x="15" xmlns="http://www.w3.org/2000/svg" xmlns:xlink="http://www.w3.org/1999/xlink" y="50"><style>@keyframes i{0%{transform:translateX(0)}.1%{transform:translateX(-96px)}5.9%{transform:translateX(-192px)}6.6%{transform:translateX(-288px)}8.1%{transform:translateX(-384px)}9.3%{transform:translateX(-480px)}10.5%{transform:translateX(-576px)}10.6%{transform:translateX(-672px)}13.4%{transform:translateX(-768px)}16.8%{transform:translateX(-864px)}18.2%{transform:translateX(-960px)}20.3%{transform:translateX(-1056px)}21%{transform:translateX(-1152px)}22.2%{transform:translateX(-1248px)}23.3%{transform:translateX(-1344px)}24.9%{transform:translateX(-1536px)}38.5%{transform:translateX(-1632px)}42.2%{transform:translateX(-1728px)}43.7%{transform:translateX(-1824px)}45.8%{transform:translateX(-1920px)}47.5%{transform:translateX(-2016px)}50.8%{transform:translateX(-2112px)}53%{transform:translateX(-2208px)}55.9%{transform:translateX(-2304px)}58.7%{transform:translateX(-2400px)}68.8%{transform:translateX(-2688px)}to{transform:translateX(-2784px)}}.a{fill:#000}.f{fill:#28fe14;white-space:pre}</style><g font-family="Monaco,Consolas,Menlo,'Bitstream Vera Sans Mono','Powerline Symbols',monospace" font-size="1.67"><defs><symbol id="1"><text y="1.67" class="f">greetings4</text><text x="11.022" y="1.67" class="f">$</text></symbol><symbol id="2"><text y="1.67" class="f">greetings4</text><text x="11.022" y="1.67" class="f">$make</text></symbol><symbol id="3"><text y="1.67" class="f">g++</text><text x="4.008" y="1.67" class="f">-o</text><text x="7.014" y="1.67" class="f">main</text><text x="12.024" y="1.67" class="f">main.cpp</text></symbol><symbol id="4"><text y="1.67" class="f">greetings4</text><text x="11.022" y="1.67" class="f">$./main</text></symbol><symbol id="5"><text y="1.67" class="f">Please</text><text x="7.014" y="1.67" class="f">enter</text><text x="13.026" y="1.67" class="f">your</text><text x="18.036" y="1.67" class="f">first</text><text x="24.048" y="1.67" class="f">name:</text><text x="30.06" y="1.67" class="f">Alexander</text></symbol><symbol id="6"><text y="1.67" class="f">*************************</text></symbol><symbol id="7"><text y="1.67" class="f">*</text><text x="24.048" y="1.67" class="f">*</text></symbol><symbol id="8"><text y="1.67" class="f">*</text><text x="4.008" y="1.67" class="f">Hello,</text><text x="11.022" y="1.67" class="f">Alexander!</text><text x="24.048" y="1.67" class="f">*</text></symbol><symbol id="a"><path fill="transparent" d="M0 0h96v17H0z"/></symbol><symbol id="b"><path fill="#38fe27" d="M0 0h1.102v2.171H0z"/></symbol></defs><path class="a" d="M0 0h96v34.736H0z"/><g style="animation-duration:16.007816s;animation-iteration-count:infinite;animation-name:i;animation-timing-function:steps(1,end)"><svg width="2880"><svg><use xlink:href="#a"/><use xlink:href="#b" x="-.004"/></svg><svg x="96"><use xlink:href="#a"/><use xlink:href="#b" x="11.996"/><use xlink:href="#1"/></svg><svg x="192"><use xlink:href="#a"/><use xlink:href="#b" x="12.996"/><text y="1.67" class="f">greetings4</text><text x="11.022" y="1.67" class="f">$m</text></svg><svg x="288"><use xlink:href="#a"/><use xlink:href="#b" x="13.996"/><text y="1.67" class="f">greetings4</text><text x="11.022" y="1.67" class="f">$ma</text></svg><svg x="384"><use xlink:href="#a"/><use xlink:href="#b" x="14.996"/><text y="1.67" class="f">greetings4</text><text x="11.022" y="1.67" class="f">$mak</text></svg><svg x="480"><use xlink:href="#a"/><use xlink:href="#b" x="15.996"/><use xlink:href="#2"/></svg><svg x="576"><use xlink:href="#a"/><use xlink:href="#b" x="-.004" y="2.146"/><use xlink:href="#2"/></svg><svg x="672"><use xlink:href="#a"/><use xlink:href="#b" x="-.004" y="4.317"/><use xlink:href="#2"/><use xlink:href="#3" y="2.171"/></svg><svg x="768"><use xlink:href="#a"/><use xlink:href="#b" x="11.996" y="4.317"/><use xlink:href="#2"/><use xlink:href="#3" y="2.171"/><use xlink:href="#1" y="4.342"/></svg><svg x="864"><use xlink:href="#a"/><use xlink:href="#b" x="12.996" y="4.317"/><use xlink:href="#2"/><use xlink:href="#3" y="2.171"/><text y="6.012" class="f">greetings4</text><text x="11.022" y="6.012" class="f">$.</text></svg><svg x="960"><use xlink:href="#a"/><use xlink:href="#b" x="13.996" y="4.317"/><use xlink:href="#2"/><use xlink:href="#3" y="2.171"/><text y="6.012" class="f">greetings4</text><text x="11.022" y="6.012" class="f">$./</text></svg><svg x="1056"><use xlink:href="#a"/><use xlink:href="#b" x="14.996" y="4.317"/><use xlink:href="#2"/><use xlink:href="#3" y="2.171"/><text y="6.012" class="f">greetings4</text><text x="11.022" y="6.012" class="f">$./m</text></svg><svg x="1152"><use xlink:href="#a"/><use xlink:href="#b" x="15.996" y="4.317"/><use xlink:href="#2"/><use xlink:href="#3" y="2.171"/><text y="6.012" class="f">greetings4</text><text x="11.022" y="6.012" class="f">$./ma</text></svg><svg x="1248"><use xlink:href="#a"/><use xlink:href="#b" x="16.996" y="4.317"/><use xlink:href="#2"/><use xlink:href="#3" y="2.171"/><text y="6.012" class="f">greetings4</text><text x="11.022" y="6.012" class="f">$./mai</text></svg><svg x="1344"><use xlink:href="#a"/><use xlink:href="#b" x="17.996" y="4.317"/><use xlink:href="#2"/><use xlink:href="#3" y="2.171"/><use xlink:href="#4" y="4.342"/></svg><svg x="1440"><use xlink:href="#a"/><use xlink:href="#b" x="-.004" y="6.488"/><use xlink:href="#2"/><use xlink:href="#3" y="2.171"/><use xlink:href="#4" y="4.342"/></svg><svg x="1536"><use xlink:href="#a"/><use xlink:href="#b" x="29.996" y="6.488"/><use xlink:href="#2"/><use xlink:href="#3" y="2.171"/><use xlink:href="#4" y="4.342"/><text y="8.183" class="f">Please</text><text x="7.014" y="8.183" class="f">enter</text><text x="13.026" y="8.183" class="f">your</text><text x="18.036" y="8.183" class="f">first</text><text x="24.048" y="8.183" class="f">name:</text></svg><svg x="1632"><use xlink:href="#a"/><use xlink:href="#b" x="30.996" y="6.488"/><use xlink:href="#2"/><use xlink:href="#3" y="2.171"/><use xlink:href="#4" y="4.342"/><text y="8.183" class="f">Please</text><text x="7.014" y="8.183" class="f">enter</text><text x="13.026" y="8.183" class="f">your</text><text x="18.036" y="8.183" class="f">first</text><text x="24.048" y="8.183" class="f">name:</text><text x="30.06" y="8.183" class="f">A</text></svg><svg x="1728"><use xlink:href="#a"/><use xlink:href="#b" x="31.996" y="6.488"/><use xlink:href="#2"/><use xlink:href="#3" y="2.171"/><use xlink:href="#4" y="4.342"/><text y="8.183" class="f">Please</text><text x="7.014" y="8.183" class="f">enter</text><text x="13.026" y="8.183" class="f">your</text><text x="18.036" y="8.183" class="f">first</text><text x="24.048" y="8.183" class="f">name:</text><text x="30.06" y="8.183" class="f">Al</text></svg><svg x="1824"><use xlink:href="#a"/><use xlink:href="#b" x="32.996" y="6.488"/><use xlink:href="#2"/><use xlink:href="#3" y="2.171"/><use xlink:href="#4" y="4.342"/><text y="8.183" class="f">Please</text><text x="7.014" y="8.183" class="f">enter</text><text x="13.026" y="8.183" class="f">your</text><text x="18.036" y="8.183" class="f">first</text><text x="24.048" y="8.183" class="f">name:</text><text x="30.06" y="8.183" class="f">Ale</text></svg><svg x="1920"><use xlink:href="#a"/><use xlink:href="#b" x="33.996" y="6.488"/><use xlink:href="#2"/><use xlink:href="#3" y="2.171"/><use xlink:href="#4" y="4.342"/><text y="8.183" class="f">Please</text><text x="7.014" y="8.183" class="f">enter</text><text x="13.026" y="8.183" class="f">your</text><text x="18.036" y="8.183" class="f">first</text><text x="24.048" y="8.183" class="f">name:</text><text x="30.06" y="8.183" class="f">Alex</text></svg><svg x="2016"><use xlink:href="#a"/><use xlink:href="#b" x="34.996" y="6.488"/><use xlink:href="#2"/><use xlink:href="#3" y="2.171"/><use xlink:href="#4" y="4.342"/><text y="8.183" class="f">Please</text><text x="7.014" y="8.183" class="f">enter</text><text x="13.026" y="8.183" class="f">your</text><text x="18.036" y="8.183" class="f">first</text><text x="24.048" y="8.183" class="f">name:</text><text x="30.06" y="8.183" class="f">Alexa</text></svg><svg x="2112"><use xlink:href="#a"/><use xlink:href="#b" x="35.996" y="6.488"/><use xlink:href="#2"/><use xlink:href="#3" y="2.171"/><use xlink:href="#4" y="4.342"/><text y="8.183" class="f">Please</text><text x="7.014" y="8.183" class="f">enter</text><text x="13.026" y="8.183" class="f">your</text><text x="18.036" y="8.183" class="f">first</text><text x="24.048" y="8.183" class="f">name:</text><text x="30.06" y="8.183" class="f">Alexan</text></svg><svg x="2208"><use xlink:href="#a"/><use xlink:href="#b" x="36.996" y="6.488"/><use xlink:href="#2"/><use xlink:href="#3" y="2.171"/><use xlink:href="#4" y="4.342"/><text y="8.183" class="f">Please</text><text x="7.014" y="8.183" class="f">enter</text><text x="13.026" y="8.183" class="f">your</text><text x="18.036" y="8.183" class="f">first</text><text x="24.048" y="8.183" class="f">name:</text><text x="30.06" y="8.183" class="f">Alexand</text></svg><svg x="2304"><use xlink:href="#a"/><use xlink:href="#b" x="37.996" y="6.488"/><use xlink:href="#2"/><use xlink:href="#3" y="2.171"/><use xlink:href="#4" y="4.342"/><text y="8.183" class="f">Please</text><text x="7.014" y="8.183" class="f">enter</text><text x="13.026" y="8.183" class="f">your</text><text x="18.036" y="8.183" class="f">first</text><text x="24.048" y="8.183" class="f">name:</text><text x="30.06" y="8.183" class="f">Alexande</text></svg><svg x="2400"><use xlink:href="#a"/><use xlink:href="#b" x="38.996" y="6.488"/><use xlink:href="#2"/><use xlink:href="#3" y="2.171"/><use xlink:href="#4" y="4.342"/><use xlink:href="#5" y="6.513"/></svg><svg x="2496"><use xlink:href="#a"/><use xlink:href="#b" x="-.004" y="13.001"/><use xlink:href="#2"/><use xlink:href="#3" y="2.171"/><use xlink:href="#4" y="4.342"/><use xlink:href="#5" y="6.513"/><use xlink:href="#6" y="10.855"/></svg><svg x="2592"><use xlink:href="#a"/><use xlink:href="#b" x="-.004" y="30.369"/><use xlink:href="#2"/><use xlink:href="#3" y="2.171"/><use xlink:href="#4" y="4.342"/><use xlink:href="#5" y="6.513"/><use xlink:href="#6" y="10.855"/><use xlink:href="#7" y="13.026"/><use xlink:href="#7" y="15.197"/><use xlink:href="#7" y="17.368"/><use xlink:href="#8" y="19.539"/><use xlink:href="#7" y="21.71"/><use xlink:href="#7" y="23.881"/><use xlink:href="#7" y="26.052"/><use xlink:href="#6" y="28.223"/></svg><svg x="2688"><use xlink:href="#a"/><use xlink:href="#b" x="11.996" y="30.369"/><use xlink:href="#2"/><use xlink:href="#3" y="2.171"/><use xlink:href="#4" y="4.342"/><use xlink:href="#5" y="6.513"/><use xlink:href="#6" y="10.855"/><use xlink:href="#7" y="13.026"/><use xlink:href="#7" y="15.197"/><use xlink:href="#7" y="17.368"/><use xlink:href="#8" y="19.539"/><use xlink:href="#7" y="21.71"/><use xlink:href="#7" y="23.881"/><use xlink:href="#7" y="26.052"/><use xlink:href="#6" y="28.223"/><use xlink:href="#1" y="30.394"/></svg><svg x="2784"><use xlink:href="#a"/><use xlink:href="#b" x="-.004" y="32.54"/><use xlink:href="#2"/><use xlink:href="#3" y="2.171"/><use xlink:href="#4" y="4.342"/><use xlink:href="#5" y="6.513"/><use xlink:href="#6" y="10.855"/><use xlink:href="#7" y="13.026"/><use xlink:href="#7" y="15.197"/><use xlink:href="#7" y="17.368"/><use xlink:href="#8" y="19.539"/><use xlink:href="#7" y="21.71"/><use xlink:href="#7" y="23.881"/><use xlink:href="#7" y="26.052"/><use xlink:href="#6" y="28.223"/><text y="32.064" class="f">greetings4</text><text x="11.022" y="32.064" class="f">$exit</text></svg></svg></g></g></svg></svg>