<svg xmlns="http://www.w3.org/2000/svg" xmlns:xlink="http://www.w3.org/1999/xlink" width="840" height="581.04"><rect width="840" height="581.04" rx="5" ry="5" class="a"/><svg y="0%" x="0%"><circle cx="20" cy="20" r="6" fill="#ff5f58"/><circle cx="40" cy="20" r="6" fill="#ffbd2e"/><circle cx="60" cy="20" r="6" fill="#18c132"/></svg><svg height="521.04" viewBox="0 0 80 52.104" width="800" x="15" xmlns="http://www.w3.org/2000/svg" xmlns:xlink="http://www.w3.org/1999/xlink" y="50"><style>@keyframes i{0%{transform:translateX(0)}.1%{transform:translateX(-80px)}6.4%{transform:translateX(-160px)}7.5%{transform:translateX(-240px)}9.3%{transform:translateX(-320px)}10.8%{transform:translateX(-400px)}11.9%{transform:translateX(-480px)}12%{transform:translateX(-560px)}15.3%{transform:translateX(-640px)}21.2%{transform:translateX(-720px)}22.6%{transform:translateX(-800px)}24.9%{transform:translateX(-880px)}25.6%{transform:translateX(-960px)}27%{transform:translateX(-1040px)}28%{transform:translateX(-1120px)}30.8%{transform:translateX(-1280px)}54.8%{transform:translateX(-1360px)}57.5%{transform:translateX(-1440px)}59.7%{transform:translateX(-1520px)}62.3%{transform:translateX(-1760px)}to{transform:translateX(-1840px)}}.a{fill:#000}.f{fill:#28fe14;white-space:pre}</style><g font-family="Monaco,Consolas,Menlo,'Bitstream Vera Sans Mono','Powerline Symbols',monospace" font-size="1.67"><defs><symbol id="1"><text y="1.67" class="f">greetings3</text><text x="11.022" y="1.67" class="f">$</text></symbol><symbol id="2"><text y="1.67" class="f">greetings3</text><text x="11.022" y="1.67" class="f">$make</text></symbol><symbol id="3"><text y="1.67" class="f">g++</text><text x="4.008" y="1.67" class="f">-o</text><text x="7.014" y="1.67" class="f">main</text><text x="12.024" y="1.67" class="f">main.cpp</text></symbol><symbol id="4"><text y="1.67" class="f">greetings3</text><text x="11.022" y="1.67" class="f">$./main</text></symbol><symbol id="5"><text y="1.67" class="f">Please</text><text x="7.014" y="1.67" class="f">enter</text><text x="13.026" y="1.67" class="f">your</text><text x="18.036" y="1.67" class="f">first</text><text x="24.048" y="1.67" class="f">name:</text><text x="30.06" y="1.67" class="f">Dan</text></symbol><symbol id="6"><text y="1.67" class="f">***********************</text></symbol><symbol id="7"><text y="1.67" class="f">*</text><text x="22.044" y="1.67" class="f">*</text></symbol><symbol id="8"><text y="1.67" class="f">*</text><text x="6.012" y="1.67" class="f">Hello,</text><text x="13.026" y="1.67" class="f">Dan!</text><text x="22.044" y="1.67" class="f">*</text></symbol><symbol id="a"><path fill="transparent" d="M0 0h80v25H0z"/></symbol><symbol id="b"><path fill="#38fe27" d="M0 0h1.102v2.171H0z"/></symbol></defs><path class="a" d="M0 0h80v52.104H0z"/><g style="animation-duration:13.250096s;animation-iteration-count:infinite;animation-name:i;animation-timing-function:steps(1,end)"><svg width="1920"><svg><use xlink:href="#a"/><use xlink:href="#b" x="-.004"/></svg><svg x="80"><use xlink:href="#a"/><use xlink:href="#b" x="11.996"/><use xlink:href="#1"/></svg><svg x="160"><use xlink:href="#a"/><use xlink:href="#b" x="12.996"/><text y="1.67" class="f">greetings3</text><text x="11.022" y="1.67" class="f">$m</text></svg><svg x="240"><use xlink:href="#a"/><use xlink:href="#b" x="13.996"/><text y="1.67" class="f">greetings3</text><text x="11.022" y="1.67" class="f">$ma</text></svg><svg x="320"><use xlink:href="#a"/><use xlink:href="#b" x="14.996"/><text y="1.67" class="f">greetings3</text><text x="11.022" y="1.67" class="f">$mak</text></svg><svg x="400"><use xlink:href="#a"/><use xlink:href="#b" x="15.996"/><use xlink:href="#2"/></svg><svg x="480"><use xlink:href="#a"/><use xlink:href="#b" x="-.004" y="2.146"/><use xlink:href="#2"/></svg><svg x="560"><use xlink:href="#a"/><use xlink:href="#b" x="-.004" y="4.317"/><use xlink:href="#2"/><use xlink:href="#3" y="2.171"/></svg><svg x="640"><use xlink:href="#a"/><use xlink:href="#b" x="11.996" y="4.317"/><use xlink:href="#2"/><use xlink:href="#3" y="2.171"/><use xlink:href="#1" y="4.342"/></svg><svg x="720"><use xlink:href="#a"/><use xlink:href="#b" x="12.996" y="4.317"/><use xlink:href="#2"/><use xlink:href="#3" y="2.171"/><text y="6.012" class="f">greetings3</text><text x="11.022" y="6.012" class="f">$.</text></svg><svg x="800"><use xlink:href="#a"/><use xlink:href="#b" x="13.996" y="4.317"/><use xlink:href="#2"/><use xlink:href="#3" y="2.171"/><text y="6.012" class="f">greetings3</text><text x="11.022" y="6.012" class="f">$./</text></svg><svg x="880"><use xlink:href="#a"/><use xlink:href="#b" x="14.996" y="4.317"/><use xlink:href="#2"/><use xlink:href="#3" y="2.171"/><text y="6.012" class="f">greetings3</text><text x="11.022" y="6.012" class="f">$./m</text></svg><svg x="960"><use xlink:href="#a"/><use xlink:href="#b" x="15.996" y="4.317"/><use xlink:href="#2"/><use xlink:href="#3" y="2.171"/><text y="6.012" class="f">greetings3</text><text x="11.022" y="6.012" class="f">$./ma</text></svg><svg x="1040"><use xlink:href="#a"/><use xlink:href="#b" x="16.996" y="4.317"/><use xlink:href="#2"/><use xlink:href="#3" y="2.171"/><text y="6.012" class="f">greetings3</text><text x="11.022" y="6.012" class="f">$./mai</text></svg><svg x="1120"><use xlink:href="#a"/><use xlink:href="#b" x="17.996" y="4.317"/><use xlink:href="#2"/><use xlink:href="#3" y="2.171"/><use xlink:href="#4" y="4.342"/></svg><svg x="1200"><use xlink:href="#a"/><use xlink:href="#b" x="-.004" y="6.488"/><use xlink:href="#2"/><use xlink:href="#3" y="2.171"/><use xlink:href="#4" y="4.342"/></svg><svg x="1280"><use xlink:href="#a"/><use xlink:href="#b" x="29.996" y="6.488"/><use xlink:href="#2"/><use xlink:href="#3" y="2.171"/><use xlink:href="#4" y="4.342"/><text y="8.183" class="f">Please</text><text x="7.014" y="8.183" class="f">enter</text><text x="13.026" y="8.183" class="f">your</text><text x="18.036" y="8.183" class="f">first</text><text x="24.048" y="8.183" class="f">name:</text></svg><svg x="1360"><use xlink:href="#a"/><use xlink:href="#b" x="30.996" y="6.488"/><use xlink:href="#2"/><use xlink:href="#3" y="2.171"/><use xlink:href="#4" y="4.342"/><text y="8.183" class="f">Please</text><text x="7.014" y="8.183" class="f">enter</text><text x="13.026" y="8.183" class="f">your</text><text x="18.036" y="8.183" class="f">first</text><text x="24.048" y="8.183" class="f">name:</text><text x="30.06" y="8.183" class="f">D</text></svg><svg x="1440"><use xlink:href="#a"/><use xlink:href="#b" x="31.996" y="6.488"/><use xlink:href="#2"/><use xlink:href="#3" y="2.171"/><use xlink:href="#4" y="4.342"/><text y="8.183" class="f">Please</text><text x="7.014" y="8.183" class="f">enter</text><text x="13.026" y="8.183" class="f">your</text><text x="18.036" y="8.183" class="f">first</text><text x="24.048" y="8.183" class="f">name:</text><text x="30.06" y="8.183" class="f">Da</text></svg><svg x="1520"><use xlink:href="#a"/><use xlink:href="#b" x="32.996" y="6.488"/><use xlink:href="#2"/><use xlink:href="#3" y="2.171"/><use xlink:href="#4" y="4.342"/><use xlink:href="#5" y="6.513"/></svg><svg x="1600"><use xlink:href="#a"/><use xlink:href="#b" x="-.004" y="8.659"/><use xlink:href="#2"/><use xlink:href="#3" y="2.171"/><use xlink:href="#4" y="4.342"/><use xlink:href="#5" y="6.513"/></svg><svg x="1680"><use xlink:href="#a"/><use xlink:href="#b" x="-.004" y="39.053"/><use xlink:href="#2"/><use xlink:href="#3" y="2.171"/><use xlink:href="#4" y="4.342"/><use xlink:href="#5" y="6.513"/><use xlink:href="#6" y="10.855"/><use xlink:href="#7" y="13.026"/><use xlink:href="#7" y="15.197"/><use xlink:href="#7" y="17.368"/><use xlink:href="#7" y="19.539"/><use xlink:href="#7" y="21.71"/><use xlink:href="#8" y="23.881"/><use xlink:href="#7" y="26.052"/><use xlink:href="#7" y="28.223"/><use xlink:href="#7" y="30.394"/><use xlink:href="#7" y="32.565"/><use xlink:href="#7" y="34.736"/><use xlink:href="#6" y="36.907"/></svg><svg x="1760"><use xlink:href="#a"/><use xlink:href="#b" x="11.996" y="39.053"/><use xlink:href="#2"/><use xlink:href="#3" y="2.171"/><use xlink:href="#4" y="4.342"/><use xlink:href="#5" y="6.513"/><use xlink:href="#6" y="10.855"/><use xlink:href="#7" y="13.026"/><use xlink:href="#7" y="15.197"/><use xlink:href="#7" y="17.368"/><use xlink:href="#7" y="19.539"/><use xlink:href="#7" y="21.71"/><use xlink:href="#8" y="23.881"/><use xlink:href="#7" y="26.052"/><use xlink:href="#7" y="28.223"/><use xlink:href="#7" y="30.394"/><use xlink:href="#7" y="32.565"/><use xlink:href="#7" y="34.736"/><use xlink:href="#6" y="36.907"/><use xlink:href="#1" y="39.078"/></svg><svg x="1840"><use xlink:href="#a"/><use xlink:href="#b" x="-.004" y="41.224"/><use xlink:href="#2"/><use xlink:href="#3" y="2.171"/><use xlink:href="#4" y="4.342"/><use xlink:href="#5" y="6.513"/><use xlink:href="#6" y="10.855"/><use xlink:href="#7" y="13.026"/><use xlink:href="#7" y="15.197"/><use xlink:href="#7" y="17.368"/><use xlink:href="#7" y="19.539"/><use xlink:href="#7" y="21.71"/><use xlink:href="#8" y="23.881"/><use xlink:href="#7" y="26.052"/><use xlink:href="#7" y="28.223"/><use xlink:href="#7" y="30.394"/><use xlink:href="#7" y="32.565"/><use xlink:href="#7" y="34.736"/><use xlink:href="#6" y="36.907"/><text y="40.748" class="f">greetings3</text><text x="11.022" y="40.748" class="f">$exit</text></svg></svg></g></g></svg></svg>