<svg xmlns="http://www.w3.org/2000/svg" xmlns:xlink="http://www.w3.org/1999/xlink" width="1000" height="363.94"><rect width="1000" height="363.94" rx="5" ry="5" class="a"/><svg y="0%" x="0%"><circle cx="20" cy="20" r="6" fill="#ff5f58"/><circle cx="40" cy="20" r="6" fill="#ffbd2e"/><circle cx="60" cy="20" r="6" fill="#18c132"/></svg><svg height="303.94" viewBox="0 0 96 30.394" width="960" x="15" xmlns="http://www.w3.org/2000/svg" xmlns:xlink="http://www.w3.org/1999/xlink" y="50"><style>@keyframes i{0%{transform:translateX(0)}.1%{transform:translateX(-96px)}10.8%{transform:translateX(-192px)}13.6%{transform:translateX(-288px)}15.5%{transform:translateX(-384px)}17.4%{transform:translateX(-480px)}18.6%{transform:translateX(-576px)}18.8%{transform:translateX(-672px)}22.9%{transform:translateX(-768px)}29.9%{transform:translateX(-864px)}34.1%{transform:translateX(-960px)}39.3%{transform:translateX(-1056px)}41.7%{transform:translateX(-1152px)}45.9%{transform:translateX(-1248px)}48.8%{transform:translateX(-1344px)}52%{transform:translateX(-1440px)}52.1%{transform:translateX(-1728px)}to{transform:translateX(-1824px)}}.a{fill:#000}.f{fill:#28fe14;white-space:pre}</style><g font-family="Monaco,Consolas,Menlo,'Bitstream Vera Sans Mono','Powerline Symbols',monospace" font-size="1.67"><defs><symbol id="1"><text y="1.67" class="f">triangle</text><text x="9.018" y="1.67" class="f">$</text></symbol><symbol id="2"><text y="1.67" class="f">triangle</text><text x="9.018" y="1.67" class="f">$make</text></symbol><symbol id="3"><text y="1.67" class="f">g++</text><text x="4.008" y="1.67" class="f">-o</text><text x="7.014" y="1.67" class="f">main</text><text x="12.024" y="1.67" class="f">main.cpp</text></symbol><symbol id="4"><text y="1.67" class="f">triangle</text><text x="9.018" y="1.67" class="f">$./main</text></symbol><symbol id="5"><text y="1.67" class="f">*</text></symbol><symbol id="6"><text y="1.67" class="f">**</text></symbol><symbol id="7"><text y="1.67" class="f">*</text><text x="2.004" y="1.67" class="f">*</text></symbol><symbol id="8"><text y="1.67" class="f">*</text><text x="3.006" y="1.67" class="f">*</text></symbol><symbol id="9"><text y="1.67" class="f">*</text><text x="4.008" y="1.67" class="f">*</text></symbol><symbol id="10"><text y="1.67" class="f">*</text><text x="5.01" y="1.67" class="f">*</text></symbol><symbol id="11"><text y="1.67" class="f">*</text><text x="6.012" y="1.67" class="f">*</text></symbol><symbol id="12"><text y="1.67" class="f">*</text><text x="7.014" y="1.67" class="f">*</text></symbol><symbol id="13"><text y="1.67" class="f">*</text><text x="8.016" y="1.67" class="f">*</text></symbol><symbol id="14"><text y="1.67" class="f">**********</text></symbol><symbol id="a"><path fill="transparent" d="M0 0h96v15H0z"/></symbol><symbol id="b"><path fill="#38fe27" d="M0 0h1.102v2.171H0z"/></symbol></defs><path class="a" d="M0 0h96v30.394H0z"/><g style="animation-duration:10.436522s;animation-iteration-count:infinite;animation-name:i;animation-timing-function:steps(1,end)"><svg width="1920"><svg><use xlink:href="#a"/><use xlink:href="#b" x="-.004"/></svg><svg x="96"><use xlink:href="#a"/><use xlink:href="#b" x="9.996"/><use xlink:href="#1"/></svg><svg x="192"><use xlink:href="#a"/><use xlink:href="#b" x="10.996"/><text y="1.67" class="f">triangle</text><text x="9.018" y="1.67" class="f">$m</text></svg><svg x="288"><use xlink:href="#a"/><use xlink:href="#b" x="11.996"/><text y="1.67" class="f">triangle</text><text x="9.018" y="1.67" class="f">$ma</text></svg><svg x="384"><use xlink:href="#a"/><use xlink:href="#b" x="12.996"/><text y="1.67" class="f">triangle</text><text x="9.018" y="1.67" class="f">$mak</text></svg><svg x="480"><use xlink:href="#a"/><use xlink:href="#b" x="13.996"/><use xlink:href="#2"/></svg><svg x="576"><use xlink:href="#a"/><use xlink:href="#b" x="-.004" y="2.146"/><use xlink:href="#2"/></svg><svg x="672"><use xlink:href="#a"/><use xlink:href="#b" x="-.004" y="4.317"/><use xlink:href="#2"/><use xlink:href="#3" y="2.171"/></svg><svg x="768"><use xlink:href="#a"/><use xlink:href="#b" x="9.996" y="4.317"/><use xlink:href="#2"/><use xlink:href="#3" y="2.171"/><use xlink:href="#1" y="4.342"/></svg><svg x="864"><use xlink:href="#a"/><use xlink:href="#b" x="10.996" y="4.317"/><use xlink:href="#2"/><use xlink:href="#3" y="2.171"/><text y="6.012" class="f">triangle</text><text x="9.018" y="6.012" class="f">$.</text></svg><svg x="960"><use xlink:href="#a"/><use xlink:href="#b" x="11.996" y="4.317"/><use xlink:href="#2"/><use xlink:href="#3" y="2.171"/><text y="6.012" class="f">triangle</text><text x="9.018" y="6.012" class="f">$./</text></svg><svg x="1056"><use xlink:href="#a"/><use xlink:href="#b" x="12.996" y="4.317"/><use xlink:href="#2"/><use xlink:href="#3" y="2.171"/><text y="6.012" class="f">triangle</text><text x="9.018" y="6.012" class="f">$./m</text></svg><svg x="1152"><use xlink:href="#a"/><use xlink:href="#b" x="13.996" y="4.317"/><use xlink:href="#2"/><use xlink:href="#3" y="2.171"/><text y="6.012" class="f">triangle</text><text x="9.018" y="6.012" class="f">$./ma</text></svg><svg x="1248"><use xlink:href="#a"/><use xlink:href="#b" x="14.996" y="4.317"/><use xlink:href="#2"/><use xlink:href="#3" y="2.171"/><text y="6.012" class="f">triangle</text><text x="9.018" y="6.012" class="f">$./mai</text></svg><svg x="1344"><use xlink:href="#a"/><use xlink:href="#b" x="15.996" y="4.317"/><use xlink:href="#2"/><use xlink:href="#3" y="2.171"/><use xlink:href="#4" y="4.342"/></svg><svg x="1440"><use xlink:href="#a"/><use xlink:href="#b" x="-.004" y="6.488"/><use xlink:href="#2"/><use xlink:href="#3" y="2.171"/><use xlink:href="#4" y="4.342"/></svg><svg x="1536"><use xlink:href="#a"/><use xlink:href="#b" x="-.004" y="23.856"/><use xlink:href="#2"/><use xlink:href="#3" y="2.171"/><use xlink:href="#4" y="4.342"/><use xlink:href="#5" y="6.513"/><use xlink:href="#6" y="8.684"/><use xlink:href="#7" y="10.855"/><use xlink:href="#8" y="13.026"/><use xlink:href="#9" y="15.197"/><use xlink:href="#10" y="17.368"/><use xlink:href="#11" y="19.539"/><use xlink:href="#12" y="21.71"/></svg><svg x="1632"><use xlink:href="#a"/><use xlink:href="#b" x="-.004" y="28.198"/><use xlink:href="#2"/><use xlink:href="#3" y="2.171"/><use xlink:href="#4" y="4.342"/><use xlink:href="#5" y="6.513"/><use xlink:href="#6" y="8.684"/><use xlink:href="#7" y="10.855"/><use xlink:href="#8" y="13.026"/><use xlink:href="#9" y="15.197"/><use xlink:href="#10" y="17.368"/><use xlink:href="#11" y="19.539"/><use xlink:href="#12" y="21.71"/><use xlink:href="#13" y="23.881"/><use xlink:href="#14" y="26.052"/></svg><svg x="1728"><use xlink:href="#a"/><use xlink:href="#b" x="9.996" y="28.198"/><use xlink:href="#2"/><use xlink:href="#3" y="2.171"/><use xlink:href="#4" y="4.342"/><use xlink:href="#5" y="6.513"/><use xlink:href="#6" y="8.684"/><use xlink:href="#7" y="10.855"/><use xlink:href="#8" y="13.026"/><use xlink:href="#9" y="15.197"/><use xlink:href="#10" y="17.368"/><use xlink:href="#11" y="19.539"/><use xlink:href="#12" y="21.71"/><use xlink:href="#13" y="23.881"/><use xlink:href="#14" y="26.052"/><use xlink:href="#1" y="28.223"/></svg><svg x="1824"><use xlink:href="#a"/><use xlink:href="#b" x="-.004" y="30.369"/><use xlink:href="#2"/><use xlink:href="#3" y="2.171"/><use xlink:href="#4" y="4.342"/><use xlink:href="#5" y="6.513"/><use xlink:href="#6" y="8.684"/><use xlink:href="#7" y="10.855"/><use xlink:href="#8" y="13.026"/><use xlink:href="#9" y="15.197"/><use xlink:href="#10" y="17.368"/><use xlink:href="#11" y="19.539"/><use xlink:href="#12" y="21.71"/><use xlink:href="#13" y="23.881"/><use xlink:href="#14" y="26.052"/><text y="29.893" class="f">triangle</text><text x="9.018" y="29.893" class="f">$exit</text></svg></svg></g></g></svg></svg>