<svg xmlns="http://www.w3.org/2000/svg" xmlns:xlink="http://www.w3.org/1999/xlink" width="1000" height="646.17"><rect width="1000" height="646.17" rx="5" ry="5" class="a"/><svg y="0%" x="0%"><circle cx="20" cy="20" r="6" fill="#ff5f58"/><circle cx="40" cy="20" r="6" fill="#ffbd2e"/><circle cx="60" cy="20" r="6" fill="#18c132"/></svg><svg height="586.17" viewBox="0 0 96 58.617" width="960" x="15" xmlns="http://www.w3.org/2000/svg" xmlns:xlink="http://www.w3.org/1999/xlink" y="50"><style>@keyframes i{0%{transform:translateX(0)}.08%{transform:translateX(-96px)}4.23%{transform:translateX(-192px)}4.66%{transform:translateX(-288px)}5.45%{transform:translateX(-384px)}6.07%{transform:translateX(-480px)}6.73%{transform:translateX(-576px)}6.81%{transform:translateX(-672px)}9.35%{transform:translateX(-768px)}11.56%{transform:translateX(-864px)}12.75%{transform:translateX(-960px)}14.74%{transform:translateX(-1056px)}15%{transform:translateX(-1152px)}18.58%{transform:translateX(-1248px)}19.63%{transform:translateX(-1344px)}20.27%{transform:translateX(-1440px)}20.84%{transform:translateX(-1536px)}21.25%{transform:translateX(-1632px)}22.28%{transform:translateX(-1728px)}22.34%{transform:translateX(-1824px)}22.36%{transform:translateX(-1920px)}25.12%{transform:translateX(-2016px)}25.97%{transform:translateX(-2112px)}27.11%{transform:translateX(-2208px)}28.65%{transform:translateX(-2304px)}30.02%{transform:translateX(-2400px)}30.66%{transform:translateX(-2496px)}31.68%{transform:translateX(-2592px)}32.48%{transform:translateX(-2688px)}33.59%{transform:translateX(-2784px)}33.64%{transform:translateX(-2880px)}52.71%{transform:translateX(-2976px)}64.86%{transform:translateX(-3072px)}68.77%{transform:translateX(-3168px)}76.93%{transform:translateX(-3456px)}76.94%{transform:translateX(-3552px)}to{transform:translateX(-3648px)}}.a{fill:#000}.f{fill:#28fe14;white-space:pre}</style><g font-family="Monaco,Consolas,Menlo,'Bitstream Vera Sans Mono','Powerline Symbols',monospace" font-size="1.67"><defs><symbol id="1"><text y="1.67" class="f">passing</text><text x="8.016" y="1.67" class="f">$</text></symbol><symbol id="2"><text y="1.67" class="f">passing</text><text x="8.016" y="1.67" class="f">$make</text></symbol><symbol id="3"><text y="1.67" class="f">g++</text><text x="4.008" y="1.67" class="f">-o</text><text x="7.014" y="1.67" class="f">obj/main.o</text><text x="18.036" y="1.67" class="f">-c</text><text x="21.042" y="1.67" class="f">src/main.cpp</text></symbol><symbol id="4"><text y="1.67" class="f">g++</text><text x="4.008" y="1.67" class="f">-o</text><text x="7.014" y="1.67" class="f">obj/student_info.o</text><text x="26.052" y="1.67" class="f">-c</text><text x="29.058" y="1.67" class="f">src/student_info.cpp</text></symbol><symbol id="5"><text y="1.67" class="f">g++</text><text x="4.008" y="1.67" class="f">-o</text><text x="7.014" y="1.67" class="f">obj/median.o</text><text x="20.04" y="1.67" class="f">-c</text><text x="23.046" y="1.67" class="f">src/median.cpp</text></symbol><symbol id="6"><text y="1.67" class="f">g++</text><text x="4.008" y="1.67" class="f">-o</text><text x="7.014" y="1.67" class="f">obj/grade.o</text><text x="19.038" y="1.67" class="f">-c</text><text x="22.044" y="1.67" class="f">src/grade.cpp</text></symbol><symbol id="7"><text y="1.67" class="f">g++</text><text x="4.008" y="1.67" class="f">-g</text><text x="7.014" y="1.67" class="f">-Wall</text><text x="13.026" y="1.67" class="f">-o</text><text x="16.032" y="1.67" class="f">bin/main</text><text x="25.05" y="1.67" class="f">obj/main.o</text><text x="36.072" y="1.67" class="f">obj/student_info.o</text><text x="55.11" y="1.67" class="f">obj/median.o</text><text x="68.136" y="1.67" class="f">obj/grade.o</text></symbol><symbol id="8"><text y="1.67" class="f">passing</text><text x="8.016" y="1.67" class="f">$clear</text></symbol><symbol id="9"><text y="1.67" class="f">passing</text><text x="8.016" y="1.67" class="f">$bin/main</text></symbol><symbol id="10"><text y="1.67" class="f">Please</text><text x="7.014" y="1.67" class="f">enter</text><text x="13.026" y="1.67" class="f">the</text><text x="17.034" y="1.67" class="f">records</text><text x="25.05" y="1.67" class="f">of</text><text x="28.056" y="1.67" class="f">each</text><text x="33.066" y="1.67" class="f">student</text><text x="41.082" y="1.67" class="f">(name,</text><text x="48.096" y="1.67" class="f">midterm</text><text x="56.112" y="1.67" class="f">and</text><text x="60.12" y="1.67" class="f">final</text><text x="66.132" y="1.67" class="f">exam</text><text x="71.142" y="1.67" class="f">grades,</text><text x="79.158" y="1.67" class="f">homework</text><text x="88.176" y="1.67" class="f">grades),</text></symbol><symbol id="11"><text x="1.002" y="1.67" class="f">followed</text><text x="10.02" y="1.67" class="f">by</text><text x="13.026" y="1.67" class="f">end-of-file:</text></symbol><symbol id="12"><text y="1.67" class="f">Leo</text><text x="7.014" y="1.67" class="f">64</text><text x="10.02" y="1.67" class="f">75</text><text x="13.026" y="1.67" class="f">81</text><text x="16.032" y="1.67" class="f">64</text></symbol><symbol id="13"><text y="1.67" class="f">Maddie</text><text x="7.014" y="1.67" class="f">70</text><text x="10.02" y="1.67" class="f">48</text><text x="13.026" y="1.67" class="f">61</text><text x="16.032" y="1.67" class="f">81</text></symbol><symbol id="14"><text y="1.67" class="f">Nathan</text><text x="7.014" y="1.67" class="f">85</text><text x="10.02" y="1.67" class="f">81</text><text x="13.026" y="1.67" class="f">70</text><text x="16.032" y="1.67" class="f">97</text></symbol><symbol id="15"><text y="1.67" class="f">Oscar</text><text x="7.014" y="1.67" class="f">95</text><text x="10.02" y="1.67" class="f">85</text><text x="13.026" y="1.67" class="f">81</text><text x="16.032" y="1.67" class="f">66</text><text x="19.038" y="1.67" class="f">67</text></symbol><symbol id="16"><text y="1.67" class="f">Pablo</text><text x="7.014" y="1.67" class="f">52</text><text x="10.02" y="1.67" class="f">58</text></symbol><symbol id="17"><text y="1.67" class="f">Quinn</text><text x="7.014" y="1.67" class="f">51</text><text x="10.02" y="1.67" class="f">55</text><text x="13.026" y="1.67" class="f">41</text><text x="16.032" y="1.67" class="f">35</text><text x="19.038" y="1.67" class="f">62</text></symbol><symbol id="18"><text y="1.67" class="f">Reece</text><text x="7.014" y="1.67" class="f">64</text><text x="10.02" y="1.67" class="f">52</text><text x="13.026" y="1.67" class="f">86</text><text x="16.032" y="1.67" class="f">87</text><text x="19.038" y="1.67" class="f">79</text></symbol><symbol id="19"><text y="1.67" class="f">Sally</text><text x="7.014" y="1.67" class="f">84</text><text x="10.02" y="1.67" class="f">88</text><text x="13.026" y="1.67" class="f">81</text><text x="16.032" y="1.67" class="f">96</text><text x="19.038" y="1.67" class="f">92</text></symbol><symbol id="20"><text y="1.67" class="f">Taylor</text><text x="7.014" y="1.67" class="f">71</text><text x="10.02" y="1.67" class="f">70</text></symbol><symbol id="21"><text y="1.67" class="f">^D</text></symbol><symbol id="22"><text y="1.67" class="f">Students</text><text x="9.018" y="1.67" class="f">that</text><text x="14.028" y="1.67" class="f">passed:</text></symbol><symbol id="23"><text y="1.67" class="f">Leo</text><text x="7.014" y="1.67" class="f">71.8</text></symbol><symbol id="24"><text y="1.67" class="f">Maddie</text><text x="7.014" y="1.67" class="f">61.6</text></symbol><symbol id="25"><text y="1.67" class="f">Nathan</text><text x="7.014" y="1.67" class="f">82.8</text></symbol><symbol id="26"><text y="1.67" class="f">Oscar</text><text x="7.014" y="1.67" class="f">79.8</text></symbol><symbol id="27"><text y="1.67" class="f">Reece</text><text x="7.014" y="1.67" class="f">68</text></symbol><symbol id="28"><text y="1.67" class="f">Sally</text><text x="7.014" y="1.67" class="f">88.8</text></symbol><symbol id="29"><text y="1.67" class="f">Students</text><text x="9.018" y="1.67" class="f">that</text><text x="14.028" y="1.67" class="f">failed:</text></symbol><symbol id="30"><text y="1.67" class="f">Pablo</text><text x="7.014" y="1.67" class="f">student</text><text x="15.03" y="1.67" class="f">has</text><text x="19.038" y="1.67" class="f">done</text><text x="24.048" y="1.67" class="f">no</text><text x="27.054" y="1.67" class="f">homework</text></symbol><symbol id="31"><text y="1.67" class="f">Quinn</text><text x="7.014" y="1.67" class="f">48.6</text></symbol><symbol id="32"><text y="1.67" class="f">Taylor</text><text x="7.014" y="1.67" class="f">student</text><text x="15.03" y="1.67" class="f">has</text><text x="19.038" y="1.67" class="f">done</text><text x="24.048" y="1.67" class="f">no</text><text x="27.054" y="1.67" class="f">homework</text></symbol><symbol id="a"><path fill="transparent" d="M0 0h96v28H0z"/></symbol><symbol id="b"><path fill="#38fe27" d="M0 0h1.102v2.171H0z"/></symbol></defs><path class="a" d="M0 0h96v58.617H0z"/><g style="animation-duration:21.680717s;animation-iteration-count:infinite;animation-name:i;animation-timing-function:steps(1,end)"><svg width="3744"><svg><use xlink:href="#a"/><use xlink:href="#b" x="-.004"/></svg><svg x="96"><use xlink:href="#a"/><use xlink:href="#b" x="8.996"/><use xlink:href="#1"/></svg><svg x="192"><use xlink:href="#a"/><use xlink:href="#b" x="9.996"/><text y="1.67" class="f">passing</text><text x="8.016" y="1.67" class="f">$m</text></svg><svg x="288"><use xlink:href="#a"/><use xlink:href="#b" x="10.996"/><text y="1.67" class="f">passing</text><text x="8.016" y="1.67" class="f">$ma</text></svg><svg x="384"><use xlink:href="#a"/><use xlink:href="#b" x="11.996"/><text y="1.67" class="f">passing</text><text x="8.016" y="1.67" class="f">$mak</text></svg><svg x="480"><use xlink:href="#a"/><use xlink:href="#b" x="12.996"/><use xlink:href="#2"/></svg><svg x="576"><use xlink:href="#a"/><use xlink:href="#b" x="-.004" y="2.146"/><use xlink:href="#2"/></svg><svg x="672"><use xlink:href="#a"/><use xlink:href="#b" x="-.004" y="4.317"/><use xlink:href="#2"/><use xlink:href="#3" y="2.171"/></svg><svg x="768"><use xlink:href="#a"/><use xlink:href="#b" x="-.004" y="6.488"/><use xlink:href="#2"/><use xlink:href="#3" y="2.171"/><use xlink:href="#4" y="4.342"/></svg><svg x="864"><use xlink:href="#a"/><use xlink:href="#b" x="-.004" y="8.659"/><use xlink:href="#2"/><use xlink:href="#3" y="2.171"/><use xlink:href="#4" y="4.342"/><use xlink:href="#5" y="6.513"/></svg><svg x="960"><use xlink:href="#a"/><use xlink:href="#b" x="-.004" y="10.83"/><use xlink:href="#2"/><use xlink:href="#3" y="2.171"/><use xlink:href="#4" y="4.342"/><use xlink:href="#5" y="6.513"/><use xlink:href="#6" y="8.684"/></svg><svg x="1056"><use xlink:href="#a"/><use xlink:href="#b" x="-.004" y="13.001"/><use xlink:href="#2"/><use xlink:href="#3" y="2.171"/><use xlink:href="#4" y="4.342"/><use xlink:href="#5" y="6.513"/><use xlink:href="#6" y="8.684"/><use xlink:href="#7" y="10.855"/></svg><svg x="1152"><use xlink:href="#a"/><use xlink:href="#b" x="8.996" y="13.001"/><use xlink:href="#2"/><use xlink:href="#3" y="2.171"/><use xlink:href="#4" y="4.342"/><use xlink:href="#5" y="6.513"/><use xlink:href="#6" y="8.684"/><use xlink:href="#7" y="10.855"/><use xlink:href="#1" y="13.026"/></svg><svg x="1248"><use xlink:href="#a"/><use xlink:href="#b" x="9.996" y="13.001"/><use xlink:href="#2"/><use xlink:href="#3" y="2.171"/><use xlink:href="#4" y="4.342"/><use xlink:href="#5" y="6.513"/><use xlink:href="#6" y="8.684"/><use xlink:href="#7" y="10.855"/><text y="14.696" class="f">passing</text><text x="8.016" y="14.696" class="f">$c</text></svg><svg x="1344"><use xlink:href="#a"/><use xlink:href="#b" x="10.996" y="13.001"/><use xlink:href="#2"/><use xlink:href="#3" y="2.171"/><use xlink:href="#4" y="4.342"/><use xlink:href="#5" y="6.513"/><use xlink:href="#6" y="8.684"/><use xlink:href="#7" y="10.855"/><text y="14.696" class="f">passing</text><text x="8.016" y="14.696" class="f">$cl</text></svg><svg x="1440"><use xlink:href="#a"/><use xlink:href="#b" x="11.996" y="13.001"/><use xlink:href="#2"/><use xlink:href="#3" y="2.171"/><use xlink:href="#4" y="4.342"/><use xlink:href="#5" y="6.513"/><use xlink:href="#6" y="8.684"/><use xlink:href="#7" y="10.855"/><text y="14.696" class="f">passing</text><text x="8.016" y="14.696" class="f">$cle</text></svg><svg x="1536"><use xlink:href="#a"/><use xlink:href="#b" x="12.996" y="13.001"/><use xlink:href="#2"/><use xlink:href="#3" y="2.171"/><use xlink:href="#4" y="4.342"/><use xlink:href="#5" y="6.513"/><use xlink:href="#6" y="8.684"/><use xlink:href="#7" y="10.855"/><text y="14.696" class="f">passing</text><text x="8.016" y="14.696" class="f">$clea</text></svg><svg x="1632"><use xlink:href="#a"/><use xlink:href="#b" x="13.996" y="13.001"/><use xlink:href="#2"/><use xlink:href="#3" y="2.171"/><use xlink:href="#4" y="4.342"/><use xlink:href="#5" y="6.513"/><use xlink:href="#6" y="8.684"/><use xlink:href="#7" y="10.855"/><use xlink:href="#8" y="13.026"/></svg><svg x="1728"><use xlink:href="#a"/><use xlink:href="#b" x="-.004" y="15.172"/><use xlink:href="#2"/><use xlink:href="#3" y="2.171"/><use xlink:href="#4" y="4.342"/><use xlink:href="#5" y="6.513"/><use xlink:href="#6" y="8.684"/><use xlink:href="#7" y="10.855"/><use xlink:href="#8" y="13.026"/></svg><svg x="1824"><use xlink:href="#a"/><use xlink:href="#b" x="-.004"/></svg><svg x="1920"><use xlink:href="#a"/><use xlink:href="#b" x="8.996"/><use xlink:href="#1"/></svg><svg x="2016"><use xlink:href="#a"/><use xlink:href="#b" x="9.996"/><text y="1.67" class="f">passing</text><text x="8.016" y="1.67" class="f">$b</text></svg><svg x="2112"><use xlink:href="#a"/><use xlink:href="#b" x="10.996"/><text y="1.67" class="f">passing</text><text x="8.016" y="1.67" class="f">$bi</text></svg><svg x="2208"><use xlink:href="#a"/><use xlink:href="#b" x="11.996"/><text y="1.67" class="f">passing</text><text x="8.016" y="1.67" class="f">$bin</text></svg><svg x="2304"><use xlink:href="#a"/><use xlink:href="#b" x="12.996"/><text y="1.67" class="f">passing</text><text x="8.016" y="1.67" class="f">$bin/</text></svg><svg x="2400"><use xlink:href="#a"/><use xlink:href="#b" x="13.996"/><text y="1.67" class="f">passing</text><text x="8.016" y="1.67" class="f">$bin/m</text></svg><svg x="2496"><use xlink:href="#a"/><use xlink:href="#b" x="14.996"/><text y="1.67" class="f">passing</text><text x="8.016" y="1.67" class="f">$bin/ma</text></svg><svg x="2592"><use xlink:href="#a"/><use xlink:href="#b" x="15.996"/><text y="1.67" class="f">passing</text><text x="8.016" y="1.67" class="f">$bin/mai</text></svg><svg x="2688"><use xlink:href="#a"/><use xlink:href="#b" x="16.996"/><use xlink:href="#9"/></svg><svg x="2784"><use xlink:href="#a"/><use xlink:href="#b" x="-.004" y="2.146"/><use xlink:href="#9"/></svg><svg x="2880"><use xlink:href="#a"/><use xlink:href="#b" x="-.004" y="6.488"/><use xlink:href="#9"/><use xlink:href="#10" y="2.171"/><use xlink:href="#11" y="4.342"/></svg><svg x="2976"><use xlink:href="#a"/><use xlink:href="#b" x="11.996" y="23.856"/><use xlink:href="#9"/><use xlink:href="#10" y="2.171"/><use xlink:href="#11" y="4.342"/><use xlink:href="#12" y="6.513"/><use xlink:href="#13" y="8.684"/><use xlink:href="#14" y="10.855"/><use xlink:href="#15" y="13.026"/><use xlink:href="#16" y="15.197"/><use xlink:href="#17" y="17.368"/><use xlink:href="#18" y="19.539"/><use xlink:href="#19" y="21.71"/><use xlink:href="#20" y="23.881"/></svg><svg x="3072"><use xlink:href="#a"/><use xlink:href="#b" x="-.004" y="26.027"/><use xlink:href="#9"/><use xlink:href="#10" y="2.171"/><use xlink:href="#11" y="4.342"/><use xlink:href="#12" y="6.513"/><use xlink:href="#13" y="8.684"/><use xlink:href="#14" y="10.855"/><use xlink:href="#15" y="13.026"/><use xlink:href="#16" y="15.197"/><use xlink:href="#17" y="17.368"/><use xlink:href="#18" y="19.539"/><use xlink:href="#19" y="21.71"/><use xlink:href="#20" y="23.881"/></svg><svg x="3168"><use xlink:href="#a"/><use xlink:href="#b" x="-.004" y="28.198"/><use xlink:href="#9"/><use xlink:href="#10" y="2.171"/><use xlink:href="#11" y="4.342"/><use xlink:href="#12" y="6.513"/><use xlink:href="#13" y="8.684"/><use xlink:href="#14" y="10.855"/><use xlink:href="#15" y="13.026"/><use xlink:href="#16" y="15.197"/><use xlink:href="#17" y="17.368"/><use xlink:href="#18" y="19.539"/><use xlink:href="#19" y="21.71"/><use xlink:href="#20" y="23.881"/></svg><svg x="3264"><use xlink:href="#a"/><use xlink:href="#b" x="-.004" y="28.198"/><use xlink:href="#9"/><use xlink:href="#10" y="2.171"/><use xlink:href="#11" y="4.342"/><use xlink:href="#12" y="6.513"/><use xlink:href="#13" y="8.684"/><use xlink:href="#14" y="10.855"/><use xlink:href="#15" y="13.026"/><use xlink:href="#16" y="15.197"/><use xlink:href="#17" y="17.368"/><use xlink:href="#18" y="19.539"/><use xlink:href="#19" y="21.71"/><use xlink:href="#20" y="23.881"/><use xlink:href="#21" y="28.223"/></svg><svg x="3360"><use xlink:href="#a"/><use xlink:href="#b" x="-.004" y="36.882"/><use xlink:href="#9"/><use xlink:href="#10" y="2.171"/><use xlink:href="#11" y="4.342"/><use xlink:href="#12" y="6.513"/><use xlink:href="#13" y="8.684"/><use xlink:href="#14" y="10.855"/><use xlink:href="#15" y="13.026"/><use xlink:href="#16" y="15.197"/><use xlink:href="#17" y="17.368"/><use xlink:href="#18" y="19.539"/><use xlink:href="#19" y="21.71"/><use xlink:href="#20" y="23.881"/><use xlink:href="#21" y="28.223"/><use xlink:href="#22" y="30.394"/><use xlink:href="#23" y="32.565"/><use xlink:href="#24" y="34.736"/></svg><svg x="3456"><use xlink:href="#a"/><use xlink:href="#b" x="-.004" y="56.421"/><use xlink:href="#9"/><use xlink:href="#10" y="2.171"/><use xlink:href="#11" y="4.342"/><use xlink:href="#12" y="6.513"/><use xlink:href="#13" y="8.684"/><use xlink:href="#14" y="10.855"/><use xlink:href="#15" y="13.026"/><use xlink:href="#16" y="15.197"/><use xlink:href="#17" y="17.368"/><use xlink:href="#18" y="19.539"/><use xlink:href="#19" y="21.71"/><use xlink:href="#20" y="23.881"/><use xlink:href="#21" y="28.223"/><use xlink:href="#22" y="30.394"/><use xlink:href="#23" y="32.565"/><use xlink:href="#24" y="34.736"/><use xlink:href="#25" y="36.907"/><use xlink:href="#26" y="39.078"/><use xlink:href="#27" y="41.249"/><use xlink:href="#28" y="43.42"/><use xlink:href="#29" y="47.762"/><use xlink:href="#30" y="49.933"/><use xlink:href="#31" y="52.104"/><use xlink:href="#32" y="54.275"/></svg><svg x="3552"><use xlink:href="#a"/><use xlink:href="#b" x="8.996" y="56.421"/><use xlink:href="#9"/><use xlink:href="#10" y="2.171"/><use xlink:href="#11" y="4.342"/><use xlink:href="#12" y="6.513"/><use xlink:href="#13" y="8.684"/><use xlink:href="#14" y="10.855"/><use xlink:href="#15" y="13.026"/><use xlink:href="#16" y="15.197"/><use xlink:href="#17" y="17.368"/><use xlink:href="#18" y="19.539"/><use xlink:href="#19" y="21.71"/><use xlink:href="#20" y="23.881"/><use xlink:href="#21" y="28.223"/><use xlink:href="#22" y="30.394"/><use xlink:href="#23" y="32.565"/><use xlink:href="#24" y="34.736"/><use xlink:href="#25" y="36.907"/><use xlink:href="#26" y="39.078"/><use xlink:href="#27" y="41.249"/><use xlink:href="#28" y="43.42"/><use xlink:href="#29" y="47.762"/><use xlink:href="#30" y="49.933"/><use xlink:href="#31" y="52.104"/><use xlink:href="#32" y="54.275"/><use xlink:href="#1" y="56.446"/></svg><svg x="3648"><use xlink:href="#a"/><use xlink:href="#b" x="-.004" y="58.592"/><use xlink:href="#9"/><use xlink:href="#10" y="2.171"/><use xlink:href="#11" y="4.342"/><use xlink:href="#12" y="6.513"/><use xlink:href="#13" y="8.684"/><use xlink:href="#14" y="10.855"/><use xlink:href="#15" y="13.026"/><use xlink:href="#16" y="15.197"/><use xlink:href="#17" y="17.368"/><use xlink:href="#18" y="19.539"/><use xlink:href="#19" y="21.71"/><use xlink:href="#20" y="23.881"/><use xlink:href="#21" y="28.223"/><use xlink:href="#22" y="30.394"/><use xlink:href="#23" y="32.565"/><use xlink:href="#24" y="34.736"/><use xlink:href="#25" y="36.907"/><use xlink:href="#26" y="39.078"/><use xlink:href="#27" y="41.249"/><use xlink:href="#28" y="43.42"/><use xlink:href="#29" y="47.762"/><use xlink:href="#30" y="49.933"/><use xlink:href="#31" y="52.104"/><use xlink:href="#32" y="54.275"/><text y="58.116" class="f">passing</text><text x="8.016" y="58.116" class="f">$exit</text></svg></svg></g></g></svg></svg>