<svg xmlns="http://www.w3.org/2000/svg" xmlns:xlink="http://www.w3.org/1999/xlink" width="1000" height="993.53"><rect width="1000" height="993.53" rx="5" ry="5" class="a"/><svg y="0%" x="0%"><circle cx="20" cy="20" r="6" fill="#ff5f58"/><circle cx="40" cy="20" r="6" fill="#ffbd2e"/><circle cx="60" cy="20" r="6" fill="#18c132"/></svg><svg height="933.53" viewBox="0 0 96 93.353" width="960" x="15" xmlns="http://www.w3.org/2000/svg" xmlns:xlink="http://www.w3.org/1999/xlink" y="50"><style>@keyframes i{0%{transform:translateX(0)}.05%{transform:translateX(-96px)}1.75%{transform:translateX(-192px)}2.35%{transform:translateX(-288px)}3.17%{transform:translateX(-384px)}3.78%{transform:translateX(-480px)}4.48%{transform:translateX(-576px)}4.52%{transform:translateX(-672px)}6.95%{transform:translateX(-768px)}8.29%{transform:translateX(-864px)}8.64%{transform:translateX(-960px)}10.78%{transform:translateX(-1056px)}11.47%{transform:translateX(-1152px)}12.03%{transform:translateX(-1248px)}12.42%{transform:translateX(-1344px)}12.88%{transform:translateX(-1440px)}13.71%{transform:translateX(-1536px)}13.73%{transform:translateX(-1632px)}13.74%{transform:translateX(-1728px)}15.93%{transform:translateX(-1824px)}16.89%{transform:translateX(-1920px)}17.84%{transform:translateX(-2016px)}19.06%{transform:translateX(-2112px)}20.23%{transform:translateX(-2208px)}20.77%{transform:translateX(-2304px)}21.6%{transform:translateX(-2400px)}22.15%{transform:translateX(-2496px)}22.94%{transform:translateX(-2592px)}22.97%{transform:translateX(-2688px)}34.22%{transform:translateX(-2784px)}34.61%{transform:translateX(-2880px)}49.91%{transform:translateX(-2976px)}60.99%{transform:translateX(-3072px)}61%{transform:translateX(-3264px)}to{transform:translateX(-3360px)}}.a{fill:#000}.f{fill:#28fe14;white-space:pre}</style><g font-family="Monaco,Consolas,Menlo,'Bitstream Vera Sans Mono','Powerline Symbols',monospace" font-size="1.67"><defs><symbol id="1"><text y="1.67" class="f">url_finder</text><text x="11.022" y="1.67" class="f">$</text></symbol><symbol id="2"><text y="1.67" class="f">url_finder</text><text x="11.022" y="1.67" class="f">$make</text></symbol><symbol id="3"><text y="1.67" class="f">g++</text><text x="4.008" y="1.67" class="f">-o</text><text x="7.014" y="1.67" class="f">obj/main.o</text><text x="18.036" y="1.67" class="f">-c</text><text x="21.042" y="1.67" class="f">src/main.cpp</text></symbol><symbol id="4"><text y="1.67" class="f">g++</text><text x="4.008" y="1.67" class="f">-o</text><text x="7.014" y="1.67" class="f">obj/find_urls.o</text><text x="23.046" y="1.67" class="f">-c</text><text x="26.052" y="1.67" class="f">src/find_urls.cpp</text></symbol><symbol id="5"><text y="1.67" class="f">g++</text><text x="4.008" y="1.67" class="f">-g</text><text x="7.014" y="1.67" class="f">-Wall</text><text x="13.026" y="1.67" class="f">-o</text><text x="16.032" y="1.67" class="f">bin/main</text><text x="25.05" y="1.67" class="f">obj/main.o</text><text x="36.072" y="1.67" class="f">obj/find_urls.o</text></symbol><symbol id="6"><text y="1.67" class="f">url_finder</text><text x="11.022" y="1.67" class="f">$clear</text></symbol><symbol id="7"><text y="1.67" class="f">url_finder</text><text x="11.022" y="1.67" class="f">$bin/main</text></symbol><symbol id="8"><text y="1.67" class="f">Input</text><text x="6.012" y="1.67" class="f">lines</text><text x="12.024" y="1.67" class="f">of</text><text x="15.03" y="1.67" class="f">text</text><text x="20.04" y="1.67" class="f">to</text><text x="23.046" y="1.67" class="f">extract</text><text x="31.062" y="1.67" class="f">any</text><text x="35.07" y="1.67" class="f">URLs</text><text x="40.08" y="1.67" class="f">found</text><text x="46.092" y="1.67" class="f">in</text><text x="49.098" y="1.67" class="f">each:</text></symbol><symbol id="9"><text y="1.67" class="f">There</text><text x="6.012" y="1.67" class="f">exist</text><text x="12.024" y="1.67" class="f">plenty</text><text x="19.038" y="1.67" class="f">of</text><text x="22.044" y="1.67" class="f">resources</text><text x="32.064" y="1.67" class="f">to</text><text x="35.07" y="1.67" class="f">learn</text><text x="41.082" y="1.67" class="f">C++,</text><text x="46.092" y="1.67" class="f">most</text><text x="51.102" y="1.67" class="f">of</text><text x="54.108" y="1.67" class="f">which</text><text x="60.12" y="1.67" class="f">can</text><text x="64.128" y="1.67" class="f">be</text><text x="67.134" y="1.67" class="f">found</text><text x="73.146" y="1.67" class="f">by</text></symbol><symbol id="10"><text y="1.67" class="f">simply</text><text x="7.014" y="1.67" class="f">browsing</text><text x="16.032" y="1.67" class="f">from</text><text x="21.042" y="1.67" class="f">https://www.google.com</text><text x="44.088" y="1.67" class="f">.</text><text x="46.092" y="1.67" class="f">In</text><text x="49.098" y="1.67" class="f">particular,</text><text x="61.122" y="1.67" class="f">one</text><text x="65.13" y="1.67" class="f">can</text><text x="69.138" y="1.67" class="f">find</text></symbol><symbol id="11"><text y="1.67" class="f">tutorials</text><text x="10.02" y="1.67" class="f">for</text><text x="14.028" y="1.67" class="f">free</text><text x="19.038" y="1.67" class="f">by</text><text x="22.044" y="1.67" class="f">visiting</text><text x="31.062" y="1.67" class="f">https://www.learncpp.com</text><text x="56.112" y="1.67" class="f">.</text><text x="58.116" y="1.67" class="f">For</text><text x="62.124" y="1.67" class="f">a</text><text x="64.128" y="1.67" class="f">reference,</text></symbol><symbol id="12"><text y="1.67" class="f">visit</text><text x="6.012" y="1.67" class="f">https://en.cppreference.com</text><text x="34.068" y="1.67" class="f">or</text><text x="37.074" y="1.67" class="f">https://cplusplus.com</text><text x="59.118" y="1.67" class="f">.</text></symbol><symbol id="13"><text y="1.67" class="f">Useful</text><text x="7.014" y="1.67" class="f">development</text><text x="19.038" y="1.67" class="f">tools</text><text x="25.05" y="1.67" class="f">for</text><text x="29.058" y="1.67" class="f">producing</text><text x="39.078" y="1.67" class="f">C++</text><text x="43.086" y="1.67" class="f">source</text><text x="50.1" y="1.67" class="f">code</text><text x="55.11" y="1.67" class="f">can</text><text x="59.118" y="1.67" class="f">be</text><text x="62.124" y="1.67" class="f">found</text><text x="68.136" y="1.67" class="f">from</text><text x="73.146" y="1.67" class="f">the</text></symbol><symbol id="14"><text y="1.67" class="f">links</text><text x="6.012" y="1.67" class="f">-</text><text x="8.016" y="1.67" class="f">https://www.kdevelop.org</text><text x="33.066" y="1.67" class="f">,</text></symbol><symbol id="15"><text y="1.67" class="f">https://www.eclipse.org/downloads/packages/release/2022-06/r/eclipse-ide-cc-developers</text><text x="87.174" y="1.67" class="f">,</text></symbol><symbol id="16"><text y="1.67" class="f">https://code.visualstudio.com</text><text x="30.06" y="1.67" class="f">,</text><text x="32.064" y="1.67" class="f">https://developer.apple.com/xcode/</text><text x="67.134" y="1.67" class="f">(macOS</text><text x="74.148" y="1.67" class="f">only),</text></symbol><symbol id="17"><text y="1.67" class="f">and</text><text x="4.008" y="1.67" class="f">https://netbeans.apache.org/download/</text><text x="42.084" y="1.67" class="f">.</text></symbol><symbol id="18"><text y="1.67" class="f">For</text><text x="4.008" y="1.67" class="f">books</text><text x="10.02" y="1.67" class="f">covering</text><text x="19.038" y="1.67" class="f">C++,</text><text x="24.048" y="1.67" class="f">plenty</text><text x="31.062" y="1.67" class="f">can</text><text x="35.07" y="1.67" class="f">be</text><text x="38.076" y="1.67" class="f">found</text><text x="44.088" y="1.67" class="f">from</text><text x="49.098" y="1.67" class="f">https://www.amazon.co.uk</text><text x="74.148" y="1.67" class="f">,</text></symbol><symbol id="19"><text y="1.67" class="f">such</text><text x="5.01" y="1.67" class="f">as</text><text x="8.016" y="1.67" class="f">those</text><text x="14.028" y="1.67" class="f">found</text><text x="20.04" y="1.67" class="f">from</text><text x="25.05" y="1.67" class="f">the</text><text x="29.058" y="1.67" class="f">following</text><text x="39.078" y="1.67" class="f">links:</text></symbol><symbol id="20"><text y="1.67" class="f">https://www.amazon.co.uk/C-Programming-Language-Bjarne-Stroustrup/dp/0321958322</text><text x="80.16" y="1.67" class="f">,</text></symbol><symbol id="21"><text y="1.67" class="f">https://www.amazon.co.uk/Accelerated-Practical-Programming-Example-Depth/dp/020170353X</text><text x="87.174" y="1.67" class="f">,</text></symbol><symbol id="22"><text y="1.67" class="f">https://www.amazon.co.uk/Tour-C-Depth/dp/0321958314</text><text x="52.104" y="1.67" class="f">,</text></symbol><symbol id="23"><text y="1.67" class="f">https://www.amazon.co.uk/Effective-Specifofessional-Compu21334876</text><text x="66.132" y="1.67" class="f">.</text></symbol><symbol id="24"><text y="1.67" class="f">The</text><text x="4.008" y="1.67" class="f">website</text><text x="12.024" y="1.67" class="f">of</text><text x="15.03" y="1.67" class="f">the</text><text x="19.038" y="1.67" class="f">creator</text><text x="27.054" y="1.67" class="f">of</text><text x="30.06" y="1.67" class="f">C++</text><text x="34.068" y="1.67" class="f">can</text><text x="38.076" y="1.67" class="f">be</text><text x="41.082" y="1.67" class="f">found</text><text x="47.094" y="1.67" class="f">by</text><text x="50.1" y="1.67" class="f">visiting</text><text x="59.118" y="1.67" class="f">the</text><text x="63.126" y="1.67" class="f">link</text><text x="68.136" y="1.67" class="f">-</text></symbol><symbol id="25"><text y="1.67" class="f">https://www.stroustrup.com/index.html</text><text x="38.076" y="1.67" class="f">.</text></symbol><symbol id="26"><text y="1.67" class="f">^D</text></symbol><symbol id="27"><text y="1.67" class="f">URLs</text><text x="5.01" y="1.67" class="f">found:</text></symbol><symbol id="28"><text y="1.67" class="f">https://www.google.com</text></symbol><symbol id="29"><text y="1.67" class="f">https://www.learncpp.com</text></symbol><symbol id="30"><text y="1.67" class="f">https://en.cppreference.com</text></symbol><symbol id="31"><text y="1.67" class="f">https://cplusplus.com</text></symbol><symbol id="32"><text y="1.67" class="f">https://www.kdevelop.org</text></symbol><symbol id="33"><text y="1.67" class="f">https://www.eclipse.org/downloads/packages/release/2022-06/r/eclipse-ide-cc-developers</text></symbol><symbol id="34"><text y="1.67" class="f">https://code.visualstudio.com</text></symbol><symbol id="35"><text y="1.67" class="f">https://developer.apple.com/xcode/</text></symbol><symbol id="36"><text y="1.67" class="f">https://netbeans.apache.org/download/</text></symbol><symbol id="37"><text y="1.67" class="f">https://www.amazon.co.uk</text></symbol><symbol id="38"><text y="1.67" class="f">https://www.amazon.co.uk/C-Programming-Language-Bjarne-Stroustrup/dp/0321958322</text></symbol><symbol id="39"><text y="1.67" class="f">https://www.amazon.co.uk/Accelerated-Practical-Programming-Example-Depth/dp/020170353X</text></symbol><symbol id="40"><text y="1.67" class="f">https://www.amazon.co.uk/Tour-C-Depth/dp/0321958314</text></symbol><symbol id="41"><text y="1.67" class="f">https://www.amazon.co.uk/Effective-Specific-Programs-Professional-Compu21334876</text></symbol><symbol id="42"><text y="1.67" class="f">https://www.stroustrup.com/index.html</text></symbol><symbol id="a"><path fill="transparent" d="M0 0h96v44H0z"/></symbol><symbol id="b"><path fill="#38fe27" d="M0 0h1.102v2.171H0z"/></symbol></defs><path class="a" d="M0 0h96v93.353H0z"/><g style="animation-duration:25.641275s;animation-iteration-count:infinite;animation-name:i;animation-timing-function:steps(1,end)"><svg width="3456"><svg><use xlink:href="#a"/><use xlink:href="#b" x="-.004"/></svg><svg x="96"><use xlink:href="#a"/><use xlink:href="#b" x="11.996"/><use xlink:href="#1"/></svg><svg x="192"><use xlink:href="#a"/><use xlink:href="#b" x="12.996"/><text y="1.67" class="f">url_finder</text><text x="11.022" y="1.67" class="f">$m</text></svg><svg x="288"><use xlink:href="#a"/><use xlink:href="#b" x="13.996"/><text y="1.67" class="f">url_finder</text><text x="11.022" y="1.67" class="f">$ma</text></svg><svg x="384"><use xlink:href="#a"/><use xlink:href="#b" x="14.996"/><text y="1.67" class="f">url_finder</text><text x="11.022" y="1.67" class="f">$mak</text></svg><svg x="480"><use xlink:href="#a"/><use xlink:href="#b" x="15.996"/><use xlink:href="#2"/></svg><svg x="576"><use xlink:href="#a"/><use xlink:href="#b" x="-.004" y="2.146"/><use xlink:href="#2"/></svg><svg x="672"><use xlink:href="#a"/><use xlink:href="#b" x="-.004" y="4.317"/><use xlink:href="#2"/><use xlink:href="#3" y="2.171"/></svg><svg x="768"><use xlink:href="#a"/><use xlink:href="#b" x="-.004" y="6.488"/><use xlink:href="#2"/><use xlink:href="#3" y="2.171"/><use xlink:href="#4" y="4.342"/></svg><svg x="864"><use xlink:href="#a"/><use xlink:href="#b" x="-.004" y="8.659"/><use xlink:href="#2"/><use xlink:href="#3" y="2.171"/><use xlink:href="#4" y="4.342"/><use xlink:href="#5" y="6.513"/></svg><svg x="960"><use xlink:href="#a"/><use xlink:href="#b" x="11.996" y="8.659"/><use xlink:href="#2"/><use xlink:href="#3" y="2.171"/><use xlink:href="#4" y="4.342"/><use xlink:href="#5" y="6.513"/><use xlink:href="#1" y="8.684"/></svg><svg x="1056"><use xlink:href="#a"/><use xlink:href="#b" x="12.996" y="8.659"/><use xlink:href="#2"/><use xlink:href="#3" y="2.171"/><use xlink:href="#4" y="4.342"/><use xlink:href="#5" y="6.513"/><text y="10.354" class="f">url_finder</text><text x="11.022" y="10.354" class="f">$c</text></svg><svg x="1152"><use xlink:href="#a"/><use xlink:href="#b" x="13.996" y="8.659"/><use xlink:href="#2"/><use xlink:href="#3" y="2.171"/><use xlink:href="#4" y="4.342"/><use xlink:href="#5" y="6.513"/><text y="10.354" class="f">url_finder</text><text x="11.022" y="10.354" class="f">$cl</text></svg><svg x="1248"><use xlink:href="#a"/><use xlink:href="#b" x="14.996" y="8.659"/><use xlink:href="#2"/><use xlink:href="#3" y="2.171"/><use xlink:href="#4" y="4.342"/><use xlink:href="#5" y="6.513"/><text y="10.354" class="f">url_finder</text><text x="11.022" y="10.354" class="f">$cle</text></svg><svg x="1344"><use xlink:href="#a"/><use xlink:href="#b" x="15.996" y="8.659"/><use xlink:href="#2"/><use xlink:href="#3" y="2.171"/><use xlink:href="#4" y="4.342"/><use xlink:href="#5" y="6.513"/><text y="10.354" class="f">url_finder</text><text x="11.022" y="10.354" class="f">$clea</text></svg><svg x="1440"><use xlink:href="#a"/><use xlink:href="#b" x="16.996" y="8.659"/><use xlink:href="#2"/><use xlink:href="#3" y="2.171"/><use xlink:href="#4" y="4.342"/><use xlink:href="#5" y="6.513"/><use xlink:href="#6" y="8.684"/></svg><svg x="1536"><use xlink:href="#a"/><use xlink:href="#b" x="-.004" y="10.83"/><use xlink:href="#2"/><use xlink:href="#3" y="2.171"/><use xlink:href="#4" y="4.342"/><use xlink:href="#5" y="6.513"/><use xlink:href="#6" y="8.684"/></svg><svg x="1632"><use xlink:href="#a"/><use xlink:href="#b" x="-.004"/></svg><svg x="1728"><use xlink:href="#a"/><use xlink:href="#b" x="11.996"/><use xlink:href="#1"/></svg><svg x="1824"><use xlink:href="#a"/><use xlink:href="#b" x="12.996"/><text y="1.67" class="f">url_finder</text><text x="11.022" y="1.67" class="f">$b</text></svg><svg x="1920"><use xlink:href="#a"/><use xlink:href="#b" x="13.996"/><text y="1.67" class="f">url_finder</text><text x="11.022" y="1.67" class="f">$bi</text></svg><svg x="2016"><use xlink:href="#a"/><use xlink:href="#b" x="14.996"/><text y="1.67" class="f">url_finder</text><text x="11.022" y="1.67" class="f">$bin</text></svg><svg x="2112"><use xlink:href="#a"/><use xlink:href="#b" x="15.996"/><text y="1.67" class="f">url_finder</text><text x="11.022" y="1.67" class="f">$bin/</text></svg><svg x="2208"><use xlink:href="#a"/><use xlink:href="#b" x="16.996"/><text y="1.67" class="f">url_finder</text><text x="11.022" y="1.67" class="f">$bin/m</text></svg><svg x="2304"><use xlink:href="#a"/><use xlink:href="#b" x="17.996"/><text y="1.67" class="f">url_finder</text><text x="11.022" y="1.67" class="f">$bin/ma</text></svg><svg x="2400"><use xlink:href="#a"/><use xlink:href="#b" x="18.996"/><text y="1.67" class="f">url_finder</text><text x="11.022" y="1.67" class="f">$bin/mai</text></svg><svg x="2496"><use xlink:href="#a"/><use xlink:href="#b" x="19.996"/><use xlink:href="#7"/></svg><svg x="2592"><use xlink:href="#a"/><use xlink:href="#b" x="-.004" y="2.146"/><use xlink:href="#7"/></svg><svg x="2688"><use xlink:href="#a"/><use xlink:href="#b" x="-.004" y="6.488"/><use xlink:href="#7"/><use xlink:href="#8" y="2.171"/></svg><svg x="2784"><use xlink:href="#a"/><use xlink:href="#b" x="40.996" y="41.224"/><use xlink:href="#7"/><use xlink:href="#8" y="2.171"/><use xlink:href="#9" y="6.513"/><use xlink:href="#10" y="8.684"/><use xlink:href="#11" y="10.855"/><use xlink:href="#12" y="13.026"/><use xlink:href="#13" y="17.368"/><use xlink:href="#14" y="19.539"/><use xlink:href="#15" y="21.71"/><use xlink:href="#16" y="23.881"/><use xlink:href="#17" y="26.052"/><use xlink:href="#18" y="30.394"/><use xlink:href="#19" y="32.565"/><use xlink:href="#20" y="34.736"/><use xlink:href="#21" y="36.907"/><use xlink:href="#22" y="39.078"/><text y="42.919" class="f">https://www.amazon.co.uk/Effective-Specif</text></svg><svg x="2880"><use xlink:href="#a"/><use xlink:href="#b" x="38.996" y="47.737"/><use xlink:href="#7"/><use xlink:href="#8" y="2.171"/><use xlink:href="#9" y="6.513"/><use xlink:href="#10" y="8.684"/><use xlink:href="#11" y="10.855"/><use xlink:href="#12" y="13.026"/><use xlink:href="#13" y="17.368"/><use xlink:href="#14" y="19.539"/><use xlink:href="#15" y="21.71"/><use xlink:href="#16" y="23.881"/><use xlink:href="#17" y="26.052"/><use xlink:href="#18" y="30.394"/><use xlink:href="#19" y="32.565"/><use xlink:href="#20" y="34.736"/><use xlink:href="#21" y="36.907"/><use xlink:href="#22" y="39.078"/><use xlink:href="#23" y="41.249"/><use xlink:href="#24" y="45.591"/><use xlink:href="#25" y="47.762"/></svg><svg x="2976"><use xlink:href="#a"/><use xlink:href="#b" x="-.004" y="49.908"/><use xlink:href="#7"/><use xlink:href="#8" y="2.171"/><use xlink:href="#9" y="6.513"/><use xlink:href="#10" y="8.684"/><use xlink:href="#11" y="10.855"/><use xlink:href="#12" y="13.026"/><use xlink:href="#13" y="17.368"/><use xlink:href="#14" y="19.539"/><use xlink:href="#15" y="21.71"/><use xlink:href="#16" y="23.881"/><use xlink:href="#17" y="26.052"/><use xlink:href="#18" y="30.394"/><use xlink:href="#19" y="32.565"/><use xlink:href="#20" y="34.736"/><use xlink:href="#21" y="36.907"/><use xlink:href="#22" y="39.078"/><use xlink:href="#23" y="41.249"/><use xlink:href="#24" y="45.591"/><use xlink:href="#25" y="47.762"/></svg><svg x="3072"><use xlink:href="#a"/><use xlink:href="#b" x="-.004" y="52.079"/><use xlink:href="#7"/><use xlink:href="#8" y="2.171"/><use xlink:href="#9" y="6.513"/><use xlink:href="#10" y="8.684"/><use xlink:href="#11" y="10.855"/><use xlink:href="#12" y="13.026"/><use xlink:href="#13" y="17.368"/><use xlink:href="#14" y="19.539"/><use xlink:href="#15" y="21.71"/><use xlink:href="#16" y="23.881"/><use xlink:href="#17" y="26.052"/><use xlink:href="#18" y="30.394"/><use xlink:href="#19" y="32.565"/><use xlink:href="#20" y="34.736"/><use xlink:href="#21" y="36.907"/><use xlink:href="#22" y="39.078"/><use xlink:href="#23" y="41.249"/><use xlink:href="#24" y="45.591"/><use xlink:href="#25" y="47.762"/><use xlink:href="#26" y="49.933"/></svg><svg x="3168"><use xlink:href="#a"/><use xlink:href="#b" x="-.004" y="88.986"/><use xlink:href="#7"/><use xlink:href="#8" y="2.171"/><use xlink:href="#9" y="6.513"/><use xlink:href="#10" y="8.684"/><use xlink:href="#11" y="10.855"/><use xlink:href="#12" y="13.026"/><use xlink:href="#13" y="17.368"/><use xlink:href="#14" y="19.539"/><use xlink:href="#15" y="21.71"/><use xlink:href="#16" y="23.881"/><use xlink:href="#17" y="26.052"/><use xlink:href="#18" y="30.394"/><use xlink:href="#19" y="32.565"/><use xlink:href="#20" y="34.736"/><use xlink:href="#21" y="36.907"/><use xlink:href="#22" y="39.078"/><use xlink:href="#23" y="41.249"/><use xlink:href="#24" y="45.591"/><use xlink:href="#25" y="47.762"/><use xlink:href="#26" y="49.933"/><use xlink:href="#27" y="54.275"/><use xlink:href="#28" y="56.446"/><use xlink:href="#29" y="58.617"/><use xlink:href="#30" y="60.788"/><use xlink:href="#31" y="62.959"/><use xlink:href="#32" y="65.13"/><use xlink:href="#33" y="67.301"/><use xlink:href="#34" y="69.472"/><use xlink:href="#35" y="71.643"/><use xlink:href="#36" y="73.814"/><use xlink:href="#37" y="75.985"/><use xlink:href="#38" y="78.156"/><use xlink:href="#39" y="80.327"/><use xlink:href="#40" y="82.498"/><use xlink:href="#41" y="84.669"/><use xlink:href="#42" y="86.84"/></svg><svg x="3264"><use xlink:href="#a"/><use xlink:href="#b" x="11.996" y="88.986"/><use xlink:href="#7"/><use xlink:href="#8" y="2.171"/><use xlink:href="#9" y="6.513"/><use xlink:href="#10" y="8.684"/><use xlink:href="#11" y="10.855"/><use xlink:href="#12" y="13.026"/><use xlink:href="#13" y="17.368"/><use xlink:href="#14" y="19.539"/><use xlink:href="#15" y="21.71"/><use xlink:href="#16" y="23.881"/><use xlink:href="#17" y="26.052"/><use xlink:href="#18" y="30.394"/><use xlink:href="#19" y="32.565"/><use xlink:href="#20" y="34.736"/><use xlink:href="#21" y="36.907"/><use xlink:href="#22" y="39.078"/><use xlink:href="#23" y="41.249"/><use xlink:href="#24" y="45.591"/><use xlink:href="#25" y="47.762"/><use xlink:href="#26" y="49.933"/><use xlink:href="#27" y="54.275"/><use xlink:href="#28" y="56.446"/><use xlink:href="#29" y="58.617"/><use xlink:href="#30" y="60.788"/><use xlink:href="#31" y="62.959"/><use xlink:href="#32" y="65.13"/><use xlink:href="#33" y="67.301"/><use xlink:href="#34" y="69.472"/><use xlink:href="#35" y="71.643"/><use xlink:href="#36" y="73.814"/><use xlink:href="#37" y="75.985"/><use xlink:href="#38" y="78.156"/><use xlink:href="#39" y="80.327"/><use xlink:href="#40" y="82.498"/><use xlink:href="#41" y="84.669"/><use xlink:href="#42" y="86.84"/><use xlink:href="#1" y="89.011"/></svg><svg x="3360"><use xlink:href="#a"/><use xlink:href="#b" x="-.004" y="91.157"/><use xlink:href="#7"/><use xlink:href="#8" y="2.171"/><use xlink:href="#9" y="6.513"/><use xlink:href="#10" y="8.684"/><use xlink:href="#11" y="10.855"/><use xlink:href="#12" y="13.026"/><use xlink:href="#13" y="17.368"/><use xlink:href="#14" y="19.539"/><use xlink:href="#15" y="21.71"/><use xlink:href="#16" y="23.881"/><use xlink:href="#17" y="26.052"/><use xlink:href="#18" y="30.394"/><use xlink:href="#19" y="32.565"/><use xlink:href="#20" y="34.736"/><use xlink:href="#21" y="36.907"/><use xlink:href="#22" y="39.078"/><use xlink:href="#23" y="41.249"/><use xlink:href="#24" y="45.591"/><use xlink:href="#25" y="47.762"/><use xlink:href="#26" y="49.933"/><use xlink:href="#27" y="54.275"/><use xlink:href="#28" y="56.446"/><use xlink:href="#29" y="58.617"/><use xlink:href="#30" y="60.788"/><use xlink:href="#31" y="62.959"/><use xlink:href="#32" y="65.13"/><use xlink:href="#33" y="67.301"/><use xlink:href="#34" y="69.472"/><use xlink:href="#35" y="71.643"/><use xlink:href="#36" y="73.814"/><use xlink:href="#37" y="75.985"/><use xlink:href="#38" y="78.156"/><use xlink:href="#39" y="80.327"/><use xlink:href="#40" y="82.498"/><use xlink:href="#41" y="84.669"/><use xlink:href="#42" y="86.84"/><text y="90.681" class="f">url_finder</text><text x="11.022" y="90.681" class="f">$exit</text></svg></svg></g></g></svg></svg>